<svg width="47" height="45" viewBox="0 0 47 45" fill="none" xmlns="http://www.w3.org/2000/svg">
<path d="M37.3562 5.25H39.9812C40.7061 5.25 41.2937 5.83763 41.2937 6.5625V10.5C41.2937 11.2249 40.7061 11.8125 39.9812 11.8125H37.3562V5.25Z" fill="url(#paint0_linear_378_4)"/>
<path d="M37.3562 13.125H39.9812C40.7061 13.125 41.2937 13.7126 41.2937 14.4375V18.375C41.2937 19.0999 40.7061 19.6875 39.9812 19.6875H37.3562V13.125Z" fill="url(#paint1_linear_378_4)"/>
<path d="M37.3562 21H39.9812C40.7061 21 41.2937 21.5876 41.2937 22.3125V26.25C41.2937 26.9749 40.7061 27.5625 39.9812 27.5625H37.3562V21Z" fill="url(#paint2_linear_378_4)"/>
<path d="M9.7937 6.5625C9.7937 4.38788 11.5566 2.625 13.7312 2.625H34.7312C36.9058 2.625 38.6687 4.38788 38.6687 6.5625V35.4375C38.6687 37.6121 36.9058 39.375 34.7312 39.375H13.7312C11.5566 39.375 9.7937 37.6121 9.7937 35.4375V6.5625Z" fill="url(#paint3_linear_378_4)"/>
<path d="M16.757 24.7364C17.3543 24.0183 18.1071 23.625 18.8846 23.625H29.5778C30.3553 23.625 31.1081 24.0183 31.7054 24.7364C32.5014 25.6934 32.0323 27.5625 30.9962 27.5625H17.4662C16.4301 27.5625 15.961 25.6934 16.757 24.7364Z" fill="url(#paint4_linear_378_4)"/>
<circle cx="24.2312" cy="17.0625" r="3.9375" fill="url(#paint5_linear_378_4)"/>
<path d="M8.40601 45C4.02582 45 0.474976 41.4183 0.474976 37C0.474976 32.5817 4.02582 29 8.40601 29H42.5095C44.6996 29 46.475 30.7909 46.475 33V41C46.475 43.2091 44.6996 45 42.5095 45H8.40601Z" fill="url(#paint6_linear_378_4)"/>
<path d="M12.2562 36.0303C12.7217 36.2288 13.0717 36.4925 13.306 36.8213C13.5437 37.1501 13.6625 37.5391 13.6625 37.9883C13.6625 38.6458 13.4525 39.1764 13.0326 39.5801C12.6159 39.9805 12.0625 40.1807 11.3724 40.1807C10.8093 40.1807 10.3373 40.0374 9.95642 39.751C9.57556 39.4613 9.3184 39.0511 9.18494 38.5205L9.95642 38.1396C10.0606 38.5726 10.2315 38.9014 10.4691 39.126C10.71 39.3473 11.0111 39.458 11.3724 39.458C11.7989 39.458 12.1439 39.3359 12.4076 39.0918C12.6713 38.8444 12.8031 38.5238 12.8031 38.1299C12.8031 37.8109 12.7103 37.5342 12.5248 37.2998C12.3425 37.0622 12.0658 36.862 11.6947 36.6992L10.8256 36.3281C10.3503 36.1296 9.99548 35.874 9.76111 35.5615C9.52999 35.249 9.41443 34.8747 9.41443 34.4385C9.41443 33.9307 9.60323 33.5107 9.98083 33.1787C10.3584 32.8467 10.8402 32.6807 11.4261 32.6807C11.8558 32.6807 12.2269 32.7718 12.5394 32.9541C12.8552 33.1364 13.101 33.4049 13.2767 33.7598L12.5736 34.209C12.4141 33.9323 12.2351 33.7272 12.0365 33.5938C11.8379 33.457 11.6133 33.3887 11.3627 33.3887C11.0437 33.3887 10.7816 33.4863 10.5765 33.6816C10.3747 33.877 10.2738 34.126 10.2738 34.4287C10.2738 34.6826 10.3519 34.9023 10.5082 35.0879C10.6644 35.2734 10.9069 35.4378 11.2357 35.5811L12.2562 36.0303ZM17.891 37.2607C17.8649 36.8669 17.7331 36.5641 17.4955 36.3525C17.2611 36.1377 16.9388 36.0303 16.5287 36.0303C16.1576 36.0303 15.8483 36.1426 15.601 36.3672C15.3536 36.5885 15.2103 36.8864 15.1713 37.2607H17.891ZM18.7113 37.8809H15.1713V37.9492C15.1713 38.4277 15.308 38.8151 15.5814 39.1113C15.8549 39.4043 16.2113 39.5508 16.6508 39.5508C16.9502 39.5508 17.2204 39.471 17.4613 39.3115C17.7022 39.1488 17.9154 38.9046 18.101 38.5791L18.682 38.9697C18.4574 39.3734 18.1709 39.6777 17.8226 39.8828C17.4743 40.0879 17.0707 40.1904 16.6117 40.1904C15.9314 40.1904 15.3812 39.9658 14.9613 39.5166C14.5414 39.0674 14.3314 38.4782 14.3314 37.749C14.3314 37.0492 14.5398 36.4762 14.9564 36.0303C15.3731 35.5843 15.9086 35.3613 16.5629 35.3613C17.2237 35.3613 17.7461 35.5729 18.1302 35.9961C18.5176 36.4193 18.7113 36.9971 18.7113 37.7295V37.8809ZM23.2865 37.7783C23.2865 37.277 23.1498 36.8734 22.8763 36.5674C22.6029 36.2614 22.2432 36.1084 21.7972 36.1084C21.3383 36.1084 20.9802 36.25 20.723 36.5332C20.4659 36.8164 20.3373 37.2119 20.3373 37.7197C20.3373 38.2601 20.4659 38.6768 20.723 38.9697C20.9834 39.2627 21.3513 39.4092 21.8265 39.4092C22.2823 39.4092 22.6387 39.266 22.8959 38.9795C23.1563 38.6898 23.2865 38.2894 23.2865 37.7783ZM24.0287 35.5322V39.9219C24.0287 40.4069 23.9961 40.752 23.931 40.957C23.8659 41.1621 23.7585 41.346 23.6088 41.5088C23.4004 41.7334 23.1449 41.901 22.8422 42.0117C22.5427 42.1224 22.1976 42.1777 21.807 42.1777C21.1299 42.1777 20.601 42.0231 20.2201 41.7139C19.8425 41.4046 19.6455 40.9668 19.6293 40.4004H20.4886V40.459C20.4886 40.7943 20.6042 41.0531 20.8353 41.2354C21.0664 41.4176 21.3936 41.5088 21.8168 41.5088C22.1228 41.5088 22.3832 41.4583 22.598 41.3574C22.8161 41.2598 22.9821 41.1133 23.0961 40.918C23.1644 40.8073 23.2133 40.6787 23.2426 40.5322C23.2719 40.3857 23.2865 40.1758 23.2865 39.9023V39.5508V39.1504C23.114 39.4694 22.8877 39.7152 22.6078 39.8877C22.3278 40.057 22.0137 40.1416 21.6654 40.1416C21.0241 40.1416 20.5066 39.9235 20.1127 39.4873C19.722 39.0511 19.5267 38.4717 19.5267 37.749C19.5267 37.0199 19.7172 36.4421 20.098 36.0156C20.4789 35.5859 20.9883 35.3711 21.6263 35.3711C21.9974 35.3711 22.323 35.4557 22.6029 35.625C22.8829 35.791 23.1042 36.0368 23.267 36.3623V35.5322H24.0287ZM28.7504 37.2607C28.7243 36.8669 28.5925 36.5641 28.3549 36.3525C28.1205 36.1377 27.7982 36.0303 27.3881 36.0303C27.017 36.0303 26.7077 36.1426 26.4603 36.3672C26.2129 36.5885 26.0697 36.8864 26.0306 37.2607H28.7504ZM29.5707 37.8809H26.0306V37.9492C26.0306 38.4277 26.1674 38.8151 26.4408 39.1113C26.7142 39.4043 27.0707 39.5508 27.5101 39.5508C27.8096 39.5508 28.0798 39.471 28.3207 39.3115C28.5616 39.1488 28.7748 38.9046 28.9603 38.5791L29.5414 38.9697C29.3168 39.3734 29.0303 39.6777 28.682 39.8828C28.3337 40.0879 27.9301 40.1904 27.4711 40.1904C26.7907 40.1904 26.2406 39.9658 25.8207 39.5166C25.4008 39.0674 25.1908 38.4782 25.1908 37.749C25.1908 37.0492 25.3991 36.4762 25.8158 36.0303C26.2325 35.5843 26.7679 35.3613 27.4222 35.3613C28.083 35.3613 28.6055 35.5729 28.9896 35.9961C29.377 36.4193 29.5707 36.9971 29.5707 37.7295V37.8809ZM30.7377 40V35.5322H31.4164V36.46C31.6215 36.0726 31.8396 35.7959 32.0707 35.6299C32.3018 35.4639 32.5834 35.3809 32.9154 35.3809C33.0066 35.3809 33.0944 35.389 33.1791 35.4053C33.2637 35.4183 33.3483 35.4395 33.433 35.4688L33.1791 36.1572C33.0912 36.1279 33.0082 36.1068 32.9301 36.0938C32.8519 36.0775 32.7771 36.0693 32.7054 36.0693C32.3018 36.0693 31.9991 36.2158 31.7972 36.5088C31.5954 36.7985 31.4945 37.2363 31.4945 37.8223V40H30.7377ZM37.6615 37.8076C37.6615 37.3031 37.5232 36.8978 37.2465 36.5918C36.973 36.2826 36.6149 36.1279 36.1722 36.1279C35.7133 36.1279 35.3552 36.2695 35.098 36.5527C34.8409 36.8359 34.7123 37.2314 34.7123 37.7393C34.7123 38.2796 34.8409 38.6963 35.098 38.9893C35.3584 39.2822 35.7263 39.4287 36.2015 39.4287C36.6573 39.4287 37.0137 39.2871 37.2709 39.0039C37.5313 38.7174 37.6615 38.3187 37.6615 37.8076ZM38.4037 35.5322V40H37.6615V39.1895C37.4825 39.515 37.253 39.764 36.973 39.9365C36.6963 40.1058 36.3855 40.1904 36.0404 40.1904C35.3991 40.1904 34.8816 39.9707 34.4877 39.5312C34.097 39.0885 33.9017 38.5042 33.9017 37.7783C33.9017 37.0426 34.0922 36.4583 34.473 36.0254C34.8539 35.5892 35.3633 35.3711 36.0013 35.3711C36.3757 35.3711 36.6996 35.4557 36.973 35.625C37.2497 35.791 37.4727 36.04 37.642 36.3721V35.5322H38.4037Z" fill="white"/>
<defs>
<linearGradient id="paint0_linear_378_4" x1="37.3562" y1="5.25" x2="43.1466" y2="8.72427" gradientUnits="userSpaceOnUse">
<stop stop-color="#F15700"/>
<stop offset="1" stop-color="#FF0000"/>
</linearGradient>
<linearGradient id="paint1_linear_378_4" x1="41.2937" y1="19.6875" x2="35.5033" y2="16.2132" gradientUnits="userSpaceOnUse">
<stop stop-color="#FF7E07"/>
<stop offset="1" stop-color="#FFE607"/>
</linearGradient>
<linearGradient id="paint2_linear_378_4" x1="41.2937" y1="27.5625" x2="35.5033" y2="24.0882" gradientUnits="userSpaceOnUse">
<stop stop-color="#5200FF"/>
<stop offset="1" stop-color="#0085FF"/>
</linearGradient>
<linearGradient id="paint3_linear_378_4" x1="9.7937" y1="2.625" x2="45.5003" y2="30.6802" gradientUnits="userSpaceOnUse">
<stop stop-color="#EFF2F6"/>
<stop offset="1" stop-color="#B7C6CD"/>
</linearGradient>
<linearGradient id="paint4_linear_378_4" x1="32.1062" y1="27.5625" x2="30.2533" y2="20.1507" gradientUnits="userSpaceOnUse">
<stop stop-color="#2E2E41"/>
<stop offset="1" stop-color="#566C80"/>
</linearGradient>
<linearGradient id="paint5_linear_378_4" x1="28.1687" y1="21" x2="20.2937" y2="13.125" gradientUnits="userSpaceOnUse">
<stop stop-color="#2E2E41"/>
<stop offset="1" stop-color="#566C80"/>
</linearGradient>
<linearGradient id="paint6_linear_378_4" x1="29.4233" y1="45" x2="29.4233" y2="29" gradientUnits="userSpaceOnUse">
<stop stop-color="#5200FF"/>
<stop offset="1" stop-color="#0085FF"/>
</linearGradient>
</defs>
</svg>
