<svg width="177" height="149" viewBox="0 0 177 149" fill="none" xmlns="http://www.w3.org/2000/svg">
<g clip-path="url(#clip0_79_2289)">
<path fill-rule="evenodd" clip-rule="evenodd" d="M109.238 83.1277C108.091 83.4946 106.943 83.8514 105.948 84.9113C102.09 89.0188 105.989 97.1114 113.492 95.8476C122.366 94.3493 123.127 83.4335 119.543 78.7145C120.823 77.5322 121.97 76.6149 123.645 75.718C130.722 71.9163 136.276 73.1292 143.139 76.4518C154.562 81.9862 157.1 78.2762 164.593 79.0101C168.735 79.4177 173.071 81.6193 174.533 85.4923C175.315 87.5613 174.452 86.4504 174.36 86.4504C171.893 86.4096 169.456 87.0415 167.314 88.5602C164.552 90.5273 163.831 92.7288 159.242 95.2055C154.897 97.5599 153.485 96.8159 150.074 97.458C145.16 98.3855 142.743 103.003 138.469 105.561C134.611 107.874 129.595 107.66 126.772 104.083C122.376 98.518 127.849 92.3924 132.681 92.9836C136.611 93.4626 136.682 97.4172 135.108 98.9868C134.103 99.9856 133.209 99.8022 132.032 99.0785C130.742 98.2937 129.666 100.128 130.813 100.913C133.951 103.033 137.047 101.341 137.981 98.3447C139.596 93.167 134.479 89.1513 128.976 91.3121C122.305 93.9315 120.66 102.554 126.864 107.212C126.173 107.783 125.422 108.302 124.498 108.618C121.279 109.709 119.157 108.608 116.731 106.763C112.72 103.736 111.34 103.145 106.344 103.879C97.45 105.194 98.0491 103.767 94.0081 98.1816C90.7997 93.748 86.5963 91.2305 80.9714 91.3019C78.8291 91.3223 78.5245 91.5873 77.3163 91.8115C77.5803 91.4853 77.6311 90.8024 78.6464 89.5386C82.9209 84.2081 88.9518 85.6554 93.8863 84.0144C97.9069 82.6793 99.2877 78.6737 103.562 76.676C107.491 74.8414 113.583 76.0339 116.771 78.9183C120.782 82.5569 119.858 90.1501 116.01 92.5861C111.979 95.1341 107.136 93.3913 106.649 89.2736C106.354 86.8173 107.969 85.8185 109.898 85.2069C111.268 84.7687 110.619 82.6793 109.238 83.1073V83.1277ZM131.636 109.179C137.139 109.954 140.824 106.916 144.52 103.461C150.703 97.672 150.592 100.465 156.521 98.732C163.344 96.7343 165.872 92.2905 168.583 90.354C173.02 87.1944 176.066 89.9667 176.878 87.3779C177.66 84.8808 174.655 81.0893 172.208 79.3974C165.669 74.872 158.877 77.471 154.409 77.3691C148.541 77.2366 145.474 74.8516 140.794 72.9763C132.438 69.623 124.6 71.0703 118.03 77.1245C115.573 74.9943 112.182 73.8936 108.954 73.6591C102.852 73.2209 100.141 75.9932 96.2621 79.8662C92.8811 83.2398 89.957 82.2818 84.9007 83.3825C77.8747 84.9113 73.6916 91.414 75.702 93.3913C77.1336 94.7876 79.4383 92.6982 84.4844 93.9518C91.1144 95.5928 92.2516 100.342 95.3889 103.95C99.7649 108.985 106.923 105.051 110.791 105.907C113.939 106.611 116.264 109.974 119.553 110.901C123.148 111.911 126.224 110.708 128.864 108.404C129.737 108.782 130.661 109.047 131.626 109.179H131.636Z" fill="white"/>
<path fill-rule="evenodd" clip-rule="evenodd" d="M70.1177 72.2118C70.2294 73.649 70.798 74.9637 71.6001 76.2174C74.2602 80.3758 78.0067 81.181 82.9107 80.2841C91.1043 78.7858 92.0384 75.2186 95.6529 71.5086C101.613 65.3729 107.37 69.8982 114.121 68.2777C116.873 67.6152 120 65.434 121.066 63.2529C122.234 60.8781 120.173 60.3379 118.426 59.9506C112.203 58.5645 112.324 57.5656 109.512 52.6224C103.715 42.4302 97.5617 45.8446 91.8861 44.4992C86.9313 43.3271 82.1594 35.1122 71.9554 36.4576C61.518 37.8335 56.4516 47.1186 49.4256 50.6145C42.2777 54.1716 36.3077 51.4197 35.7391 55.038C35.4041 57.1885 38.3282 59.8283 39.9933 61.0412C47.6691 66.6367 54.0453 64.211 57.0303 65.1996C61.4063 66.6367 61.7515 71.5494 70.1177 72.2322V72.2118ZM79.7835 64.8836C75.2146 62.7229 71.4173 65.9946 70.3309 70.0103C62.645 69.3886 62.98 64.8123 57.7106 63.0796C54.0148 61.8668 48.4001 64.425 41.2827 59.2372C40.3385 58.5543 37.7697 56.2406 37.9119 55.3437C37.9525 55.0889 44.1865 54.6303 45.7806 54.2634C56.7866 51.7561 61.0408 40.0758 72.2397 38.6081C79.6617 37.6297 83.4691 42.2977 88.2208 45.2534C93.2161 48.3519 97.8561 45.8854 102.547 48.1684C107.288 50.482 108.314 56.8318 111.492 59.4512C114.05 61.561 117.137 61.6833 119.066 62.3458C118.741 62.9369 117.959 63.8135 116.853 64.6085C112.71 67.5642 108.497 66.015 103.684 65.9538C93.734 65.8417 93.1349 73.7203 87.175 76.6251C84.7484 77.8074 80.8699 78.6839 78.1793 78.2864C75.2146 77.8481 73.052 75.2389 72.4326 72.8132C71.7321 70.0409 74.4836 64.7919 78.8596 66.8609C81.5603 68.135 80.7988 71.1519 78.8088 70.9684C77.3772 70.8359 77.164 73.017 78.5956 73.1495C81.8751 73.4655 83.2762 70.1632 82.6162 67.9005C84.0986 66.494 85.5505 65.0569 86.4541 63.2529C91.0231 54.1105 78.6464 45.1821 71.5188 50.6451C65.9346 54.9259 69.9959 61.9177 74.7476 60.7558C79.3368 59.6347 78.4027 53.713 76.3721 54.2939C74.5039 54.8239 76.8797 56.9439 75.2044 58.1772C72.392 60.2564 68.7572 55.5068 72.8388 52.3778C76.9406 49.2386 83.4996 52.6734 84.921 57.2089C86.0785 60.9087 83.9463 63.5892 81.4385 65.9844C81.0019 65.5563 80.4435 65.1792 79.7734 64.8633L79.7835 64.8836Z" fill="white"/>
<path fill-rule="evenodd" clip-rule="evenodd" d="M143.139 76.4518C136.276 73.1292 130.722 71.9163 123.645 75.718C121.97 76.6149 120.823 77.5424 119.543 78.7145C123.127 83.4335 122.376 94.3494 113.492 95.8476C105.999 97.1114 102.09 89.0188 105.948 84.9114C106.943 83.8616 108.091 83.4946 109.238 83.1277C110.609 82.6895 111.268 84.7891 109.898 85.2273C107.969 85.8389 106.354 86.8377 106.649 89.294C107.136 93.4117 111.979 95.1545 116.01 92.6065C119.858 90.1705 120.792 82.5773 116.771 78.9387C113.594 76.0543 107.502 74.8618 103.562 76.6964C99.2877 78.6839 97.9069 82.6895 93.8863 84.0348C88.9518 85.6758 82.9208 84.2387 78.6464 89.559C77.6311 90.833 77.5803 91.5057 77.3163 91.8319C78.5245 91.6076 78.819 91.3528 80.9714 91.3223C86.5963 91.2611 90.7997 93.7786 94.0081 98.202C98.0592 103.787 97.45 105.204 106.344 103.899C111.35 103.166 112.731 103.757 116.731 106.784C119.157 108.618 121.279 109.719 124.498 108.639C125.422 108.323 126.163 107.813 126.864 107.232C120.66 102.564 122.305 93.9519 128.976 91.3325C134.479 89.1717 139.596 93.1772 137.981 98.3651C137.047 101.351 133.951 103.043 130.813 100.934C129.666 100.159 130.742 98.3141 132.032 99.0989C133.209 99.8124 134.113 100.006 135.108 99.0072C136.682 97.4376 136.611 93.483 132.681 93.004C127.849 92.4128 122.366 98.5384 126.772 104.103C129.595 107.681 134.621 107.885 138.469 105.581C142.743 103.013 145.16 98.3957 150.074 97.4784C153.475 96.8363 154.886 97.5701 159.242 95.2259C163.831 92.739 164.562 90.5477 167.314 88.5806C169.446 87.0517 171.883 86.43 174.36 86.4708C174.452 86.4708 175.304 87.5817 174.533 85.5127C173.071 81.6295 168.735 79.4279 164.593 79.0305C157.09 78.2966 154.562 82.0066 143.139 76.4722V76.4518Z" fill="#5DBDEB"/>
<path fill-rule="evenodd" clip-rule="evenodd" d="M120.62 80.6306C122.823 85.8898 121.31 94.5328 113.482 95.8476C105.989 97.1114 102.08 89.0188 105.938 84.9113C106.933 83.8615 108.08 83.4946 109.228 83.1277C110.598 82.6894 111.258 84.789 109.888 85.2273C109.705 85.2885 109.532 85.3496 109.35 85.4108C110.172 85.3904 111.086 85.5636 111.807 85.7879C112.629 86.0427 113.198 86.3484 113.675 86.1242C114.152 85.9 114.538 85.1356 114.467 84.2183C114.396 83.301 113.868 82.2308 112.842 81.4562C111.817 80.6816 110.294 80.2229 108.659 80.1923C107.024 80.1618 105.268 80.5796 103.491 81.446C101.714 82.3123 99.9172 83.6475 98.2318 84.7075C96.5464 85.7675 94.9828 86.5625 93.3075 87.0313C91.6322 87.5002 89.8351 87.6429 88.2919 88.02C86.7486 88.3971 85.449 88.9984 85.1444 89.3042C84.8398 89.61 85.5201 89.6099 86.5557 89.8444C87.5811 90.0788 88.9518 90.5476 90.5052 91.5872C92.0587 92.6268 93.805 94.2474 95.3178 95.7966C96.8307 97.356 98.1201 98.8543 99.1862 99.8327C100.252 100.811 101.085 101.28 102.415 101.453C103.745 101.637 105.573 101.525 107.217 101.494C108.852 101.463 110.304 101.514 111.695 101.993C113.086 102.483 114.416 103.4 115.898 104.215C117.381 105.031 119.015 105.724 120.559 106.081C122.102 106.437 123.544 106.437 124.478 106.295C124.914 106.223 125.239 106.121 125.493 105.989C120.985 101.178 122.874 93.7276 128.986 91.3222C134.489 89.1615 139.606 93.167 137.992 98.3549C137.057 101.341 133.961 103.033 130.823 100.923C129.676 100.149 130.752 98.3039 132.042 99.0887C132.275 99.2314 132.489 99.3435 132.702 99.4454C132.641 99.3945 132.59 99.3537 132.539 99.3027C132.042 98.8441 131.747 98.3039 131.656 97.8249C131.565 97.3458 131.676 96.928 131.392 96.6732C131.108 96.4183 130.417 96.347 129.696 96.7751C128.965 97.2133 128.204 98.1612 127.909 99.3435C127.615 100.526 127.798 101.943 128.559 103.023C129.321 104.103 130.641 104.827 132.072 105.031C133.504 105.235 135.027 104.898 136.519 104.154C138.012 103.42 139.464 102.279 141.088 100.923C142.713 99.5779 144.51 98.0185 146.287 96.9382C148.064 95.8578 149.82 95.2564 151.688 94.8589C153.556 94.4716 155.536 94.2882 157.14 93.6665C158.745 93.0447 159.973 91.9847 161.618 90.5884C163.263 89.2023 165.334 87.49 167.009 86.5013C168.695 85.5127 169.984 85.2579 169.893 84.5852C169.801 83.9125 168.319 82.8321 166.38 82.2716C164.441 81.711 162.044 81.66 159.547 81.7416C157.049 81.8231 154.46 82.0371 152.094 81.8333C149.729 81.6294 147.607 81.0077 145.129 80.1108C142.662 79.2139 139.839 78.052 137.271 77.3895C134.702 76.727 132.377 76.5639 130.092 76.8187C127.808 77.0735 125.554 77.7462 123.777 78.5616C122.366 79.2037 121.249 79.9375 120.62 80.6102V80.6306Z" fill="#3D82C4"/>
<path fill-rule="evenodd" clip-rule="evenodd" d="M121.259 82.6894C122.366 87.8875 120.356 94.6857 113.492 95.8476C105.999 97.1114 102.09 89.0188 105.948 84.9113C106.222 84.6158 106.517 84.3711 106.811 84.1775C106.304 84.0246 105.359 84.2387 104.283 84.6056C103.207 84.9827 101.999 85.5331 100.79 86.1854C99.5822 86.8377 98.3536 87.5919 97.247 88.1117C96.1403 88.6315 95.1453 88.9169 94.0792 89.0596C93.0131 89.2023 91.8658 89.2226 91.4901 89.3246C91.1043 89.4265 91.4901 89.6201 92.3734 89.9565C93.2568 90.2928 94.6478 90.7821 95.8357 91.5669C97.0236 92.3618 98.0084 93.4524 99.0542 94.6857C100.1 95.9189 101.227 97.2745 102.537 98.1103C103.847 98.9358 105.349 99.2314 106.943 99.3741C108.537 99.5168 110.213 99.5066 111.634 99.9245C113.066 100.342 114.233 101.188 115.421 101.973C116.609 102.758 117.807 103.471 119.005 103.91C120.203 104.358 121.401 104.531 122.488 104.572C123.168 104.593 123.808 104.562 124.356 104.521C121.391 99.7818 123.462 93.5034 128.986 91.3222C134.489 89.1615 139.606 93.167 137.992 98.3549C137.057 101.341 133.961 103.033 130.823 100.923C130.082 100.424 130.265 99.4862 130.823 99.0887C130.336 99.0479 129.971 99.3231 129.788 99.7512C129.575 100.261 129.605 100.984 129.981 101.627C130.346 102.269 131.047 102.829 131.93 103.094C132.813 103.359 133.88 103.329 134.844 103.064C135.809 102.799 136.672 102.309 137.555 101.576C138.448 100.842 139.362 99.8735 140.55 98.7116C141.738 97.5497 143.19 96.2043 144.845 95.1647C146.5 94.1353 148.348 93.4116 150.074 92.953C151.8 92.4943 153.404 92.2905 154.785 91.9032C156.166 91.5159 157.333 90.9553 158.359 90.2215C159.384 89.4876 160.268 88.6009 161.212 87.8059C162.156 87.0211 163.171 86.3382 163.994 85.8694C164.816 85.4006 165.446 85.156 165.628 84.9929C165.811 84.8196 165.547 84.7279 164.796 84.5852C164.045 84.4425 162.806 84.2692 161.527 84.2285C160.247 84.1979 158.938 84.2998 157.445 84.4833C155.963 84.6667 154.298 84.9215 152.744 84.891C151.191 84.8502 149.749 84.524 148.155 83.9737C146.571 83.4335 144.835 82.6792 143.261 82.0066C141.687 81.3339 140.256 80.7529 138.692 80.3045C137.118 79.8458 135.413 79.5095 133.565 79.4585C131.717 79.3973 129.737 79.6216 127.696 80.1516C125.655 80.6816 123.554 81.5377 122.224 82.1696C121.838 82.3531 121.513 82.5162 121.249 82.6792L121.259 82.6894Z" fill="#3374BA"/>
<path fill-rule="evenodd" clip-rule="evenodd" d="M121.533 85.0235C121.675 89.7425 119.361 94.8488 113.482 95.8374C107.136 96.9076 103.369 91.2815 104.699 87.0415C104.273 86.9804 103.765 87.1944 103.288 87.49C102.527 87.969 101.816 88.6825 100.75 89.1513C99.6837 89.6202 98.2521 89.8546 97.7952 90.1298C97.3383 90.405 97.846 90.7107 98.4146 91.0573C98.9831 91.414 99.5923 91.8013 100.09 92.4434C100.577 93.0855 100.953 93.9824 101.603 94.8284C102.263 95.6743 103.207 96.4897 104.466 96.9382C105.725 97.3968 107.278 97.4987 108.588 97.5191C109.898 97.5395 110.944 97.4682 111.999 97.7332C113.055 97.9982 114.121 98.5995 115.076 99.3231C116.03 100.057 116.883 100.923 117.878 101.525C118.863 102.136 119.99 102.483 121.127 102.513C121.919 102.534 122.721 102.411 123.361 102.279C122.102 97.9676 124.305 93.1569 128.996 91.3121C134.499 89.1513 139.616 93.1569 138.002 98.3447C137.88 98.732 137.728 99.0887 137.545 99.4251C138.54 98.467 139.443 97.2134 140.642 96.0311C141.931 94.757 143.555 93.5849 145.17 92.8001C146.784 92.0255 148.388 91.6484 149.942 91.3325C151.495 91.0165 152.998 90.7515 154.237 90.3438C155.465 89.9259 156.42 89.3654 157.323 88.6621C158.227 87.9588 159.07 87.1231 159.821 86.5829C160.572 86.0427 161.242 85.7981 161.131 85.6656C161.019 85.5331 160.125 85.5025 158.866 85.7573C157.607 86.0121 155.983 86.5319 154.155 86.695C152.328 86.8581 150.287 86.6542 148.033 85.9713C145.779 85.2885 143.312 84.1266 141.17 83.2398C139.027 82.3531 137.22 81.7314 135.22 81.4358C133.209 81.1504 131.006 81.1912 128.884 81.7008C126.762 82.2104 124.742 83.1685 123.391 83.8819C122.559 84.3202 121.98 84.6667 121.574 85.0031L121.533 85.0235Z" fill="#225CAB"/>
<path fill-rule="evenodd" clip-rule="evenodd" d="M103.674 65.964C108.486 66.015 112.7 67.5744 116.843 64.6187C117.949 63.8237 118.731 62.9471 119.056 62.356C117.137 61.7037 114.05 61.5814 111.482 59.4614C108.304 56.842 107.278 50.4922 102.537 48.1786C97.846 45.8956 93.206 48.3519 88.2106 45.2636C83.4488 42.3079 79.6515 37.6399 72.2296 38.6183C61.0306 40.086 56.7765 51.7663 45.7704 54.2736C44.1764 54.6405 37.9423 55.0991 37.9017 55.3539C37.7596 56.2508 40.3284 58.5645 41.2726 59.2474C48.39 64.4352 54.0046 61.8769 57.7004 63.0898C62.9699 64.8225 62.6348 69.3988 70.3208 70.0205C71.4072 66.0048 75.2044 62.7331 79.7734 64.8938C80.4435 65.2098 81.0019 65.5971 81.4385 66.015C83.9463 63.6096 86.0886 60.9393 84.921 57.2395C83.4996 52.704 76.9406 49.2692 72.8388 52.4084C68.7572 55.5374 72.3819 60.287 75.2044 58.2077C76.8797 56.9745 74.5039 54.8545 76.3721 54.3245C78.4027 53.7436 79.3368 59.6652 74.7475 60.7864C69.9959 61.9381 65.9245 54.9462 71.5188 50.6757C78.6464 45.2229 91.0231 54.1411 86.4541 63.2835C85.5505 65.0977 84.1088 66.5246 82.6162 67.9311C83.2762 70.1938 81.8751 73.4961 78.5956 73.1801C77.164 73.0374 77.3671 70.8563 78.8088 70.999C80.7887 71.1926 81.5502 68.1757 78.8596 66.8915C74.4937 64.8225 71.7422 70.0715 72.4326 72.8438C73.0418 75.2695 75.2146 77.8787 78.1793 78.317C80.8699 78.7145 84.7484 77.838 87.175 76.6557C93.1451 73.7407 93.7441 65.8621 103.684 65.9844L103.674 65.964Z" fill="#5DBDEB"/>
<path fill-rule="evenodd" clip-rule="evenodd" d="M71.864 66.8813C73.4479 64.8225 75.9152 63.6096 78.758 64.4861C79.0829 64.3129 79.3875 64.1294 79.6718 63.9358C80.5755 63.3242 81.1542 62.6515 81.5908 61.7037C82.0274 60.7558 82.3218 59.5327 82.332 58.4625C82.3523 57.3924 82.0883 56.4751 81.6212 55.7106C81.1542 54.9564 80.4942 54.3551 79.6718 53.9372C78.8494 53.5193 77.8544 53.2849 77.1132 53.3053C76.3721 53.3257 75.8745 53.5907 75.6715 53.9576C75.509 54.2532 75.5395 54.6099 75.6613 54.9157C75.7324 54.6405 75.9355 54.4264 76.3822 54.2939C78.4128 53.713 79.3469 59.6346 74.7577 60.7558C70.006 61.9075 65.9346 54.9156 71.529 50.6451C78.6565 45.1923 91.0332 54.1105 86.4643 63.2529C85.5607 65.0671 84.1189 66.494 82.6264 67.9005C83.2864 70.1632 81.8852 73.4655 78.6057 73.1495C77.3569 73.0272 77.3569 71.3557 78.3215 71.0193C78.1184 70.9684 77.9153 70.9174 77.7021 70.9072C77.1335 70.8665 76.5244 71.0499 76.0573 71.529C75.6004 72.008 75.2857 72.7724 75.3567 73.5368C75.4278 74.3012 75.8847 75.0657 76.8899 75.5753C77.895 76.0747 79.4586 76.3193 81.0222 76.2276C82.5858 76.1358 84.1494 75.7281 85.7028 74.6885C87.2562 73.6489 88.7894 71.9672 90.5052 70.3161C92.2313 68.6649 94.1401 67.024 96.0895 65.9334C98.0389 64.8327 100.019 64.2721 102.1 63.9765C104.182 63.681 106.354 63.6504 107.512 63.416C108.679 63.1713 108.832 62.7127 108.456 61.9483C108.08 61.1839 107.167 60.1035 106.202 58.6256C105.237 57.1477 104.222 55.2724 103.146 53.8149C102.07 52.3574 100.933 51.3178 99.237 50.7368C97.5414 50.1559 95.2975 50.0234 93.2263 49.7278C91.155 49.4322 89.2463 48.9634 87.439 48.0767C85.6317 47.1899 83.926 45.8752 82.0781 44.9171C80.2303 43.9488 78.2605 43.3271 76.3111 43.0315C74.3719 42.736 72.4631 42.7665 70.5746 43.2863C68.6861 43.8163 66.8179 44.8355 65.1528 45.9159C63.4877 46.9963 62.0358 48.1378 60.3707 49.4322C58.7056 50.7266 56.8272 52.1638 55.091 53.3257C53.3548 54.4876 51.7507 55.3539 50.0652 55.996C48.39 56.6381 46.6335 57.0458 46.1563 57.4127C45.6791 57.7695 46.4812 58.0854 47.5574 58.381C48.6438 58.6766 50.0145 58.9518 51.5374 59.1658C53.0604 59.3798 54.7357 59.5429 56.3297 60.0729C57.9238 60.6029 59.4467 61.4896 60.9697 62.4885C62.4927 63.4873 64.0055 64.6084 65.3965 65.3831C66.7875 66.1577 68.0363 66.5857 69.3359 66.7896C70.1786 66.9221 71.0416 66.9629 71.864 66.9221V66.8813Z" fill="#3D82C4"/>
<path fill-rule="evenodd" clip-rule="evenodd" d="M77.3264 54.5589C78.5651 55.6801 78.5347 59.8589 74.7475 60.7762C69.9959 61.9279 65.9244 54.936 71.5188 50.6655C78.6464 45.2127 91.0231 54.1308 86.4541 63.2733C85.5505 65.0875 84.1088 66.5144 82.6162 67.9209C83.2762 70.1836 81.8751 73.4859 78.5956 73.1699C77.4991 73.068 77.3671 71.7736 77.9966 71.2232C77.8036 71.1926 77.6006 71.2028 77.4077 71.2843C77.0219 71.4576 76.7173 71.9265 76.6665 72.4564C76.6157 72.9864 76.8188 73.5572 77.2452 73.9751C77.6717 74.4032 78.3215 74.6682 79.1134 74.6885C79.9053 74.7089 80.8394 74.4847 81.9157 73.9751C82.9919 73.4655 84.2204 72.6705 85.4185 71.7124C86.6267 70.7543 87.8147 69.6332 89.0838 68.4713C90.353 67.3094 91.7135 66.1169 93.1857 65.1282C94.6579 64.1396 96.2418 63.365 97.6734 62.835C99.105 62.305 100.384 62.0298 101.521 61.8565C102.659 61.6935 103.643 61.6425 103.745 61.3571C103.846 61.0819 103.044 60.5825 102.405 59.706C101.765 58.8295 101.278 57.586 100.597 56.5362C99.9172 55.4762 99.0441 54.6201 97.9577 54.0799C96.8713 53.5499 95.5818 53.346 94.1299 53.1116C92.6882 52.8772 91.084 52.602 89.5813 52.1332C88.0786 51.6643 86.6775 51.012 85.2561 50.1253C83.8448 49.2386 82.4233 48.1174 80.809 47.3836C79.2048 46.6498 77.4178 46.293 75.5699 46.293C73.7221 46.293 71.8133 46.6498 70.0162 47.3938C68.2191 48.1378 66.5438 49.2794 64.9091 50.4209C63.2846 51.5726 61.7109 52.7243 60.1879 53.6416C58.6548 54.5589 57.1724 55.2418 56.0048 55.7514C54.8372 56.261 54.0046 56.5974 54.2585 56.8929C54.5123 57.1783 55.8627 57.4229 57.213 57.8714C58.5634 58.33 59.9138 59.0027 61.2235 59.8691C62.5333 60.7354 63.8024 61.7954 65.1325 62.6312C66.4626 63.4669 67.8535 64.0886 69.5187 64.2008C71.1838 64.3129 73.1332 63.9256 74.7577 63.3854C76.3822 62.8452 77.6818 62.1725 78.5651 61.1839C79.4485 60.2054 79.9155 58.9212 79.8952 57.8102C79.885 56.6891 79.3875 55.731 78.8088 55.1705C78.291 54.671 77.7021 54.4774 77.3264 54.5283V54.5589Z" fill="#3374BA"/>
<path fill-rule="evenodd" clip-rule="evenodd" d="M77.4889 58.8193C77.4077 59.2881 76.9305 60.0729 75.8136 60.7762C74.6257 61.5202 72.7169 62.1521 70.9909 62.1623C69.2547 62.1623 67.7013 61.5508 66.3306 60.6437C64.9599 59.7366 63.7923 58.5441 62.4216 57.8103C61.0509 57.0764 59.4975 56.8012 59.8224 56.2712C60.1473 55.7412 62.3607 54.9462 64.1578 53.8862C65.9549 52.8263 67.3357 51.4911 68.8384 50.584C70.3512 49.6769 71.9859 49.1876 73.4175 49.0042C74.25 48.9023 75.0115 48.8921 75.7933 49.0246C74.2907 49.1469 72.8185 49.6667 71.5188 50.6553C65.9346 54.936 69.9959 61.9279 74.7476 60.766C76.0979 60.4398 76.9711 59.6856 77.4788 58.8193H77.4889ZM88.9315 54.5589C90.9723 55.0278 92.7999 55.0787 94.1705 55.5068C95.5412 55.9349 96.455 56.7401 97.3586 57.586C98.2724 58.432 99.176 59.3187 98.5059 60.0016C97.8358 60.6845 95.5818 61.1737 93.6324 62.1725C91.683 63.1714 90.0382 64.7002 88.4137 66.28C86.7892 67.8598 85.1748 69.4905 83.8955 70.4588C83.1848 70.999 82.5756 71.3251 82.0578 71.5596C82.7584 70.4894 82.9513 69.0727 82.6162 67.9209C84.0986 66.5144 85.5505 65.0773 86.4541 63.2733C88.2614 59.6449 87.4085 56.047 85.2764 53.3766C86.5049 53.8659 87.7537 54.2837 88.9315 54.5589Z" fill="#225CAB"/>
<path fill-rule="evenodd" clip-rule="evenodd" d="M28.3679 48.3722C31.7489 49.952 35.6274 49.9113 39.2014 49.0551C45.8517 47.4448 49.1007 43.1029 53.0503 37.9354C55.1317 35.2141 56.5937 32.9922 59.7818 31.4532C62.98 29.9142 68.5135 28.0897 71.9351 29.639C72.9911 30.1078 74.382 31.3614 75.6004 31.0557C76.433 30.8416 76.7883 29.9753 76.9711 29.2109C77.5701 26.6424 76.5244 23.2688 75.0217 21.1692C73.8541 19.5385 72.4732 18.3969 70.7269 17.4491C69.3562 16.705 67.8536 16.1445 66.5235 15.3291C63.3659 13.4028 61.8733 9.90683 59.0609 7.69512C56.3094 5.53437 53.3853 5.81975 50.2074 6.62494C48.6539 7.02243 47.0599 7.54224 45.4658 7.74608C40.1964 8.41877 34.9573 4.01573 30.3072 2.04863C26.2561 0.33634 22.3776 0.988641 18.7326 3.26151C14.3363 -0.224232 7.63518 -0.917303 2.50784 1.22306C1.89864 1.47787 1.31991 1.76325 0.771637 2.06902V4.47438C5.68577 1.02941 13.0265 1.14152 17.6868 4.98399C21.5349 8.15377 23.1898 13.7187 21.1389 18.3664C19.7581 21.5056 17.0066 23.6357 13.6357 24.1759C10.9959 24.5938 7.81793 23.9721 6.0919 21.7808C5.9193 21.5565 5.75685 21.3221 5.62486 21.0775C3.85822 17.8873 5.03596 14.5647 8.80279 13.9939C10.3968 13.7493 11.7777 14.7787 11.7574 16.4502C11.7472 17.2146 10.2039 17.9893 11.2802 18.9066C12.1736 19.671 13.0874 18.4989 13.4326 17.7446C13.6052 17.3573 13.7372 16.8987 13.7474 16.4808C13.7779 14.5953 12.4681 12.6485 10.6405 12.1287C8.83324 11.6191 6.51833 12.3326 5.07658 13.4741C2.98503 15.1151 2.46723 17.5102 3.08657 19.9869C2.19309 20.1296 1.41129 20.3844 0.68026 20.7717V23.1873L0.802109 23.0854C1.70574 22.3719 2.69058 22.005 3.81759 21.9031C5.26949 24.655 7.83824 25.878 10.8537 26.2144C17.9305 26.9992 23.7381 21.5973 24.0122 14.5851C24.9057 14.4424 25.8195 14.5137 26.713 14.6258C27.911 14.7787 28.8857 15.0743 29.9214 15.7062C30.4798 16.0527 31.0078 16.4502 31.5459 16.8273C32.2363 17.3166 32.9267 17.765 33.6679 18.1727C37.8104 20.4252 40.6634 19.1512 44.948 18.6008C47.8721 18.2237 52.1974 18.4071 54.157 21.0062C54.157 21.0062 54.1366 21.0062 54.1265 21.0062C50.7455 21.2813 48.6844 22.4433 46.3593 24.8078C45.2932 25.8882 44.2982 27.0094 43.0799 27.9267C41.6178 29.0172 40.0542 29.6593 38.2774 29.9855C37.8307 29.4963 37.323 29.0682 36.7747 28.7013C33.9116 26.7953 30.0229 26.6628 26.9465 28.1407C23.1797 29.9549 21.4841 33.6139 21.5552 37.6704L19.9408 37.915C15.6765 38.1189 13.3616 35.9989 9.81811 34.307C6.19343 32.5845 3.73636 33.2572 0.629494 33.9808V36.0397C4.6603 35.1326 5.94975 34.3376 10.9451 37.1812C14.4175 39.1585 17.7173 40.4835 21.7278 39.6987C22.2456 42.9806 23.8295 45.5286 26.581 47.3836C26.4185 47.5365 26.2358 47.669 26.0632 47.8117C24.1138 49.3201 21.9917 50.2578 19.4941 49.8807C17.6056 49.5953 15.7882 48.6271 14.1231 47.7301C12.1432 46.66 10.2141 45.6 8.04131 44.9579C5.70608 44.275 3.52316 44.275 1.16763 44.7948C0.964561 44.8356 0.771652 44.8865 0.578743 44.9375V47.0065C1.04578 46.8842 1.52298 46.7721 2.00018 46.6803C2.74136 46.5377 3.4927 46.4459 4.24403 46.4357C10.6304 46.344 15.5445 52.653 21.6262 51.9293C23.931 51.6541 26.7637 50.1151 28.3984 48.413L28.3679 48.3722ZM20.2657 4.66803C20.3977 4.59669 20.5297 4.52534 20.6617 4.45399C22.8954 3.29208 25.1291 2.71113 27.6268 3.26151C29.4746 3.66919 31.221 4.63745 32.8658 5.55475C34.9472 6.71667 36.9473 7.848 39.181 8.71434C42.5519 10.0291 44.9887 10.1209 48.4204 9.1628C50.248 8.65319 51.8522 8.113 53.7813 8.02127C57.7512 7.82762 59.396 10.8445 61.65 13.5251C63.5689 15.8081 65.0614 16.97 67.7419 18.1625C69.3156 18.8556 70.4832 19.4569 71.8031 20.5985C73.9251 22.4229 75.702 25.9086 75.0318 28.7522C75.0217 28.8134 74.9811 28.9663 74.9506 29.0682C74.7577 28.9663 74.3516 28.7013 74.2501 28.6401L72.7575 27.8146C72.7575 27.8146 72.7474 27.8146 72.7372 27.8146C69.6101 26.408 65.9245 27.1521 62.7871 28.1407C56.7257 30.0568 55.223 31.7997 51.4664 36.7327C49.2225 39.6681 46.7858 42.8888 43.7094 44.9782C40.9985 46.8128 38.0845 47.5671 34.8355 47.6588C32.3581 47.7301 30.7844 47.3428 28.571 46.2625C25.5352 44.6011 23.7584 41.89 23.5553 38.4145C23.3218 34.4395 24.8245 30.7601 28.8451 29.5167C31.5662 28.6809 35.2619 29.2618 37.059 31.657C37.851 32.717 38.3891 34.0216 38.2571 35.367C38.1657 36.3658 37.6987 37.3239 36.8458 37.8845C36.0843 38.3839 35.1909 38.4552 34.338 38.1902C32.7846 37.7316 32.9165 36.2027 33.0891 34.888C33.2617 33.5935 31.2616 33.3082 31.1093 34.6739C30.8453 37.0793 31.0991 39.3114 33.7694 40.1064C35.2112 40.5344 36.7138 40.3714 37.9728 39.5254C39.1303 38.7406 39.8816 37.5074 40.1558 36.1518C40.4502 34.6433 40.1557 33.1247 39.4653 31.7691C41.496 31.2799 43.222 30.434 44.8364 29.058C46.1258 27.9572 47.1716 26.6424 48.4103 25.5111C48.6641 25.2767 48.9281 25.0627 49.2022 24.8486C50.4815 23.8804 51.771 23.33 53.3447 23.0956C54.0859 22.9834 55.4261 22.9834 55.9845 22.484C56.1368 22.3515 56.2383 22.1884 56.3196 21.9948C57.0404 20.201 53.964 18.03 52.5832 17.4185C50.1972 16.3687 47.7706 16.2668 45.212 16.5623C43.1205 16.807 40.9375 17.3777 38.8561 17.4389C35.069 17.5612 33.4547 15.4412 30.4696 13.7289C28.6928 12.7097 25.9819 12.2918 23.9107 12.567C23.5858 9.58068 22.3065 6.85936 20.2556 4.67822L20.2657 4.66803Z" fill="white"/>
<path fill-rule="evenodd" clip-rule="evenodd" d="M0.548281 44.8967L0.599033 36.0193C4.63999 35.1122 5.92944 34.3172 10.9248 37.1608C14.3972 39.1381 17.697 40.4631 21.7075 39.6783C22.2253 42.9602 23.8092 45.5082 26.5607 47.3632C26.3982 47.5161 26.2155 47.6486 26.0429 47.7913C24.0935 49.2997 21.9714 50.2374 19.4738 49.8603C17.5853 49.5749 15.7679 48.6067 14.1027 47.7098C12.1229 46.6396 10.1938 45.5796 8.02101 44.9375C5.68578 44.2546 3.50285 44.2546 1.14731 44.7744C0.94425 44.8152 0.751337 44.8661 0.558428 44.9171L0.548281 44.8967ZM0.761488 4.46419C5.68577 1.01922 13.0265 1.13133 17.697 4.9738C21.545 8.14358 23.2 13.7085 21.149 18.3562C19.7682 21.4954 17.0167 23.6256 13.6458 24.1657C11.006 24.5836 7.82808 23.9619 6.10204 21.7706C5.92944 21.5463 5.767 21.3119 5.63501 21.0673C3.86836 17.8771 5.04613 14.5545 8.81295 13.9837C10.407 13.7391 11.7878 14.7685 11.7675 16.44C11.7574 17.2045 10.2141 17.9791 11.2903 18.8964C12.1838 19.6608 13.0976 18.4887 13.4428 17.7345C13.6154 17.3471 13.7474 16.8885 13.7575 16.4706C13.788 14.5851 12.4782 12.6383 10.6507 12.1185C8.84341 11.6089 6.52847 12.3224 5.08673 13.4639C2.99518 15.1049 2.47738 17.5 3.09672 19.9767C2.20324 20.1194 1.42145 20.3742 0.690424 20.7615L0.771635 4.47438L0.761488 4.46419Z" fill="#5DBDEB"/>
<path fill-rule="evenodd" clip-rule="evenodd" d="M24.7737 45.8955C24.4894 46.1198 24.0833 46.3542 23.6569 46.5886C22.9969 46.9657 22.2862 47.3734 21.3927 47.5365C20.4992 47.6996 19.423 47.6078 18.0929 47.1696C16.7527 46.7313 15.1485 45.9465 13.5037 45.1719C11.8487 44.3973 10.1532 43.6431 8.52866 43.1437C6.90415 42.6442 5.34057 42.3996 3.45208 42.4913C2.54845 42.5321 1.56359 42.6544 0.558424 42.8175L0.599031 36.0193C4.63999 35.1122 5.92944 34.3172 10.9248 37.1608C14.3972 39.1381 17.697 40.4631 21.7075 39.6783C22.0933 42.1754 23.1086 44.2444 24.7737 45.9057V45.8955ZM0.741175 7.91935C0.863012 7.81743 0.974703 7.71551 1.09654 7.62378C2.22354 6.70648 3.43177 5.99303 4.84306 5.51399C6.25435 5.03496 7.8687 4.80054 9.35106 4.78015C10.8233 4.75977 12.1533 4.94323 13.4123 5.35092C14.6713 5.7586 15.8694 6.38033 16.8441 7.30782C17.8289 8.23531 18.5904 9.46857 19.0981 10.7426C19.6057 12.0166 19.8494 13.3416 19.8494 14.5239C19.8494 15.696 19.5956 16.7254 19.1285 17.7243C18.6615 18.7231 17.9711 19.6812 17.0675 20.3742C16.1638 21.0673 15.047 21.475 14.0114 21.6992C12.9859 21.9235 12.0416 21.9438 11.2598 21.7604C10.4781 21.5769 9.84857 21.1794 9.38152 20.731C8.91448 20.2825 8.62003 19.7831 8.53881 19.4569C8.45758 19.1308 8.60988 18.9677 8.93478 18.8658C9.25968 18.7639 9.74703 18.7231 10.1532 18.56C10.4476 18.4377 10.7014 18.2543 10.9248 17.9893C10.8436 18.2746 10.9146 18.5702 11.2802 18.876C12.1736 19.6404 13.0874 18.4683 13.4326 17.7141C13.6052 17.3268 13.7372 16.8681 13.7474 16.4502C13.7778 14.5647 12.4681 12.618 10.6405 12.0982C8.83324 11.5886 6.51833 12.302 5.07658 13.4435C2.98503 15.0845 2.46722 17.4797 3.08657 19.9564C2.19309 20.0991 1.41129 20.3539 0.680258 20.7412L0.751337 7.90916L0.741175 7.91935Z" fill="#3D82C4"/>
<path fill-rule="evenodd" clip-rule="evenodd" d="M23.4436 44.2852L23.4132 44.3158C22.8649 44.7744 21.6872 45.1413 20.6008 45.284C19.5245 45.4267 18.5498 45.3248 17.433 45.07C16.3161 44.8152 15.0673 44.3973 13.6458 43.7552C12.2143 43.1131 10.6101 42.2467 9.10738 41.5944C7.60472 40.9319 6.20358 40.4733 4.67046 40.3918C3.40131 40.3204 2.04079 40.5039 0.578737 40.7587L0.599031 36.0193C4.63999 35.1122 5.92944 34.3172 10.9248 37.1608C14.3972 39.1381 17.697 40.4631 21.7075 39.6783C21.9816 41.4212 22.5603 42.9602 23.4538 44.2954L23.4436 44.2852ZM0.731028 10.7834C1.57374 9.84569 2.47737 9.07108 3.49269 8.50031C4.79229 7.75628 6.27465 7.3384 7.83824 7.17532C9.40182 7.01225 11.0466 7.10398 12.4376 7.48109C13.8286 7.8684 14.9759 8.54108 15.8186 9.41761C16.6613 10.2941 17.1893 11.3745 17.4533 12.7097C17.7071 14.0449 17.697 15.6349 17.2908 16.8375C16.8949 18.0402 16.1131 18.8556 15.2602 19.4162C14.3972 19.9869 13.4631 20.3131 12.7219 20.3742C11.9807 20.4354 11.4426 20.2316 11.1279 19.8442C10.8131 19.4569 10.7116 18.8964 10.874 18.397C10.874 18.3664 10.8943 18.3358 10.9045 18.3052C10.935 18.4989 11.0365 18.6925 11.2802 18.8964C12.1736 19.6608 13.0874 18.4887 13.4326 17.7345C13.6052 17.3472 13.7372 16.8885 13.7474 16.4706C13.7778 14.5851 12.4681 12.6384 10.6405 12.1185C8.83324 11.6089 6.51833 12.3224 5.07658 13.4639C2.98503 15.1049 2.46723 17.5 3.08657 19.9767C2.19309 20.1194 1.41129 20.3742 0.68026 20.7615L0.731028 10.7834Z" fill="#3374BA"/>
<path fill-rule="evenodd" clip-rule="evenodd" d="M22.6314 42.8175C22.4385 42.9092 22.1847 42.9704 21.8699 43.0213C21.017 43.1844 19.6971 43.3169 18.2858 43.164C16.8745 43.0111 15.382 42.5627 13.6662 41.7473C11.9503 40.9319 10.011 39.7496 8.36621 39.0158C6.73155 38.282 5.40149 38.0068 3.76683 38.0985C2.80228 38.1495 1.72604 38.3329 0.588884 38.5673V36.0091C4.63999 35.102 5.92945 34.307 10.935 37.1506C14.4073 39.1279 17.7071 40.4529 21.7176 39.6681C21.9004 40.8096 22.205 41.8594 22.6415 42.8175H22.6314ZM0.710718 14.3506C1.81741 12.9135 2.96473 11.3949 4.21357 10.4266C5.47256 9.43799 6.83307 8.99972 8.3865 8.88761C9.93994 8.7755 11.6863 8.98953 12.9554 9.59087C14.2246 10.1922 15.0165 11.1707 15.443 12.3632C15.8694 13.5556 15.9202 14.952 15.5039 16.0935C15.0876 17.235 14.2144 18.1116 13.4529 18.5193C13.1686 18.6721 12.9148 18.7537 12.6813 18.7944C13.0062 18.4989 13.2702 18.081 13.4225 17.7548C13.5951 17.3675 13.7271 16.9089 13.7372 16.491C13.7677 14.6054 12.4579 12.6587 10.6304 12.1389C8.8231 11.6293 6.50818 12.3428 5.06643 13.4843C2.97488 15.1252 2.45706 17.5204 3.0764 19.9971C2.18293 20.1398 1.40114 20.3946 0.670113 20.7819L0.700569 14.371L0.710718 14.3506Z" fill="#225CAB"/>
<path fill-rule="evenodd" clip-rule="evenodd" d="M20.2657 4.66803C22.3166 6.84917 23.6061 9.57049 23.9208 12.5568C25.9921 12.2816 28.703 12.7097 30.4798 13.7187C33.4648 15.431 35.0792 17.551 38.8663 17.4287C40.9477 17.3573 43.1306 16.7866 45.2222 16.5522C47.7706 16.2566 50.2074 16.3585 52.5934 17.4083C53.9742 18.0198 57.0506 20.1806 56.3297 21.9846C56.2587 22.1681 56.147 22.3311 55.9947 22.4738C55.4261 22.9834 54.096 22.9834 53.3548 23.0854C51.7811 23.3198 50.4815 23.8702 49.2124 24.8384C48.9382 25.0423 48.6742 25.2665 48.4204 25.5009C47.1716 26.6323 46.1359 27.947 44.8465 29.0478C43.2321 30.4238 41.5061 31.2697 39.4755 31.7589C40.1557 33.1145 40.4603 34.6433 40.1659 36.1416C39.8918 37.5073 39.1404 38.7406 37.983 39.5152C36.724 40.3612 35.2213 40.5242 33.7796 40.0962C31.1093 39.3012 30.8555 37.0691 31.1194 34.6637C31.2717 33.3082 33.2719 33.5833 33.0993 34.8778C32.9267 36.1824 32.7947 37.7112 34.3481 38.18C35.201 38.4348 36.1046 38.3635 36.856 37.8743C37.7088 37.3137 38.1759 36.3556 38.2673 35.3568C38.3891 34.0114 37.8611 32.7068 37.0692 31.6468C35.2721 29.2517 31.5763 28.6707 28.8553 29.5065C24.8245 30.7499 23.332 34.4293 23.5655 38.4043C23.7686 41.8798 25.5352 44.6011 28.5812 46.2523C30.7945 47.3326 32.3683 47.7199 34.8456 47.6486C38.0947 47.5569 41.0086 46.8026 43.7195 44.968C46.8061 42.8786 49.2428 39.6579 51.4765 36.7225C55.2332 31.7997 56.7358 30.0568 62.7973 28.1305C65.9346 27.1419 69.6202 26.3978 72.7474 27.8044H72.7677L74.2602 28.6401C74.3617 28.7013 74.7679 28.9663 74.9608 29.0682C74.9912 28.9663 75.0217 28.8032 75.042 28.7522C75.7019 25.9188 73.9353 22.4229 71.8133 20.5985C70.4832 19.4569 69.3156 18.8658 67.752 18.1625C65.0716 16.97 63.5791 15.8081 61.6601 13.5251C59.4061 10.8445 57.7613 7.82762 53.7914 8.02127C51.8623 8.113 50.2581 8.643 48.4306 9.1628C44.9988 10.1209 42.562 10.0291 39.1912 8.71434C36.9575 7.848 34.9573 6.71667 32.8759 5.55475C31.2311 4.63746 29.4848 3.6692 27.6369 3.26151C25.1494 2.71113 22.9055 3.29208 20.6718 4.454L20.2759 4.66803H20.2657Z" fill="#5DBDEB"/>
<path fill-rule="evenodd" clip-rule="evenodd" d="M21.6161 6.33956C22.8852 8.17416 23.6772 10.2941 23.9208 12.5568C25.9921 12.2816 28.703 12.7097 30.4798 13.7187C33.4648 15.431 35.0792 17.551 38.8663 17.4287C40.9477 17.3573 43.1306 16.7866 45.2222 16.5522C47.7706 16.2566 50.2074 16.3585 52.5934 17.4083C53.9742 18.0198 57.0506 20.1806 56.3297 21.9846C56.2586 22.1681 56.147 22.3312 55.9947 22.4738C55.4261 22.9835 54.096 22.9835 53.3548 23.0854C51.7811 23.3198 50.4815 23.8702 49.2124 24.8384C48.9382 25.0423 48.6742 25.2665 48.4204 25.5009C47.1716 26.6323 46.1359 27.9471 44.8465 29.0478C43.2321 30.4238 41.5061 31.2697 39.4755 31.7589C40.1557 33.1145 40.4603 34.6433 40.1659 36.1416C39.8918 37.5074 39.1404 38.7406 37.983 39.5152C36.724 40.3612 35.2213 40.5243 33.7796 40.0962C31.1093 39.3012 30.8555 37.0691 31.1194 34.6637C31.2717 33.3082 33.2719 33.5834 33.0993 34.8778L33.079 35.0306C33.1602 34.8472 33.2516 34.6841 33.3734 34.5312C33.6273 34.1949 33.9826 33.8993 34.0638 33.5426C34.1451 33.1859 33.9623 32.7782 33.5257 32.3705C33.079 31.9628 32.3784 31.5449 31.5357 31.443C30.693 31.3411 29.7183 31.5449 28.7944 32.1666C27.8704 32.7884 26.9871 33.8382 26.4794 35.0103C25.9819 36.1824 25.8601 37.487 26.0429 38.7814C26.2256 40.0758 26.7028 41.3498 27.3831 42.4098C28.0633 43.4596 28.9467 44.2852 30.0533 44.8865C31.16 45.4879 32.4799 45.8854 33.9623 45.9975C35.4447 46.1096 37.0996 45.9567 38.6937 45.4879C40.2877 45.019 41.8412 44.2444 43.3844 43.1131C44.9277 41.9817 46.471 40.4835 47.9534 38.8833C49.4357 37.2831 50.8572 35.5708 52.2481 34.042C53.6391 32.5132 54.9895 31.1576 56.3602 30.0161C57.7309 28.8847 59.1218 27.9674 60.7971 27.2132C62.4724 26.4488 64.4319 25.8475 66.0463 25.4296C67.6606 25.0117 68.9298 24.7773 69.8943 24.7569C70.8589 24.7263 71.5188 24.8996 71.7828 24.8486C72.0468 24.7977 71.9351 24.5429 71.6407 24.0434C71.3564 23.544 70.8995 22.8102 70.2497 22.1375C69.5999 21.4648 68.7572 20.8635 67.8739 20.3946C66.9905 19.9156 66.0666 19.5691 65.2442 19.1512C64.4116 18.7333 63.6806 18.2441 62.8582 17.4593C62.0358 16.6643 61.1322 15.5737 60.1372 14.4628C59.1421 13.3518 58.0558 12.2205 56.9389 11.4255C55.8221 10.6305 54.6646 10.182 53.1518 10.0801C51.6288 9.97818 49.7403 10.233 48.0854 10.447C46.4304 10.6611 44.9988 10.8241 43.7093 10.8649C42.4097 10.9057 41.2421 10.8343 39.9527 10.498C38.6632 10.1718 37.2519 9.59088 35.7899 8.84685C34.3278 8.11301 32.815 7.21609 31.3123 6.52302C29.8097 5.84015 28.307 5.36111 26.9668 5.22861C25.6266 5.08592 24.459 5.28977 23.4639 5.60572C22.7532 5.82995 22.1339 6.12553 21.6465 6.37014L21.6161 6.33956Z" fill="#3D82C4"/>
<path fill-rule="evenodd" clip-rule="evenodd" d="M22.54 7.87859C23.2812 9.32588 23.7482 10.8955 23.931 12.5568C26.0022 12.2816 28.7131 12.7097 30.4899 13.7187C33.475 15.431 35.0893 17.551 38.8765 17.4287C40.9579 17.3573 43.1408 16.7866 45.2323 16.5522C47.7808 16.2566 50.2175 16.3585 52.6035 17.4083C53.9843 18.0198 57.0608 20.1806 56.3399 21.9846C56.2688 22.1681 56.1571 22.3311 56.0048 22.4738C55.4362 22.9834 54.1062 22.9835 53.365 23.0854C51.7913 23.3198 50.4917 23.8702 49.2225 24.8384C48.9484 25.0423 48.6844 25.2665 48.4306 25.5009C47.1817 26.6323 46.1461 27.9471 44.8567 29.0478C43.2423 30.4238 41.5163 31.2697 39.4856 31.7589C40.1659 33.1145 40.4705 34.6433 40.1761 36.1416C39.9019 37.5074 39.1506 38.7406 37.9931 39.5152C36.7341 40.3612 35.2315 40.5243 33.7897 40.0962C31.1194 39.3012 30.8656 37.0691 31.1296 34.6637C31.1804 34.2153 31.424 33.9503 31.7286 33.8382C31.688 33.8178 31.6372 33.7974 31.5865 33.777C31.1702 33.6343 30.5305 33.7668 29.9214 34.093C29.3122 34.4191 28.7334 34.9389 28.3984 35.7645C28.0532 36.5901 27.9516 37.7214 28.1852 38.9547C28.4187 40.1879 29.0076 41.5333 29.8909 42.4812C30.7742 43.429 31.9622 43.9794 33.4039 44.2036C34.8457 44.4381 36.5514 44.3463 38.2063 43.8571C39.8613 43.3679 41.4757 42.4914 43.0697 41.1766C44.6637 39.8618 46.2273 38.1189 47.7909 36.4372C49.3545 34.7555 50.9079 33.1349 52.2786 31.708C53.6493 30.2913 54.8372 29.0682 56.3297 27.998C57.8121 26.9278 59.599 26.0105 61.2946 25.2971C62.9902 24.5836 64.5842 24.0842 65.8635 23.7275C67.153 23.3708 68.1277 23.1669 68.0059 22.8C67.8942 22.4331 66.6859 21.9133 65.5183 21.3527C64.3609 20.7921 63.244 20.1806 62.2389 19.4773C61.2439 18.7741 60.3504 17.9791 59.4772 16.9497C58.604 15.9304 57.7309 14.6768 56.8171 13.7289C55.9134 12.781 54.959 12.1389 53.6696 11.7516C52.37 11.3643 50.7252 11.2216 49.0499 11.3134C47.3746 11.4051 45.6588 11.7211 44.0139 11.8434C42.359 11.9657 40.7649 11.8943 39.445 11.7109C38.115 11.5172 37.0489 11.2114 35.8 10.6407C34.5512 10.0699 33.1196 9.24434 31.7794 8.58185C30.4392 7.91936 29.1802 7.43013 27.8907 7.18552C26.6114 6.9409 25.2915 6.9511 24.2661 7.18552C23.5553 7.34859 22.9766 7.62378 22.54 7.8684V7.87859Z" fill="#3374BA"/>
<path fill-rule="evenodd" clip-rule="evenodd" d="M23.0984 9.12204C23.5249 10.2126 23.799 11.3643 23.931 12.5568C26.0022 12.2816 28.7131 12.7097 30.4899 13.7187C32.8353 15.0641 34.338 16.6541 36.7037 17.2249C37.059 17.286 37.4042 17.3472 37.7393 17.3981C38.0946 17.4287 38.4805 17.4491 38.8764 17.4287C40.9578 17.3574 43.1408 16.7866 45.2323 16.5522C47.7808 16.2566 50.2175 16.3585 52.6035 17.4083C53.9843 18.0198 57.0608 20.1806 56.3399 21.9846C56.2688 22.1681 56.1571 22.3312 56.0048 22.4738C55.4362 22.9835 54.1062 22.9835 53.365 23.0854C51.7913 23.3198 50.4917 23.8702 49.2225 24.8384C48.9484 25.0423 48.6844 25.2665 48.4306 25.5009C47.1817 26.6323 46.1461 27.9471 44.8567 29.0478C43.2423 30.4238 41.5163 31.2697 39.4856 31.759C40.1659 33.1145 40.4705 34.6434 40.1761 36.1416C39.9019 37.5074 39.1506 38.7406 37.9931 39.5152C36.7341 40.3612 35.2315 40.5243 33.7897 40.0962C31.1194 39.3012 30.8656 37.0691 31.1296 34.6637C31.1296 34.6434 31.1296 34.6128 31.1397 34.5924C30.6727 34.8268 30.0737 35.4078 29.7691 36.2435C29.4442 37.1303 29.4442 38.3024 29.8198 39.4133C30.1955 40.5243 30.957 41.5843 31.9824 42.2264C33.0181 42.8685 34.3177 43.0825 35.8203 42.9398C37.323 42.8073 39.0186 42.3181 40.5213 41.4212C42.0239 40.5243 43.3337 39.2197 45.08 37.3137C46.8365 35.3976 49.0296 32.8801 50.847 30.9436C52.6644 29.0071 54.0859 27.6413 55.6799 26.5405C57.274 25.4398 59.0406 24.5938 60.7362 23.9619C62.4318 23.3198 64.0563 22.8917 64.2999 22.5452C64.5436 22.1987 63.4065 21.9439 62.3505 21.3833C61.2845 20.8227 60.2996 19.9564 59.2335 18.7741C58.1674 17.5918 57.0303 16.0935 55.7307 14.952C54.4311 13.8105 52.9792 13.0359 51.2024 12.832C49.4256 12.6282 47.3239 13.0053 45.1105 13.1989C42.8971 13.3926 40.5619 13.413 38.6226 13.1276C36.6732 12.8422 35.1198 12.2511 33.4648 11.4561C31.8098 10.6713 30.0737 9.69281 28.5304 9.173C26.9871 8.6532 25.6469 8.59205 24.5909 8.72455C23.9919 8.80608 23.4741 8.94877 23.0984 9.12204Z" fill="#225CAB"/>
<path fill-rule="evenodd" clip-rule="evenodd" d="M26.6927 14.5952C25.7992 14.4831 24.8854 14.4118 23.9919 14.5545C23.7178 21.5667 17.9102 26.9686 10.8334 26.1838C7.81793 25.8474 5.24919 24.6244 3.79729 21.8725C2.67029 21.9744 1.68543 22.3311 0.781797 23.0548L0.649801 23.1567L0.588884 33.9401C3.69575 33.2164 6.15282 32.5437 9.7775 34.2662C13.3311 35.9581 15.6359 38.0781 19.9002 37.8743L21.5145 37.6296C21.4536 33.5731 23.139 29.9243 26.9059 28.0999C29.9823 26.622 33.8709 26.7545 36.7341 28.6605C37.2824 29.0274 37.7901 29.4555 38.2368 29.9447C40.0136 29.6084 41.5772 28.9765 43.0392 27.8859C44.2576 26.9686 45.2526 25.8474 46.3187 24.7671C48.6539 22.4025 50.715 21.2406 54.0859 20.9654H54.1163C52.1568 18.3664 47.8315 18.1829 44.9074 18.56C40.6329 19.1104 37.7697 20.3844 33.6273 18.1319C32.8861 17.7242 32.1957 17.2758 31.5052 16.7866C30.9671 16.4095 30.4392 16.012 29.8808 15.6654C28.8553 15.0335 27.8704 14.7277 26.6723 14.585L26.6927 14.5952Z" fill="#5DBDEB"/>
<path fill-rule="evenodd" clip-rule="evenodd" d="M23.7889 16.44C22.6517 22.5044 17.2705 26.8973 10.8436 26.1838C8.33576 25.9086 6.13251 25.0117 4.62984 23.1261C4.17295 23.1771 3.72622 23.3606 3.26933 23.6154C2.57891 23.9925 1.85804 24.553 1.00518 25.4602C0.89349 25.5825 0.781811 25.7048 0.659973 25.8373L0.629498 32.4928C1.26915 32.3909 1.9291 32.2991 2.59921 32.2176C4.40648 31.9934 6.28481 31.8914 7.98039 32.0953C9.68612 32.2991 11.2091 32.8291 12.793 33.512C14.3769 34.2051 16.0115 35.0612 17.4736 35.5199C18.9357 35.9683 20.2251 36.0193 21.1287 35.846C21.3216 35.8154 21.4942 35.7645 21.6465 35.7033C22.0831 32.452 23.7787 29.639 26.9363 28.1203C30.0127 26.6424 33.9014 26.7749 36.7646 28.6809C36.8458 28.742 36.9372 28.793 37.0184 28.8542C37.4753 28.742 37.9017 28.5586 38.4094 28.314C39.3029 27.8757 40.44 27.2642 41.4249 26.5201C42.4097 25.7761 43.2322 24.92 44.0241 24.0332C44.816 23.1465 45.5877 22.2394 46.1664 21.6686C46.735 21.0979 47.1208 20.8635 46.5928 20.7921C46.0649 20.7106 44.6333 20.7819 43.0189 20.8533C41.4046 20.9246 39.5973 20.996 37.8916 20.9042C36.1859 20.8125 34.5817 20.5373 33.079 19.9767C31.5865 19.4162 30.1955 18.56 28.8451 17.8771C27.4846 17.1943 26.1545 16.6745 25.1595 16.491C24.6113 16.3891 24.1747 16.3789 23.8092 16.4604L23.7889 16.44Z" fill="#3D82C4"/>
<path fill-rule="evenodd" clip-rule="evenodd" d="M23.332 18.1829C20.418 26.7546 10.2953 28.1101 5.62486 24.1658C4.43694 24.6652 2.3657 26.3367 1.45191 27.6413C1.21839 27.9267 0.995014 28.2426 0.731033 28.5994L0.63966 28.7217V30.9028L0.720886 30.8926C1.38084 30.8009 2.10171 30.7295 2.79212 30.6582L3.26932 30.6072C3.58407 30.5868 3.90898 30.5461 4.21357 30.5257C9.01602 30.1282 10.8537 30.434 15.0673 32.3501C17.2096 33.3286 19.5753 34.5516 21.941 34.2153C23.3117 29.1192 28.0633 26.5609 32.8455 27.2132C33.8913 27.3559 34.9675 27.6923 35.9117 28.1713L39.4247 25.4296L42.2981 22.6063C42.3082 22.4433 41.8006 22.4942 40.968 22.5452C36.8052 22.7592 34.1248 22.586 30.2666 20.9246C28.2156 20.0379 25.6672 18.295 23.332 18.1727V18.1829Z" fill="#3374BA"/>
<path fill-rule="evenodd" clip-rule="evenodd" d="M22.6111 19.8646C20.4383 24.0638 15.9811 26.7546 10.8436 26.1838C9.6252 26.0513 8.48805 25.7761 7.46258 25.3073C6.69094 25.4602 6.0716 25.715 5.54363 26.0411C4.89383 26.4386 4.37601 26.9482 3.81758 27.4782C3.25916 28.0184 2.66013 28.5892 2.62967 28.8236C2.58905 29.058 3.10687 28.9561 4.08157 28.8746C5.06643 28.793 6.51832 28.7319 7.87885 28.7624C9.23937 28.793 10.4984 28.9153 11.798 29.272C13.0976 29.639 14.4479 30.2403 15.7475 30.8417C17.0573 31.4328 18.3163 32.0239 19.3418 32.3297C20.3672 32.6457 21.1389 32.6864 21.8699 32.5539C22.1339 32.503 22.3877 32.4418 22.6415 32.3501C23.5147 30.5563 24.9362 29.0682 26.9363 28.1101C29.0583 27.0909 31.5763 26.8361 33.8709 27.4069C33.9928 27.3457 34.1146 27.2948 34.2263 27.2336C35.3939 26.6425 36.2671 25.9494 36.8966 25.399C37.5261 24.8588 37.8916 24.4613 37.719 24.3186C37.5464 24.1658 36.8458 24.2575 36.0234 24.1963C35.201 24.1352 34.2568 23.9313 33.1501 23.6256C32.0434 23.3198 30.7539 22.9223 29.6269 22.4331C28.4898 21.9438 27.5049 21.3629 26.52 20.8839C25.5352 20.4048 24.5503 20.0277 23.7584 19.8748C23.3421 19.7933 22.9664 19.7831 22.6111 19.8544V19.8646Z" fill="#225CAB"/>
<path fill-rule="evenodd" clip-rule="evenodd" d="M98.0389 119.453C97.3586 117.394 96.1606 115.305 94.5259 114.01C91.0129 111.228 85.0733 111.431 81.7126 114.367C79.7226 116.11 78.7377 118.627 78.951 121.257C79.1337 123.509 80.2404 125.813 82.2304 126.985C83.4183 127.688 84.7484 127.872 86.0683 127.617C83.2457 133.008 79.1236 135.546 74.0673 138.696C71.1635 137.218 68.5135 135.353 65.5285 134.007C62.249 132.529 58.5837 131.612 54.9489 131.459C58.472 130.358 61.4774 128.503 64.3913 126.047C66.5539 124.223 68.3511 122.327 70.1685 120.156C71.3868 118.699 72.5748 117.241 73.8744 115.845C75.7629 113.806 77.3772 112.838 79.8952 111.809C82.4741 110.759 84.19 109.943 86.2714 107.987C87.4898 106.845 91.3581 102.697 89.3173 101.066C88.4645 100.383 86.7892 100.791 85.8145 100.974C79.7734 102.075 76.6056 101.29 71.2244 98.6199C71.7422 97.4885 72.1686 96.3368 72.3108 95.0832C72.6458 92.0765 71.6102 89.9055 69.2141 88.1525C68.3511 87.5206 67.417 87.0211 66.5133 86.4504C65.9549 86.1038 65.1528 85.5942 64.8482 84.9827C64.6452 84.575 64.635 83.9839 64.6248 83.5354C64.6147 82.8219 64.6249 82.1289 64.5335 81.4256C64.2695 79.2649 63.1933 77.7258 61.4368 76.462C59.2132 74.8516 57.345 74.6886 54.6849 74.6274C50.6846 74.5459 49.1717 74.2809 46.8061 70.8461C44.4607 67.4521 41.6584 66.1679 37.5667 66.4023C35.5767 66.5144 32.4799 67.3604 31.0585 68.7975C30.2869 69.5721 30.1853 70.7034 31.2311 71.2844C31.2413 71.2844 31.2514 71.2946 31.2717 71.3047C31.7185 71.5392 32.3073 71.6411 32.8048 71.7328C33.4039 71.8449 34.0029 71.957 34.5715 72.2017C36.2772 72.9151 36.9169 74.4949 37.191 76.2378C37.323 77.043 37.3128 77.9399 37.323 78.7553C37.323 79.7847 37.323 80.8039 37.4245 81.8333C37.5464 83.2398 37.8307 84.6973 38.5617 85.9204C38.9069 86.5013 39.3435 87.0109 39.8613 87.4288C37.9626 87.8365 36.1351 88.7334 34.6527 89.9973C34.8964 88.2544 34.937 85.7063 33.8506 84.626C33.5562 84.3304 33.2008 84.1265 32.7642 84.1062C32.0637 84.0756 31.3631 84.575 30.8148 84.9623C30.1447 85.4413 29.4848 85.9408 28.7131 86.2261C27.1292 86.8173 24.926 86.8581 23.2913 86.4708C22.0628 86.1854 20.8038 85.4617 19.7276 84.8094C18.3772 83.9839 17.0675 83.0971 15.7069 82.3021C14.4175 81.5581 13.057 80.8752 11.6152 80.4777C12.1939 79.5502 12.7016 78.582 13.2194 77.6137C13.7271 76.676 14.2652 75.7282 14.9658 74.9128C15.2399 74.5968 15.5445 74.3013 15.8795 74.0363C17.5548 72.7011 20.2048 72.1099 22.2151 71.4372C23.5046 71.0092 24.7839 70.4996 25.9109 69.7351C26.8856 69.0828 27.6877 68.2675 28.2867 67.2584C29.4645 65.2913 29.9721 61.3062 28.8654 59.2474C27.5252 56.7706 25.3727 58.9416 23.7685 59.6347C20.4586 61.0514 17.3517 59.7468 14.4886 57.9937C13.3514 57.3006 12.265 56.5464 11.1482 55.8228C10.1532 55.1807 9.09722 54.5385 7.99052 54.1207C5.70606 53.2543 3.00533 53.0505 0.517799 53.5907V55.6393C1.70572 55.3234 2.98502 55.2214 4.2034 55.3132C8.05145 55.5883 10.011 57.5147 13.0874 59.492C16.042 61.3877 19.6159 62.835 23.1593 61.9279C24.1442 61.6731 25.0174 61.2756 25.8804 60.7558C26.053 60.6539 26.7739 60.185 27.0582 60.1035C27.1902 60.3073 27.3221 60.8781 27.3628 61.0514C27.5049 61.7444 27.5354 62.4885 27.4744 63.1917C27.3221 65.1181 26.5099 66.8202 24.9159 67.9515C22.5096 69.6638 19.6058 69.9288 16.9659 71.0703C12.4579 73.0272 11.9503 76.411 9.46275 80.1006C8.15299 80.0089 6.84322 80.1618 5.55377 80.3554C3.7059 80.6408 2.00016 80.9975 0.375656 81.2727V83.2908C1.75648 83.0768 3.13732 82.7812 4.51815 82.5366C5.97005 82.2716 7.49302 82.0371 8.97538 82.0779C11.3817 82.1493 13.5545 83.2704 15.5648 84.5139C17.7782 85.8796 20.286 87.7958 22.8344 88.3971C24.8448 88.8761 27.4744 88.8048 29.4137 88.0811C29.7691 87.9486 30.1041 87.7754 30.429 87.5919C30.9367 87.2963 31.424 86.9702 31.9012 86.6236C32.0231 86.5319 32.3378 86.2873 32.5409 86.165C32.8861 86.8377 32.7744 88.9781 32.6932 89.559C31.9418 95.2157 28.0024 96.7241 23.0883 97.8758C20.7531 98.4262 18.032 98.9155 15.9405 100.108C13.5341 101.474 11.7472 103.227 9.93995 105.286C8.41697 107.018 6.99552 108.771 5.26949 110.31C3.7059 111.696 2.04078 112.787 0.203056 113.643V115.824C2.53828 114.866 5.14765 113.215 6.81277 111.635C10.1024 108.496 12.9148 104.124 16.9253 101.851C18.1538 101.148 19.6159 100.75 20.9866 100.424C22.5705 100.047 24.1645 99.7308 25.7281 99.2824C26.7739 98.9766 27.8095 98.6199 28.7842 98.1307C29.8604 97.6007 30.8351 96.9382 31.688 96.1126C31.7692 99.0378 33.2821 101.932 36.0336 102.972C35.6071 103.043 35.1705 103.104 34.7441 103.166C31.2717 103.655 28.3679 104.593 25.8398 107.151C24.7839 108.211 22.8446 110.769 23.5655 112.349C23.667 112.563 23.799 112.756 23.9919 112.899C24.8854 113.633 26.8145 113.276 27.9009 113.225C28.0735 113.225 28.2562 113.205 28.4288 113.205C32.5206 113.164 35.0995 114.296 38.2876 116.487C36.2163 116.895 34.3887 118.26 33.3125 120.074C33.3125 120.085 33.3024 120.095 33.2922 120.105C31.5865 122.979 32.1855 126.098 34.5106 128.422C37.5159 131.408 42.227 132.509 46.5015 132.58C45.0394 133.1 43.6383 133.814 42.3894 134.751C38.2266 137.89 36.1249 143.384 35.8203 148.541H37.8002C37.8814 147.328 38.0845 146.105 38.3789 144.903C40.3385 137.014 45.7907 133.426 53.7102 133.375C59.9849 133.335 64.4827 135.383 69.7623 138.502C70.93 139.185 72.0976 139.878 73.3058 140.49C73.8338 140.938 73.7424 140.714 74.2805 140.958C78.5956 142.895 82.4233 142.966 87.0329 142.976C89.6118 142.976 92.1298 143.027 94.668 143.568C98.9121 144.475 102.242 146.34 105.369 148.908L108.436 148.929C106.1 146.758 103.786 145.056 100.851 143.639C96.8205 141.682 93.3989 141.111 89.0737 141.009L92.3937 137.89C92.3937 137.89 92.4039 137.89 92.414 137.87C95.5209 134.435 98.1201 129.614 98.6278 124.895C100.608 128.503 105.603 129.828 109.045 127.199C110.649 125.966 111.532 124.151 111.076 122.123C110.71 120.513 109.522 119.045 107.918 118.566C106.781 118.22 105.644 118.434 104.649 119.086C104.638 119.086 104.628 119.106 104.618 119.106C103.796 119.657 103.451 120.339 103.075 121.226C102.598 122.47 104.354 123.193 104.882 122.062C104.882 122.052 104.892 122.042 104.902 122.031C105.095 121.583 105.309 121.073 105.715 120.788C105.725 120.788 105.735 120.778 105.745 120.768C108.091 119.229 110.913 123.265 107.837 125.619C106.436 126.689 104.588 126.903 102.963 126.21C101.491 125.578 100.384 124.447 99.9578 122.888C99.1659 120.044 100.851 117.2 103.339 115.875C106.243 114.336 108.72 114.764 111.472 116.242C113.37 117.261 115.462 118.882 117.553 119.361C119.32 119.769 121.726 119.585 123.584 119.035C122.904 120.013 121.838 120.9 120.965 121.614C119.817 122.541 117.746 124.009 117.086 125.313C115.533 128.381 118.294 131.021 117.736 134.017C117.513 135.22 116.985 136.056 116.071 136.841C115.441 137.371 114.517 137.901 114.111 138.624C114 138.828 113.918 139.042 113.888 139.277C113.868 139.43 113.847 139.593 113.847 139.756C113.817 140.918 114.274 142.059 114.365 143.211C114.477 144.77 113.847 145.922 112.761 147.002L112.741 147.023C111.918 147.838 111.025 148.49 110.009 148.969L113.563 148.99C114.457 148.215 115.228 147.318 115.716 146.401C116.396 145.107 116.457 143.741 116.264 142.324C116.172 141.672 115.776 140.153 115.868 139.582C115.908 139.44 116.853 138.777 117.005 138.655C117.848 137.992 118.538 137.259 119.046 136.311C121.371 131.959 117.675 128.616 118.883 126.21C119.147 125.69 119.949 125.018 120.396 124.651C121.239 123.948 122.112 123.275 122.945 122.561C123.929 121.705 125.036 120.655 125.666 119.483C125.666 119.473 125.676 119.463 125.686 119.453C126.082 118.699 126.346 117.649 125.584 117.027C125.584 117.027 125.564 117.017 125.554 117.007C125.503 116.976 125.452 116.935 125.402 116.915C125.391 116.915 125.381 116.895 125.361 116.895C124.559 116.466 123.056 117.149 122.173 117.343C115.644 118.77 114.172 113.969 108.507 113.052C105.583 112.583 102.445 113.592 100.323 115.661C99.237 116.721 98.4653 118.005 98.0795 119.453H98.0389ZM72.8692 148.786C71.001 147.624 68.9196 146.717 66.4321 146.279C62.8887 145.647 58.2385 146.105 55.4667 148.694H52.8472C52.9487 148.531 53.0604 148.388 53.1721 148.246C56.2586 144.352 62.1475 143.486 66.7773 144.312C70.534 144.984 73.4987 146.584 76.3517 148.806L72.8692 148.786ZM11.6863 148.46C14.1433 147.532 18.0117 147.043 20.5601 147.227C21.3825 147.288 22.1745 147.43 22.9766 147.614C23.3523 147.695 23.7888 147.828 24.195 147.899C24.0427 146.523 23.1187 143.873 22.5502 142.874C19.4027 137.299 12.6001 139.114 7.7164 136.881C5.83807 136.025 4.3557 134.721 2.91395 133.253C1.97986 132.305 1.07623 131.296 0.0913696 130.399V127.79C1.07623 128.534 1.9494 129.4 2.87334 130.358C3.7262 125.915 5.72639 122.113 9.43229 119.361C12.3056 117.221 16.0725 116.415 19.5854 116.945C22.408 117.374 25.6469 118.831 26.8246 121.624C27.2714 122.674 27.3526 123.795 27.1292 124.916C26.7333 126.934 25.4743 128.605 23.5553 129.39C22.0019 130.032 20.0829 130.022 18.6717 129.013C18.1538 128.636 17.7477 128.157 17.4634 127.596C14.6307 129.512 13.3311 132.815 13.26 136.168C20.5906 137.238 24.2356 138.859 25.9616 146.697C26.0632 147.176 26.2155 147.889 26.1647 148.521L11.6863 148.439V148.46ZM0.42643 68.3796C1.70573 68.5427 3.04595 68.349 4.19325 67.7375C5.18826 67.2075 6.14266 66.28 6.28481 65.0977C6.35587 64.4862 6.19343 63.9154 5.85838 63.4058C4.74152 61.6833 3.10686 62.3458 1.87833 63.5587C1.41129 64.0173 0.791939 63.8339 0.456886 63.4262V62.1623C0.456886 62.1623 0.548271 62.0706 0.609192 62.0298C0.609192 62.0298 0.629494 62.0196 0.639648 62.0094C2.26415 60.6539 3.83789 59.7162 5.91929 60.8475C6.97522 61.4183 7.75701 62.3356 8.09206 63.4873C8.50835 64.9244 8.17329 66.4532 7.32043 67.6559C6.23404 69.1848 4.50801 70.0307 2.69059 70.3365C1.93925 70.4588 1.17776 70.4792 0.416283 70.4078V68.4H0.42643V68.3796ZM76.2705 139.674C82.0984 136.015 86.048 133.039 88.8604 126.383C89.1549 126.159 89.4189 125.915 89.6625 125.639C89.6625 125.639 89.6828 125.619 89.6828 125.609C90.1397 125.079 90.4646 124.457 90.6271 123.774C91.1043 121.685 90.0077 120.441 88.5051 119.218C88.5051 119.218 88.4848 119.198 88.4746 119.188C87.3882 118.27 86.18 120.044 87.2156 120.737C88.5051 121.593 89.3579 122.939 88.1903 124.304L88.17 124.325C87.3984 125.211 86.3018 125.711 85.1241 125.701C82.4843 125.701 81.012 123.448 80.9105 120.992C80.8394 119.218 81.3776 117.567 82.6162 116.283C84.7992 114.01 88.4442 113.511 91.3378 114.52C95.1249 115.845 96.9728 120.543 96.6581 124.294C96.2012 129.706 93.0638 134.68 89.1853 138.319L85.8957 141.02C85.2662 141.02 84.6469 141.019 84.0174 140.999C81.3268 140.918 78.7885 140.602 76.2705 139.674ZM69.4476 97.7128C64.3406 95.0424 60.7565 93.483 54.8372 94.4717C52.9081 91.9848 50.644 89.6405 47.7402 88.3563C49.7302 87.439 51.0196 85.7063 50.8267 83.3621C50.6643 81.446 49.4154 79.4076 47.5066 78.8266C46.8365 78.6228 46.1461 78.6228 45.476 78.8266C44.1764 79.2139 43.2525 80.2535 42.9986 81.5887C42.3996 84.7585 45.0597 84.2285 44.948 82.8423C44.6739 79.4381 48.7656 80.3452 48.857 83.6985C48.9687 87.6938 42.3285 87.8569 40.4705 85.1967C38.978 83.0564 39.4044 79.8866 39.2826 77.4099C39.2521 76.9003 39.2115 76.4009 39.1404 75.9014C38.9881 74.8618 38.6937 73.8732 38.186 72.9457C36.8458 70.5199 35.3025 70.2957 33.0587 69.7861C34.9675 68.5223 38.1759 68.1961 40.2877 68.5834C45.212 69.5007 44.9176 73.4247 48.6742 75.5243C52.4918 77.6443 56.6851 75.4836 60.2996 78.103C61.5586 79.0101 62.3607 80.0497 62.5638 81.6091C62.7161 82.7608 62.5231 83.9839 62.7973 85.1152C62.8582 85.3904 62.9597 85.6554 63.0816 85.9102C64.1375 88.02 67.7622 88.9984 69.4273 91.0776C71.0416 93.0855 70.4426 95.5724 69.4781 97.7332L69.4476 97.7128ZM25.3524 111.381C25.4641 110.952 26.0225 110.096 26.1647 109.892C26.4693 109.454 26.8348 108.965 27.2105 108.588C28.8045 106.988 30.5305 106.091 32.7236 105.591C34.4801 105.184 36.3381 105.102 38.054 104.572C39.6684 104.073 41.2929 103.104 42.7346 102.228C44.5216 101.137 46.2781 99.9958 48.126 99.0072C52.4004 96.7241 56.746 95.4705 61.5992 96.5509C63.5689 96.9891 65.1528 97.723 66.9195 98.6708C67.7723 99.1193 68.615 99.5779 69.4882 99.9856C74.8389 102.727 78.819 104.144 84.9109 103.166C85.3779 103.094 87.0024 102.748 87.774 102.676L86.8501 104.348C85.6825 105.948 84.3321 107.253 82.6467 108.282C81.2862 109.108 79.8444 109.658 78.3925 110.29C77.1234 110.84 75.9253 111.431 74.8186 112.267C73.4784 113.276 72.2702 114.632 71.1736 115.896C69.8131 117.465 68.4932 119.076 67.0921 120.625C63.8532 124.202 60.3098 127.28 55.7713 129.054C50.7455 131.011 43.5875 131.347 38.6632 128.942C35.6376 127.464 32.947 124.61 34.9776 121.165C34.9776 121.165 34.9878 121.145 34.9979 121.134C35.6883 119.983 36.724 119.096 37.9931 118.658C39.049 118.291 40.4299 118.158 41.232 119.106C41.8513 119.84 41.8615 120.9 41.5975 121.777C41.2421 122.989 40.5923 123 39.5161 122.663C38.3079 122.286 37.6885 124.08 38.8561 124.539C42.1864 125.843 44.0647 122.979 43.6687 120.064C45.1003 120.859 46.603 121.542 48.1666 121.991C52.6746 123.295 57.5684 122.388 60.9393 119.004C65.7823 114.153 62.5536 106.784 56.4414 105.286C53.9945 104.684 50.5526 104.858 49.2428 107.416C48.5829 108.71 48.7859 110.178 49.4053 111.442C50.7252 114.122 53.0198 114.296 55.6901 114.296C56.2079 114.296 56.6343 113.898 56.6749 113.378C56.6952 113.113 56.6546 112.848 56.4719 112.644C55.5885 111.656 52.5223 113.266 51.1922 110.555C50.8369 109.842 50.644 108.975 51.0704 108.252C51.9029 106.814 54.3194 106.825 55.7205 107.141C58.0659 107.681 60.0052 109.271 60.8885 111.544C62.3099 115.213 59.8935 118.067 56.6952 119.565C56.4922 119.657 56.2891 119.748 56.086 119.83C52.1771 121.399 48.4813 120.401 44.9379 118.464C43.1814 117.496 41.5366 116.354 39.8816 115.223C38.5109 114.285 36.9981 113.225 35.4751 112.573C31.8708 111.044 29.0685 111.187 25.3524 111.36V111.381ZM52.6543 94.9507C49.4357 95.8476 46.5928 97.4784 43.7703 99.2416C44.0647 97.988 43.9733 96.5916 43.4454 95.4297C42.5011 93.3709 40.7954 93.0142 38.7546 92.7186C37.455 92.5351 37.1707 94.5124 38.4703 94.6959C40.44 94.9813 41.8208 95.2463 41.9427 97.5599C42.0138 98.8237 41.5975 99.9754 40.5416 100.719C38.9374 101.851 36.5209 101.565 35.1807 100.139C34.2974 99.1906 33.7796 97.6414 33.6679 96.3674C33.2719 91.8319 38.714 89.0494 42.6128 89.1921C47.1208 89.3654 49.9129 91.679 52.6543 94.9507ZM4.62984 132.152L5.4624 128.259C6.64017 124.61 9.39166 121.124 12.9757 119.626C14.2144 119.106 15.5851 118.862 16.9253 118.821C19.5854 118.739 23.7888 119.595 24.9768 122.358C25.2814 123.061 25.3321 123.795 25.1798 124.549C24.8955 125.996 23.9818 127.178 22.5705 127.658C21.5958 127.984 20.2555 127.953 19.5144 127.128C19.2402 126.832 19.0981 126.465 19.0676 126.057C18.9762 124.967 19.8494 124.478 20.6414 123.948C21.7278 123.224 20.6211 121.563 19.5347 122.286C18.2858 123.132 17.2401 123.927 17.0878 125.507C13.3209 127.647 11.4528 131.643 11.2903 135.872C8.30527 135.312 6.80261 134.282 4.61968 132.142L4.62984 132.152Z" fill="white"/>
<path fill-rule="evenodd" clip-rule="evenodd" d="M0.182762 113.664C2.02048 112.807 3.68559 111.717 5.24918 110.331C6.97522 108.792 8.40682 107.039 9.91964 105.306C11.7269 103.247 13.5139 101.494 15.9202 100.128C18.0219 98.9358 20.7327 98.4466 23.068 97.8962C27.9821 96.7343 31.9215 95.2361 32.6729 89.5794C32.7541 88.9882 32.8658 86.8581 32.5206 86.1854C32.3175 86.3179 32.0028 86.5523 31.8809 86.644C31.4037 86.9906 30.9164 87.3167 30.4087 87.6123C30.0838 87.7957 29.7386 87.969 29.3934 88.1015C27.4541 88.8353 24.8245 88.8965 22.8141 88.4175C20.2657 87.8161 17.7579 85.9 15.5445 84.5342C13.5342 83.2908 11.3614 82.1696 8.95509 82.0983C7.47273 82.0575 5.95991 82.2919 4.49786 82.5569C3.11703 82.8117 1.73619 83.0971 0.345203 83.3112L0.182762 113.664Z" fill="#5DBDEB"/>
<path fill-rule="evenodd" clip-rule="evenodd" d="M0.203054 110.524C1.55342 109.77 2.87334 108.812 4.17294 107.671C5.60454 106.417 7.00567 104.959 8.63018 103.359C10.2547 101.759 12.1127 100.026 14.1636 98.7931C16.2247 97.5599 18.4787 96.8362 20.5601 96.031C22.6314 95.2157 24.53 94.3188 25.9007 93.5136C27.2815 92.7186 28.1446 92.0153 27.7486 91.7197C27.3526 91.4242 25.6976 91.5261 24.0528 91.1592C22.4182 90.7821 20.8038 89.9361 19.1387 88.9169C17.4837 87.9079 15.778 86.7256 13.9809 85.9204C12.1939 85.1152 10.3055 84.6667 8.09206 84.626C5.86852 84.5852 3.30993 84.9419 1.127 85.1356C0.852861 85.156 0.588881 85.1763 0.335051 85.1967L0.203054 110.504V110.524Z" fill="#3D82C4"/>
<path fill-rule="evenodd" clip-rule="evenodd" d="M0.213221 107.823C1.57374 106.896 2.93427 105.816 4.19326 104.633C5.4624 103.451 6.63 102.177 7.7367 101.056C8.83324 99.9347 9.85872 98.9664 10.9654 98.1001C12.0721 97.2235 13.26 96.4387 14.519 95.7559C15.778 95.073 17.1182 94.4818 18.5092 94.013C19.9103 93.5442 21.3622 93.1772 21.5958 92.8715C21.8293 92.5657 20.8444 92.3007 20.3063 92.158C19.7783 92.0153 19.6971 91.9949 19.0473 91.6076C18.3975 91.2305 17.1791 90.4967 15.8998 89.7425C14.6307 88.9882 13.3006 88.2136 11.8893 87.6633C10.4882 87.1129 8.9957 86.7867 7.4118 86.7052C5.81776 86.6236 4.12218 86.7765 2.28446 86.9804C1.63465 87.0517 0.974697 87.1333 0.314743 87.2046L0.203056 107.844L0.213221 107.823Z" fill="#3374BA"/>
<path fill-rule="evenodd" clip-rule="evenodd" d="M0.223375 105.887C0.578735 105.632 0.93409 105.367 1.2793 105.102C2.86319 103.899 4.33541 102.615 5.73655 101.168C7.13768 99.7207 8.46774 98.1205 9.88918 96.8057C11.3106 95.4909 12.8336 94.4717 14.2246 93.8194C14.9962 93.4626 15.7171 93.2282 16.4887 92.9123C17.2807 92.5861 17.0269 92.423 16.3466 92.1173C15.8694 91.9032 15.4023 91.7096 14.9353 91.465C13.8185 90.884 12.6102 89.9973 11.2091 89.3857C9.80796 88.7742 8.20375 88.4277 6.34573 88.4684C4.49785 88.5194 2.39615 88.9577 0.304602 89.1411L0.213226 105.867L0.223375 105.887Z" fill="#225CAB"/>
<path fill-rule="evenodd" clip-rule="evenodd" d="M0.35536 81.2931L0.416277 70.3874C1.17776 70.469 1.93926 70.4486 2.69059 70.3161C4.49785 70.0103 6.23404 69.1746 7.32043 67.6355C8.17329 66.4329 8.50834 64.8938 8.09206 63.4669C7.75701 62.305 6.97521 61.3979 5.91929 60.8271C3.83789 59.6958 2.26415 60.6437 0.639647 61.989L0.60919 62.0094C0.558424 62.0502 0.507658 62.091 0.467045 62.1419L0.497503 55.6597C1.69558 55.3437 2.97487 55.2418 4.19325 55.3335C8.0413 55.6087 10.0009 57.535 13.0773 59.5123C16.0318 61.4081 19.6057 62.8554 23.1492 61.9483C24.1341 61.6935 25.0072 61.296 25.8702 60.7762C26.0428 60.6743 26.7637 60.2054 27.048 60.1239C27.18 60.3277 27.312 60.8985 27.3526 61.0717C27.4947 61.7648 27.5252 62.5089 27.4643 63.2121C27.312 65.1384 26.4997 66.8405 24.9057 67.9719C22.4994 69.6842 19.5956 69.9492 16.9558 71.0907C12.4478 73.0476 11.9401 76.4314 9.45258 80.121C8.14282 80.0293 6.83307 80.1822 5.54362 80.3758C3.69575 80.6612 1.99001 81.0179 0.365507 81.2931H0.35536ZM4.18309 67.7375C5.1781 67.2075 6.13251 66.28 6.27465 65.0977C6.34573 64.4861 6.18326 63.9154 5.84821 63.4058C4.73136 61.6833 3.0967 62.3458 1.86817 63.5586C1.40112 64.0173 0.78179 63.8338 0.446735 63.4261L0.416277 68.4C1.69557 68.563 3.03578 68.3694 4.18309 67.7578V67.7375Z" fill="#5DBDEB"/>
<path fill-rule="evenodd" clip-rule="evenodd" d="M0.355373 81.2931L0.385832 74.9128C1.34023 74.1178 2.27431 73.4043 3.33024 72.5788C5.1172 71.1722 7.26967 69.4498 7.98039 67.9719C8.35606 67.1871 8.33575 66.4838 8.12253 65.8315C8.30529 65.0569 8.29513 64.2517 8.07176 63.4669C7.73671 62.305 6.95492 61.3979 5.89899 60.8271C3.81759 59.6958 2.24386 60.6437 0.61935 61.9891L0.588892 62.0094C0.538126 62.0502 0.487362 62.091 0.446749 62.1419L0.46706 58.0039C1.60421 57.5452 3.02565 57.3822 4.53847 57.5147C6.0716 57.6574 7.68595 58.1262 9.04647 58.8499C10.4172 59.5735 11.534 60.5519 12.925 61.3673C14.316 62.1827 15.9709 62.8146 17.5142 63.2937C19.0575 63.7625 20.4789 64.0683 21.4029 64.3129C22.3268 64.5677 22.7634 64.7715 22.2456 65.1792C21.7278 65.5971 20.2657 66.2188 18.8443 66.8609C17.4228 67.503 16.0521 68.1553 14.7322 69.2153C13.4225 70.2753 12.1736 71.7532 11.0771 73.3228C9.98057 74.8924 9.04647 76.5537 8.18345 77.9501C7.64533 78.8164 7.12753 79.591 6.53864 80.2229C6.19344 80.2637 5.84823 80.3147 5.51318 80.3656C3.6653 80.651 1.95957 81.0077 0.335064 81.2829L0.355373 81.2931ZM1.03563 66.3004C1.79712 66.3004 2.58907 66.1169 3.14749 65.75C3.70592 65.3831 4.01051 64.8225 4.10189 64.3231C4.19327 63.8237 4.07143 63.365 3.76684 63.1306C3.47239 62.886 2.99519 62.8656 2.55861 62.9675C2.31493 63.1408 2.08141 63.3446 1.85804 63.5587C1.39099 64.0173 0.771656 63.8338 0.436602 63.4262V66.28C0.619358 66.3106 0.822407 66.3207 1.02547 66.3207L1.03563 66.3004Z" fill="#3D82C4"/>
<path fill-rule="evenodd" clip-rule="evenodd" d="M0.355356 81.2931L0.395962 74.5459C1.05592 74.0974 1.69557 73.6388 2.2743 73.1495C3.66528 71.957 4.65013 70.6117 5.36086 69.409C6.12234 68.9707 6.80261 68.4 7.32042 67.6559C8.17329 66.4532 8.50834 64.9142 8.09206 63.4873C7.757 62.3254 6.97521 61.4183 5.91928 60.8475C3.83788 59.7162 2.26415 60.6641 0.639643 62.0094L0.609184 62.0298C0.558418 62.0706 0.507654 62.1114 0.467041 62.1623V60.3175C0.802095 60.1137 1.15745 59.92 1.52296 59.7366C2.21338 59.39 2.91394 59.0741 3.75665 59.0027C4.59937 58.9314 5.56392 59.0945 6.42694 59.4002C7.28996 59.706 8.03113 60.1545 8.72155 60.6845C9.41196 61.2145 10.0618 61.826 10.874 62.305C11.6863 62.7841 12.6711 63.1408 13.7271 63.4058C14.783 63.6708 15.91 63.8542 16.377 64.0377C16.8339 64.2212 16.6309 64.4046 15.9912 64.8531C15.3516 65.3015 14.2753 66.0252 13.2702 66.9323C12.265 67.8292 11.3106 68.9096 10.4679 70.1123C9.62518 71.3149 8.884 72.6501 8.04129 73.9241C7.18842 75.2084 6.23403 76.4314 5.41162 77.5628C4.57907 78.6941 3.8785 79.7235 2.94441 80.5491C2.80227 80.6816 2.64996 80.8039 2.48751 80.9262C1.76664 81.0587 1.06607 81.1912 0.37565 81.3033L0.355356 81.2931ZM0.893472 64.1702C1.34021 64.0785 1.67527 63.8237 2.02047 63.5281C2.36568 63.2325 2.73119 62.8962 3.09671 62.6719C3.47237 62.4477 3.85819 62.3356 4.28462 62.3866C4.57906 62.4171 4.90397 62.5394 5.23902 62.7331C4.18309 61.9279 2.88348 62.5496 1.86817 63.5587C1.40112 64.0173 0.781785 63.8338 0.44673 63.4262V64.211C0.599028 64.211 0.751328 64.211 0.893472 64.1804V64.1702Z" fill="#3374BA"/>
<path fill-rule="evenodd" clip-rule="evenodd" d="M0.365511 79.856C1.00516 79.377 1.63465 78.8368 2.20323 78.2355C3.37084 77.0022 4.25417 75.5753 5.1578 73.9955C6.05128 72.4157 6.97522 70.7034 8.08192 69.2052C9.19876 67.7069 10.5085 66.4329 11.4528 65.6888C12.397 64.9448 12.9757 64.7104 12.8437 64.5473C12.7219 64.374 11.8894 64.2721 10.9553 63.9664C10.011 63.6708 8.96523 63.1917 8.12252 62.5904C7.81793 62.3662 7.53365 62.1318 7.25951 61.9075C7.63518 62.356 7.91946 62.8758 8.09206 63.4669C8.50834 64.904 8.17329 66.4329 7.32043 67.6356C6.23404 69.1644 4.50801 70.0103 2.69059 70.3161C1.93926 70.4384 1.17777 70.4588 0.41628 70.3875L0.365511 79.856Z" fill="#225CAB"/>
<path fill-rule="evenodd" clip-rule="evenodd" d="M105.349 148.959L76.3518 148.806C73.4987 146.584 70.5441 144.984 66.7773 144.312C62.1576 143.486 56.2688 144.352 53.1721 148.246C53.0604 148.388 52.9487 148.531 52.8472 148.684L37.7697 148.603C37.851 147.379 38.054 146.156 38.3485 144.954C40.308 137.065 45.7603 133.477 53.6797 133.426C59.9544 133.386 64.4522 135.434 69.7319 138.553C70.8995 139.236 72.0671 139.929 73.2753 140.54C73.8033 140.989 73.7119 140.765 74.25 141.009C78.5651 142.946 82.3929 143.017 87.0024 143.027C89.5813 143.027 92.0993 143.078 94.6376 143.619C98.8816 144.526 102.212 146.391 105.339 148.959H105.349ZM72.8692 148.786C71.001 147.624 68.9196 146.717 66.4321 146.279C62.8887 145.647 58.2385 146.105 55.4667 148.694L72.8692 148.786ZM1.14441e-05 148.399L0.0913811 130.409C1.07624 131.317 1.97987 132.326 2.91396 133.263C4.35571 134.721 5.82793 136.025 7.71641 136.892C12.6001 139.124 19.3925 137.31 22.5502 142.885C23.1188 143.884 24.0427 146.533 24.195 147.909C23.7889 147.838 23.3523 147.716 22.9766 147.624C22.1745 147.441 21.3826 147.298 20.5602 147.237C18.0117 147.043 14.1434 147.532 11.6863 148.47L1.14441e-05 148.409V148.399Z" fill="#5DBDEB"/>
<path fill-rule="evenodd" clip-rule="evenodd" d="M52.8472 148.684L40.8055 148.623C40.8462 146.717 41.1914 145.056 42.0138 143.476C42.8463 141.876 44.1865 140.347 45.7704 139.277C47.3543 138.196 49.192 137.575 51.0704 137.208C52.9487 136.841 54.8778 136.729 56.9288 136.983C58.9797 137.238 61.1626 137.85 63.2542 138.777C65.3356 139.705 67.3256 140.928 69.5491 141.916C71.7727 142.905 74.2399 143.649 76.768 144.199C79.2962 144.75 81.8751 145.107 84.3321 145.31C86.7892 145.504 89.1244 145.535 91.5409 145.861C93.9573 146.187 96.4652 146.798 98.7598 147.92C99.3893 148.225 100.009 148.572 100.597 148.939L76.3314 148.806C73.4784 146.584 70.5238 144.984 66.757 144.312C62.1373 143.486 56.2485 144.352 53.1518 148.246C53.0401 148.388 52.9284 148.531 52.8269 148.684H52.8472ZM67.9754 148.766C67.8434 148.715 67.7114 148.674 67.5794 148.623C65.9245 148.062 64.1172 147.858 62.4318 147.981C61.1829 148.062 59.995 148.317 59.0305 148.725L67.9754 148.776V148.766ZM-3.8147e-06 148.399L0.0812263 133.803C1.33006 134.843 2.5383 136.056 3.73636 137.095C5.06643 138.257 6.38634 139.195 8.08191 139.878C9.77749 140.561 11.8386 140.989 13.6154 141.468C15.3922 141.947 16.8745 142.467 17.7985 142.915C18.7326 143.364 19.1082 143.731 18.4077 144.036C17.7173 144.342 15.9506 144.587 13.9504 145.351C12.1026 146.054 10.0618 147.206 7.82809 148.45L-3.8147e-06 148.409V148.399Z" fill="#3D82C4"/>
<path fill-rule="evenodd" clip-rule="evenodd" d="M52.8472 148.684L43.486 148.633C43.5977 147.96 43.7703 147.288 44.0139 146.625C44.7754 144.597 46.2578 142.66 47.9128 141.478C49.5677 140.296 51.3851 139.878 53.6696 140.01C55.954 140.143 58.6853 140.846 61.2235 141.682C63.7618 142.518 66.0971 143.496 68.747 144.495C71.397 145.494 74.3516 146.523 77.2858 147.074C80.2201 147.624 83.1239 147.716 86.0379 147.95C88.5558 148.154 91.0637 148.47 93.1755 148.898L76.3619 148.806C73.5089 146.584 70.5543 144.984 66.7875 144.312C62.1678 143.486 56.279 144.352 53.1822 148.246C53.0706 148.388 52.9589 148.531 52.8573 148.684H52.8472ZM0 148.399L0.0609131 136.046C0.91378 136.678 1.69557 137.381 2.45706 138.064C3.68559 139.185 4.87352 140.275 6.05128 141.05C7.22905 141.825 8.40681 142.273 9.73687 142.722C11.0669 143.17 12.5391 143.629 13.0874 143.863C13.6357 144.108 13.2702 144.138 12.3868 144.393C11.5035 144.648 10.1024 145.137 8.65049 145.769C7.19859 146.401 5.70607 147.165 4.18309 148.011C3.95972 148.134 3.72621 148.266 3.49268 148.399L-0.0101471 148.378L0 148.399Z" fill="#3374BA"/>
<path fill-rule="evenodd" clip-rule="evenodd" d="M52.8472 148.684L45.2932 148.643C45.5471 146.992 46.3187 145.657 47.5777 144.577C48.8671 143.466 50.6744 142.63 52.5426 142.375C54.4108 142.12 56.3399 142.436 58.137 142.976C59.2437 143.303 60.2996 143.72 61.4469 144.148C58.2487 144.515 55.1316 145.759 53.1518 148.246C53.0401 148.388 52.9284 148.531 52.8269 148.684H52.8472ZM-7.62939e-06 148.399L0.0507622 138.879C0.964546 139.817 1.84787 140.795 2.81242 141.621C4.0308 142.671 5.37101 143.486 6.60969 143.904C7.84838 144.322 8.98553 144.352 8.64032 144.556C8.29512 144.76 6.48786 145.147 4.87351 145.82C3.25916 146.493 1.84786 147.441 0.375652 148.327L0.263969 148.399H-0.0101547H-7.62939e-06Z" fill="#225CAB"/>
<path fill-rule="evenodd" clip-rule="evenodd" d="M55.7611 129.054C60.2996 127.28 63.8431 124.202 67.0819 120.625C68.483 119.086 69.7928 117.475 71.1635 115.896C72.26 114.632 73.4682 113.276 74.8085 112.267C75.9152 111.432 77.1132 110.84 78.3824 110.29C79.8343 109.658 81.276 109.108 82.6365 108.282C84.3321 107.253 85.6723 105.948 86.84 104.348L87.7639 102.676C86.9923 102.748 85.3677 103.094 84.9007 103.166C78.819 104.144 74.8389 102.727 69.4781 99.9856C68.6049 99.578 67.752 99.1193 66.9093 98.6709C65.1427 97.7332 63.5588 96.9993 61.5891 96.5509C56.746 95.4705 52.4004 96.7139 48.1158 99.0072C46.2679 99.9958 44.5114 101.137 42.7245 102.228C41.2827 103.104 39.6582 104.083 38.0439 104.572C36.328 105.102 34.47 105.194 32.7135 105.591C30.5305 106.091 28.7944 106.988 27.2003 108.588C26.8246 108.965 26.4591 109.454 26.1545 109.892C26.0124 110.096 25.454 110.952 25.3423 111.381C29.0685 111.217 31.8708 111.075 35.465 112.593C36.988 113.236 38.5109 114.296 39.8714 115.243C41.5264 116.375 43.1712 117.526 44.9277 118.485C48.461 120.421 52.1669 121.42 56.0759 119.85C56.279 119.769 56.482 119.677 56.6851 119.585C59.8833 118.087 62.2998 115.233 60.8783 111.564C60.0052 109.291 58.0659 107.711 55.7104 107.161C54.3092 106.835 51.9029 106.835 51.0602 108.272C50.6338 108.996 50.8369 109.862 51.1821 110.575C52.5121 113.286 55.5784 111.666 56.4617 112.665C56.6445 112.869 56.6851 113.134 56.6648 113.399C56.6242 113.908 56.1876 114.316 55.6799 114.316C53.0198 114.316 50.715 114.143 49.3951 111.462C48.7758 110.198 48.5727 108.731 49.2327 107.436C50.5424 104.878 53.9742 104.705 56.4312 105.306C62.5434 106.804 65.7722 114.173 60.9291 119.025C57.5582 122.398 52.6543 123.316 48.1564 122.011C46.5928 121.563 45.0902 120.869 43.6586 120.085C44.0545 123 42.1661 125.864 38.846 124.559C37.6784 124.1 38.2977 122.307 39.5059 122.684C40.5822 123.02 41.2218 123.01 41.5873 121.797C41.8412 120.92 41.831 119.86 41.2218 119.127C40.4197 118.179 39.0389 118.311 37.983 118.678C36.7138 119.116 35.6782 120.003 34.9878 121.155L34.9675 121.185C32.9368 124.62 35.6274 127.474 38.6531 128.962C43.5774 131.367 50.7353 131.031 55.7611 129.074V129.054Z" fill="#5DBDEB"/>
<path fill-rule="evenodd" clip-rule="evenodd" d="M55.6799 112.318C56.0251 112.359 56.2993 112.451 56.482 112.665C56.6648 112.869 56.7054 113.134 56.6851 113.399C56.6445 113.908 56.2079 114.316 55.7002 114.316C53.0401 114.316 50.7353 114.143 49.4154 111.462C48.7961 110.198 48.593 108.731 49.253 107.436C50.5627 104.878 53.9945 104.705 56.4516 105.306C62.5638 106.804 65.7925 114.173 60.9494 119.025C57.5786 122.398 52.6746 123.316 48.1767 122.011C46.6131 121.563 45.1105 120.869 43.6789 120.085C44.0749 123 42.1864 125.864 38.8663 124.559C38.6328 124.467 38.4703 124.325 38.3688 124.151C38.3586 124.569 38.5515 125.109 38.9881 125.65C39.4958 126.282 40.3385 126.903 41.6076 127.372C42.8768 127.841 44.5622 128.147 46.3289 128.269C48.0955 128.381 49.9535 128.31 51.6491 128.035C53.3548 127.759 54.8981 127.28 56.4922 126.516C58.0964 125.752 59.7412 124.692 61.2235 123.356C62.7059 122.011 64.0055 120.39 65.4676 118.576C66.9296 116.762 68.5541 114.764 69.935 113.164C71.3158 111.574 72.4631 110.382 73.7221 109.536C74.9811 108.69 76.3517 108.17 77.5092 107.64C78.6667 107.11 79.6109 106.56 79.3672 106.244C79.1134 105.928 77.6717 105.846 75.9862 105.479C74.2907 105.112 72.3514 104.45 70.7777 103.757C69.1938 103.064 67.9754 102.34 66.4524 101.627C64.9294 100.903 63.112 100.179 61.3758 99.7308C59.6397 99.2722 57.9847 99.0887 56.35 99.1703C54.7052 99.2518 53.0807 99.6085 51.5374 100.149C49.9942 100.689 48.5422 101.402 47.07 102.238C45.5978 103.064 44.1155 104.012 42.8159 104.837C41.5163 105.663 40.4096 106.376 39.3029 106.886C38.186 107.385 37.0692 107.681 36.0742 108.037C35.0792 108.394 34.1958 108.812 34.1146 109.067C34.0334 109.322 34.7644 109.413 35.7594 109.74C36.7544 110.066 38.0134 110.637 39.3841 111.503C40.7548 112.369 42.2371 113.541 43.7601 114.652C45.2729 115.763 46.8264 116.803 48.2478 117.465C49.6693 118.138 50.9587 118.423 52.1466 118.454C53.3345 118.485 54.4311 118.24 55.4464 117.71C56.4617 117.18 57.3857 116.354 57.8933 115.539C58.4111 114.724 58.5228 113.918 58.4416 113.113C58.3604 112.308 58.0964 111.513 57.7004 111.024C57.3044 110.535 56.7663 110.351 56.482 110.565C56.1977 110.779 56.1774 111.37 56.015 111.819C55.9439 112.012 55.8424 112.186 55.7002 112.318H55.6799Z" fill="#3D82C4"/>
<path fill-rule="evenodd" clip-rule="evenodd" d="M56.2586 114.143C56.0962 114.255 55.9033 114.316 55.7002 114.316C53.0401 114.316 50.7353 114.143 49.4154 111.462C48.7961 110.198 48.593 108.731 49.253 107.436C50.5627 104.878 53.9945 104.705 56.4516 105.306C62.5638 106.804 65.7925 114.173 60.9494 119.025C57.5786 122.398 52.6746 123.316 48.1767 122.011C46.6131 121.563 45.1105 120.87 43.6789 120.085C43.9936 122.439 42.8362 124.753 40.6228 124.875L40.6939 124.926C41.2421 125.313 42.2676 125.701 43.7804 126.006C45.2932 126.302 47.2934 126.516 49.1108 126.434C50.9282 126.363 52.5629 126.006 54.0757 125.425C55.5885 124.855 56.9897 124.07 58.5126 122.908C60.0255 121.746 61.6703 120.227 63.0816 118.413C64.4929 116.609 65.6909 114.52 66.7976 112.858C67.9043 111.197 68.9196 109.974 70.1583 109.087C71.397 108.201 72.8692 107.66 73.1941 107.385C73.519 107.11 72.6966 107.1 71.5696 106.906C70.4426 106.713 68.9907 106.335 67.4271 105.724C65.8635 105.123 64.1883 104.287 62.6957 103.614C61.2032 102.941 59.8935 102.422 58.4111 102.126C56.9186 101.83 55.2535 101.739 53.832 101.871C52.4004 102.004 51.2227 102.35 49.8825 103.043C48.5524 103.736 47.07 104.776 45.6689 105.703C44.2678 106.631 42.9478 107.436 41.7498 107.956C40.5517 108.476 39.4856 108.71 39.4653 108.955C39.445 109.189 40.4806 109.434 41.5975 109.984C42.7143 110.545 43.8921 111.411 45.1003 112.451C46.2984 113.48 47.5168 114.683 48.8265 115.417C50.1363 116.151 51.5476 116.436 52.7863 116.334C54.0148 116.232 55.0707 115.753 55.6698 115.162C56.015 114.826 56.2079 114.459 56.2891 114.143H56.2586Z" fill="#3374BA"/>
<path fill-rule="evenodd" clip-rule="evenodd" d="M55.0606 114.306C54.6748 114.52 54.2077 114.713 53.7 114.846C52.6441 115.111 51.4257 115.029 50.2683 114.428C49.121 113.827 48.0346 112.695 47.0091 111.737C45.9837 110.779 45.0293 109.984 44.7145 109.485C44.3998 108.985 44.7348 108.782 45.4963 108.252C46.2578 107.711 47.4559 106.845 48.6336 106.03C49.8215 105.214 50.9993 104.44 52.4309 104.073C53.8625 103.706 55.5581 103.747 57.142 104.256C58.736 104.776 60.2285 105.775 62.0967 106.478C63.9649 107.181 66.2087 107.599 66.9804 108.048C67.7622 108.496 67.0819 108.975 66.4016 109.903C65.7214 110.83 65.0411 112.206 64.4624 113.592C63.8837 114.989 63.3963 116.395 62.2998 117.74C61.7312 118.434 60.99 119.116 60.1473 119.759C60.4214 119.534 60.6854 119.29 60.9393 119.025C65.7823 114.173 62.5536 106.804 56.4414 105.306C53.9945 104.705 50.5526 104.878 49.2428 107.436C48.5829 108.731 48.7859 110.198 49.4053 111.462C50.6135 113.918 52.6543 114.275 55.0403 114.306H55.0606ZM57.6192 121.399C55.7713 122.419 53.8016 123.183 51.771 123.693C49.7403 124.213 47.6589 124.478 46.0243 124.478C44.4302 124.478 43.2626 124.213 42.7042 123.866C43.5164 122.949 43.8718 121.522 43.6789 120.085C45.1105 120.88 46.6131 121.563 48.1767 122.011C51.4562 122.959 54.9387 122.735 57.8933 121.236C57.8019 121.287 57.7105 121.338 57.6192 121.389V121.399Z" fill="#225CAB"/>
<path fill-rule="evenodd" clip-rule="evenodd" d="M43.7703 99.2416C46.5928 97.4885 49.4357 95.8476 52.6543 94.9507C49.9129 91.679 47.1208 89.3654 42.6128 89.1921C38.7038 89.0494 33.2719 91.8217 33.6679 96.3674C33.7796 97.6516 34.2974 99.1906 35.1807 100.139C36.5209 101.565 38.9374 101.861 40.5416 100.719C41.5975 99.9754 42.0138 98.8237 41.9427 97.5599C41.8107 95.2463 40.4299 94.9813 38.4703 94.6959C37.1707 94.5124 37.455 92.5351 38.7546 92.7186C40.7954 93.0142 42.5011 93.3709 43.4454 95.4297C43.9733 96.5916 44.0647 97.988 43.7703 99.2416Z" fill="#5DBDEB"/>
<path fill-rule="evenodd" clip-rule="evenodd" d="M43.7703 99.2416C45.9735 97.8657 48.1869 96.5712 50.5932 95.6437C50.3495 95.0628 49.8418 94.2882 49.2124 93.6257C48.5016 92.8715 47.6285 92.2396 46.6639 91.7707C45.6994 91.3019 44.6434 90.9859 43.7093 90.8636C42.7651 90.7413 41.9427 90.8126 41.0594 91.0267C40.176 91.2407 39.242 91.6076 38.4602 92.1682C37.6784 92.7288 37.0387 93.4932 36.7646 94.2067C36.4803 94.9201 36.5514 95.5826 36.7646 95.8578C36.988 96.1228 37.3738 95.9903 37.7799 95.7864C38.186 95.5826 38.6125 95.2972 39.1506 95.1953C39.6988 95.0934 40.3588 95.1749 40.9578 95.4399L41.0188 95.4705C40.3994 95.0118 39.5161 94.859 38.4602 94.7061C37.1606 94.5226 37.4448 92.5453 38.7444 92.7288C40.7852 93.0244 42.491 93.3811 43.4352 95.4399C43.9632 96.6018 44.0546 97.9982 43.7601 99.2518L43.7703 99.2416Z" fill="#3D82C4"/>
<path fill-rule="evenodd" clip-rule="evenodd" d="M43.7703 99.2416C45.4354 98.202 47.1208 97.2032 48.8773 96.3776C48.7047 95.9597 48.4509 95.4603 48.1158 94.9711C47.6792 94.3392 47.1005 93.7072 46.4608 93.2384C45.8212 92.7696 45.1308 92.4536 44.3591 92.2905C43.5875 92.1275 42.7448 92.1275 42.0544 92.1478C41.364 92.1784 40.8258 92.2294 40.2979 92.423C40.0136 92.5249 39.7293 92.6778 39.4958 92.8307C41.2015 93.1263 42.623 93.6155 43.4454 95.4195C43.9733 96.5815 44.0647 97.9778 43.7703 99.2314V99.2416Z" fill="#3374BA"/>
<path fill-rule="evenodd" clip-rule="evenodd" d="M43.7703 99.2416C44.8566 98.5689 45.943 97.9064 47.0599 97.3051C47.0599 96.877 46.9177 96.4489 46.6944 96.0311C46.3086 95.287 45.679 94.5736 44.9379 94.064C44.1967 93.5544 43.3438 93.269 42.5113 93.1976C42.0341 93.1569 41.5569 93.1976 41.2218 93.2894C42.1458 93.6665 42.9174 94.278 43.4454 95.4297C43.9733 96.5916 44.0647 97.988 43.7703 99.2416Z" fill="#225CAB"/>
<path fill-rule="evenodd" clip-rule="evenodd" d="M47.7401 88.3563C50.6541 89.6405 52.9081 91.9848 54.8372 94.4717C60.7565 93.483 64.3406 95.0424 69.4476 97.7128C70.4121 95.552 71.0112 93.0651 69.3968 91.0573C67.7419 88.9882 64.1172 88.0098 63.0511 85.8898C62.9293 85.635 62.8277 85.37 62.7668 85.0948C62.4927 83.9635 62.6856 82.7506 62.5333 81.5887C62.3201 80.0293 61.518 78.9897 60.2691 78.0826C56.6445 75.4632 52.4512 77.6239 48.6438 75.5039C44.8871 73.4145 45.1816 69.4803 40.2573 68.563C38.1556 68.1757 34.9472 68.4917 33.0282 69.7657C35.2721 70.2855 36.8153 70.5098 38.1556 72.9253C38.6632 73.8426 38.9577 74.8414 39.11 75.881C39.181 76.3805 39.2318 76.8901 39.2521 77.3895C39.3841 79.8662 38.9577 83.0462 40.44 85.1763C42.2981 87.8365 48.9382 87.6734 48.8265 83.6781C48.7352 80.3147 44.6434 79.4178 44.9176 82.822C45.0293 84.2081 42.3793 84.7381 42.9682 81.5683C43.222 80.2331 44.1459 79.1935 45.4455 78.8062C46.1156 78.6024 46.8061 78.6024 47.4762 78.8062C49.385 79.3872 50.6338 81.4256 50.7962 83.3417C50.9993 85.686 49.6997 87.4186 47.7097 88.3359L47.7401 88.3563Z" fill="#5DBDEB"/>
<path fill-rule="evenodd" clip-rule="evenodd" d="M47.7401 88.3563C50.6541 89.6406 52.9081 91.9848 54.8372 94.4717C59.66 93.6665 62.9293 94.5532 66.7265 96.347C66.8992 96.0005 67.0718 95.603 67.1834 95.1545C67.356 94.4105 67.3357 93.5136 66.9296 92.688C66.5235 91.8625 65.7519 91.1082 64.7873 90.3132C63.8329 89.5182 62.6957 88.6927 61.9038 87.9385C61.1119 87.1842 60.655 86.5013 60.3504 85.4312C60.0356 84.361 59.8732 82.9035 59.4366 81.8231C59 80.7427 58.2994 80.0293 57.345 79.5604C56.3906 79.0916 55.1824 78.8674 53.8016 78.6839C52.4208 78.5005 50.8775 78.3476 49.2936 77.8074C47.7097 77.2672 46.0953 76.3295 44.8769 75.3714C43.6586 74.4134 42.8362 73.4349 42.0747 72.6501C41.3132 71.8653 40.6228 71.2742 40.4705 71.3251C40.3182 71.3761 40.6938 72.0692 40.9883 73.1597C41.2929 74.2503 41.5061 75.7588 41.5366 77.2366C41.5569 78.7145 41.3843 80.172 41.4553 81.2626C41.5366 82.3531 41.8615 83.0666 42.3894 83.5966C42.9174 84.1266 43.6383 84.4629 44.3185 84.4935C44.9988 84.5241 45.6486 84.2489 45.8212 84.0348C45.9938 83.8208 45.6791 83.6781 45.3541 83.3621C45.212 83.2296 45.0699 83.0564 44.9379 82.8729C45.0191 84.2387 42.3996 84.7381 42.9885 81.5887C43.2423 80.2535 44.1662 79.2139 45.4658 78.8266C46.1359 78.6228 46.8264 78.6228 47.4965 78.8266C49.4053 79.4076 50.6541 81.446 50.8166 83.3621C51.0196 85.7064 49.72 87.439 47.73 88.3563H47.7401Z" fill="#3D82C4"/>
<path fill-rule="evenodd" clip-rule="evenodd" d="M47.7401 88.3563C49.7302 87.439 51.0196 85.7064 50.8267 83.3621C50.7049 81.9047 49.9434 80.3656 48.7453 79.4687C49.0499 79.5604 49.3951 79.6624 49.7708 79.7745C50.583 79.9987 51.5679 80.2331 52.502 80.437C53.4361 80.651 54.3194 80.8345 55.091 81.2014C55.8627 81.5683 56.5328 82.1085 56.9998 82.8118C57.477 83.515 57.7512 84.3712 58.0151 85.2069C58.2791 86.0325 58.533 86.8377 59.0305 87.6123C59.528 88.3869 60.2691 89.1309 61.0306 89.7934C61.7921 90.4559 62.5739 91.0267 63.1222 91.5873C63.6806 92.1478 64.0055 92.7084 64.1172 93.3607C64.2187 93.9519 64.1273 94.6245 63.8735 95.1647C61.1423 94.2169 58.4111 93.8805 54.827 94.4717C52.8979 91.9848 50.6338 89.6405 47.73 88.3563H47.7401ZM43.2626 80.2637C43.3032 79.7031 43.354 78.9081 43.3032 78.1233C43.2626 77.3385 43.1205 76.5843 43.1205 76.2887C43.1205 75.9932 43.2626 76.1562 43.6484 76.5435C44.0444 76.9309 44.684 77.5526 45.3135 77.9807C45.7603 78.2864 46.1969 78.5005 46.5624 78.6737C46.1969 78.6737 45.8212 78.7145 45.4658 78.8266C44.4404 79.1324 43.6383 79.8458 43.2321 80.7937C43.2321 80.6408 43.2524 80.4777 43.2626 80.2637Z" fill="#3374BA"/>
<path fill-rule="evenodd" clip-rule="evenodd" d="M47.7401 88.3563C50.6541 89.6406 52.9081 91.9848 54.8372 94.4717C56.8475 94.1353 58.5939 94.0945 60.2184 94.2882C60.2285 94.2678 60.2387 94.2576 60.2488 94.2372C60.6245 93.5747 60.4417 92.5453 59.9849 91.7503C59.528 90.9553 58.7868 90.3948 57.9948 89.8138C57.2029 89.2329 56.3602 88.6315 55.8728 87.6836C55.3855 86.7358 55.2535 85.4617 54.8575 84.626C54.4514 83.8004 53.7813 83.4335 52.9792 83.1481C52.238 82.8933 51.3953 82.6996 50.6135 82.2614C50.7252 82.6283 50.7962 82.9952 50.8267 83.3621C51.0298 85.7064 49.7302 87.439 47.7401 88.3563Z" fill="#225CAB"/>
<path fill-rule="evenodd" clip-rule="evenodd" d="M91.348 114.52C88.4543 113.501 84.8093 114.01 82.6264 116.283C81.3877 117.567 80.8496 119.218 80.9207 120.992C81.0222 123.448 82.4944 125.701 85.1342 125.701C86.3018 125.701 87.3984 125.201 88.1802 124.325L88.2005 124.304C89.3681 122.939 88.5152 121.603 87.2258 120.737C86.1902 120.044 87.4085 118.27 88.4848 119.188L88.5152 119.218C90.0179 120.441 91.1144 121.695 90.6372 123.774C90.4849 124.457 90.1499 125.079 89.693 125.609L89.6727 125.639C89.429 125.915 89.165 126.159 88.8706 126.383C86.048 133.039 82.0984 136.015 76.2807 139.674C78.7987 140.602 81.3369 140.928 84.0275 140.999C84.657 141.019 85.2764 141.019 85.9059 141.019L89.1955 138.319C93.074 134.68 96.2113 129.696 96.6682 124.294C96.983 120.533 95.1351 115.845 91.348 114.52Z" fill="#5DBDEB"/>
<path fill-rule="evenodd" clip-rule="evenodd" d="M86.9415 120.431C86.4846 119.646 87.5304 118.372 88.4848 119.178L88.5152 119.208C90.0179 120.431 91.1144 121.685 90.6372 123.764C90.4849 124.447 90.1499 125.069 89.693 125.599L89.6727 125.629C89.429 125.904 89.165 126.149 88.8706 126.373C86.048 133.029 82.0984 136.005 76.2807 139.664C78.7987 140.591 81.3369 140.918 84.0275 140.989H84.2509C84.8398 140.469 85.713 139.725 86.7181 138.757C87.8857 137.625 89.2361 136.178 90.424 134.558C91.6119 132.937 92.6476 131.133 93.3481 129.319C94.0588 127.505 94.4447 125.68 94.4447 124.039C94.4447 122.398 94.069 120.931 93.4801 119.646C92.8912 118.362 92.0993 117.261 91.1449 116.619C90.2007 115.977 89.1041 115.814 88.0482 115.906C86.9923 116.008 85.9668 116.375 85.2561 117.027C84.5453 117.679 84.1494 118.607 84.0681 119.392C83.9869 120.187 84.2103 120.839 84.4337 120.992C84.657 121.145 84.8804 120.808 85.2662 120.604C85.652 120.401 86.2003 120.329 86.6775 120.37C86.7689 120.37 86.8704 120.39 86.9618 120.411L86.9415 120.431Z" fill="#3D82C4"/>
<path fill-rule="evenodd" clip-rule="evenodd" d="M86.9313 120.411C86.5151 119.616 87.5507 118.383 88.4848 119.188L88.5152 119.218C90.0179 120.441 91.1144 121.695 90.6372 123.774C90.4849 124.457 90.1499 125.079 89.693 125.609L89.6727 125.639C89.429 125.915 89.165 126.159 88.8706 126.383C86.048 133.039 82.0984 136.015 76.2807 139.674C78.2402 140.398 80.2201 140.754 82.271 140.907C82.4233 140.765 82.5858 140.591 82.7787 140.408C84.0377 139.164 86.2917 136.871 87.9263 135.047C89.561 133.222 90.5865 131.877 91.3073 130.358C92.0282 128.84 92.4648 127.168 92.5968 125.538C92.7288 123.907 92.546 122.327 92.2008 121.114C91.8556 119.901 91.3581 119.045 90.6779 118.464C90.0077 117.883 89.165 117.577 88.3934 117.567C87.6218 117.557 86.9313 117.832 86.5252 118.281C86.1292 118.729 86.0277 119.33 86.18 119.738C86.312 120.085 86.6166 120.278 86.9212 120.411H86.9313Z" fill="#3374BA"/>
<path fill-rule="evenodd" clip-rule="evenodd" d="M90.7286 123.193C90.7083 123.377 90.6779 123.57 90.6372 123.764C90.4849 124.447 90.1499 125.069 89.693 125.599L89.6727 125.629C89.429 125.904 89.165 126.149 88.8706 126.373C86.048 133.029 82.0984 136.005 76.2807 139.664C77.5092 140.112 78.7377 140.428 79.9967 140.632C80.8597 140.01 81.9055 139.134 83.063 138.054C84.8601 136.372 86.9415 134.191 88.3426 132.407C89.7438 130.623 90.4748 129.247 90.82 127.79C91.1551 126.332 91.1043 124.793 90.8505 123.642C90.82 123.489 90.7794 123.336 90.7388 123.193H90.7286Z" fill="#225CAB"/>
<path fill-rule="evenodd" clip-rule="evenodd" d="M98.5973 124.936C98.0897 129.665 95.4904 134.476 92.3836 137.911L92.3633 137.931L89.0432 141.05C93.3684 141.152 96.7901 141.733 100.821 143.68C103.745 145.096 106.07 146.809 108.405 148.969H109.959C110.974 148.501 111.867 147.848 112.69 147.033L112.71 147.013C113.797 145.932 114.426 144.78 114.314 143.221C114.233 142.059 113.766 140.918 113.797 139.766C113.797 139.603 113.817 139.45 113.837 139.287C113.878 139.052 113.949 138.838 114.061 138.635C114.467 137.911 115.391 137.381 116.02 136.851C116.944 136.076 117.462 135.23 117.685 134.028C118.244 131.041 115.482 128.402 117.035 125.323C117.695 124.019 119.756 122.561 120.914 121.624C121.787 120.92 122.853 120.024 123.533 119.045C121.675 119.595 119.259 119.779 117.502 119.371C115.411 118.892 113.319 117.272 111.421 116.252C108.669 114.775 106.192 114.346 103.288 115.885C100.79 117.21 99.1151 120.054 99.9071 122.898C100.344 124.457 101.45 125.588 102.912 126.22C104.527 126.913 106.385 126.71 107.786 125.629C110.862 123.265 108.04 119.239 105.694 120.778L105.664 120.798C105.258 121.084 105.045 121.603 104.852 122.042L104.831 122.072C104.303 123.203 102.547 122.48 103.024 121.236C103.41 120.35 103.755 119.667 104.567 119.116L104.598 119.096C105.583 118.444 106.73 118.23 107.867 118.576C109.461 119.065 110.659 120.523 111.025 122.133C111.482 124.162 110.598 125.976 108.994 127.209C105.552 129.849 100.557 128.514 98.577 124.906L98.5973 124.936Z" fill="#5DBDEB"/>
<path fill-rule="evenodd" clip-rule="evenodd" d="M98.5973 124.936C98.0897 129.665 95.4904 134.476 92.3836 137.911L92.3633 137.931L89.0432 141.05C93.3684 141.152 96.7901 141.733 100.821 143.68C102.933 144.699 104.73 145.871 106.446 147.267C106.852 147.145 107.278 146.962 107.695 146.737C108.629 146.207 109.482 145.423 110.04 144.526C110.598 143.629 110.862 142.64 111.015 141.662C111.157 140.683 111.177 139.705 111.4 138.818C111.624 137.931 112.05 137.126 112.68 136.362C113.299 135.597 114.111 134.884 114.599 134.017C115.086 133.141 115.248 132.111 115.167 130.919C115.086 129.727 114.751 128.391 114.751 127.199C114.751 126.006 115.086 124.957 115.766 123.988C116.447 123.02 117.462 122.144 117.513 121.634C117.553 121.124 116.629 120.971 115.563 120.492C114.497 120.003 113.289 119.188 111.979 118.505C110.669 117.832 109.268 117.292 107.989 117.17C106.71 117.037 105.573 117.302 104.689 117.904C103.806 118.495 103.187 119.422 102.983 120.197C102.851 120.706 102.882 121.155 103.014 121.44C103.024 121.389 103.044 121.338 103.065 121.287C103.451 120.401 103.796 119.718 104.608 119.167L104.638 119.147C105.623 118.495 106.771 118.281 107.908 118.627C109.502 119.116 110.7 120.574 111.065 122.184C111.522 124.213 110.639 126.027 109.035 127.26C105.593 129.9 100.597 128.565 98.6176 124.957L98.5973 124.936Z" fill="#3D82C4"/>
<path fill-rule="evenodd" clip-rule="evenodd" d="M98.5973 124.936C98.0897 129.665 95.4905 134.476 92.3836 137.911L92.3633 137.931L89.0432 141.05C93.3684 141.152 96.7901 141.733 100.821 143.68C101.735 144.118 102.588 144.587 103.4 145.096C103.857 145.025 104.293 144.923 104.71 144.801C105.837 144.475 106.74 144.026 107.37 143.364C107.999 142.701 108.344 141.825 108.568 140.704C108.791 139.582 108.872 138.206 109.512 137.065C110.152 135.934 111.34 135.037 112.06 134.058C112.771 133.08 113.005 132.01 113.106 130.725C113.198 129.431 113.147 127.922 113.36 126.557C113.573 125.191 114.04 123.988 114.487 123.224C114.934 122.47 115.35 122.154 115.188 121.94C115.025 121.715 114.264 121.583 113.533 121.267C112.802 120.951 112.091 120.462 111.35 120.054C110.619 119.646 109.857 119.32 109.025 119.157C110.04 119.85 110.771 120.971 111.045 122.164C111.502 124.192 110.619 126.006 109.014 127.24C105.573 129.879 100.577 128.544 98.5973 124.936Z" fill="#3374BA"/>
<path fill-rule="evenodd" clip-rule="evenodd" d="M98.5973 124.936C98.0897 129.665 95.4904 134.476 92.3836 137.911L92.3633 137.931L89.0432 141.05C93.3583 141.152 96.7799 141.733 100.801 143.669C100.851 143.669 100.912 143.659 100.963 143.649C102.354 143.476 103.562 142.803 104.476 142.151C105.39 141.499 106.009 140.877 106.364 140.174C106.72 139.47 106.801 138.696 106.964 137.85C107.126 137.004 107.38 136.086 107.918 135.322C108.466 134.558 109.309 133.936 109.908 133.314C110.517 132.692 110.883 132.061 111.025 131.204C111.167 130.348 111.076 129.258 111.218 128.045C111.35 126.822 111.715 125.476 112.03 124.579C112.345 123.683 112.599 123.234 112.395 122.735C112.192 122.225 111.522 121.664 110.872 121.094C110.74 120.971 110.598 120.859 110.477 120.747C110.73 121.185 110.923 121.664 111.035 122.164C111.492 124.192 110.608 126.006 109.004 127.24C105.562 129.879 100.567 128.544 98.5872 124.936H98.5973Z" fill="#225CAB"/>
<path fill-rule="evenodd" clip-rule="evenodd" d="M11.3005 135.883C11.4629 131.643 13.3311 127.658 17.0979 125.517C17.2502 123.937 18.2858 123.132 19.5448 122.296C20.6312 121.573 21.7277 123.224 20.6515 123.958C19.8596 124.488 18.9864 124.977 19.0778 126.068C19.1082 126.465 19.2605 126.832 19.5245 127.138C20.2657 127.953 21.5958 127.994 22.5806 127.668C23.9919 127.189 24.9057 126.006 25.19 124.559C25.3423 123.815 25.2915 123.071 24.9869 122.368C23.799 119.606 19.5956 118.739 16.9355 118.831C15.5953 118.872 14.2246 119.127 12.9859 119.636C9.40183 121.124 6.65031 124.62 5.47255 128.269L4.64 132.162C6.82292 134.303 8.32558 135.332 11.3106 135.893L11.3005 135.883Z" fill="#5DBDEB"/>
<path fill-rule="evenodd" clip-rule="evenodd" d="M11.3005 135.883C11.4629 131.643 13.3311 127.658 17.0979 125.517C17.2502 123.937 18.2858 123.132 19.5448 122.296C20.6312 121.573 21.7277 123.224 20.6515 123.958C20.3063 124.182 19.9509 124.406 19.6667 124.671C19.8697 124.498 20.0525 124.376 20.2251 124.274C20.6718 124.009 21.149 123.886 21.5653 123.764C21.9816 123.632 22.3471 123.509 22.3573 123.061C22.3674 122.612 22.0323 121.848 21.4029 121.318C20.7734 120.798 19.8393 120.523 18.692 120.482C17.5345 120.441 16.1537 120.625 14.6916 121.114C13.2296 121.603 11.6964 122.388 10.5694 123.265C9.44243 124.141 8.73171 125.109 8.07175 126.312C7.4118 127.515 6.81277 128.942 6.42694 130.277C6.09189 131.418 5.91928 132.499 5.83806 133.273C7.45241 134.68 8.89416 135.434 11.3106 135.893L11.3005 135.883Z" fill="#3D82C4"/>
<path fill-rule="evenodd" clip-rule="evenodd" d="M11.3005 135.883C11.4629 131.643 13.3311 127.658 17.0979 125.517C17.2502 123.937 18.2858 123.132 19.5448 122.296C19.687 122.205 19.8291 122.144 19.9611 122.123C19.7377 121.94 19.291 121.777 18.7224 121.705C18.0117 121.614 17.1284 121.675 15.9811 122.072C14.8338 122.47 13.4326 123.204 12.265 124.06C11.0974 124.916 10.1735 125.884 9.39166 127.128C8.60987 128.371 7.98038 129.879 7.63517 131.235C7.32043 132.478 7.24934 133.6 7.48287 134.507C8.54895 135.159 9.70641 135.577 11.2802 135.872L11.3005 135.883Z" fill="#3374BA"/>
<path fill-rule="evenodd" clip-rule="evenodd" d="M11.3005 135.883C11.4629 131.643 13.3311 127.658 17.0979 125.517C17.2299 124.131 18.0422 123.346 19.0778 122.612C18.5194 122.674 17.6259 122.908 16.6309 123.316C15.4023 123.815 14.0418 124.59 12.864 125.69C11.6863 126.791 10.7014 128.208 10.0719 129.716C9.43227 131.215 9.14798 132.794 9.19875 134.537C9.19875 134.802 9.21906 135.077 9.24952 135.353C9.85871 135.567 10.5288 135.75 11.3005 135.893V135.883Z" fill="#225CAB"/>
</g>
<defs>
<clipPath id="clip0_79_2289">
<rect width="177" height="149" fill="white" transform="matrix(-1 0 0 1 177 0)"/>
</clipPath>
</defs>
</svg>
