<svg width="176" height="147" viewBox="0 0 176 147" fill="none" xmlns="http://www.w3.org/2000/svg">
<g clip-path="url(#clip0_79_2353)">
<path fill-rule="evenodd" clip-rule="evenodd" d="M67.7622 64.3126C68.9095 63.9476 70.0568 63.5928 71.0518 62.5384C74.91 58.4527 71.0112 50.4029 63.508 51.66C54.6342 53.1504 53.8727 64.0084 57.4567 68.7024C56.1774 69.8785 55.0301 70.7909 53.3549 71.6831C46.2781 75.4646 40.7243 74.2582 33.8608 70.9531C22.4385 65.448 19.9002 69.1384 12.4072 68.4084C8.2647 68.0029 3.9293 65.813 2.46725 61.9605C1.68546 59.9024 2.54848 61.0075 2.63985 61.0075C5.10707 61.0481 7.54383 60.4195 9.68614 58.9089C12.4478 56.9522 13.1687 54.7623 17.7579 52.2988C22.1035 49.9568 23.5147 50.6969 26.9262 50.0582C31.8403 49.1356 34.2568 44.543 38.5313 41.9983C42.3895 39.6969 47.4051 39.9098 50.2277 43.4684C54.624 49.0038 49.1515 55.0969 44.3186 54.5089C40.3893 54.0324 40.3182 50.0988 41.892 48.5375C42.8971 47.5439 43.7906 47.7264 44.9684 48.4462C46.2578 49.2269 47.334 47.402 46.1867 46.6213C43.0494 44.5126 39.9527 46.1955 39.0186 49.1762C37.4043 54.3264 42.5215 58.3209 48.0245 56.1716C54.6951 53.566 56.3399 44.9891 50.1363 40.3559C50.8267 39.7882 51.5781 39.2711 52.502 38.9568C55.7206 37.872 57.8426 38.967 60.2692 40.802C64.2797 43.8131 65.6605 44.4011 70.6558 43.6711C79.55 42.3633 78.951 43.7826 82.9919 49.3384C86.2003 53.7485 90.4037 56.2527 96.0286 56.1817C98.1709 56.1614 98.4755 55.8978 99.6837 55.6748C99.4197 55.9992 99.369 56.6785 98.3537 57.9356C94.0792 63.2379 88.0482 61.7983 83.1138 63.4305C79.0931 64.7586 77.7123 68.743 73.4378 70.7301C69.5085 72.5549 63.4166 71.3688 60.2286 68.4997C56.2181 64.8803 57.142 57.3273 60.99 54.9043C65.0208 52.3697 69.8639 54.1034 70.3512 58.1992C70.6457 60.6425 69.0313 61.6361 67.1022 62.2444C65.7316 62.6803 66.3814 64.7586 67.7622 64.3328V64.3126ZM45.3643 38.3992C39.8613 37.6287 36.1757 40.6499 32.48 44.0868C26.2967 49.8453 26.4084 47.0674 20.479 48.7909C13.656 50.778 11.1279 55.1983 8.417 57.1246C3.98007 60.2674 0.934123 57.5098 0.121871 60.0849C-0.659922 62.5688 2.34541 66.3402 4.79232 68.0232C11.331 72.5245 18.1234 69.9393 22.5908 70.0407C28.4593 70.1725 31.5256 72.5448 36.2062 74.4103C44.5622 77.7457 52.4005 76.3061 58.9696 70.284C61.4266 72.4029 64.8178 73.4978 68.0465 73.731C74.1485 74.1669 76.8594 71.4093 80.7379 67.5568C84.1189 64.201 87.043 65.154 92.0993 64.0591C99.1253 62.5384 103.308 56.0702 101.298 54.1034C99.8665 52.7144 97.5617 54.7928 92.5156 53.5458C85.8856 51.9135 84.7484 47.1891 81.6111 43.6002C77.2351 38.5919 70.0771 42.5052 66.2088 41.6536C63.0613 40.9541 60.7362 37.6085 57.4466 36.6859C53.8524 35.6822 50.776 36.8785 48.1361 39.1697C47.263 38.7946 46.339 38.531 45.3745 38.3992H45.3643Z" fill="white"/>
<path fill-rule="evenodd" clip-rule="evenodd" d="M106.882 75.1706C106.771 73.7411 106.202 72.4333 105.4 71.1863C102.74 67.0499 98.9933 66.249 94.0893 67.1411C85.8957 68.6315 84.9616 72.1798 81.3471 75.8701C75.3872 81.9734 69.6304 77.472 62.8785 79.084C60.127 79.743 56.9998 81.9125 55.9337 84.0821C54.7661 86.4443 56.8272 86.9817 58.5736 87.3669C64.7975 88.7457 64.6756 89.7393 67.488 94.6563C73.2855 104.795 79.4383 101.398 85.1139 102.736C90.0687 103.902 94.8406 112.074 105.045 110.736C115.482 109.367 120.548 100.131 127.574 96.6535C134.722 93.1153 140.692 95.8526 141.261 92.2535C141.596 90.1144 138.672 87.4886 137.007 86.2821C129.331 80.7162 122.955 83.1291 119.97 82.1457C115.594 80.7162 115.248 75.8296 106.882 75.1503V75.1706ZM97.2165 82.46C101.785 84.6093 105.583 81.3549 106.669 77.3605C114.355 77.9789 114.02 82.531 119.289 84.2545C122.985 85.4609 128.6 82.9162 135.717 88.0766C136.661 88.7558 139.23 91.0572 139.088 91.9494C139.048 92.2028 132.813 92.6591 131.219 93.024C120.213 95.518 115.959 107.136 104.76 108.596C97.3383 109.57 93.5309 104.926 88.7792 101.986C83.7839 98.9042 79.1439 101.358 74.4531 99.0867C69.7116 96.7853 68.6861 90.4692 65.5082 87.8637C62.9496 85.7651 59.863 85.6434 57.9339 84.9844C58.2588 84.3964 59.0406 83.5245 60.1473 82.7337C64.2898 79.7936 68.5034 81.3347 73.316 81.3955C83.266 81.507 83.8651 73.6702 89.825 70.7808C92.2516 69.6047 96.1301 68.7328 98.8207 69.1282C101.785 69.5642 103.948 72.1595 104.567 74.5724C105.268 77.3301 102.516 82.5512 98.1404 80.4932C95.4397 79.2259 96.2012 76.225 98.1912 76.4075C99.6228 76.5393 99.836 74.3697 98.4044 74.2379C95.1249 73.9236 93.7238 77.2084 94.3838 79.4591C92.9014 80.8582 91.4495 82.2876 90.5459 84.0821C85.9769 93.1761 98.3536 102.057 105.481 96.6231C111.065 92.3651 107.004 85.4102 102.252 86.566C97.6632 87.6812 98.5973 93.5715 100.628 92.9936C102.496 92.4664 100.12 90.3577 101.796 89.131C104.608 87.0628 108.243 91.7872 104.161 94.8996C100.059 98.0222 93.5004 94.6056 92.079 90.0941C90.9215 86.4139 93.0537 83.7476 95.5615 81.3651C95.9981 81.7909 96.5565 82.166 97.2266 82.4803L97.2165 82.46Z" fill="white"/>
<path fill-rule="evenodd" clip-rule="evenodd" d="M33.8608 70.9531C40.7243 74.2582 46.2781 75.4646 53.3548 71.683C55.0301 70.7909 56.1774 69.8683 57.4567 68.7024C53.8727 64.0084 54.624 53.1504 63.508 51.66C71.001 50.4029 74.91 58.4527 71.0518 62.5384C70.0568 63.5826 68.9095 63.9476 67.7622 64.3126C66.3915 64.7485 65.7315 62.66 67.1022 62.2241C69.0313 61.6158 70.6457 60.6222 70.3512 58.1789C69.8639 54.0831 65.0208 52.3494 60.99 54.884C57.142 57.307 56.2079 64.86 60.2285 68.4794C63.4065 71.3485 69.4984 72.5347 73.4378 70.7098C77.7123 68.7328 79.0931 64.7485 83.1138 63.4103C88.0482 61.778 94.0792 63.2075 98.3536 57.9153C99.369 56.648 99.4197 55.9789 99.6837 55.6545C98.4755 55.8775 98.181 56.131 96.0286 56.1614C90.4037 56.2222 86.2003 53.7181 82.9919 49.3181C78.9408 43.7624 79.55 42.3531 70.6558 43.6508C65.6503 44.3808 64.2695 43.7928 60.2691 40.7817C57.8425 38.9568 55.7205 37.8619 52.502 38.9366C51.578 39.2508 50.8369 39.7577 50.1363 40.3356C56.3399 44.9789 54.6951 53.5457 48.0244 56.1513C42.5214 58.3006 37.4042 54.3163 39.0186 49.1559C39.9527 46.1854 43.0494 44.5024 46.1867 46.6011C47.334 47.3716 46.2578 49.2066 44.9683 48.4259C43.7906 47.7163 42.8869 47.5236 41.8919 48.5172C40.3182 50.0785 40.3893 54.0121 44.3185 54.4886C49.1514 55.0766 54.6341 48.9835 50.2277 43.4481C47.4051 39.8895 42.3793 39.6868 38.5312 41.978C34.2568 44.5329 31.8403 49.1255 26.9262 50.0379C23.5249 50.6766 22.1136 49.9467 17.7579 52.2785C13.1686 54.7522 12.4376 56.9319 9.68611 58.8886C7.55395 60.4093 5.11719 61.0278 2.63982 60.9872C2.54844 60.9872 1.69557 59.8821 2.46721 61.9402C3.92927 65.8029 8.26467 67.9927 12.4072 68.3881C19.9103 69.1181 22.4385 65.4278 33.8608 70.9328V70.9531Z" fill="#5DBDEB"/>
<path fill-rule="evenodd" clip-rule="evenodd" d="M56.3805 66.7964C54.1773 61.5651 55.6901 52.9679 63.5182 51.6601C71.0112 50.4029 74.9202 58.4527 71.062 62.5384C70.0669 63.5826 68.9196 63.9476 67.7723 64.3126C66.4017 64.7485 65.7417 62.66 67.1124 62.2241C67.2951 62.1633 67.4677 62.1024 67.6505 62.0416C66.8281 62.0619 65.9143 61.8895 65.1934 61.6665C64.371 61.413 63.8024 61.1089 63.3252 61.3319C62.848 61.555 62.4622 62.3153 62.5333 63.2278C62.6044 64.1402 63.1323 65.2047 64.1578 65.9752C65.1833 66.7457 66.7062 67.202 68.3409 67.2324C69.9756 67.2628 71.7321 66.8471 73.5089 65.9854C75.2857 65.1236 77.0828 63.7955 78.7682 62.7411C80.4536 61.6868 82.0172 60.896 83.6925 60.4296C85.3678 59.9633 87.1649 59.8213 88.7081 59.4462C90.2514 59.0711 91.551 58.4729 91.8556 58.1688C92.1602 57.8647 91.48 57.8647 90.4443 57.6315C89.4189 57.3983 88.0482 56.9319 86.4948 55.8978C84.9413 54.8637 83.195 53.2518 81.6822 51.7107C80.1693 50.1596 78.8799 48.6693 77.8138 47.696C76.7477 46.7227 75.9152 46.2564 74.5851 46.084C73.255 45.9015 71.4275 46.0131 69.7827 46.0435C68.148 46.0739 66.6961 46.0232 65.3051 45.5467C63.9141 45.0601 62.5841 44.1476 61.1017 43.3366C59.6193 42.5255 57.9847 41.8361 56.4414 41.4813C54.8981 41.1264 53.4564 41.1264 52.5223 41.2684C52.0857 41.3393 51.7608 41.4407 51.507 41.5725C56.015 46.3578 54.1265 53.7688 48.0143 56.1614C42.5113 58.3107 37.3941 54.3264 39.0084 49.166C39.9425 46.1955 43.0392 44.5126 46.1766 46.6112C47.3239 47.3817 46.2476 49.2167 44.9582 48.4361C44.7247 48.2942 44.5115 48.1826 44.2982 48.0813C44.3592 48.132 44.4099 48.1725 44.4607 48.2232C44.9582 48.6794 45.2526 49.2167 45.344 49.6932C45.4354 50.1697 45.3237 50.5854 45.608 50.8389C45.8923 51.0923 46.5827 51.1633 47.3036 50.7375C48.0346 50.3015 48.7961 49.3587 49.0905 48.1826C49.385 47.0066 49.2022 45.5974 48.4407 44.5227C47.6792 43.4481 46.3593 42.7283 44.9277 42.5255C43.4961 42.3227 41.9732 42.6573 40.4806 43.3974C38.9881 44.1273 37.5362 45.2628 35.9117 46.6112C34.2872 47.9495 32.4901 49.5006 30.7133 50.5753C28.9365 51.6499 27.18 52.2481 25.3118 52.6435C23.4436 53.0287 21.4638 53.2112 19.8596 53.8296C18.2554 54.4481 17.0269 55.5024 15.382 56.8914C13.7372 58.2702 11.666 59.9734 9.99071 60.9568C8.30529 61.9402 7.01584 62.1937 7.10722 62.8628C7.1986 63.5319 8.68096 64.6066 10.6202 65.1642C12.5595 65.7218 14.9556 65.7725 17.4533 65.6914C19.951 65.6103 22.54 65.3974 24.9057 65.6001C27.2714 65.8029 29.3934 66.4213 31.8708 67.3135C34.338 68.2057 37.1606 69.3614 39.7293 70.0204C42.2981 70.6794 44.6231 70.8416 46.9076 70.5881C49.1921 70.3347 51.4461 69.6656 53.2229 68.8545C54.6341 68.2158 55.751 67.4858 56.3805 66.8167V66.7964Z" fill="#3D82C4"/>
<path fill-rule="evenodd" clip-rule="evenodd" d="M55.7408 64.7485C54.6341 59.578 56.6445 52.8158 63.508 51.6601C71.001 50.4029 74.91 58.4527 71.0518 62.5384C70.7777 62.8324 70.4832 63.0757 70.1888 63.2683C70.6964 63.4204 71.6407 63.2075 72.7169 62.8425C73.7931 62.4674 75.0014 61.92 76.2096 61.2711C77.4178 60.6223 78.6464 59.872 79.7531 59.355C80.8597 58.8379 81.8548 58.5541 82.9208 58.4121C83.9869 58.2702 85.1342 58.2499 85.5099 58.1485C85.8957 58.0471 85.5099 57.8545 84.6266 57.52C83.7432 57.1854 82.3523 56.6988 81.1643 55.9181C79.9764 55.1273 78.9916 54.0425 77.9458 52.8158C76.9 51.5891 75.773 50.2407 74.4633 49.4094C73.1535 48.5882 71.6508 48.2942 70.0568 48.1522C68.4627 48.0103 66.7875 48.0204 65.366 47.6048C63.9344 47.1891 62.7668 46.3476 61.5789 45.567C60.391 44.7863 59.1929 44.0767 57.9948 43.6407C56.7968 43.1946 55.5987 43.0223 54.5123 42.9817C53.832 42.9615 53.1924 42.9919 52.6441 43.0324C55.6088 47.7467 53.5376 53.9919 48.0143 56.1614C42.5113 58.3107 37.3941 54.3264 39.0084 49.1661C39.9425 46.1956 43.0392 44.5126 46.1766 46.6112C46.9177 47.108 46.735 48.0407 46.1766 48.4361C46.6639 48.4767 47.0294 48.2029 47.2122 47.7771C47.4254 47.2702 47.3949 46.5504 47.0193 45.9117C46.6538 45.273 45.9532 44.7154 45.0699 44.4518C44.1865 44.1882 43.1205 44.2186 42.1559 44.4822C41.1914 44.7458 40.3283 45.2324 39.445 45.9624C38.5515 46.6923 37.6378 47.6555 36.4498 48.8112C35.2619 49.967 33.81 51.3052 32.1551 52.3393C30.5001 53.3633 28.6522 54.0831 26.9262 54.5393C25.2001 54.9955 23.5959 55.1983 22.2151 55.5836C20.8343 55.9688 19.6667 56.5264 18.6412 57.2564C17.6157 57.9863 16.7324 58.8683 15.7882 59.6591C14.8439 60.4398 13.8286 61.119 13.0062 61.5854C12.1838 62.0517 11.5543 62.2951 11.3715 62.4573C11.1888 62.6296 11.4528 62.7209 12.2041 62.8628C12.9554 63.0047 14.1941 63.1771 15.4734 63.2176C16.7527 63.2481 18.0625 63.1467 19.555 62.9642C21.0373 62.7817 22.7025 62.5282 24.2559 62.5587C25.8093 62.5992 27.2511 62.9236 28.8451 63.4711C30.429 64.0084 32.1652 64.7587 33.7389 65.4278C35.3127 66.0969 36.7443 66.6748 38.3079 67.1209C39.8816 67.5771 41.5873 67.9116 43.4352 67.9623C45.2831 68.0232 47.263 67.8001 49.3037 67.2729C51.3445 66.7458 53.4462 65.8941 54.7763 65.2656C55.1621 65.0831 55.487 64.9209 55.751 64.7587L55.7408 64.7485Z" fill="#3374BA"/>
<path fill-rule="evenodd" clip-rule="evenodd" d="M55.4667 62.4268C55.3246 57.7328 57.6395 52.6536 63.5182 51.6702C69.8639 50.6056 73.6307 56.202 72.3006 60.4195C72.7271 60.4803 73.2347 60.2674 73.7119 59.9734C74.4734 59.4969 75.1841 58.7872 76.2502 58.3208C77.3163 57.8545 78.7479 57.6213 79.2048 57.3476C79.6617 57.0738 79.154 56.7697 78.5854 56.425C78.0169 56.0702 77.4077 55.6849 76.9102 55.0462C76.4228 54.4075 76.0471 53.5153 75.3973 52.6738C74.7374 51.8324 73.7931 51.0213 72.5342 50.5752C71.2752 50.119 69.7217 50.0176 68.412 49.9974C67.1022 49.9771 66.0564 50.048 65.0005 49.7844C63.9446 49.5209 62.8785 48.9227 61.9241 48.2029C60.9697 47.4729 60.1168 46.6112 59.1218 46.013C58.137 45.4047 57.01 45.06 55.8728 45.0296C55.0809 45.0093 54.2788 45.131 53.6391 45.2628C54.8981 49.5513 52.6949 54.3365 48.0041 56.1715C42.5011 58.3208 37.3839 54.3365 38.9983 49.1762C39.1201 48.7909 39.2724 48.4361 39.4552 48.1015C38.4602 49.0545 37.5565 50.3015 36.3585 51.4775C35.069 52.7448 33.4445 53.9107 31.8301 54.6914C30.2158 55.4619 28.6116 55.837 27.0582 56.1513C25.5047 56.4655 24.0021 56.7291 22.7634 57.1347C21.5348 57.5503 20.5804 58.1079 19.6768 58.8075C18.7732 59.507 17.9305 60.3384 17.1791 60.8757C16.4278 61.413 15.7577 61.6563 15.8694 61.7881C15.9811 61.9199 16.8745 61.9503 18.1335 61.6969C19.3925 61.4434 21.017 60.9264 22.8446 60.7642C24.6722 60.6019 26.713 60.8047 28.967 61.484C31.221 62.1632 33.6882 63.319 35.8305 64.201C37.9728 65.083 39.7801 65.7015 41.7802 65.9955C43.7906 66.2794 45.9938 66.2388 48.1158 65.7319C50.2378 65.225 52.2583 64.272 53.6087 63.5623C54.4412 63.1264 55.02 62.7817 55.4261 62.4471L55.4667 62.4268Z" fill="#225CAB"/>
<path fill-rule="evenodd" clip-rule="evenodd" d="M73.3261 81.3853C68.5135 81.3347 64.3 79.7835 60.1575 82.7236C59.0508 83.5144 58.269 84.3863 57.9441 84.9743C59.863 85.6231 62.9496 85.7448 65.5183 87.8535C68.6963 90.4591 69.7217 96.7752 74.4633 99.0766C79.154 101.348 83.794 98.9042 88.7894 101.976C93.5512 104.916 97.3485 109.56 104.77 108.586C115.969 107.126 120.224 95.5079 131.23 93.0139C132.824 92.6489 139.058 92.1927 139.098 91.9393C139.24 91.0471 136.672 88.7457 135.727 88.0664C128.61 82.9061 122.995 85.4508 119.3 84.2443C114.03 82.5208 114.365 77.9688 106.679 77.3503C105.593 81.3448 101.796 84.5992 97.2266 82.4499C96.5565 82.1356 95.9981 81.7503 95.5615 81.3347C93.0537 83.7273 90.9114 86.3835 92.079 90.0637C93.5004 94.5752 100.059 97.9918 104.161 94.8692C108.243 91.7568 104.618 87.0323 101.796 89.1005C100.12 90.3273 102.496 92.436 100.628 92.9632C98.5973 93.5411 97.6632 87.6508 102.252 86.5356C107.004 85.39 111.076 92.3448 105.481 96.5927C98.3536 102.017 85.9769 93.1457 90.5459 84.0517C91.4495 82.2471 92.8912 80.8277 94.3838 79.4287C93.7238 77.178 95.1249 73.8932 98.4044 74.2075C99.836 74.3494 99.6329 76.519 98.1912 76.3771C96.2113 76.1844 95.4498 79.1854 98.1404 80.4628C102.506 82.5208 105.258 77.2996 104.567 74.542C103.958 72.1291 101.785 69.5338 98.8207 69.0978C96.1301 68.7024 92.2516 69.5743 89.825 70.7503C83.8549 73.6499 83.2559 81.4867 73.316 81.3651L73.3261 81.3853Z" fill="#5DBDEB"/>
<path fill-rule="evenodd" clip-rule="evenodd" d="M105.136 80.4729C103.552 82.5208 101.085 83.7273 98.242 82.8554C97.9171 83.0278 97.6125 83.2102 97.3282 83.4029C96.4245 84.0112 95.8458 84.6803 95.4092 85.6231C94.9726 86.566 94.6782 87.7826 94.668 88.8471C94.6477 89.9116 94.9117 90.8241 95.3788 91.5844C95.8458 92.3346 96.5058 92.9328 97.3282 93.3485C98.1506 93.7641 99.1456 93.9973 99.8868 93.977C100.628 93.9568 101.125 93.6932 101.329 93.3282C101.491 93.0342 101.461 92.6793 101.339 92.3752C101.268 92.6489 101.065 92.8618 100.618 92.9936C98.5872 93.5715 97.6531 87.6812 102.242 86.566C106.994 85.4204 111.065 92.3752 105.471 96.6231C98.3435 102.047 85.9668 93.1761 90.5357 84.0821C91.4393 82.2775 92.8811 80.8582 94.3736 79.4591C93.7136 77.2084 95.1148 73.9236 98.3943 74.2379C99.6431 74.3596 99.6431 76.0222 98.6785 76.3568C98.8816 76.4075 99.0847 76.4582 99.2979 76.4683C99.8665 76.5089 100.476 76.3264 100.943 75.8499C101.4 75.3734 101.714 74.613 101.643 73.8526C101.572 73.0923 101.115 72.3319 100.11 71.825C99.105 71.3282 97.5414 71.0849 95.9778 71.1762C94.4142 71.2674 92.8506 71.6729 91.2972 72.707C89.7438 73.7411 88.2106 75.4139 86.4948 77.0563C84.7687 78.6987 82.8599 80.331 80.9105 81.4158C78.9611 82.5107 76.9812 83.0683 74.8998 83.3623C72.8184 83.6563 70.6457 83.6867 69.4882 83.9199C68.3206 84.1632 68.1683 84.6195 68.544 85.3798C68.9196 86.1402 69.8334 87.2148 70.798 88.6849C71.7625 90.1549 72.7778 92.0204 73.8541 93.4701C74.9303 94.9199 76.0675 95.954 77.763 96.5319C79.4586 97.1098 81.7025 97.2416 83.7737 97.5356C85.845 97.8296 87.7537 98.2959 89.561 99.178C91.3683 100.06 93.074 101.368 94.9219 102.321C96.7697 103.284 98.7395 103.902 100.689 104.196C102.628 104.49 104.537 104.46 106.425 103.943C108.314 103.416 110.182 102.402 111.847 101.327C113.512 100.253 114.964 99.1171 116.629 97.8296C118.294 96.542 120.173 95.1125 121.909 93.9568C123.645 92.801 125.249 91.9393 126.935 91.3005C128.61 90.6618 130.367 90.2563 130.844 89.8913C131.321 89.5365 130.519 89.2222 129.443 88.9282C128.356 88.6342 126.986 88.3605 125.463 88.1476C123.94 87.9347 122.264 87.7724 120.67 87.2453C119.076 86.7181 117.553 85.836 116.03 84.8425C114.507 83.8489 112.994 82.7337 111.604 81.9632C110.213 81.1927 108.964 80.7669 107.664 80.5642C106.821 80.4324 105.958 80.3918 105.136 80.4324V80.4729Z" fill="#3D82C4"/>
<path fill-rule="evenodd" clip-rule="evenodd" d="M99.6736 92.73C98.4349 91.6148 98.4653 87.4582 102.252 86.5457C107.004 85.4001 111.076 92.3549 105.481 96.6028C98.3537 102.027 85.977 93.1558 90.5459 84.0618C91.4495 82.2572 92.8913 80.8379 94.3838 79.4388C93.7238 77.1881 95.1249 73.9033 98.4044 74.2176C99.501 74.319 99.633 75.6066 99.0035 76.154C99.1964 76.1844 99.3994 76.1743 99.5923 76.0932C99.9782 75.9208 100.283 75.4545 100.334 74.9273C100.384 74.4001 100.181 73.8324 99.7548 73.4167C99.3284 72.9909 98.6786 72.7273 97.8866 72.707C97.0947 72.6868 96.1606 72.9098 95.0843 73.4167C94.0081 73.9236 92.7796 74.7144 91.5815 75.6674C90.3733 76.6204 89.1853 77.7356 87.9162 78.8913C86.6471 80.0471 85.2865 81.2333 83.8143 82.2167C82.3421 83.2001 80.7582 83.9706 79.3266 84.4978C77.895 85.025 76.6157 85.2987 75.4786 85.4711C74.3414 85.6333 73.3566 85.684 73.255 85.9678C73.1535 86.2416 73.9556 86.7383 74.5953 87.6102C75.2349 88.4821 75.7223 89.719 76.4025 90.7632C77.0828 91.8176 77.956 92.6692 79.0423 93.2065C80.1287 93.7337 81.4182 93.9365 82.8701 94.1697C84.3118 94.4028 85.916 94.6766 87.4187 95.1429C88.9214 95.6093 90.3225 96.2581 91.7439 97.1402C93.1552 98.0222 94.5767 99.1374 96.191 99.8674C97.7952 100.597 99.5822 100.952 101.43 100.952C103.278 100.952 105.187 100.597 106.984 99.8572C108.781 99.1171 110.456 97.9816 112.091 96.8462C113.715 95.7005 115.289 94.5549 116.812 93.6425C118.345 92.73 119.828 92.0508 120.995 91.5439C122.163 91.037 122.995 90.7024 122.742 90.4084C122.488 90.1245 121.137 89.8812 119.787 89.4351C118.437 88.9789 117.086 88.3098 115.776 87.448C114.467 86.5863 113.198 85.5319 111.868 84.7006C110.537 83.8692 109.146 83.2508 107.481 83.1393C105.816 83.0277 103.867 83.413 102.242 83.9503C100.618 84.4877 99.3182 85.1568 98.4349 86.1402C97.5515 87.1135 97.0845 88.3909 97.1048 89.4959C97.115 90.6111 97.6125 91.5641 98.1912 92.1217C98.709 92.6185 99.2979 92.8111 99.6736 92.7605V92.73Z" fill="#3374BA"/>
<path fill-rule="evenodd" clip-rule="evenodd" d="M99.5111 88.4923C99.5923 88.0259 100.07 87.2452 101.186 86.5457C102.374 85.8056 104.283 85.177 106.009 85.1669C107.745 85.1669 109.299 85.7752 110.669 86.6775C112.04 87.5798 113.208 88.766 114.578 89.4959C115.949 90.2259 117.503 90.4996 117.178 91.0268C116.853 91.554 114.639 92.3448 112.842 93.3992C111.045 94.4535 109.664 95.7816 108.162 96.6839C106.649 97.5862 105.014 98.0729 103.583 98.2554C102.75 98.3568 101.988 98.3669 101.207 98.2351C102.709 98.1134 104.182 97.5964 105.481 96.613C111.065 92.3549 107.004 85.4001 102.252 86.5559C100.902 86.8803 100.029 87.6305 99.5213 88.4923H99.5111ZM88.0685 92.73C86.0277 92.2637 84.2001 92.213 82.8295 91.7872C81.4588 91.3614 80.545 90.5605 79.6414 89.719C78.7276 88.8775 77.824 87.9955 78.4941 87.3162C79.1642 86.637 81.4182 86.1503 83.3676 85.1568C85.317 84.1632 86.9618 82.6425 88.5863 81.0711C90.2108 79.4996 91.8252 77.8775 93.1045 76.9144C93.8152 76.3771 94.4244 76.0526 94.9422 75.8195C94.2416 76.884 94.0487 78.2932 94.3838 79.4388C92.9014 80.8379 91.4495 82.2674 90.5459 84.0618C88.7386 87.6711 89.5915 91.2499 91.7236 93.9061C90.4951 93.4194 89.2463 93.0038 88.0685 92.73Z" fill="#225CAB"/>
<path fill-rule="evenodd" clip-rule="evenodd" d="M148.632 98.8839C145.251 97.3125 141.373 97.3531 137.799 98.2047C131.148 99.8065 127.899 104.125 123.95 109.265C121.868 111.972 120.406 114.183 117.218 115.713C114.02 117.244 108.486 119.059 105.065 117.518C104.009 117.052 102.618 115.805 101.4 116.109C100.567 116.322 100.212 117.183 100.029 117.944C99.4299 120.499 100.476 123.854 101.978 125.943C103.146 127.565 104.527 128.7 106.273 129.643C107.644 130.383 109.146 130.941 110.477 131.752C113.634 133.668 115.127 137.146 117.939 139.346C120.691 141.495 123.615 141.211 126.793 140.41C128.346 140.015 129.94 139.498 131.534 139.295C136.804 138.626 142.043 143.006 146.693 144.962C150.744 146.665 154.622 146.017 158.267 143.756C162.664 147.223 169.365 147.912 174.492 145.783C175.101 145.53 175.68 145.246 176.228 144.942V142.549C171.314 145.976 163.974 145.865 159.313 142.042C155.465 138.889 153.81 133.354 155.861 128.731C157.242 125.608 159.993 123.489 163.364 122.952C166.004 122.536 169.182 123.155 170.908 125.335C171.081 125.558 171.243 125.791 171.375 126.034C173.142 129.207 171.964 132.512 168.197 133.08C166.603 133.324 165.222 132.3 165.243 130.637C165.253 129.877 166.796 129.106 165.72 128.194C164.826 127.433 163.913 128.599 163.567 129.349C163.395 129.735 163.263 130.191 163.253 130.606C163.222 132.482 164.532 134.418 166.359 134.936C168.167 135.442 170.482 134.733 171.923 133.597C174.015 131.965 174.533 129.583 173.913 127.119C174.807 126.977 175.589 126.724 176.32 126.338V123.936L176.198 124.037C175.294 124.747 174.309 125.112 173.182 125.213C171.731 122.476 169.162 121.259 166.146 120.924C159.07 120.144 153.262 125.517 152.988 132.492C152.094 132.634 151.181 132.563 150.287 132.452C149.089 132.3 148.114 132.006 147.079 131.377C146.52 131.032 145.992 130.637 145.454 130.262C144.764 129.775 144.073 129.329 143.332 128.924C139.19 126.683 136.337 127.95 132.052 128.498C129.128 128.873 124.803 128.69 122.843 126.105C122.843 126.105 122.863 126.105 122.874 126.105C126.255 125.831 128.316 124.676 130.641 122.324C131.707 121.249 132.702 120.134 133.92 119.221C135.382 118.136 136.946 117.498 138.723 117.173C139.169 117.66 139.677 118.086 140.225 118.451C143.088 120.347 146.977 120.478 150.054 119.008C153.82 117.204 155.516 113.564 155.445 109.529L157.059 109.286C161.324 109.083 163.638 111.192 167.182 112.875C170.807 114.588 173.264 113.919 176.371 113.199V111.151C172.34 112.054 171.05 112.844 166.055 110.016C162.583 108.049 159.283 106.731 155.272 107.512C154.754 104.247 153.171 101.713 150.419 99.8674C150.581 99.7153 150.764 99.5835 150.937 99.4416C152.886 97.9411 155.008 97.0084 157.506 97.3835C159.394 97.6674 161.212 98.6305 162.877 99.5227C164.857 100.587 166.786 101.642 168.959 102.28C171.294 102.96 173.477 102.96 175.832 102.442C176.035 102.402 176.228 102.351 176.421 102.301V100.242C175.954 100.364 175.477 100.476 175 100.567C174.259 100.709 173.507 100.8 172.756 100.81C166.37 100.901 161.456 94.6259 155.374 95.3457C153.069 95.6194 150.236 97.1503 148.602 98.8434L148.632 98.8839ZM156.734 142.357C156.602 142.428 156.47 142.499 156.338 142.57C154.105 143.725 151.871 144.303 149.373 143.756C147.525 143.35 145.779 142.387 144.134 141.475C142.053 140.319 140.053 139.194 137.819 138.332C134.448 137.024 132.011 136.933 128.58 137.886C126.752 138.393 125.148 138.93 123.219 139.021C119.249 139.214 117.604 136.213 115.35 133.547C113.431 131.276 111.939 130.12 109.258 128.934C107.684 128.244 106.517 127.646 105.197 126.511C103.075 124.696 101.298 121.229 101.968 118.4C101.978 118.339 102.019 118.187 102.049 118.086C102.242 118.187 102.648 118.451 102.75 118.512L104.242 119.333C104.242 119.333 104.253 119.333 104.263 119.333C107.39 120.732 111.076 119.992 114.213 119.008C120.274 117.102 121.777 115.369 125.534 110.462C127.777 107.542 130.214 104.338 133.291 102.26C136.002 100.435 138.916 99.6849 142.165 99.5936C144.642 99.5227 146.216 99.9079 148.429 100.983C151.465 102.635 153.242 105.332 153.445 108.789C153.678 112.743 152.176 116.403 148.155 117.64C145.434 118.471 141.738 117.893 139.941 115.511C139.149 114.456 138.611 113.159 138.743 111.82C138.834 110.827 139.301 109.874 140.154 109.316C140.916 108.819 141.809 108.748 142.662 109.012C144.215 109.468 144.083 110.989 143.911 112.297C143.738 113.584 145.738 113.868 145.891 112.51C146.155 110.117 145.901 107.897 143.231 107.106C141.789 106.68 140.286 106.842 139.027 107.684C137.87 108.465 137.118 109.691 136.844 111.04C136.55 112.54 136.844 114.051 137.535 115.399C135.504 115.886 133.778 116.727 132.164 118.096C130.874 119.191 129.828 120.499 128.59 121.624C128.336 121.857 128.072 122.07 127.798 122.283C126.518 123.246 125.229 123.794 123.655 124.027C122.914 124.138 121.574 124.138 121.015 124.635C120.863 124.767 120.762 124.929 120.68 125.122C119.96 126.906 123.036 129.065 124.417 129.674C126.803 130.718 129.229 130.819 131.788 130.525C133.88 130.282 136.062 129.714 138.144 129.653C141.931 129.532 143.545 131.641 146.53 133.344C148.307 134.358 151.018 134.773 153.089 134.5C153.414 137.47 154.694 140.177 156.744 142.347L156.734 142.357Z" fill="white"/>
<path fill-rule="evenodd" clip-rule="evenodd" d="M176.452 102.341L176.401 111.171C172.36 112.074 171.071 112.865 166.075 110.036C162.603 108.069 159.303 106.751 155.293 107.532C154.775 104.267 153.191 101.733 150.439 99.8876C150.602 99.7356 150.785 99.6038 150.957 99.4618C152.907 97.9614 155.029 97.0287 157.526 97.4038C159.415 97.6876 161.232 98.6508 162.897 99.5429C164.877 100.607 166.806 101.662 168.979 102.301C171.314 102.98 173.497 102.98 175.853 102.463C176.056 102.422 176.249 102.372 176.442 102.321L176.452 102.341ZM176.239 142.559C171.314 145.986 163.973 145.875 159.303 142.053C155.455 138.9 153.8 133.364 155.851 128.741C157.232 125.618 159.983 123.5 163.354 122.962C165.994 122.547 169.172 123.165 170.898 125.345C171.071 125.568 171.233 125.801 171.365 126.044C173.132 129.218 171.954 132.523 168.187 133.09C166.593 133.334 165.212 132.31 165.232 130.647C165.243 129.887 166.786 129.116 165.71 128.204C164.816 127.443 163.902 128.609 163.557 129.359C163.385 129.745 163.253 130.201 163.242 130.617C163.212 132.492 164.522 134.429 166.349 134.946C168.157 135.453 170.472 134.743 171.913 133.607C174.005 131.975 174.523 129.593 173.903 127.129C174.797 126.987 175.579 126.734 176.31 126.348L176.228 142.549L176.239 142.559Z" fill="#5DBDEB"/>
<path fill-rule="evenodd" clip-rule="evenodd" d="M152.226 101.348C152.511 101.124 152.917 100.891 153.343 100.658C154.003 100.283 154.714 99.8775 155.607 99.7153C156.501 99.5531 157.577 99.6443 158.907 100.08C160.247 100.516 161.851 101.297 163.496 102.067C165.151 102.838 166.847 103.588 168.471 104.085C170.096 104.582 171.659 104.825 173.548 104.734C174.452 104.693 175.436 104.571 176.442 104.409L176.401 111.171C172.36 112.074 171.071 112.865 166.075 110.036C162.603 108.069 159.303 106.751 155.293 107.532C154.907 105.048 153.891 102.99 152.226 101.337V101.348ZM176.259 139.123C176.137 139.224 176.025 139.325 175.903 139.417C174.776 140.329 173.568 141.039 172.157 141.515C170.746 141.992 169.131 142.225 167.649 142.245C166.177 142.265 164.847 142.083 163.588 141.677C162.329 141.272 161.131 140.653 160.156 139.731C159.171 138.808 158.41 137.582 157.902 136.314C157.394 135.047 157.151 133.729 157.151 132.553C157.151 131.387 157.404 130.363 157.871 129.37C158.339 128.376 159.029 127.423 159.933 126.734C160.836 126.044 161.953 125.639 162.989 125.416C164.014 125.193 164.958 125.172 165.74 125.355C166.522 125.537 167.151 125.933 167.618 126.379C168.086 126.825 168.38 127.322 168.461 127.646C168.542 127.971 168.39 128.133 168.065 128.234C167.74 128.336 167.253 128.376 166.847 128.538C166.552 128.66 166.299 128.842 166.075 129.106C166.156 128.822 166.085 128.528 165.72 128.224C164.826 127.464 163.913 128.63 163.567 129.38C163.395 129.765 163.263 130.221 163.253 130.637C163.222 132.512 164.532 134.449 166.359 134.966C168.167 135.473 170.482 134.763 171.923 133.628C174.015 131.995 174.533 129.613 173.913 127.149C174.807 127.007 175.589 126.754 176.32 126.369L176.249 139.133L176.259 139.123Z" fill="#3D82C4"/>
<path fill-rule="evenodd" clip-rule="evenodd" d="M153.556 102.949L153.587 102.919C154.135 102.463 155.313 102.098 156.399 101.956C157.475 101.814 158.45 101.915 159.567 102.169C160.684 102.422 161.933 102.838 163.354 103.477C164.786 104.115 166.39 104.977 167.893 105.626C169.395 106.285 170.796 106.741 172.33 106.822C173.599 106.893 174.959 106.711 176.421 106.457L176.401 111.171C172.36 112.074 171.071 112.865 166.075 110.036C162.603 108.069 159.303 106.751 155.293 107.532C155.018 105.798 154.44 104.267 153.546 102.939L153.556 102.949ZM176.269 136.274C175.426 137.206 174.523 137.977 173.507 138.545C172.208 139.285 170.725 139.7 169.162 139.863C167.598 140.025 165.953 139.934 164.562 139.559C163.171 139.173 162.024 138.504 161.181 137.632C160.339 136.76 159.811 135.686 159.547 134.358C159.293 133.03 159.303 131.448 159.709 130.252C160.105 129.055 160.887 128.244 161.74 127.687C162.603 127.119 163.537 126.794 164.278 126.734C165.019 126.673 165.557 126.876 165.872 127.261C166.187 127.646 166.288 128.204 166.126 128.7C166.126 128.731 166.106 128.761 166.096 128.792C166.065 128.599 165.964 128.406 165.72 128.204C164.826 127.443 163.913 128.609 163.567 129.359C163.395 129.745 163.263 130.201 163.253 130.617C163.222 132.492 164.532 134.429 166.359 134.946C168.167 135.453 170.482 134.743 171.923 133.607C174.015 131.975 174.533 129.593 173.913 127.129C174.807 126.987 175.589 126.734 176.32 126.348L176.269 136.274Z" fill="#3374BA"/>
<path fill-rule="evenodd" clip-rule="evenodd" d="M154.369 104.409C154.562 104.318 154.815 104.257 155.13 104.207C155.983 104.044 157.303 103.913 158.714 104.065C160.125 104.217 161.618 104.663 163.334 105.474C165.05 106.285 166.989 107.461 168.634 108.191C170.268 108.921 171.599 109.195 173.233 109.103C174.198 109.053 175.274 108.87 176.411 108.637V111.182C172.36 112.084 171.071 112.875 166.065 110.046C162.593 108.079 159.293 106.761 155.282 107.542C155.1 106.407 154.795 105.362 154.358 104.409H154.369ZM176.289 132.725C175.183 134.155 174.035 135.665 172.786 136.629C171.527 137.612 170.167 138.048 168.614 138.159C167.06 138.271 165.314 138.058 164.045 137.46C162.775 136.862 161.983 135.888 161.557 134.702C161.131 133.516 161.08 132.127 161.496 130.992C161.912 129.856 162.786 128.984 163.547 128.579C163.831 128.427 164.085 128.346 164.319 128.305C163.994 128.599 163.73 129.015 163.578 129.339C163.405 129.724 163.273 130.181 163.263 130.596C163.232 132.472 164.542 134.408 166.37 134.925C168.177 135.432 170.492 134.723 171.934 133.587C174.025 131.955 174.543 129.572 173.924 127.109C174.817 126.967 175.599 126.713 176.33 126.328L176.299 132.705L176.289 132.725Z" fill="#225CAB"/>
<path fill-rule="evenodd" clip-rule="evenodd" d="M156.734 142.357C154.683 140.187 153.394 137.48 153.079 134.51C151.008 134.783 148.297 134.358 146.52 133.354C143.535 131.651 141.921 129.542 138.134 129.664C136.052 129.735 133.869 130.302 131.778 130.536C129.229 130.83 126.793 130.728 124.407 129.684C123.026 129.076 119.949 126.926 120.67 125.132C120.741 124.949 120.853 124.787 121.005 124.645C121.574 124.138 122.904 124.138 123.645 124.037C125.219 123.804 126.519 123.256 127.788 122.293C128.062 122.09 128.326 121.867 128.58 121.634C129.828 120.509 130.864 119.201 132.154 118.106C133.768 116.737 135.494 115.896 137.525 115.409C136.844 114.061 136.54 112.54 136.834 111.05C137.108 109.691 137.86 108.465 139.017 107.694C140.276 106.853 141.779 106.69 143.22 107.116C145.891 107.907 146.145 110.127 145.881 112.52C145.728 113.868 143.728 113.595 143.901 112.307C144.073 111.009 144.205 109.489 142.652 109.022C141.799 108.769 140.895 108.84 140.144 109.326C139.291 109.884 138.824 110.837 138.733 111.83C138.611 113.169 139.139 114.466 139.931 115.521C141.728 117.903 145.424 118.481 148.145 117.65C152.176 116.413 153.668 112.753 153.435 108.799C153.231 105.342 151.465 102.635 148.419 100.993C146.205 99.9181 144.632 99.5328 142.154 99.6038C138.905 99.695 135.991 100.445 133.281 102.27C130.194 104.348 127.757 107.552 125.523 110.472C121.767 115.369 120.264 117.102 114.203 119.018C111.065 120.002 107.38 120.742 104.253 119.343H104.232L102.74 118.512C102.638 118.451 102.232 118.187 102.039 118.086C102.009 118.187 101.978 118.349 101.958 118.4C101.298 121.218 103.065 124.696 105.187 126.511C106.517 127.646 107.684 128.234 109.248 128.934C111.928 130.12 113.421 131.276 115.34 133.547C117.594 136.213 119.239 139.214 123.209 139.021C125.138 138.93 126.742 138.403 128.569 137.886C132.001 136.933 134.438 137.024 137.809 138.332C140.043 139.194 142.043 140.319 144.124 141.475C145.769 142.387 147.515 143.35 149.363 143.756C151.851 144.303 154.094 143.725 156.328 142.57L156.724 142.357H156.734Z" fill="#5DBDEB"/>
<path fill-rule="evenodd" clip-rule="evenodd" d="M155.384 140.694C154.115 138.869 153.323 136.76 153.079 134.51C151.008 134.783 148.297 134.358 146.52 133.354C143.535 131.651 141.921 129.542 138.134 129.664C136.052 129.735 133.869 130.302 131.778 130.536C129.229 130.83 126.793 130.728 124.407 129.684C123.026 129.076 119.949 126.926 120.67 125.132C120.741 124.949 120.853 124.787 121.005 124.645C121.574 124.138 122.904 124.138 123.645 124.037C125.219 123.804 126.518 123.256 127.788 122.293C128.062 122.09 128.326 121.867 128.58 121.634C129.828 120.509 130.864 119.201 132.154 118.106C133.768 116.737 135.494 115.896 137.525 115.409C136.844 114.061 136.54 112.54 136.834 111.05C137.108 109.691 137.86 108.465 139.017 107.694C140.276 106.853 141.779 106.69 143.22 107.116C145.891 107.907 146.145 110.127 145.881 112.52C145.728 113.868 143.728 113.595 143.901 112.307L143.921 112.155C143.84 112.337 143.748 112.5 143.627 112.652C143.373 112.986 143.017 113.28 142.936 113.635C142.855 113.99 143.038 114.395 143.474 114.801C143.921 115.206 144.622 115.622 145.464 115.724C146.307 115.825 147.282 115.622 148.206 115.004C149.13 114.385 150.013 113.341 150.521 112.175C151.018 111.009 151.14 109.712 150.957 108.424C150.774 107.136 150.297 105.869 149.617 104.815C148.937 103.771 148.053 102.949 146.947 102.351C145.84 101.753 144.52 101.358 143.038 101.246C141.555 101.135 139.9 101.287 138.306 101.753C136.712 102.219 135.159 102.99 133.616 104.115C132.072 105.241 130.529 106.731 129.047 108.323C127.564 109.914 126.143 111.618 124.752 113.138C123.361 114.659 122.01 116.007 120.64 117.143C119.269 118.268 117.878 119.181 116.203 119.931C114.528 120.691 112.568 121.289 110.954 121.705C109.339 122.121 108.07 122.354 107.106 122.374C106.141 122.405 105.481 122.232 105.217 122.283C104.953 122.334 105.065 122.587 105.359 123.084C105.644 123.581 106.1 124.311 106.75 124.98C107.4 125.649 108.243 126.247 109.126 126.713C110.009 127.19 110.933 127.535 111.756 127.95C112.588 128.366 113.319 128.853 114.142 129.633C114.964 130.424 115.868 131.509 116.863 132.614C117.858 133.719 118.944 134.844 120.061 135.635C121.178 136.426 122.335 136.872 123.848 136.973C125.371 137.075 127.26 136.821 128.915 136.608C130.57 136.395 132.001 136.233 133.291 136.193C134.59 136.152 135.758 136.223 137.047 136.558C138.337 136.882 139.748 137.46 141.21 138.2C142.672 138.93 144.185 139.822 145.688 140.512C147.19 141.191 148.693 141.667 150.033 141.799C151.373 141.941 152.541 141.738 153.536 141.424C154.247 141.201 154.866 140.907 155.353 140.664L155.384 140.694Z" fill="#3D82C4"/>
<path fill-rule="evenodd" clip-rule="evenodd" d="M154.46 139.163C153.719 137.724 153.252 136.162 153.069 134.51C150.998 134.783 148.287 134.358 146.51 133.354C143.525 131.651 141.911 129.542 138.124 129.664C136.042 129.735 133.859 130.302 131.768 130.536C129.219 130.83 126.782 130.728 124.396 129.684C123.016 129.076 119.939 126.926 120.66 125.132C120.731 124.949 120.843 124.787 120.995 124.645C121.564 124.138 122.894 124.138 123.635 124.037C125.209 123.804 126.508 123.256 127.777 122.293C128.052 122.09 128.316 121.867 128.569 121.634C129.818 120.509 130.854 119.201 132.143 118.106C133.758 116.737 135.484 115.896 137.514 115.409C136.834 114.061 136.53 112.54 136.824 111.05C137.098 109.691 137.849 108.465 139.007 107.694C140.266 106.853 141.769 106.69 143.21 107.116C145.881 107.907 146.134 110.127 145.87 112.52C145.82 112.966 145.576 113.23 145.271 113.341C145.312 113.361 145.363 113.382 145.414 113.402C145.83 113.544 146.469 113.412 147.079 113.088C147.688 112.763 148.267 112.246 148.602 111.425C148.947 110.604 149.048 109.478 148.815 108.252C148.581 107.025 147.992 105.687 147.109 104.744C146.226 103.801 145.038 103.254 143.596 103.03C142.154 102.797 140.449 102.889 138.794 103.375C137.139 103.862 135.524 104.734 133.93 106.042C132.336 107.349 130.773 109.083 129.209 110.756C127.646 112.429 126.092 114.041 124.721 115.46C123.351 116.869 122.163 118.086 120.67 119.15C119.188 120.215 117.401 121.127 115.705 121.837C114.01 122.547 112.416 123.043 111.136 123.398C109.847 123.753 108.872 123.956 108.994 124.321C109.106 124.686 110.314 125.203 111.482 125.76C112.639 126.318 113.756 126.926 114.761 127.626C115.756 128.325 116.65 129.116 117.523 130.14C118.396 131.154 119.269 132.401 120.183 133.344C121.087 134.287 122.041 134.925 123.33 135.311C124.63 135.696 126.275 135.838 127.95 135.747C129.625 135.655 131.341 135.341 132.986 135.219C134.641 135.098 136.235 135.169 137.555 135.351C138.885 135.544 139.951 135.848 141.2 136.416C142.449 136.983 143.88 137.805 145.221 138.464C146.561 139.123 147.82 139.609 149.109 139.853C150.389 140.096 151.708 140.086 152.734 139.853C153.445 139.69 154.023 139.417 154.46 139.173V139.163Z" fill="#3374BA"/>
<path fill-rule="evenodd" clip-rule="evenodd" d="M153.902 137.926C153.475 136.841 153.201 135.696 153.069 134.51C150.998 134.783 148.287 134.358 146.51 133.354C144.165 132.016 142.662 130.434 140.296 129.866C139.941 129.806 139.596 129.745 139.261 129.694C138.905 129.664 138.52 129.643 138.124 129.664C136.042 129.735 133.859 130.302 131.768 130.536C129.219 130.83 126.782 130.728 124.396 129.684C123.016 129.076 119.939 126.926 120.66 125.132C120.731 124.949 120.843 124.787 120.995 124.645C121.564 124.138 122.894 124.138 123.635 124.037C125.209 123.804 126.508 123.256 127.777 122.293C128.052 122.09 128.316 121.867 128.569 121.634C129.818 120.509 130.854 119.201 132.143 118.106C133.758 116.737 135.484 115.896 137.514 115.409C136.834 114.061 136.53 112.54 136.824 111.05C137.098 109.691 137.849 108.465 139.007 107.694C140.266 106.853 141.769 106.69 143.21 107.116C145.881 107.907 146.134 110.127 145.87 112.52C145.87 112.54 145.87 112.571 145.86 112.591C146.327 112.358 146.926 111.78 147.231 110.948C147.556 110.066 147.556 108.901 147.18 107.795C146.805 106.69 146.043 105.636 145.018 104.997C143.982 104.359 142.682 104.146 141.18 104.288C139.677 104.419 137.981 104.906 136.479 105.798C134.976 106.69 133.666 107.988 131.92 109.884C130.163 111.79 127.97 114.294 126.153 116.22C124.336 118.147 122.914 119.505 121.32 120.6C119.726 121.695 117.959 122.536 116.264 123.165C114.568 123.804 112.944 124.23 112.7 124.574C112.456 124.919 113.594 125.172 114.649 125.73C115.716 126.288 116.7 127.149 117.766 128.325C118.833 129.501 119.97 130.992 121.269 132.127C122.569 133.263 124.021 134.033 125.798 134.236C127.574 134.439 129.676 134.064 131.89 133.871C134.103 133.678 136.438 133.658 138.377 133.942C140.327 134.226 141.88 134.814 143.535 135.605C145.19 136.385 146.926 137.359 148.47 137.876C150.013 138.393 151.353 138.453 152.409 138.322C153.008 138.241 153.526 138.099 153.902 137.926Z" fill="#225CAB"/>
<path fill-rule="evenodd" clip-rule="evenodd" d="M150.307 132.482C151.201 132.594 152.115 132.665 153.008 132.523C153.282 125.548 159.09 120.174 166.167 120.955C169.182 121.289 171.751 122.506 173.203 125.243C174.33 125.142 175.315 124.787 176.218 124.067L176.35 123.966L176.411 113.24C173.304 113.96 170.847 114.629 167.223 112.915C163.669 111.232 161.364 109.124 157.1 109.326L155.485 109.57C155.546 113.605 153.861 117.234 150.094 119.049C147.018 120.519 143.129 120.387 140.266 118.491C139.718 118.126 139.21 117.701 138.763 117.214C136.986 117.548 135.423 118.177 133.961 119.262C132.742 120.174 131.747 121.289 130.681 122.364C128.346 124.716 126.285 125.872 122.914 126.146H122.884C124.843 128.731 129.168 128.913 132.093 128.538C136.367 127.991 139.23 126.724 143.373 128.964C144.114 129.37 144.804 129.816 145.495 130.302C146.033 130.677 146.561 131.073 147.119 131.418C148.145 132.046 149.13 132.35 150.328 132.492L150.307 132.482Z" fill="#5DBDEB"/>
<path fill-rule="evenodd" clip-rule="evenodd" d="M153.211 130.647C154.348 124.615 159.729 120.245 166.156 120.955C168.664 121.229 170.867 122.121 172.37 123.996C172.827 123.946 173.274 123.763 173.731 123.51C174.421 123.135 175.142 122.577 175.995 121.675C176.107 121.553 176.218 121.431 176.34 121.3L176.371 114.679C175.731 114.781 175.071 114.872 174.401 114.953C172.594 115.176 170.715 115.277 169.02 115.075C167.314 114.872 165.791 114.345 164.207 113.665C162.623 112.976 160.988 112.124 159.526 111.668C158.064 111.222 156.775 111.171 155.871 111.344C155.678 111.374 155.506 111.425 155.353 111.486C154.917 114.72 153.221 117.518 150.064 119.029C146.987 120.499 143.099 120.367 140.235 118.471C140.154 118.41 140.063 118.359 139.982 118.299C139.525 118.41 139.098 118.593 138.591 118.836C137.697 119.272 136.56 119.88 135.575 120.62C134.59 121.36 133.768 122.212 132.976 123.094C132.184 123.976 131.412 124.878 130.834 125.446C130.265 126.014 129.879 126.247 130.407 126.318C130.935 126.399 132.367 126.328 133.981 126.257C135.595 126.186 137.403 126.115 139.108 126.206C140.814 126.298 142.418 126.571 143.921 127.129C145.414 127.687 146.804 128.538 148.155 129.218C149.515 129.897 150.845 130.414 151.84 130.596C152.389 130.698 152.825 130.708 153.191 130.627L153.211 130.647Z" fill="#3D82C4"/>
<path fill-rule="evenodd" clip-rule="evenodd" d="M153.668 128.913C156.582 120.387 166.705 119.039 171.375 122.962C172.563 122.465 174.634 120.803 175.548 119.505C175.782 119.221 176.005 118.907 176.269 118.552L176.36 118.43V116.261L176.279 116.271C175.619 116.362 174.898 116.433 174.208 116.504L173.731 116.555C173.416 116.575 173.091 116.616 172.786 116.636C167.984 117.031 166.146 116.727 161.933 114.821C159.79 113.848 157.425 112.631 155.059 112.966C153.688 118.035 148.937 120.58 144.155 119.931C143.109 119.789 142.033 119.454 141.088 118.978L137.575 121.705L134.702 124.513C134.692 124.676 135.199 124.625 136.032 124.574C140.195 124.361 142.875 124.534 146.733 126.186C148.784 127.068 151.333 128.802 153.668 128.924V128.913Z" fill="#3374BA"/>
<path fill-rule="evenodd" clip-rule="evenodd" d="M154.389 127.241C156.562 123.064 161.019 120.387 166.156 120.955C167.375 121.087 168.512 121.36 169.537 121.827C170.309 121.675 170.928 121.421 171.456 121.097C172.106 120.701 172.624 120.195 173.182 119.667C173.741 119.13 174.34 118.562 174.37 118.329C174.411 118.096 173.893 118.197 172.918 118.278C171.934 118.359 170.482 118.42 169.121 118.39C167.761 118.359 166.502 118.238 165.202 117.883C163.902 117.518 162.552 116.92 161.252 116.322C159.943 115.734 158.684 115.146 157.658 114.842C156.633 114.527 155.861 114.487 155.13 114.618C154.866 114.669 154.612 114.73 154.358 114.821C153.485 116.606 152.064 118.086 150.064 119.039C147.942 120.053 145.424 120.306 143.129 119.738C143.007 119.799 142.885 119.85 142.774 119.911C141.606 120.499 140.733 121.188 140.103 121.736C139.474 122.273 139.108 122.668 139.281 122.81C139.454 122.962 140.154 122.871 140.977 122.932C141.799 122.993 142.743 123.195 143.85 123.5C144.957 123.804 146.246 124.199 147.373 124.686C148.51 125.172 149.495 125.75 150.48 126.227C151.465 126.703 152.45 127.078 153.242 127.23C153.658 127.312 154.034 127.322 154.389 127.251V127.241Z" fill="#225CAB"/>
<path fill-rule="evenodd" clip-rule="evenodd" d="M78.9611 28.1799C79.6414 30.2278 80.8395 32.3062 82.4741 33.5937C85.9871 36.3615 91.9267 36.1587 95.2874 33.2389C97.2774 31.5052 98.2623 29.0011 98.0491 26.3854C97.8663 24.1449 96.7596 21.8536 94.7696 20.6877C93.5817 19.9882 92.2516 19.8057 90.9317 20.0592C93.7543 14.696 97.8764 12.1716 102.933 9.03891C105.837 10.5089 108.486 12.3643 111.472 13.7025C114.751 15.1725 118.416 16.085 122.051 16.2371C118.528 17.332 115.523 19.1771 112.609 21.6205C110.446 23.4352 108.649 25.3209 106.832 27.4804C105.613 28.9301 104.425 30.3799 103.126 31.7688C101.237 33.7965 99.6228 34.7596 97.1048 35.7836C94.5259 36.8278 92.81 37.6389 90.7286 39.5854C89.5102 40.7209 85.6419 44.8471 87.6827 46.4693C88.5355 47.1485 90.2108 46.743 91.1855 46.5605C97.2266 45.4656 100.394 46.2462 105.776 48.9024C105.258 50.0278 104.831 51.1734 104.689 52.4204C104.354 55.4112 105.39 57.5706 107.786 59.3144C108.649 59.943 109.583 60.4398 110.487 61.0075C111.045 61.3522 111.847 61.8591 112.152 62.4674C112.355 62.8729 112.365 63.4609 112.375 63.907C112.385 64.6167 112.375 65.3061 112.467 66.0056C112.731 68.1549 113.807 69.6858 115.563 70.943C117.787 72.5448 119.655 72.707 122.315 72.7678C126.315 72.849 127.828 73.1125 130.194 76.5291C132.539 79.9052 135.342 81.1826 139.433 80.9494C141.423 80.8379 144.52 79.9964 145.942 78.5669C146.713 77.7964 146.815 76.6711 145.769 76.0932C145.759 76.0932 145.749 76.083 145.728 76.0729C145.282 75.8397 144.693 75.7384 144.195 75.6471C143.596 75.5356 142.997 75.4241 142.429 75.1807C140.723 74.4711 140.083 72.8996 139.809 71.166C139.677 70.3651 139.687 69.4729 139.677 68.6619C139.677 67.6379 139.677 66.6241 139.575 65.6001C139.454 64.201 139.169 62.7513 138.438 61.5347C138.093 60.9568 137.657 60.4499 137.139 60.0342C139.037 59.6287 140.865 58.7365 142.347 57.4794C142.104 59.213 142.063 61.7476 143.149 62.8222C143.444 63.1162 143.799 63.319 144.236 63.3393C144.936 63.3697 145.637 62.8729 146.185 62.4877C146.855 62.0112 147.515 61.5144 148.287 61.2305C149.871 60.6425 152.074 60.602 153.709 60.9872C154.937 61.2711 156.196 61.9909 157.272 62.6398C158.623 63.4609 159.933 64.343 161.293 65.1338C162.583 65.8738 163.943 66.5531 165.385 66.9485C164.806 67.8711 164.298 68.8342 163.781 69.7973C163.273 70.7301 162.735 71.6729 162.034 72.484C161.76 72.7983 161.456 73.0923 161.12 73.3559C159.445 74.684 156.795 75.272 154.785 75.9411C153.495 76.3669 152.216 76.8738 151.089 77.6342C150.114 78.283 149.312 79.0941 148.713 80.0978C147.536 82.0545 147.028 86.0185 148.135 88.0664C149.475 90.53 151.627 88.3706 153.231 87.6812C156.541 86.272 159.648 87.5697 162.511 89.3134C163.649 90.0028 164.735 90.7531 165.852 91.4729C166.847 92.1116 167.903 92.7503 169.009 93.166C171.294 94.0277 173.995 94.2305 176.482 93.6932V91.6554C175.294 91.9697 174.015 92.071 172.797 91.9798C168.949 91.7061 166.989 89.7899 163.913 87.8231C160.958 85.9374 157.384 84.4978 153.841 85.4001C152.856 85.6535 151.983 86.0489 151.12 86.566C150.947 86.6674 150.226 87.1337 149.942 87.2148C149.81 87.0121 149.678 86.4443 149.637 86.272C149.495 85.5826 149.465 84.8425 149.526 84.1429C149.678 82.2268 150.49 80.5337 152.084 79.4084C154.49 77.7052 157.394 77.4416 160.034 76.3061C164.542 74.3595 165.05 70.9937 167.537 67.3236C168.847 67.4149 170.157 67.2628 171.446 67.0702C173.294 66.7863 175 66.4315 176.624 66.1577V64.1503C175.244 64.3632 173.863 64.6573 172.482 64.9006C171.03 65.1642 169.507 65.3974 168.025 65.3568C165.618 65.2858 163.446 64.1706 161.435 62.9338C159.222 61.5752 156.714 59.6692 154.166 59.0711C152.155 58.5946 149.526 58.6656 147.586 59.3854C147.231 59.5172 146.896 59.6895 146.571 59.872C146.063 60.166 145.576 60.4904 145.099 60.8351C144.977 60.9264 144.662 61.1697 144.459 61.2914C144.114 60.6222 144.226 58.4932 144.307 57.9153C145.058 52.2886 148.998 50.7882 153.912 49.6425C156.247 49.0951 158.968 48.6084 161.06 47.4223C163.466 46.0637 165.253 44.32 167.06 42.272C168.583 40.5485 170.004 38.8048 171.731 37.2739C173.294 35.8951 174.959 34.8103 176.797 33.9587V31.7891C174.462 32.7421 171.852 34.3845 170.187 35.9559C166.898 39.0785 164.085 43.4278 160.075 45.6886C158.846 46.3882 157.384 46.7836 156.013 47.108C154.43 47.4831 152.836 47.7974 151.272 48.2435C150.226 48.5476 149.191 48.9024 148.216 49.3891C147.14 49.9163 146.165 50.5753 145.312 51.3964C145.231 48.4868 143.718 45.6075 140.966 44.5734C141.393 44.5025 141.829 44.4416 142.256 44.3808C145.728 43.8942 148.632 42.9614 151.16 40.4167C152.216 39.3624 154.155 36.8177 153.435 35.2462C153.333 35.0333 153.201 34.8407 153.008 34.6988C152.115 33.9688 150.186 34.3237 149.099 34.3744C148.927 34.3744 148.744 34.3946 148.571 34.3946C144.479 34.4352 141.901 33.3098 138.712 31.1301C140.784 30.7246 142.611 29.3661 143.688 27.5615C143.688 27.5513 143.698 27.5412 143.708 27.5311C145.414 24.6721 144.814 21.5698 142.489 19.2582C139.484 16.2878 134.773 15.1928 130.499 15.1218C131.961 14.6048 133.362 13.8951 134.611 12.9624C138.773 9.83982 140.875 4.37531 141.18 -0.754631H139.2C139.119 0.45182 138.916 1.66842 138.621 2.86472C136.662 10.7117 131.209 14.2804 123.29 14.3311C117.015 14.3716 112.517 12.3338 107.238 9.23154C106.07 8.55228 104.902 7.86288 103.694 7.25459C103.166 6.8085 103.258 7.03153 102.72 6.78822C98.4044 4.86195 94.5767 4.79099 89.9671 4.78085C87.3882 4.78085 84.8703 4.73016 82.332 4.19283C78.0879 3.29053 74.7577 1.43523 71.6305 -1.11961L68.5643 -1.13987C70.8995 1.01957 73.2144 2.71266 76.1487 4.12187C80.1795 6.06841 83.6011 6.63614 87.9264 6.73753L84.6063 9.83984C84.6063 9.83984 84.5961 9.83983 84.586 9.8601C81.4791 13.2767 78.8799 18.0721 78.3722 22.7661C76.3924 19.1771 71.397 17.8592 67.9551 20.4748C66.3509 21.7016 65.4676 23.5062 65.9245 25.5237C66.29 27.1255 67.4779 28.5854 69.0821 29.0619C70.2192 29.4066 71.3564 29.1937 72.3514 28.5449C72.3616 28.5449 72.3717 28.5246 72.3819 28.5246C73.2043 27.9771 73.5495 27.2979 73.9251 26.4158C74.4023 25.179 72.6458 24.4592 72.1179 25.5845C72.1179 25.5946 72.1077 25.6048 72.0976 25.6149C71.9047 26.061 71.6915 26.5679 71.2853 26.8518C71.2752 26.8518 71.265 26.8619 71.2549 26.8721C68.9095 28.4029 66.0869 24.3882 69.1633 22.0463C70.5645 20.9818 72.4123 20.7688 74.0368 21.4582C75.509 22.0868 76.6157 23.2122 77.0422 24.7633C77.8341 27.5919 76.1487 30.4204 73.6612 31.7384C70.7574 33.2693 68.28 32.8435 65.5285 31.3734C63.6298 30.3596 61.5383 28.7476 59.4467 28.2711C57.6801 27.8656 55.2738 28.0481 53.4158 28.5956C54.096 27.6223 55.1621 26.7403 56.0353 26.0306C57.1826 25.108 59.2538 23.6481 59.9138 22.3504C61.4672 19.2988 58.7056 16.673 59.264 13.6924C59.4874 12.496 60.0153 11.6647 60.9291 10.8841C61.5586 10.3569 62.4825 9.8297 62.8887 9.10989C63.0003 8.90712 63.0816 8.69421 63.112 8.46104C63.1323 8.30896 63.1526 8.14675 63.1526 7.98454C63.1831 6.82878 62.7262 5.6933 62.6348 4.54768C62.5231 2.99653 63.1526 1.85091 64.239 0.776253L64.2593 0.755974C65.0817 -0.0550842 65.9752 -0.703934 66.9905 -1.18044L63.4369 -1.2007C62.5435 -0.430191 61.7718 0.461967 61.2845 1.3744C60.6042 2.66196 60.5433 4.02048 60.7362 5.4297C60.8276 6.07854 61.2235 7.58914 61.1322 8.15688C61.0916 8.29882 60.1473 8.95781 59.995 9.07947C59.1523 9.73846 58.4619 10.4684 57.9542 11.4112C55.6292 15.7403 59.3249 19.0656 58.1167 21.4582C57.8527 21.9753 57.0506 22.6444 56.6039 23.0094C55.7611 23.7089 54.888 24.3781 54.0554 25.0877C53.0706 25.9393 51.9639 26.9836 51.3344 28.1495C51.3344 28.1596 51.3242 28.1698 51.3141 28.1799C50.9181 28.9301 50.6541 29.9744 51.4156 30.5928C51.4156 30.5928 51.4359 30.6029 51.4461 30.6131C51.4968 30.6435 51.5476 30.684 51.5984 30.7043C51.6085 30.7043 51.6187 30.7246 51.639 30.7246C52.4411 31.1504 53.9437 30.4711 54.8271 30.2785C61.3555 28.8592 62.8277 33.6343 68.4932 34.5467C71.4173 35.0131 74.5546 34.0094 76.6767 31.9513C77.763 30.8969 78.5347 29.6195 78.9205 28.1799H78.9611ZM104.131 -0.99794C105.999 0.157822 108.08 1.06011 110.568 1.49606C114.111 2.12463 118.761 1.66841 121.533 -0.9067H124.153C124.051 -0.744484 123.94 -0.602547 123.828 -0.460609C120.741 3.41219 114.853 4.27394 110.223 3.45274C106.466 2.78362 103.501 1.19192 100.648 -1.01822L104.131 -0.99794ZM165.314 -0.673523C162.857 0.249054 158.988 0.735703 156.44 0.553207C155.617 0.492378 154.826 0.350441 154.023 0.167953C153.648 0.0868454 153.211 -0.0449524 152.805 -0.115913C152.957 1.25275 153.881 3.88869 154.45 4.88224C157.597 10.4279 164.4 8.62324 169.284 10.8435C171.162 11.6951 172.644 12.9928 174.086 14.4527C175.02 15.3956 175.924 16.3993 176.909 17.2914V19.8868C175.924 19.1467 175.051 18.285 174.127 17.332C173.274 21.7523 171.274 25.5338 167.568 28.2711C164.694 30.4002 160.928 31.2011 157.415 30.6739C154.592 30.2481 151.353 28.7983 150.175 26.0204C149.729 24.9762 149.647 23.861 149.871 22.7458C150.267 20.7384 151.526 19.0758 153.445 18.2951C154.998 17.6564 156.917 17.6665 158.328 18.6702C158.846 19.0453 159.252 19.5218 159.537 20.0794C162.369 18.1735 163.669 14.8887 163.74 11.5532C156.409 10.4887 152.764 8.87671 151.038 1.08041C150.937 0.603905 150.785 -0.105782 150.835 -0.734352L165.314 -0.653244V-0.673523ZM176.574 78.9826C175.294 78.8204 173.954 79.013 172.807 79.6213C171.812 80.1485 170.857 81.0711 170.715 82.2471C170.644 82.8554 170.807 83.4231 171.142 83.93C172.258 85.6434 173.893 84.9844 175.122 83.778C175.589 83.3217 176.208 83.5042 176.543 83.9098V85.1669C176.543 85.1669 176.452 85.2582 176.391 85.2987C176.391 85.2987 176.371 85.3088 176.36 85.319C174.736 86.6674 173.162 87.6001 171.081 86.4747C170.025 85.907 169.243 84.9946 168.908 83.8489C168.492 82.4194 168.827 80.8987 169.68 79.7024C170.766 78.1817 172.492 77.3402 174.309 77.036C175.061 76.9144 175.822 76.8941 176.584 76.9651V78.9623H176.574V78.9826ZM100.729 8.06564C94.9016 11.7053 90.952 14.6656 88.1396 21.2859C87.8451 21.5089 87.5811 21.7523 87.3375 22.026C87.3375 22.026 87.3172 22.0463 87.3172 22.0564C86.8603 22.5836 86.5354 23.202 86.3729 23.8813C85.8957 25.9596 86.9923 27.1965 88.4949 28.4131C88.4949 28.4131 88.5152 28.4333 88.5254 28.4435C89.6118 29.3559 90.82 27.5919 89.7844 26.9025C88.4949 26.0509 87.6421 24.7126 88.8097 23.3541L88.83 23.3338C89.6016 22.4518 90.6982 21.955 91.8759 21.9652C94.5158 21.9652 95.988 24.2057 96.0895 26.649C96.1606 28.4131 95.6224 30.0555 94.3838 31.3329C92.2008 33.5937 88.5559 34.0905 85.6622 33.0868C81.8751 31.7688 80.0272 27.0951 80.3419 23.3642C80.7988 17.9808 83.9362 13.0334 87.8147 9.41402L91.1043 6.72739C91.7338 6.72739 92.3531 6.72739 92.9826 6.74767C95.6732 6.82878 98.2115 7.14307 100.729 8.06564ZM107.552 49.8047C112.659 52.461 116.244 54.0121 122.163 53.0287C124.092 55.5024 126.356 57.8342 129.26 59.1116C127.27 60.0241 125.98 61.7476 126.173 64.0794C126.336 65.9854 127.585 68.013 129.493 68.5909C130.163 68.7937 130.854 68.7937 131.524 68.5909C132.824 68.2056 133.748 67.1715 134.001 65.8434C134.6 62.6904 131.94 63.2176 132.052 64.5964C132.326 67.9826 128.234 67.0803 128.143 63.7448C128.031 59.7706 134.672 59.6084 136.53 62.2545C138.022 64.3835 137.596 67.5365 137.717 70.0001C137.748 70.507 137.789 71.0038 137.86 71.5006C138.012 72.5347 138.306 73.5181 138.814 74.4407C140.154 76.8536 141.697 77.0766 143.941 77.5835C142.033 78.8406 138.824 79.1651 136.712 78.7798C131.788 77.8674 132.082 73.9642 128.326 71.8757C124.508 69.7669 120.315 71.9162 116.7 69.3107C115.441 68.4084 114.639 67.3743 114.436 65.8232C114.284 64.6775 114.477 63.4609 114.203 62.3356C114.142 62.0619 114.04 61.7983 113.918 61.5448C112.863 59.4462 109.238 58.4729 107.573 56.4047C105.958 54.4075 106.557 51.9338 107.522 49.7845L107.552 49.8047ZM151.648 36.2094C151.536 36.6352 150.977 37.4868 150.835 37.6896C150.531 38.1255 150.165 38.6121 149.79 38.9873C148.196 40.579 146.469 41.4711 144.276 41.9679C142.52 42.3734 140.662 42.4545 138.946 42.9817C137.332 43.4785 135.707 44.4416 134.265 45.3135C132.478 46.3983 130.722 47.5338 128.874 48.5172C124.6 50.7882 120.254 52.0352 115.401 50.9605C113.431 50.5246 111.847 49.7946 110.081 48.8518C109.228 48.4057 108.385 47.9495 107.512 47.5439C102.161 44.8167 98.181 43.4075 92.0891 44.3808C91.6221 44.4518 89.9976 44.7965 89.226 44.8674L90.1499 43.2048C91.3175 41.6131 92.6679 40.3154 94.3533 39.2914C95.7138 38.4702 97.1556 37.9227 98.6075 37.2942C99.8766 36.7467 101.075 36.1587 102.181 35.3273C103.522 34.3237 104.73 32.9753 105.826 31.7181C107.187 30.1569 108.507 28.555 109.908 27.014C113.147 23.4555 116.69 20.3937 121.229 18.6297C126.255 16.6831 133.413 16.3486 138.337 18.7412C141.362 20.2112 144.053 23.0499 142.022 26.4767C142.022 26.4767 142.012 26.4969 142.002 26.5071C141.312 27.6527 140.276 28.5347 139.007 28.9707C137.951 29.3357 136.57 29.4675 135.768 28.5246C135.149 27.7946 135.139 26.7403 135.403 25.8684C135.758 24.6619 136.408 24.6518 137.484 24.9864C138.692 25.3615 139.311 23.5771 138.144 23.1209C134.814 21.8232 132.935 24.6721 133.331 27.5716C131.9 26.7808 130.397 26.1016 128.833 25.6555C124.325 24.3578 119.432 25.2601 116.061 28.626C111.218 33.4518 114.446 40.7817 120.559 42.272C123.006 42.8702 126.447 42.6978 127.757 40.1531C128.417 38.8656 128.214 37.4057 127.595 36.1486C126.275 33.4822 123.98 33.3098 121.31 33.3098C120.792 33.3098 120.366 33.7052 120.325 34.2223C120.305 34.4859 120.345 34.7495 120.528 34.9522C121.411 35.9356 124.478 34.3338 125.808 37.0306C126.163 37.7402 126.356 38.602 125.93 39.3218C125.097 40.7513 122.681 40.7412 121.279 40.4269C118.934 39.8896 116.995 38.308 116.112 36.0472C114.69 32.3974 117.107 29.5587 120.305 28.0684C120.508 27.9771 120.711 27.8859 120.914 27.8048C124.823 26.2435 128.519 27.237 132.062 29.1633C133.819 30.1264 135.463 31.2619 137.118 32.3873C138.489 33.32 140.002 34.3744 141.525 35.0232C145.129 36.5439 147.932 36.402 151.648 36.2297V36.2094ZM124.346 52.5522C127.564 51.66 130.407 50.0379 133.23 48.284C132.935 49.531 133.027 50.92 133.555 52.0757C134.499 54.1236 136.205 54.4785 138.245 54.7725C139.545 54.955 139.829 52.9882 138.53 52.8057C136.56 52.5218 135.179 52.2582 135.057 49.9568C134.986 48.6997 135.403 47.5541 136.458 46.814C138.063 45.6886 140.479 45.9725 141.819 47.3918C142.703 48.3347 143.22 49.8757 143.332 51.143C143.728 55.6545 138.286 58.4222 134.387 58.2803C129.879 58.108 127.087 55.8066 124.346 52.5522ZM172.37 15.5477L171.538 19.4205C170.36 23.0499 167.608 26.5172 164.024 28.0075C162.786 28.5246 161.415 28.7679 160.075 28.8085C157.415 28.8896 153.211 28.038 152.023 25.2905C151.719 24.591 151.668 23.861 151.82 23.1108C152.104 21.6712 153.018 20.4951 154.43 20.0186C155.404 19.6942 156.744 19.7246 157.486 20.5458C157.76 20.8398 157.902 21.2048 157.932 21.6103C158.024 22.6951 157.151 23.1817 156.359 23.7089C155.272 24.4287 156.379 26.0813 157.465 25.3615C158.714 24.52 159.76 23.7292 159.912 22.1578C163.679 20.0288 165.547 16.0546 165.71 11.8472C168.695 12.4048 170.197 13.4288 172.38 15.5578L172.37 15.5477Z" fill="white"/>
<path fill-rule="evenodd" clip-rule="evenodd" d="M176.817 33.9384C174.98 34.79 173.314 35.8748 171.751 37.2536C170.025 38.7845 168.593 40.5283 167.08 42.2518C165.273 44.2997 163.486 46.0435 161.08 47.402C158.978 48.5882 156.267 49.0748 153.932 49.6223C149.018 50.778 145.078 52.2683 144.327 57.8951C144.246 58.4831 144.134 60.602 144.479 61.2711C144.683 61.1393 144.997 60.9061 145.119 60.8149C145.596 60.4702 146.084 60.1457 146.591 59.8517C146.916 59.6692 147.261 59.4969 147.607 59.3651C149.546 58.6351 152.176 58.5743 154.186 59.0508C156.734 59.649 159.242 61.555 161.456 62.9135C163.466 64.1503 165.639 65.2655 168.045 65.3365C169.527 65.3771 171.04 65.1439 172.502 64.8803C173.883 64.6268 175.264 64.343 176.655 64.1301L176.817 33.9384Z" fill="#5DBDEB"/>
<path fill-rule="evenodd" clip-rule="evenodd" d="M176.797 37.061C175.447 37.8112 174.127 38.7642 172.827 39.8997C171.395 41.1467 169.994 42.5965 168.37 44.1882C166.745 45.7799 164.887 47.5034 162.836 48.7301C160.775 49.9568 158.521 50.6766 156.44 51.4776C154.369 52.2886 152.47 53.1808 151.099 53.9817C149.718 54.7725 148.855 55.472 149.251 55.766C149.647 56.06 151.302 55.9587 152.947 56.3236C154.582 56.6987 156.196 57.5402 157.861 58.554C159.516 59.5577 161.222 60.7338 163.019 61.5347C164.806 62.3356 166.695 62.7817 168.908 62.8222C171.131 62.8628 173.69 62.508 175.873 62.3153C176.147 62.2951 176.411 62.2748 176.665 62.2545L176.797 37.0813V37.061Z" fill="#3D82C4"/>
<path fill-rule="evenodd" clip-rule="evenodd" d="M176.787 39.7476C175.426 40.6702 174.066 41.7449 172.807 42.9209C171.538 44.0969 170.37 45.3642 169.263 46.4794C168.167 47.5946 167.141 48.5577 166.035 49.4195C164.928 50.2914 163.74 51.072 162.481 51.7513C161.222 52.4306 159.882 53.0186 158.491 53.4849C157.09 53.9513 155.638 54.3163 155.404 54.6204C155.171 54.9246 156.156 55.1882 156.694 55.3301C157.222 55.472 157.303 55.4923 157.953 55.8776C158.602 56.2527 159.821 56.9826 161.1 57.7328C162.369 58.4831 163.699 59.2536 165.111 59.801C166.512 60.3485 168.004 60.6729 169.588 60.754C171.182 60.8351 172.878 60.6831 174.716 60.4803C175.365 60.4093 176.025 60.3282 176.685 60.2573L176.797 39.7273L176.787 39.7476Z" fill="#3374BA"/>
<path fill-rule="evenodd" clip-rule="evenodd" d="M176.777 41.6739C176.421 41.9273 176.066 42.1909 175.721 42.4545C174.137 43.6508 172.665 44.9282 171.263 46.3679C169.862 47.8075 168.532 49.3992 167.111 50.707C165.689 52.0149 164.166 53.0287 162.775 53.6775C162.004 54.0324 161.283 54.2656 160.511 54.5798C159.719 54.9043 159.973 55.0665 160.653 55.3706C161.131 55.5835 161.598 55.7762 162.065 56.0195C163.182 56.5974 164.39 57.4794 165.791 58.0877C167.192 58.696 168.796 59.0407 170.654 59.0001C172.502 58.9494 174.604 58.5135 176.695 58.331L176.787 41.6941L176.777 41.6739Z" fill="#225CAB"/>
<path fill-rule="evenodd" clip-rule="evenodd" d="M176.645 66.1374L176.584 76.9853C175.822 76.9042 175.061 76.9245 174.309 77.0563C172.502 77.3605 170.766 78.1918 169.68 79.7227C168.827 80.919 168.492 82.4499 168.908 83.8692C169.243 85.025 170.025 85.9273 171.081 86.495C173.162 87.6204 174.736 86.6775 176.36 85.3393L176.391 85.319C176.442 85.2784 176.492 85.2379 176.533 85.1872L176.503 91.6351C175.304 91.9494 174.025 92.0508 172.807 91.9595C168.959 91.6858 166.999 89.7697 163.923 87.8028C160.968 85.9171 157.394 84.4775 153.851 85.3798C152.866 85.6333 151.993 86.0286 151.13 86.5457C150.957 86.6471 150.236 87.1134 149.952 87.1945C149.82 86.9918 149.688 86.424 149.647 86.2517C149.505 85.5623 149.475 84.8222 149.536 84.1227C149.688 82.2065 150.5 80.5134 152.094 79.3881C154.501 77.6849 157.404 77.4213 160.044 76.2858C164.552 74.3393 165.06 70.9734 167.547 67.3033C168.857 67.3946 170.167 67.2425 171.456 67.0499C173.304 66.766 175.01 66.4112 176.635 66.1374H176.645ZM172.817 79.6213C171.822 80.1485 170.868 81.0711 170.725 82.2471C170.654 82.8554 170.817 83.4231 171.152 83.93C172.269 85.6434 173.903 84.9844 175.132 83.778C175.599 83.3217 176.218 83.5042 176.553 83.9098L176.584 78.9623C175.304 78.8001 173.964 78.9927 172.817 79.601V79.6213Z" fill="#5DBDEB"/>
<path fill-rule="evenodd" clip-rule="evenodd" d="M176.645 66.1374L176.614 72.484C175.66 73.2748 174.726 73.9844 173.67 74.8056C171.883 76.2047 169.73 77.9181 169.02 79.3881C168.644 80.1688 168.664 80.8683 168.877 81.5172C168.695 82.2877 168.705 83.0886 168.928 83.8692C169.263 85.025 170.045 85.9273 171.101 86.495C173.182 87.6204 174.756 86.6775 176.381 85.3393L176.411 85.319C176.462 85.2784 176.513 85.2379 176.553 85.1872L176.533 89.3033C175.396 89.7595 173.974 89.9217 172.462 89.7899C170.928 89.648 169.314 89.1817 167.954 88.4618C166.583 87.742 165.466 86.7688 164.075 85.9577C162.684 85.1466 161.029 84.5181 159.486 84.0416C157.943 83.5752 156.521 83.2711 155.597 83.0277C154.673 82.7743 154.237 82.5715 154.754 82.166C155.272 81.7503 156.734 81.1319 158.156 80.4932C159.577 79.8545 160.948 79.2056 162.268 78.1513C163.578 77.0969 164.826 75.6268 165.923 74.0655C167.019 72.5043 167.954 70.8517 168.817 69.4628C169.355 68.601 169.872 67.8305 170.461 67.202C170.807 67.1614 171.152 67.1107 171.487 67.06C173.335 66.7762 175.04 66.4213 176.665 66.1476L176.645 66.1374ZM175.964 81.0508C175.203 81.0508 174.411 81.2333 173.853 81.5983C173.294 81.9632 172.989 82.5208 172.898 83.0176C172.807 83.5144 172.929 83.9706 173.233 84.2038C173.528 84.4471 174.005 84.4674 174.441 84.366C174.685 84.1936 174.919 83.9909 175.142 83.778C175.609 83.3218 176.228 83.5042 176.563 83.9098V81.0711C176.381 81.0407 176.178 81.0305 175.975 81.0305L175.964 81.0508Z" fill="#3D82C4"/>
<path fill-rule="evenodd" clip-rule="evenodd" d="M176.645 66.1374L176.604 72.849C175.944 73.295 175.304 73.7513 174.726 74.2379C173.335 75.4241 172.35 76.7623 171.639 77.9586C170.878 78.3946 170.197 78.9623 169.68 79.7024C168.827 80.8987 168.492 82.4296 168.908 83.8489C169.243 85.0047 170.025 85.907 171.081 86.4747C173.162 87.6001 174.736 86.6572 176.36 85.319L176.391 85.2987C176.442 85.2581 176.492 85.2176 176.533 85.1669V87.0019C176.198 87.2047 175.843 87.3973 175.477 87.5798C174.787 87.9245 174.086 88.2388 173.243 88.3098C172.401 88.3807 171.436 88.2185 170.573 87.9144C169.71 87.6102 168.969 87.1641 168.278 86.6369C167.588 86.1098 166.938 85.5015 166.126 85.025C165.314 84.5485 164.329 84.1936 163.273 83.93C162.217 83.6664 161.09 83.484 160.623 83.3015C160.166 83.119 160.369 82.9365 161.009 82.4904C161.648 82.0443 162.725 81.3245 163.73 80.4222C164.735 79.53 165.689 78.4554 166.532 77.2591C167.375 76.0628 168.116 74.7347 168.959 73.4674C169.812 72.19 170.766 70.9734 171.588 69.848C172.421 68.7227 173.122 67.6987 174.056 66.8775C174.198 66.7457 174.35 66.6241 174.512 66.5024C175.233 66.3706 175.934 66.2388 176.624 66.1273L176.645 66.1374ZM176.107 83.1697C175.66 83.2609 175.325 83.5144 174.98 83.8084C174.634 84.1024 174.269 84.437 173.903 84.66C173.528 84.883 173.142 84.9946 172.715 84.9439C172.421 84.9135 172.096 84.7918 171.761 84.5992C172.817 85.4001 174.117 84.7817 175.132 83.778C175.599 83.3217 176.218 83.5042 176.553 83.9098V83.1291C176.401 83.1291 176.249 83.1291 176.107 83.1595V83.1697Z" fill="#3374BA"/>
<path fill-rule="evenodd" clip-rule="evenodd" d="M176.634 67.5669C175.995 68.0434 175.365 68.5808 174.797 69.1789C173.629 70.4056 172.746 71.825 171.842 73.3964C170.949 74.9678 170.025 76.6711 168.918 78.1614C167.801 79.6517 166.491 80.919 165.547 81.6591C164.603 82.3992 164.024 82.6323 164.156 82.7946C164.278 82.9669 165.111 83.0683 166.045 83.3724C166.989 83.6665 168.035 84.1429 168.877 84.7411C169.182 84.9641 169.466 85.1973 169.74 85.4204C169.365 84.9743 169.081 84.4572 168.908 83.8692C168.492 82.4397 168.827 80.919 169.68 79.7227C170.766 78.2019 172.492 77.3605 174.309 77.0563C175.061 76.9347 175.822 76.9144 176.584 76.9854L176.634 67.5669Z" fill="#225CAB"/>
<path fill-rule="evenodd" clip-rule="evenodd" d="M71.6508 -1.17027L100.648 -1.01821C103.501 1.19193 106.456 2.78364 110.223 3.45276C114.842 4.27396 120.731 3.41221 123.828 -0.4606C123.94 -0.602535 124.051 -0.744478 124.153 -0.896553L139.23 -0.815445C139.149 0.401144 138.946 1.61773 138.652 2.81404C136.692 10.661 131.24 14.2297 123.32 14.2804C117.046 14.3209 112.548 12.2832 107.268 9.18086C106.1 8.50159 104.933 7.8122 103.725 7.2039C103.197 6.75782 103.288 6.98085 102.75 6.73754C98.4349 4.81127 94.6071 4.74031 89.9976 4.73017C87.4187 4.73017 84.9007 4.67948 82.3624 4.14215C78.1184 3.23985 74.7882 1.38456 71.661 -1.17027H71.6508ZM104.131 -0.997925C105.999 0.157833 108.08 1.06013 110.568 1.49607C114.111 2.12464 118.761 1.66843 121.533 -0.906685L104.131 -0.997925ZM177 -0.612682L176.909 17.2813C175.924 16.379 175.02 15.3753 174.086 14.4426C172.644 12.9928 171.172 11.6951 169.284 10.8334C164.4 8.61312 157.607 10.4177 154.45 4.87211C153.881 3.87856 152.957 1.24262 152.805 -0.126038C153.211 -0.055069 153.648 0.0665894 154.023 0.157833C154.825 0.340321 155.617 0.482246 156.44 0.543076C158.988 0.735701 162.857 0.249075 165.314 -0.683643L177 -0.622816V-0.612682Z" fill="#5DBDEB"/>
<path fill-rule="evenodd" clip-rule="evenodd" d="M124.153 -0.896585L136.194 -0.835758C136.154 1.06009 135.809 2.71263 134.986 4.28405C134.154 5.87576 132.813 7.3965 131.23 8.46102C129.646 9.53567 127.808 10.1541 125.93 10.5191C124.051 10.8841 122.122 10.9956 120.071 10.7421C118.02 10.4887 115.837 9.88036 113.746 8.95778C111.664 8.0352 109.674 6.81861 107.451 5.8352C105.227 4.85179 102.76 4.11171 100.232 3.56425C97.7038 3.01678 95.1249 2.66193 92.6679 2.45917C90.2108 2.26654 87.8756 2.23613 85.4591 1.91171C83.0427 1.58729 80.5348 0.978989 78.2402 -0.136217C77.6107 -0.440364 76.9914 -0.785064 76.4025 -1.15004L100.669 -1.01824C103.522 1.1919 106.476 2.7836 110.243 3.45273C114.863 4.27392 120.752 3.41217 123.848 -0.460632C123.96 -0.602568 124.072 -0.744512 124.173 -0.896585H124.153ZM109.025 -0.977693C109.157 -0.927001 109.289 -0.886449 109.421 -0.835758C111.076 -0.278155 112.883 -0.0753851 114.568 -0.197044C115.817 -0.27815 117.005 -0.531602 117.97 -0.937131L109.025 -0.987825V-0.977693ZM177 -0.612716L176.919 13.9052C175.67 12.8711 174.462 11.6647 173.264 10.6306C171.934 9.47484 170.614 8.54211 168.918 7.86285C167.223 7.18359 165.161 6.75778 163.385 6.28129C161.608 5.80479 160.125 5.28774 159.202 4.84166C158.267 4.39558 157.892 4.03059 158.592 3.72645C159.283 3.4223 161.049 3.17899 163.05 2.41862C164.897 1.71908 166.938 0.57347 169.172 -0.663394L177 -0.622849V-0.612716Z" fill="#3D82C4"/>
<path fill-rule="evenodd" clip-rule="evenodd" d="M124.153 -0.896555L133.514 -0.84586C133.402 -0.176737 133.23 0.492388 132.986 1.15137C132.225 3.16888 130.742 5.09515 129.087 6.27118C127.432 7.44722 125.615 7.86289 123.33 7.73109C121.046 7.5993 118.315 6.89976 115.776 6.06842C113.238 5.23709 110.903 4.26381 108.253 3.27026C105.603 2.27671 102.648 1.25275 99.7142 0.705288C96.7799 0.157824 93.8761 0.0665789 90.9621 -0.166601C88.4441 -0.369366 85.9363 -0.683643 83.8245 -1.10945L100.638 -1.01821C103.491 1.19193 106.446 2.78363 110.213 3.45276C114.832 4.27395 120.721 3.4122 123.818 -0.460603C123.929 -0.602538 124.041 -0.744481 124.143 -0.896555H124.153ZM177 -0.612686L176.939 11.6749C176.086 11.0463 175.304 10.3467 174.543 9.66748C173.314 8.55228 172.126 7.46749 170.949 6.69699C169.771 5.92648 168.593 5.4804 167.263 5.03432C165.933 4.58824 164.461 4.13202 163.913 3.89884C163.364 3.65552 163.73 3.6251 164.613 3.37165C165.496 3.11819 166.898 2.63155 168.35 2.00298C169.801 1.37441 171.294 0.614046 172.817 -0.227427C173.04 -0.349087 173.274 -0.480888 173.507 -0.612686L177.01 -0.592405L177 -0.612686Z" fill="#3374BA"/>
<path fill-rule="evenodd" clip-rule="evenodd" d="M124.153 -0.896545L131.707 -0.855984C131.453 0.78641 130.681 2.11451 129.422 3.18916C128.133 4.29423 126.326 5.12557 124.457 5.37902C122.589 5.63248 120.66 5.3182 118.863 4.78087C117.756 4.45645 116.7 4.04079 115.553 3.61498C118.751 3.25 121.868 2.01314 123.848 -0.460593C123.96 -0.602529 124.072 -0.744472 124.173 -0.896545H124.153ZM177 -0.612676L176.949 8.85645C176.035 7.92373 175.152 6.95046 174.188 6.12926C172.969 5.08502 171.629 4.27396 170.39 3.85829C169.152 3.44262 168.014 3.41221 168.36 3.20944C168.705 3.00668 170.512 2.62142 172.126 1.9523C173.741 1.28317 175.152 0.340325 176.624 -0.5417L176.736 -0.612676H177.01H177Z" fill="#225CAB"/>
<path fill-rule="evenodd" clip-rule="evenodd" d="M121.239 18.6297C116.7 20.3937 113.157 23.4555 109.918 27.014C108.517 28.5449 107.207 30.1467 105.837 31.7182C104.74 32.9753 103.532 34.3237 102.192 35.3274C101.085 36.1587 99.8868 36.7467 98.6176 37.2942C97.1657 37.9228 95.724 38.4702 94.3635 39.2914C92.6679 40.3154 91.3277 41.6131 90.1601 43.2048L89.2361 44.8674C90.0078 44.7965 91.6323 44.4518 92.0993 44.3808C98.181 43.4075 102.161 44.8168 107.522 47.5439C108.395 47.9495 109.248 48.4057 110.091 48.8518C111.857 49.7845 113.441 50.5144 115.411 50.9605C120.254 52.0352 124.6 50.7983 128.884 48.5172C130.732 47.5338 132.489 46.3983 134.276 45.3135C135.717 44.4416 137.342 43.4684 138.956 42.9817C140.672 42.4545 142.53 42.3633 144.287 41.9679C146.469 41.4711 148.206 40.579 149.8 38.9873C150.175 38.6122 150.541 38.1255 150.845 37.6896C150.988 37.4868 151.546 36.6352 151.658 36.2094C147.932 36.3716 145.129 36.5135 141.535 35.0029C140.012 34.3642 138.489 33.3099 137.129 32.367C135.474 31.2417 133.829 30.096 132.072 29.143C128.539 27.2168 124.833 26.2232 120.924 27.7845C120.721 27.8656 120.518 27.9569 120.315 28.0481C117.117 29.5384 114.7 32.3771 116.122 36.0269C116.995 38.2877 118.934 39.8592 121.29 40.4066C122.691 40.731 125.097 40.731 125.94 39.3016C126.366 38.5817 126.163 37.72 125.818 37.0103C124.488 34.3135 121.422 35.9255 120.538 34.932C120.356 34.7292 120.315 34.4656 120.335 34.202C120.376 33.6951 120.812 33.2896 121.32 33.2896C123.98 33.2896 126.285 33.4619 127.605 36.1283C128.224 37.3854 128.427 38.8453 127.767 40.1329C126.458 42.6776 123.026 42.8499 120.569 42.2518C114.457 40.7615 111.228 33.4315 116.071 28.6057C119.442 25.25 124.346 24.3375 128.844 25.6352C130.407 26.0813 131.91 26.7707 133.341 27.5513C132.945 24.6518 134.834 21.803 138.154 23.1007C139.322 23.5569 138.702 25.3412 137.494 24.9661C136.418 24.6315 135.778 24.6417 135.413 25.8481C135.159 26.72 135.169 27.7744 135.778 28.5043C136.58 29.4472 137.961 29.3154 139.017 28.9504C140.286 28.5145 141.322 27.6324 142.012 26.4868L142.033 26.4564C144.063 23.0398 141.373 20.2011 138.347 18.7209C133.423 16.3283 126.265 16.6629 121.239 18.6094V18.6297Z" fill="#5DBDEB"/>
<path fill-rule="evenodd" clip-rule="evenodd" d="M121.32 35.2767C120.975 35.2361 120.701 35.1449 120.518 34.932C120.335 34.7292 120.295 34.4656 120.315 34.202C120.356 33.6951 120.792 33.2896 121.3 33.2896C123.96 33.2896 126.265 33.4619 127.585 36.1283C128.204 37.3854 128.407 38.8453 127.747 40.1329C126.437 42.6776 123.006 42.8499 120.548 42.2518C114.436 40.7614 111.208 33.4315 116.051 28.6057C119.421 25.2499 124.325 24.3375 128.823 25.6352C130.387 26.0813 131.89 26.7707 133.321 27.5513C132.925 24.6518 134.814 21.8029 138.134 23.1006C138.367 23.1919 138.53 23.3338 138.631 23.5062C138.641 23.0905 138.448 22.5532 138.012 22.0159C137.504 21.3873 136.662 20.7688 135.392 20.3025C134.123 19.8361 132.438 19.532 130.671 19.4103C128.904 19.2988 127.046 19.3698 125.351 19.6435C123.645 19.9172 122.102 20.3937 120.508 21.1541C118.904 21.9145 117.259 22.9688 115.776 24.297C114.294 25.6352 112.994 27.2472 111.532 29.0518C110.07 30.8564 108.446 32.8435 107.065 34.4352C105.684 36.0168 104.537 37.2029 103.278 38.0444C102.019 38.8859 100.648 39.4029 99.4908 39.9301C98.3333 40.4573 97.3891 41.0048 97.6328 41.319C97.8866 41.6333 99.3283 41.7144 101.014 42.0794C102.709 42.4444 104.649 43.1034 106.222 43.7928C107.806 44.4822 109.025 45.202 110.548 45.9117C112.071 46.6315 113.888 47.3513 115.624 47.7974C117.36 48.2536 119.015 48.4361 120.65 48.355C122.295 48.2739 123.919 47.919 125.463 47.3817C127.006 46.8444 128.458 46.1347 129.93 45.3034C131.402 44.4822 132.885 43.5393 134.184 42.7181C135.484 41.8969 136.59 41.1872 137.697 40.6803C138.814 40.1836 139.931 39.8896 140.926 39.5347C141.921 39.1799 142.804 38.7642 142.885 38.5108C142.967 38.2573 142.236 38.1661 141.241 37.8416C140.246 37.5172 138.987 36.9495 137.616 36.0877C136.245 35.226 134.763 34.0601 133.24 32.955C131.727 31.8499 130.174 30.8158 128.752 30.1569C127.331 29.4877 126.041 29.2039 124.853 29.1734C123.665 29.143 122.569 29.3863 121.554 29.9135C120.538 30.4407 119.614 31.2619 119.107 32.073C118.589 32.884 118.477 33.685 118.558 34.4859C118.64 35.2868 118.904 36.0776 119.3 36.5642C119.696 37.0508 120.234 37.2333 120.518 37.0204C120.802 36.8075 120.823 36.2195 120.985 35.7734C121.056 35.5808 121.158 35.4085 121.3 35.2767H121.32Z" fill="#3D82C4"/>
<path fill-rule="evenodd" clip-rule="evenodd" d="M120.741 33.4619C120.904 33.3504 121.097 33.2896 121.3 33.2896C123.96 33.2896 126.265 33.4619 127.585 36.1283C128.204 37.3854 128.407 38.8453 127.747 40.1329C126.437 42.6776 123.006 42.8499 120.548 42.2518C114.436 40.7614 111.208 33.4315 116.051 28.6057C119.421 25.2499 124.325 24.3375 128.823 25.6352C130.387 26.0813 131.89 26.7707 133.321 27.5513C133.006 25.2094 134.164 22.908 136.377 22.7864L136.306 22.7357C135.758 22.3504 134.732 21.9652 133.22 21.661C131.707 21.367 129.707 21.1541 127.889 21.2352C126.072 21.3062 124.437 21.661 122.924 22.2389C121.411 22.8066 120.01 23.5873 118.487 24.743C116.975 25.8988 115.33 27.4094 113.918 29.214C112.507 31.0085 111.309 33.0868 110.202 34.7393C109.096 36.3919 108.08 37.6085 106.842 38.4905C105.603 39.3725 104.131 39.9098 103.806 40.1836C103.481 40.4573 104.303 40.4674 105.43 40.6601C106.557 40.8527 108.009 41.2278 109.573 41.8361C111.136 42.4342 112.812 43.2656 114.304 43.9347C115.797 44.6038 117.107 45.1209 118.589 45.4149C120.081 45.7089 121.747 45.8001 123.168 45.6684C124.6 45.5366 125.777 45.1919 127.118 44.5025C128.448 43.8131 129.93 42.779 131.331 41.8564C132.732 40.9338 134.052 40.1329 135.25 39.6158C136.448 39.0988 137.514 38.8656 137.535 38.6223C137.555 38.3891 136.519 38.1458 135.403 37.5983C134.286 37.0407 133.108 36.179 131.9 35.1449C130.702 34.1209 129.483 32.9246 128.173 32.1946C126.864 31.4647 125.452 31.1808 124.214 31.2822C122.985 31.3836 121.929 31.8601 121.33 32.4481C120.985 32.7827 120.792 33.1476 120.711 33.4619H120.741Z" fill="#3374BA"/>
<path fill-rule="evenodd" clip-rule="evenodd" d="M121.939 33.2997C122.325 33.0868 122.792 32.8942 123.3 32.7624C124.356 32.4988 125.574 32.5799 126.732 33.1781C127.879 33.7762 128.965 34.9016 129.991 35.8545C131.016 36.8075 131.971 37.5983 132.286 38.0951C132.6 38.5919 132.265 38.7946 131.504 39.3218C130.742 39.8591 129.544 40.7209 128.366 41.532C127.178 42.343 126.001 43.1135 124.569 43.4785C123.138 43.8435 121.442 43.8029 119.858 43.296C118.264 42.779 116.771 41.7854 114.903 41.0859C113.035 40.3863 110.791 39.9707 110.02 39.5246C109.238 39.0785 109.918 38.602 110.598 37.6794C111.279 36.7568 111.959 35.3882 112.538 34.0094C113.116 32.6205 113.604 31.2214 114.7 29.8831C115.269 29.1937 116.01 28.5145 116.853 27.8758C116.579 28.0988 116.315 28.3421 116.061 28.6057C111.218 33.4315 114.446 40.7614 120.559 42.2518C123.006 42.8499 126.447 42.6776 127.757 40.1329C128.417 38.8453 128.214 37.3854 127.595 36.1283C126.387 33.685 124.346 33.3301 121.96 33.2997H121.939ZM119.381 26.2435C121.229 25.2297 123.198 24.4693 125.229 23.9624C127.26 23.4453 129.341 23.1818 130.976 23.1818C132.57 23.1818 133.737 23.4454 134.296 23.7901C133.484 24.7025 133.128 26.1218 133.321 27.5513C131.89 26.7605 130.387 26.0813 128.823 25.6352C125.544 24.6924 122.061 24.9154 119.107 26.4057C119.198 26.355 119.289 26.3043 119.381 26.2536V26.2435Z" fill="#225CAB"/>
<path fill-rule="evenodd" clip-rule="evenodd" d="M133.23 48.284C130.407 50.0278 127.564 51.6601 124.346 52.5522C127.087 55.8066 129.879 58.108 134.387 58.2803C138.296 58.4223 143.728 55.6647 143.332 51.143C143.22 49.8656 142.703 48.3347 141.819 47.3919C140.479 45.9725 138.063 45.6785 136.458 46.814C135.403 47.5541 134.986 48.6997 135.057 49.9568C135.189 52.2582 136.57 52.5218 138.53 52.8057C139.829 52.9882 139.545 54.955 138.245 54.7725C136.205 54.4785 134.499 54.1237 133.555 52.0757C133.027 50.92 132.935 49.531 133.23 48.284Z" fill="#5DBDEB"/>
<path fill-rule="evenodd" clip-rule="evenodd" d="M133.23 48.284C131.027 49.6527 128.813 50.9402 126.407 51.8628C126.651 52.4407 127.158 53.2112 127.788 53.8702C128.498 54.6204 129.372 55.249 130.336 55.7153C131.301 56.1817 132.357 56.496 133.291 56.6176C134.235 56.7393 135.057 56.6683 135.941 56.4554C136.824 56.2425 137.758 55.8775 138.54 55.3199C139.322 54.7623 139.961 54.002 140.235 53.2923C140.52 52.5826 140.449 51.9236 140.235 51.6499C140.012 51.3863 139.626 51.5181 139.22 51.7209C138.814 51.9236 138.388 52.2075 137.849 52.3089C137.301 52.4103 136.641 52.3292 136.042 52.0656L135.981 52.0352C136.601 52.4914 137.484 52.6435 138.54 52.7955C139.839 52.978 139.555 54.9448 138.256 54.7623C136.215 54.4683 134.509 54.1135 133.565 52.0656C133.037 50.9098 132.945 49.5209 133.24 48.2739L133.23 48.284Z" fill="#3D82C4"/>
<path fill-rule="evenodd" clip-rule="evenodd" d="M133.23 48.284C131.565 49.3181 129.879 50.3117 128.123 51.1329C128.295 51.5485 128.549 52.0453 128.884 52.5319C129.321 53.1605 129.9 53.7891 130.539 54.2554C131.179 54.7218 131.869 55.0361 132.641 55.1983C133.413 55.3605 134.255 55.3605 134.946 55.3402C135.636 55.3098 136.174 55.2591 136.702 55.0665C136.986 54.9651 137.271 54.813 137.504 54.661C135.798 54.3669 134.377 53.8803 133.555 52.0858C133.027 50.9301 132.935 49.5412 133.23 48.2941V48.284Z" fill="#3374BA"/>
<path fill-rule="evenodd" clip-rule="evenodd" d="M133.23 48.284C132.143 48.9531 131.057 49.6121 129.94 50.2103C129.94 50.6361 130.082 51.0619 130.306 51.4776C130.691 52.2176 131.321 52.9273 132.062 53.4342C132.803 53.9411 133.656 54.225 134.489 54.296C134.966 54.3365 135.443 54.296 135.778 54.2047C134.854 53.8296 134.083 53.2213 133.555 52.0757C133.027 50.92 132.935 49.531 133.23 48.284Z" fill="#225CAB"/>
<path fill-rule="evenodd" clip-rule="evenodd" d="M129.26 59.1116C126.346 57.8342 124.092 55.5024 122.163 53.0287C116.244 54.0121 112.659 52.461 107.552 49.8047C106.588 51.9541 105.989 54.4278 107.603 56.425C109.258 58.4831 112.883 59.4564 113.949 61.5651C114.071 61.8186 114.172 62.0822 114.233 62.3559C114.507 63.4812 114.314 64.6877 114.467 65.8434C114.68 67.3946 115.482 68.4287 116.731 69.331C120.356 71.9365 124.549 69.7872 128.356 71.896C132.113 73.9743 131.818 77.8877 136.743 78.8001C138.844 79.1854 142.053 78.8711 143.972 77.6038C141.728 77.0867 140.185 76.8637 138.844 74.4609C138.337 73.5485 138.042 72.555 137.89 71.5209C137.819 71.0241 137.768 70.5172 137.748 70.0204C137.616 67.5568 138.042 64.3937 136.56 62.2748C134.702 59.6287 128.062 59.7909 128.173 63.7651C128.265 67.1107 132.357 68.0029 132.082 64.6167C131.971 63.2379 134.621 62.7107 134.032 65.8637C133.778 67.1918 132.854 68.2259 131.554 68.6112C130.884 68.8139 130.194 68.8139 129.524 68.6112C127.615 68.0333 126.366 66.0057 126.204 64.0997C126.001 61.7679 127.3 60.0444 129.29 59.1319L129.26 59.1116Z" fill="#5DBDEB"/>
<path fill-rule="evenodd" clip-rule="evenodd" d="M129.26 59.1116C126.346 57.8342 124.092 55.5024 122.163 53.0287C117.34 53.8296 114.071 52.9476 110.273 51.1633C110.101 51.508 109.928 51.9034 109.817 52.3494C109.644 53.0895 109.664 53.9817 110.07 54.8029C110.477 55.6241 111.248 56.3743 112.213 57.1651C113.167 57.9559 114.304 58.7771 115.096 59.5273C115.888 60.2775 116.345 60.9568 116.65 62.0213C116.964 63.0858 117.127 64.5356 117.563 65.6103C118 66.6849 118.701 67.3946 119.655 67.8609C120.609 68.3273 121.818 68.5503 123.198 68.7328C124.579 68.9153 126.123 69.0674 127.706 69.6047C129.29 70.1421 130.905 71.0748 132.123 72.0278C133.341 72.9808 134.164 73.954 134.925 74.7347C135.687 75.5153 136.377 76.1033 136.53 76.0526C136.682 76.0019 136.306 75.3125 136.012 74.2278C135.707 73.143 135.494 71.6425 135.463 70.1725C135.443 68.7024 135.616 67.2526 135.545 66.1679C135.463 65.0831 135.139 64.3734 134.611 63.8462C134.083 63.319 133.362 62.9845 132.681 62.954C132.001 62.9236 131.351 63.1974 131.179 63.4103C131.006 63.6232 131.321 63.7651 131.646 64.0794C131.788 64.2112 131.93 64.3835 132.062 64.566C131.981 63.2075 134.6 62.7107 134.012 65.8434C133.758 67.1715 132.834 68.2056 131.534 68.5909C130.864 68.7937 130.174 68.7937 129.504 68.5909C127.595 68.013 126.346 65.9854 126.183 64.0794C125.98 61.7476 127.28 60.0241 129.27 59.1116H129.26Z" fill="#3D82C4"/>
<path fill-rule="evenodd" clip-rule="evenodd" d="M129.26 59.1116C127.27 60.0241 125.98 61.7476 126.173 64.0794C126.295 65.5292 127.057 67.06 128.255 67.9522C127.95 67.8609 127.605 67.7596 127.229 67.648C126.417 67.425 125.432 67.1918 124.498 66.9891C123.564 66.7762 122.681 66.5937 121.909 66.2287C121.137 65.8637 120.467 65.3264 120 64.6269C119.523 63.9273 119.249 63.0757 118.985 62.2444C118.721 61.4232 118.467 60.6222 117.97 59.8517C117.472 59.0812 116.731 58.3411 115.969 57.6822C115.208 57.0232 114.426 56.4554 113.878 55.8978C113.319 55.3402 112.994 54.7826 112.883 54.1338C112.781 53.5458 112.873 52.8766 113.126 52.3393C115.858 53.2822 118.589 53.6167 122.173 53.0287C124.102 55.5024 126.366 57.8342 129.27 59.1116H129.26ZM133.737 67.1614C133.697 67.719 133.646 68.5098 133.697 69.2904C133.737 70.0711 133.88 70.8213 133.88 71.1153C133.88 71.4093 133.737 71.2471 133.352 70.8619C132.956 70.4766 132.316 69.8582 131.686 69.4324C131.24 69.1282 130.803 68.9153 130.438 68.743C130.803 68.743 131.179 68.7024 131.534 68.5909C132.56 68.2868 133.362 67.5771 133.768 66.6342C133.768 66.7863 133.748 66.9485 133.737 67.1614Z" fill="#3374BA"/>
<path fill-rule="evenodd" clip-rule="evenodd" d="M129.26 59.1116C126.346 57.8342 124.092 55.5024 122.163 53.0287C120.152 53.3633 118.406 53.4038 116.782 53.2112C116.771 53.2315 116.761 53.2416 116.751 53.2619C116.375 53.9209 116.558 54.9448 117.015 55.7356C117.472 56.5264 118.213 57.084 119.005 57.6619C119.797 58.2398 120.64 58.8379 121.127 59.7808C121.615 60.7236 121.747 61.9909 122.142 62.8222C122.549 63.6434 123.219 64.0084 124.021 64.2923C124.762 64.5457 125.605 64.7384 126.387 65.1743C126.275 64.8093 126.204 64.4444 126.173 64.0794C125.97 61.7476 127.27 60.0241 129.26 59.1116Z" fill="#225CAB"/>
<path fill-rule="evenodd" clip-rule="evenodd" d="M85.652 33.0868C88.5457 34.1006 92.1907 33.5937 94.3736 31.3329C95.6123 30.0555 96.1504 28.4131 96.0793 26.649C95.9778 24.2057 94.5056 21.9652 91.8658 21.9652C90.6982 21.9652 89.6016 22.4619 88.8198 23.3338L88.7995 23.3541C87.6319 24.7126 88.4848 26.0407 89.7742 26.9025C90.8098 27.5919 89.5915 29.3559 88.5152 28.4435L88.4848 28.4131C86.9821 27.1965 85.8856 25.9495 86.3628 23.8813C86.5151 23.202 86.8501 22.5836 87.307 22.0564L87.3273 22.026C87.571 21.7523 87.835 21.5089 88.1294 21.2859C90.952 14.6656 94.9016 11.7053 100.719 8.06564C98.2013 7.14306 95.6631 6.81864 92.9725 6.74767C92.343 6.72739 91.7236 6.72739 91.0941 6.72739L87.8045 9.41401C83.926 13.0334 80.7887 17.991 80.3318 23.3642C80.017 27.1052 81.8649 31.7688 85.652 33.0868Z" fill="#5DBDEB"/>
<path fill-rule="evenodd" clip-rule="evenodd" d="M90.0585 27.2066C90.5154 27.9873 89.4696 29.2546 88.5152 28.4536L88.4848 28.4232C86.9821 27.2066 85.8856 25.9596 86.3628 23.8914C86.5151 23.2122 86.8501 22.5937 87.307 22.0665L87.3273 22.0361C87.571 21.7624 87.835 21.5191 88.1294 21.296C90.952 14.6758 94.9016 11.7154 100.719 8.07578C98.2013 7.15321 95.6631 6.82878 92.9725 6.75781H92.7491C92.1602 7.27486 91.287 8.01496 90.2819 8.97809C89.1143 10.1034 87.7639 11.5431 86.576 13.155C85.3881 14.767 84.3524 16.5615 83.6519 18.3661C82.9412 20.1707 82.5553 21.9854 82.5553 23.6177C82.5553 25.25 82.931 26.7099 83.5199 27.9873C84.1088 29.2647 84.9007 30.3596 85.8551 30.9983C86.7993 31.637 87.8959 31.7993 88.9518 31.708C90.0077 31.6066 91.0332 31.2416 91.7439 30.5928C92.4547 29.944 92.8506 29.0214 92.9319 28.2407C93.0131 27.45 92.7897 26.8011 92.5663 26.649C92.343 26.497 92.1196 26.8315 91.7338 27.0343C91.348 27.237 90.7997 27.308 90.3225 27.2675C90.2311 27.2675 90.1296 27.2472 90.0382 27.2269L90.0585 27.2066Z" fill="#3D82C4"/>
<path fill-rule="evenodd" clip-rule="evenodd" d="M90.0687 27.2269C90.4849 28.0177 89.4493 29.2444 88.5152 28.4435L88.4848 28.4131C86.9821 27.1965 85.8856 25.9495 86.3627 23.8813C86.515 23.202 86.8501 22.5836 87.307 22.0564L87.3273 22.026C87.571 21.7522 87.835 21.5089 88.1294 21.2859C90.952 14.6656 94.9016 11.7053 100.719 8.06563C98.7598 7.34581 96.7799 6.99097 94.729 6.83889C94.5767 6.98083 94.4142 7.15318 94.2213 7.33567C92.9623 8.57254 90.7083 10.8536 89.0736 12.6684C87.439 14.4831 86.4135 15.8214 85.6926 17.332C84.9718 18.8426 84.5352 20.5052 84.4032 22.1274C84.2712 23.7495 84.454 25.3209 84.7992 26.5273C85.1444 27.7338 85.6419 28.5854 86.3221 29.1633C86.9922 29.7412 87.835 30.0453 88.6066 30.0555C89.3782 30.0656 90.0687 29.7919 90.4748 29.3458C90.8708 28.8997 90.9723 28.3015 90.82 27.896C90.688 27.5513 90.3834 27.3587 90.0788 27.2269H90.0687Z" fill="#3374BA"/>
<path fill-rule="evenodd" clip-rule="evenodd" d="M86.2714 24.4592C86.2917 24.2767 86.3221 24.0841 86.3628 23.8914C86.5151 23.2122 86.8501 22.5937 87.307 22.0665L87.3273 22.0361C87.571 21.7624 87.835 21.5191 88.1294 21.296C90.952 14.6758 94.9016 11.7154 100.719 8.07579C99.4908 7.62971 98.2623 7.31542 97.0033 7.11266C96.1403 7.73109 95.0945 8.60298 93.937 9.67763C92.1399 11.3504 90.0585 13.52 88.6574 15.2942C87.2562 17.0684 86.5252 18.4371 86.18 19.8868C85.8449 21.3366 85.8957 22.8675 86.1495 24.0131C86.18 24.1652 86.2206 24.3172 86.2612 24.4592H86.2714Z" fill="#225CAB"/>
<path fill-rule="evenodd" clip-rule="evenodd" d="M78.4027 22.7255C78.9103 18.0214 81.5096 13.2361 84.6164 9.81954L84.6367 9.79926L87.9568 6.69696C83.6316 6.59558 80.21 6.0177 76.1791 4.08129C73.255 2.67208 70.93 0.968851 68.5947 -1.18045H67.0413C66.026 -0.714096 65.1325 -0.0652351 64.3101 0.745821L64.2898 0.766087C63.2034 1.84074 62.5739 2.98636 62.6856 4.53751C62.7668 5.69327 63.2339 6.82875 63.2034 7.97437C63.2034 8.13658 63.1831 8.28866 63.1628 8.45087C63.1222 8.68405 63.0511 8.89695 62.9394 9.09972C62.5333 9.81953 61.6094 10.3467 60.9799 10.8739C60.0559 11.6444 59.5381 12.4859 59.3148 13.6822C58.7563 16.6527 61.518 19.2785 59.9646 22.3403C59.3046 23.6379 57.2435 25.0877 56.0861 26.0204C55.2129 26.72 54.1468 27.6121 53.4665 28.5854C55.3246 28.0379 57.741 27.8554 59.4975 28.261C61.5891 28.7375 63.6806 30.3495 65.5792 31.3633C68.3308 32.8333 70.8081 33.2591 73.7119 31.7283C76.2096 30.4103 77.8849 27.5817 77.0929 24.7532C76.6563 23.202 75.5497 22.0767 74.0876 21.4481C72.4732 20.7587 70.6152 20.9615 69.2141 22.0361C66.1377 24.3882 68.9603 28.3928 71.3056 26.8619L71.3361 26.8416C71.7422 26.5578 71.9554 26.0407 72.1483 25.6048L72.1687 25.5744C72.6966 24.449 74.4531 25.1688 73.9759 26.4057C73.5901 27.2877 73.2449 27.967 72.4326 28.5144L72.4022 28.5347C71.4173 29.1836 70.27 29.3965 69.1329 29.0518C67.5388 28.5651 66.3407 27.1154 65.9752 25.5135C65.5183 23.496 66.4017 21.6914 68.0059 20.4647C71.4478 17.8389 76.4431 19.167 78.423 22.7559L78.4027 22.7255Z" fill="#5DBDEB"/>
<path fill-rule="evenodd" clip-rule="evenodd" d="M78.4027 22.7255C78.9104 18.0214 81.5096 13.2361 84.6164 9.81956L84.6367 9.79928L87.9568 6.69698C83.6316 6.5956 80.21 6.01772 76.1791 4.08132C74.0673 3.06749 72.2702 1.90159 70.5543 0.512653C70.1482 0.634312 69.7217 0.816803 69.3055 1.03984C68.3714 1.56703 67.5185 2.34768 66.9601 3.23984C66.4017 4.132 66.1377 5.11541 65.9854 6.08868C65.8432 7.06195 65.8229 8.03523 65.5996 8.91726C65.3762 9.79928 64.9498 10.6002 64.3203 11.3606C63.7009 12.1209 62.8887 12.8306 62.4013 13.6924C61.914 14.5642 61.7515 15.5882 61.8327 16.7744C61.914 17.9606 62.249 19.2887 62.249 20.4748C62.249 21.661 61.914 22.7053 61.2337 23.6684C60.5534 24.6315 59.5381 25.5034 59.4874 26.0103C59.4467 26.5172 60.3707 26.6693 61.4368 27.1458C62.5028 27.6324 63.7111 28.4435 65.0208 29.1228C66.3306 29.7919 67.7317 30.3292 69.011 30.4509C70.2903 30.5827 71.4275 30.3191 72.3108 29.7209C73.1941 29.1329 73.8135 28.2103 74.0165 27.4398C74.1485 26.9329 74.1181 26.4868 73.9861 26.2029C73.9759 26.2536 73.9556 26.3043 73.9353 26.355C73.5495 27.237 73.2043 27.9163 72.392 28.4638L72.3616 28.484C71.3767 29.1329 70.2294 29.3458 69.0922 29.0011C67.4982 28.5145 66.3001 27.0647 65.9346 25.4629C65.4777 23.4453 66.361 21.6407 67.9652 20.414C71.4072 17.7882 76.4025 19.1163 78.3824 22.7053L78.4027 22.7255Z" fill="#3D82C4"/>
<path fill-rule="evenodd" clip-rule="evenodd" d="M78.4027 22.7255C78.9103 18.0214 81.5095 13.2361 84.6164 9.81956L84.6367 9.79928L87.9568 6.69698C83.6316 6.5956 80.2099 6.01772 76.1791 4.08132C75.2654 3.64537 74.4125 3.17901 73.6002 2.6721C73.1433 2.74307 72.7068 2.84445 72.2905 2.9661C71.1635 3.29053 70.2599 3.73661 69.6304 4.3956C69.0009 5.05458 68.6557 5.92647 68.4323 7.04168C68.2089 8.15689 68.1277 9.52555 67.488 10.661C66.8484 11.7864 65.6605 12.6785 64.9396 13.6518C64.2289 14.6251 63.9954 15.6896 63.8938 16.967C63.8024 18.2546 63.8532 19.755 63.64 21.1136C63.4268 22.4721 62.9597 23.6684 62.513 24.4288C62.0663 25.179 61.65 25.4933 61.8124 25.7062C61.9749 25.9292 62.7364 26.061 63.4674 26.3753C64.1984 26.6896 64.9091 27.1762 65.6503 27.5817C66.3813 27.9873 67.1428 28.3117 67.9754 28.4739C66.9601 27.7845 66.229 26.6693 65.9549 25.4831C65.498 23.4656 66.3813 21.661 67.9855 20.4343C71.4275 17.8085 76.4228 19.1366 78.4027 22.7255Z" fill="#3374BA"/>
<path fill-rule="evenodd" clip-rule="evenodd" d="M78.4027 22.7255C78.9103 18.0214 81.5095 13.2361 84.6164 9.81955L84.6367 9.79927L87.9568 6.69697C83.6417 6.59559 80.2201 6.0177 76.1995 4.09144C76.1487 4.09144 76.0878 4.10158 76.037 4.11172C74.646 4.28407 73.4378 4.9532 72.524 5.60204C71.6102 6.25089 70.9909 6.86932 70.6355 7.56886C70.2802 8.2684 70.1989 9.03891 70.0365 9.88038C69.874 10.7219 69.6202 11.6343 69.0821 12.3947C68.5338 13.155 67.6911 13.7735 67.0921 14.3919C66.4829 15.0103 66.1174 15.6389 65.9752 16.4905C65.8331 17.3421 65.9245 18.4269 65.7823 19.6334C65.6503 20.85 65.2848 22.1882 64.9701 23.0804C64.6553 23.9725 64.4015 24.4186 64.6045 24.9154C64.8076 25.4223 65.4777 25.9799 66.1275 26.5476C66.2595 26.6693 66.4016 26.7808 66.5235 26.8923C66.2697 26.4564 66.0767 25.9799 65.9651 25.4831C65.5082 23.4656 66.3915 21.661 67.9957 20.4343C71.4376 17.8085 76.433 19.1366 78.4128 22.7255H78.4027Z" fill="#225CAB"/>
<path fill-rule="evenodd" clip-rule="evenodd" d="M165.7 11.837C165.537 16.0546 163.669 20.0186 159.902 22.1476C159.75 23.7191 158.714 24.52 157.455 25.3513C156.369 26.0711 155.272 24.4287 156.348 23.6988C157.14 23.1716 158.014 22.685 157.922 21.6002C157.892 21.2048 157.739 20.8398 157.475 20.5357C156.734 19.7246 155.404 19.684 154.419 20.0085C153.008 20.485 152.094 21.661 151.81 23.1006C151.658 23.8407 151.708 24.5808 152.013 25.2804C153.201 28.0278 157.404 28.8896 160.065 28.7983C161.405 28.7578 162.775 28.5043 164.014 27.9974C167.598 26.5172 170.35 23.0398 171.527 19.4103L172.36 15.5375C170.177 13.4085 168.674 12.3845 165.689 11.8269L165.7 11.837Z" fill="#5DBDEB"/>
<path fill-rule="evenodd" clip-rule="evenodd" d="M165.7 11.8371C165.537 16.0546 163.669 20.0186 159.902 22.1476C159.75 23.7191 158.714 24.52 157.455 25.3513C156.369 26.0711 155.272 24.4287 156.348 23.6988C156.694 23.4758 157.049 23.2527 157.333 22.9891C157.13 23.1615 156.948 23.2831 156.775 23.3845C156.328 23.6481 155.851 23.7698 155.435 23.8914C155.018 24.0232 154.653 24.1449 154.643 24.591C154.633 25.037 154.968 25.7974 155.597 26.3246C156.227 26.8417 157.161 27.1154 158.308 27.1559C159.465 27.1965 160.846 27.014 162.308 26.5274C163.77 26.0407 165.304 25.2601 166.431 24.3882C167.558 23.5163 168.268 22.5532 168.928 21.3569C169.588 20.1606 170.187 18.7412 170.573 17.4131C170.908 16.2776 171.081 15.203 171.162 14.4325C169.548 13.0334 168.106 12.2831 165.689 11.8269L165.7 11.8371Z" fill="#3D82C4"/>
<path fill-rule="evenodd" clip-rule="evenodd" d="M165.7 11.8371C165.537 16.0546 163.669 20.0186 159.902 22.1477C159.75 23.7191 158.714 24.52 157.455 25.3513C157.313 25.4426 157.171 25.5034 157.039 25.5237C157.262 25.7062 157.709 25.8684 158.278 25.9393C158.988 26.0306 159.872 25.9698 161.019 25.5744C162.166 25.179 163.567 24.449 164.735 23.5974C165.903 22.7458 166.827 21.7827 167.608 20.5458C168.39 19.3089 169.02 17.8085 169.365 16.4601C169.68 15.2232 169.751 14.108 169.517 13.2057C168.451 12.5569 167.294 12.1412 165.72 11.8472L165.7 11.8371Z" fill="#3374BA"/>
<path fill-rule="evenodd" clip-rule="evenodd" d="M165.7 11.8371C165.537 16.0546 163.669 20.0186 159.902 22.1477C159.77 23.5265 158.958 24.3071 157.922 25.037C158.481 24.9762 159.374 24.743 160.369 24.3375C161.598 23.8407 162.958 23.0702 164.136 21.9753C165.314 20.8804 166.299 19.4712 166.928 17.9707C167.568 16.4804 167.852 14.909 167.801 13.1753C167.801 12.9117 167.781 12.638 167.75 12.3643C167.141 12.1514 166.471 11.9689 165.7 11.8269V11.8371Z" fill="#225CAB"/>
</g>
<defs>
<clipPath id="clip0_79_2353">
<rect width="177" height="148.211" fill="white" transform="matrix(1 0 0 -1 0 147)"/>
</clipPath>
</defs>
</svg>
