<svg width="141" height="118" viewBox="0 0 141 118" fill="none" xmlns="http://www.w3.org/2000/svg">
<g opacity="0.8" clip-path="url(#clip0_91_2)">
<path fill-rule="evenodd" clip-rule="evenodd" d="M53.98 52.1673C54.894 51.8767 55.808 51.5942 56.6006 50.7548C59.6741 47.5019 56.5682 41.093 50.5911 42.0939C43.5221 43.2804 42.9155 51.9252 45.7706 55.6624C44.7515 56.5987 43.8376 57.3251 42.503 58.0354C36.8656 61.0462 32.4414 60.0856 26.9739 57.4543C17.8747 53.0714 15.8527 56.0095 9.88369 55.4283C6.58374 55.1054 3.13011 53.3619 1.96543 50.2947C1.34264 48.6561 2.03013 49.536 2.10293 49.536C4.06834 49.5682 6.00948 49.0678 7.71607 47.8651C9.91604 46.3073 10.4903 44.5638 14.1461 42.6024C17.6078 40.7378 18.7321 41.327 21.4497 40.8185C25.3643 40.084 27.2893 36.4275 30.6944 34.4015C33.7679 32.5693 37.7634 32.7388 40.0119 35.5719C43.514 39.9791 39.1545 44.8302 35.3046 44.362C32.1745 43.9826 32.1179 40.8508 33.3715 39.6078C34.1723 38.8167 34.884 38.962 35.8222 39.5351C36.8494 40.1567 37.7068 38.7037 36.7928 38.0822C34.2936 36.4033 31.8267 37.7432 31.0826 40.1163C29.7966 44.2167 33.873 47.397 38.2568 45.6858C43.5707 43.6113 44.8809 36.7827 39.9391 33.0939C40.4891 32.6419 41.0876 32.2303 41.8236 31.98C44.3876 31.1164 46.078 31.9881 48.011 33.4491C51.2058 35.8464 52.3058 36.3145 56.2852 35.7334C63.3703 34.6921 62.8931 35.8222 66.1122 40.2454C68.668 43.7566 72.0165 45.7503 76.4973 45.6938C78.2039 45.6777 78.4466 45.4678 79.4091 45.2902C79.1988 45.5485 79.1583 46.0893 78.3495 47.0902C74.9444 51.3117 70.1401 50.1655 66.2093 51.4651C63.0064 52.5225 61.9064 55.6946 58.5013 57.2767C55.3712 58.7296 50.5183 57.7852 47.9787 55.5009C44.7839 52.6193 45.5199 46.6059 48.5853 44.6768C51.7963 42.6589 55.6543 44.0391 56.0425 47.3001C56.2771 49.2454 54.9911 50.0364 53.4543 50.5207C52.3624 50.8678 52.8801 52.5225 53.98 52.1835V52.1673ZM36.1377 31.5361C31.7539 30.9226 28.8179 33.328 25.8739 36.0643C20.9482 40.649 21.0372 38.4374 16.3137 39.8096C10.8785 41.3916 8.86458 44.9109 6.70506 46.4445C3.17056 48.9467 0.744123 46.7512 0.0970744 48.8014C-0.52571 50.779 1.86837 53.7817 3.8176 55.1216C9.02635 58.7054 14.4373 56.6471 17.9961 56.7278C22.671 56.8328 25.1136 58.7215 28.8422 60.2067C35.4987 62.8623 41.7427 61.7161 46.9757 56.9216C48.9331 58.6085 51.6345 59.4803 54.2065 59.6659C59.0675 60.013 61.227 57.8175 64.3166 54.7503C67.01 52.0785 69.3394 52.8373 73.3672 51.9655C78.9642 50.7548 82.2965 45.605 80.6951 44.0391C79.5546 42.9333 77.7186 44.588 73.6989 43.5952C68.4173 42.2956 67.5114 38.5342 65.0122 35.6769C61.5262 31.6895 55.8241 34.8051 52.7426 34.1271C50.2353 33.5701 48.3831 30.9065 45.7625 30.172C42.8993 29.3729 40.4486 30.3253 38.3457 32.1495C37.6502 31.8509 36.9141 31.641 36.1458 31.5361H36.1377Z" fill="white"/>
<path fill-rule="evenodd" clip-rule="evenodd" d="M85.1435 60.8121C85.0545 59.674 84.6016 58.6327 83.9626 57.6399C81.8436 54.3467 78.859 53.709 74.9525 54.4193C68.4254 55.6059 67.6813 58.4309 64.8019 61.369C60.0542 66.2282 55.4682 62.6444 50.0896 63.9278C47.8978 64.4524 45.4066 66.1798 44.5574 67.9071C43.6272 69.7878 45.2691 70.2156 46.6603 70.5223C51.6183 71.6201 51.5212 72.4111 53.7616 76.3259C58.38 84.3976 63.2813 81.6935 67.8026 82.759C71.7496 83.6873 75.551 90.193 83.6796 89.1276C91.9941 88.0379 96.0301 80.6846 101.627 77.916C107.321 75.099 112.077 77.2783 112.53 74.4129C112.797 72.7098 110.467 70.6192 109.141 69.6587C103.026 65.2273 97.947 67.1484 95.5691 66.3654C92.0831 65.2273 91.8081 61.3368 85.1435 60.7959V60.8121ZM77.4436 66.6156C81.0833 68.3268 84.1082 65.7358 84.9737 62.5556C91.0964 63.0479 90.8294 66.6721 95.0272 68.0443C97.9712 69.0049 102.444 66.9789 108.114 71.0874C108.866 71.6282 110.912 73.4604 110.799 74.1707C110.767 74.3725 105.801 74.7358 104.531 75.0263C95.7632 77.012 92.3743 86.2621 83.4531 87.4244C77.5407 88.1993 74.5076 84.5025 70.7224 82.1617C66.7431 79.7079 63.0468 81.6613 59.3101 79.8532C55.5329 78.0209 54.716 72.9923 52.1845 70.9178C50.1463 69.247 47.6875 69.1502 46.1507 68.6255C46.4096 68.1573 47.0323 67.4632 47.9139 66.8336C51.2139 64.4928 54.5705 65.7197 58.4042 65.7681C66.3306 65.8569 66.8078 59.6175 71.5555 57.3171C73.4885 56.3807 76.5782 55.6866 78.7215 56.0014C81.0833 56.3485 82.806 58.4148 83.2994 60.3359C83.8575 62.5314 81.6656 66.6883 78.1796 65.0497C76.0282 64.0408 76.6348 61.6516 78.2201 61.7968C79.3605 61.9018 79.5304 60.1744 78.3899 60.0695C75.7775 59.8193 74.6613 62.4345 75.187 64.2264C74.0062 65.3403 72.8496 66.4784 72.1297 67.9071C68.4901 75.1474 78.3495 82.2182 84.0273 77.8918C88.4758 74.5017 85.2406 68.9645 81.4553 69.8847C77.7995 70.7726 78.5436 75.4622 80.1612 75.0021C81.6494 74.5824 79.7568 72.9035 81.0914 71.9268C83.3318 70.2802 86.2273 74.0416 82.9759 76.5196C79.7083 79.0057 74.4834 76.2855 73.351 72.6936C72.429 69.7636 74.1275 67.6407 76.1253 65.7439C76.4731 66.0829 76.9179 66.3816 77.4517 66.6318L77.4436 66.6156Z" fill="white"/>
<path fill-rule="evenodd" clip-rule="evenodd" d="M26.9739 57.4543C32.4414 60.0856 36.8656 61.0462 42.503 58.0354C43.8376 57.3251 44.7515 56.5906 45.7706 55.6624C42.9155 51.9252 43.5141 43.2804 50.5911 42.0938C56.5602 41.093 59.6741 47.5019 56.6006 50.7548C55.808 51.5862 54.894 51.8767 53.9801 52.1673C52.8882 52.5144 52.3624 50.8516 53.4543 50.5045C54.9911 50.0202 56.2771 49.2292 56.0425 47.2839C55.6543 44.023 51.7963 42.6427 48.5853 44.6606C45.5199 46.5898 44.7758 52.6032 47.9787 55.4848C50.5103 57.7691 55.3631 58.7135 58.5013 57.2605C61.9064 55.6866 63.0064 52.5144 66.2093 51.4489C70.1401 50.1494 74.9444 51.2875 78.3495 47.0741C79.1584 46.0651 79.1988 45.5324 79.4091 45.2741C78.4466 45.4517 78.212 45.6535 76.4974 45.6777C72.0166 45.7261 68.6681 43.7324 66.1122 40.2293C62.8851 35.806 63.3704 34.684 56.2852 35.7172C52.2977 36.2984 51.1978 35.8302 48.011 33.4329C46.078 31.98 44.3876 31.1083 41.8236 31.9639C41.0876 32.2141 40.4972 32.6177 39.9391 33.0778C44.8809 36.7746 43.5707 43.5952 38.2568 45.6696C33.873 47.3808 29.7966 44.2086 31.0826 40.1001C31.8267 37.7351 34.2936 36.3952 36.7928 38.0661C37.7068 38.6795 36.8495 40.1405 35.8223 39.519C34.884 38.954 34.1642 38.8006 33.3716 39.5916C32.1179 40.8347 32.1745 43.9665 35.3046 44.3458C39.1546 44.814 43.5221 39.9629 40.0119 35.5558C37.7634 32.7226 33.7598 32.5612 30.6944 34.3854C27.2893 36.4195 25.3643 40.0759 21.4497 40.8024C18.7402 41.3109 17.6159 40.7297 14.1461 42.5862C10.4903 44.5557 9.90796 46.2911 7.71608 47.849C6.01758 49.0597 4.07643 49.5521 2.10293 49.5198C2.03014 49.5198 1.35074 48.64 1.96543 50.2785C3.13012 53.3539 6.58375 55.0973 9.88369 55.4121C15.8608 55.9933 17.8747 53.0552 26.9739 57.4381V57.4543Z" fill="#5DBDEB"/>
<path fill-rule="evenodd" clip-rule="evenodd" d="M44.9132 54.1449C43.1581 49.9799 44.3633 43.1351 50.5992 42.0939C56.5682 41.093 59.6821 47.5019 56.6087 50.7548C55.816 51.5862 54.9021 51.8767 53.9881 52.1673C52.8962 52.5144 52.3705 50.8516 53.4624 50.5046C53.608 50.4561 53.7455 50.4077 53.891 50.3593C53.2359 50.3754 52.508 50.2382 51.9337 50.0606C51.2786 49.8588 50.8257 49.6167 50.4455 49.7942C50.0654 49.9718 49.758 50.5772 49.8146 51.3037C49.8713 52.0301 50.2918 52.8776 51.1087 53.4911C51.9256 54.1045 53.1389 54.4678 54.441 54.492C55.7432 54.5162 57.1425 54.1852 58.5579 53.4991C59.9733 52.8131 61.4049 51.7557 62.7475 50.9162C64.0902 50.0768 65.3357 49.4472 66.6703 49.0759C68.0048 48.7046 69.4364 48.5916 70.6658 48.2929C71.8952 47.9943 72.9305 47.518 73.1731 47.2759C73.4157 47.0337 72.8738 47.0337 72.0489 46.8481C71.232 46.6624 70.1401 46.2911 68.9026 45.4678C67.6651 44.6445 66.2739 43.3611 65.0688 42.1342C63.8637 40.8993 62.8365 39.7127 61.9872 38.9378C61.138 38.1629 60.4748 37.7916 59.4152 37.6544C58.3557 37.5091 56.8998 37.5979 55.5896 37.6221C54.2874 37.6464 53.1308 37.606 52.0227 37.2266C50.9146 36.8392 49.8551 36.1127 48.6742 35.467C47.4934 34.8213 46.1912 34.2724 44.9618 33.9899C43.7324 33.7074 42.5839 33.7074 41.8398 33.8204C41.492 33.8769 41.2332 33.9576 41.031 34.0625C44.6221 37.8724 43.1177 43.7728 38.2486 45.6777C33.8649 47.3889 29.7885 44.2167 31.0745 40.1082C31.8186 37.7432 34.2855 36.4033 36.7847 38.0742C37.6987 38.6876 36.8413 40.1486 35.8141 39.5271C35.6281 39.4141 35.4583 39.3253 35.2884 39.2446C35.3369 39.2849 35.3774 39.3172 35.4178 39.3576C35.8141 39.7208 36.0487 40.1486 36.1215 40.5279C36.1943 40.9073 36.1053 41.2383 36.3318 41.4401C36.5582 41.6418 37.1082 41.6983 37.6825 41.3593C38.2648 41.0123 38.8714 40.2616 39.106 39.3253C39.3405 38.389 39.195 37.267 38.5883 36.4114C37.9817 35.5558 36.9303 34.9827 35.7899 34.8213C34.6494 34.6598 33.4362 34.9262 32.2473 35.5154C31.0583 36.0966 29.9017 37.0006 28.6076 38.0742C27.3135 39.1396 25.8819 40.3746 24.4665 41.2302C23.0511 42.0858 21.6519 42.562 20.1636 42.8768C18.6754 43.1835 17.0982 43.3288 15.8203 43.8212C14.5424 44.3136 13.5637 45.153 12.2535 46.2589C10.9432 47.3566 9.29322 48.7126 7.95868 49.4956C6.61606 50.2785 5.58887 50.4803 5.66166 51.0131C5.73445 51.5458 6.91532 52.4014 8.46015 52.8453C10.005 53.2893 11.9138 53.3296 13.9034 53.2651C15.8931 53.2005 17.9556 53.031 19.8401 53.1924C21.7246 53.3539 23.4151 53.8462 25.3886 54.5565C27.354 55.2669 29.6025 56.187 31.6488 56.7117C33.695 57.2363 35.5472 57.3655 37.367 57.1637C39.1869 56.9619 40.9824 56.4292 42.3978 55.7834C43.5221 55.2749 44.4118 54.6938 44.9132 54.161V54.1449Z" fill="#3D82C4"/>
<path fill-rule="evenodd" clip-rule="evenodd" d="M44.4037 52.5144C43.5221 48.3979 45.1236 43.014 50.5911 42.0939C56.5601 41.093 59.6741 47.5019 56.6006 50.7548C56.3822 50.9889 56.1476 51.1826 55.9131 51.336C56.3175 51.457 57.0697 51.2875 57.927 50.9969C58.7844 50.6983 59.7468 50.2624 60.7093 49.7458C61.6718 49.2292 62.6505 48.6319 63.5321 48.2203C64.4137 47.8086 65.2063 47.5826 66.0556 47.4696C66.9048 47.3566 67.8188 47.3405 68.118 47.2597C68.4254 47.179 68.118 47.0257 67.4144 46.7593C66.7107 46.4929 65.6026 46.1055 64.6563 45.484C63.71 44.8544 62.9255 43.9907 62.0924 43.014C61.2593 42.0374 60.3615 40.9638 59.3182 40.302C58.2748 39.6481 57.0778 39.4141 55.8079 39.3011C54.5381 39.1881 53.2036 39.1961 52.0712 38.8652C50.9308 38.5343 50.0007 37.8643 49.0544 37.2428C48.1081 36.6213 47.1537 36.0562 46.1993 35.7092C45.2449 35.354 44.2905 35.2168 43.425 35.1845C42.8831 35.1684 42.3736 35.1926 41.9368 35.2249C44.2986 38.9782 42.6486 43.9504 38.2487 45.6777C33.8649 47.3889 29.7885 44.2167 31.0745 40.1082C31.8186 37.7432 34.2855 36.4033 36.7847 38.0742C37.3751 38.4697 37.2296 39.2123 36.7847 39.5271C37.1729 39.5594 37.4641 39.3414 37.6097 39.0024C37.7795 38.5988 37.7553 38.0257 37.456 37.5172C37.1649 37.0087 36.6068 36.5648 35.9031 36.3549C35.1994 36.145 34.3502 36.1692 33.5818 36.3791C32.8135 36.589 32.126 36.9764 31.4223 37.5576C30.7105 38.1387 29.9826 38.9056 29.0363 39.8257C28.09 40.7459 26.9334 41.8114 25.615 42.6347C24.2967 43.4499 22.8246 44.023 21.4497 44.3862C20.0747 44.7495 18.7968 44.9109 17.6968 45.2176C16.5968 45.5243 15.6667 45.9683 14.8498 46.5494C14.0329 47.1306 13.3292 47.8328 12.577 48.4624C11.8248 49.0839 11.016 49.6247 10.3609 49.996C9.70573 50.3673 9.20426 50.5611 9.05868 50.6902C8.91309 50.8274 9.12338 50.9001 9.7219 51.0131C10.3204 51.1261 11.3072 51.2633 12.3263 51.2956C13.3454 51.3198 14.3887 51.2391 15.5777 51.0938C16.7586 50.9485 18.085 50.7467 19.3225 50.7709C20.56 50.8032 21.7085 51.0615 22.9783 51.4974C24.2401 51.9252 25.6231 52.5225 26.8768 53.0552C28.1304 53.5879 29.2709 54.048 30.5164 54.4032C31.7701 54.7664 33.1289 55.0328 34.6009 55.0731C36.073 55.1216 37.6501 54.944 39.2759 54.5243C40.9016 54.1045 42.5758 53.4265 43.6353 52.9261C43.9427 52.7808 44.2015 52.6516 44.4118 52.5225L44.4037 52.5144Z" fill="#3374BA"/>
<path fill-rule="evenodd" clip-rule="evenodd" d="M44.1853 50.666C44.0721 46.9288 45.9162 42.8849 50.5992 42.1019C55.6543 41.2544 58.655 45.71 57.5954 49.0678C57.9351 49.1162 58.3395 48.9467 58.7197 48.7126C59.3263 48.3333 59.8924 47.7682 60.7417 47.397C61.5909 47.0257 62.7314 46.84 63.0953 46.6221C63.4593 46.4041 63.0549 46.162 62.602 45.8875C62.149 45.605 61.6637 45.2983 61.2674 44.7898C60.8792 44.2813 60.5799 43.571 60.0623 42.901C59.5366 42.2311 58.7844 41.5853 57.7814 41.2302C56.7785 40.867 55.541 40.7862 54.4977 40.7701C53.4543 40.754 52.6212 40.8105 51.7801 40.6006C50.9389 40.3907 50.0896 39.9145 49.3294 39.3414C48.5691 38.7602 47.8897 38.0742 47.097 37.5979C46.3125 37.1136 45.4147 36.8392 44.5089 36.815C43.878 36.7988 43.239 36.8957 42.7295 37.0006C43.7324 40.4149 41.9773 44.2248 38.2406 45.6858C33.8568 47.397 29.7804 44.2248 31.0664 40.1163C31.1635 39.8096 31.2848 39.5271 31.4304 39.2607C30.6377 40.0194 29.9179 41.0122 28.9635 41.9486C27.9363 42.9575 26.6422 43.8858 25.3562 44.5073C24.0702 45.1207 22.7923 45.4194 21.5548 45.6696C20.3173 45.9198 19.1203 46.1297 18.1335 46.4526C17.1549 46.7835 16.3946 47.2274 15.6747 47.7844C14.9549 48.3413 14.2836 49.0032 13.6851 49.431C13.0866 49.8588 12.5527 50.0525 12.6417 50.1575C12.7307 50.2624 13.4424 50.2866 14.4454 50.0848C15.4483 49.883 16.7424 49.4714 18.1982 49.3422C19.6541 49.2131 21.2798 49.3745 23.0754 49.9153C24.8709 50.4561 26.8363 51.3763 28.5429 52.0785C30.2495 52.7808 31.6892 53.2731 33.2826 53.5072C34.884 53.7332 36.6391 53.7009 38.3295 53.2974C40.02 52.8938 41.6295 52.135 42.7052 51.57C43.3684 51.2229 43.8295 50.9485 44.153 50.6821L44.1853 50.666Z" fill="#225CAB"/>
<path fill-rule="evenodd" clip-rule="evenodd" d="M58.4123 65.76C54.5785 65.7197 51.222 64.4847 47.922 66.8255C47.0404 67.4551 46.4176 68.1493 46.1588 68.6174C47.6875 69.134 50.1463 69.2309 52.1925 70.9098C54.7241 72.9842 55.541 78.0129 59.3182 79.8451C63.0549 81.6532 66.7511 79.7079 70.7305 82.1536C74.5238 84.4944 77.5488 88.1913 83.4612 87.4164C92.3824 86.2541 95.7713 77.0039 104.539 75.0183C105.809 74.7277 110.775 74.3645 110.807 74.1627C110.92 73.4524 108.874 71.6201 108.122 71.0793C102.452 66.9708 97.9793 68.9968 95.0353 68.0363C90.8375 66.6641 91.1044 63.0399 84.9817 62.5475C84.1163 65.7278 81.0914 68.3188 77.4517 66.6076C76.9179 66.3573 76.473 66.0506 76.1253 65.7197C74.1275 67.6246 72.4209 69.7394 73.351 72.6694C74.4834 76.2613 79.7083 78.9815 82.9759 76.4954C86.2273 74.0174 83.3399 70.256 81.0914 71.9026C79.7568 72.8793 81.6494 74.5582 80.1612 74.9779C78.5436 75.438 77.7995 70.7483 81.4553 69.8605C85.2406 68.9484 88.4839 74.4855 84.0273 77.8676C78.3495 82.1859 68.4901 75.1232 72.1297 67.8829C72.8496 66.4461 73.9981 65.3161 75.187 64.2022C74.6613 62.4103 75.7775 59.7951 78.3899 60.0453C79.5303 60.1583 79.3686 61.8856 78.2201 61.7726C76.6429 61.6193 76.0363 64.0085 78.1796 65.0255C81.6575 66.6641 83.8494 62.5071 83.2994 60.3117C82.8141 58.3906 81.0833 56.3242 78.7215 55.9772C76.5782 55.6624 73.4885 56.3565 71.5555 57.2928C66.7997 59.6013 66.3225 65.8408 58.4042 65.7439L58.4123 65.76Z" fill="#5DBDEB"/>
<path fill-rule="evenodd" clip-rule="evenodd" d="M83.7524 65.0336C82.4906 66.6641 80.5252 67.6246 78.2605 66.9304C78.0017 67.0677 77.7591 67.2129 77.5326 67.3663C76.8128 67.8506 76.3518 68.3833 76.004 69.134C75.6562 69.8847 75.4216 70.8533 75.4135 71.7008C75.3974 72.5483 75.6076 73.2748 75.9797 73.8802C76.3518 74.4775 76.8775 74.9537 77.5326 75.2846C78.1878 75.6156 78.9804 75.8012 79.5708 75.7851C80.1613 75.7689 80.5576 75.5591 80.7193 75.2685C80.8487 75.0344 80.8245 74.7519 80.7274 74.5098C80.6708 74.7277 80.509 74.8972 80.1532 75.0021C78.5355 75.4622 77.7914 70.7726 81.4473 69.8847C85.2325 68.9726 88.4758 74.5098 84.0193 77.8918C78.3414 82.2101 68.482 75.1474 72.1217 67.9071C72.8415 66.4704 73.99 65.3403 75.179 64.2264C74.6532 62.4345 75.7694 59.8193 78.3819 60.0695C79.3767 60.1664 79.3767 61.4901 78.6083 61.7565C78.7701 61.7968 78.9319 61.8372 79.1017 61.8453C79.5546 61.8776 80.0399 61.7323 80.412 61.3529C80.7759 60.9735 81.0267 60.3682 80.9701 59.7628C80.9134 59.1574 80.5495 58.552 79.7488 58.1484C78.948 57.7529 77.7025 57.5592 76.4569 57.6319C75.2113 57.7045 73.9658 58.0274 72.7283 58.8507C71.4908 59.674 70.2695 61.0058 68.9026 62.3134C67.5276 63.6211 66.0071 64.9206 64.4541 65.7843C62.9012 66.656 61.324 67.0999 59.666 67.334C58.0079 67.5681 56.2771 67.5923 55.355 67.778C54.4249 67.9717 54.3036 68.3349 54.6028 68.9403C54.9021 69.5457 55.63 70.4013 56.3984 71.5717C57.1668 72.7421 57.9756 74.2272 58.8329 75.3815C59.6902 76.5357 60.5961 77.3591 61.9468 77.8191C63.2975 78.2792 65.085 78.3842 66.735 78.6182C68.385 78.8523 69.9055 79.2236 71.3452 79.9259C72.7849 80.6281 74.1437 81.6693 75.6157 82.4281C77.0878 83.1949 78.6569 83.6873 80.2098 83.9213C81.7546 84.1554 83.2752 84.1312 84.7796 83.7195C86.284 83.2998 87.7722 82.4927 89.0986 81.6371C90.4251 80.7815 91.5817 79.8774 92.9081 78.8523C94.2346 77.8272 95.7309 76.6891 97.1139 75.7689C98.497 74.8488 99.7749 74.1627 101.118 73.6542C102.452 73.1456 103.851 72.8228 104.231 72.5322C104.612 72.2497 103.973 71.9995 103.115 71.7654C102.25 71.5313 101.158 71.3134 99.9448 71.1439C98.7316 70.9744 97.397 70.8452 96.1272 70.4255C94.8573 70.0058 93.6441 69.3035 92.4309 68.5125C91.2177 67.7215 90.0126 66.8336 88.9045 66.2201C87.7964 65.6067 86.8016 65.2677 85.7663 65.1062C85.095 65.0013 84.4075 64.969 83.7524 65.0013V65.0336Z" fill="#3D82C4"/>
<path fill-rule="evenodd" clip-rule="evenodd" d="M79.401 74.7923C78.4142 73.9044 78.4385 70.595 81.4554 69.8685C85.2406 68.9564 88.4839 74.4936 84.0274 77.8756C78.3495 82.194 68.4901 75.1313 72.1298 67.891C72.8496 66.4542 73.9981 65.3242 75.1871 64.2103C74.6614 62.4184 75.7775 59.8031 78.39 60.0534C79.2635 60.1341 79.3686 61.1592 78.8672 61.595C79.0208 61.6193 79.1826 61.6112 79.3363 61.5466C79.6436 61.4094 79.8863 61.0381 79.9267 60.6184C79.9672 60.1986 79.8054 59.7466 79.4657 59.4157C79.126 59.0767 78.6084 58.8668 77.9775 58.8507C77.3466 58.8345 76.6025 59.0121 75.7452 59.4157C74.8878 59.8193 73.9092 60.4489 72.9548 61.2076C71.9923 61.9663 71.046 62.8542 70.035 63.7744C69.0239 64.6946 67.9401 65.639 66.7674 66.4219C65.5946 67.2049 64.3328 67.8183 63.1924 68.238C62.052 68.6578 61.0329 68.8757 60.127 69.0129C59.2212 69.1421 58.4366 69.1824 58.3557 69.4084C58.2748 69.6264 58.9138 70.0219 59.4234 70.7161C59.9329 71.4102 60.3211 72.395 60.863 73.2263C61.4049 74.0658 62.1005 74.7438 62.9659 75.1716C63.8314 75.5913 64.8586 75.7528 66.0152 75.9384C67.1637 76.1241 68.4416 76.342 69.6386 76.7133C70.8357 77.0846 71.9518 77.6012 73.0842 78.3034C74.2084 79.0057 75.3408 79.8936 76.6268 80.4747C77.9047 81.0559 79.3282 81.3384 80.8002 81.3384C82.2723 81.3384 83.7928 81.0559 85.2244 80.4667C86.656 79.8774 87.9906 78.9734 89.2927 78.0694C90.5868 77.1573 91.8405 76.2452 93.0537 75.5187C94.275 74.7923 95.4559 74.2515 96.386 73.8479C97.3161 73.4443 97.9794 73.1779 97.7772 72.9438C97.575 72.7178 96.4992 72.5241 95.4235 72.169C94.3478 71.8057 93.2721 71.273 92.2287 70.5869C91.1854 69.9008 90.1743 69.0614 89.1148 68.3995C88.0553 67.7376 86.9472 67.2452 85.6207 67.1564C84.2943 67.0676 82.7414 67.3744 81.4473 67.8022C80.1532 68.23 79.1179 68.7627 78.4142 69.5457C77.7106 70.3205 77.3385 71.3376 77.3547 72.2174C77.3628 73.1053 77.7591 73.864 78.2201 74.308C78.6326 74.7035 79.1017 74.8568 79.401 74.8165V74.7923Z" fill="#3374BA"/>
<path fill-rule="evenodd" clip-rule="evenodd" d="M79.2716 71.4183C79.3363 71.047 79.7164 70.4255 80.6061 69.8685C81.5524 69.2793 83.073 68.7789 84.448 68.7708C85.831 68.7708 87.0685 69.2551 88.1604 69.9735C89.2523 70.6918 90.1824 71.6362 91.2743 72.2174C92.3662 72.7986 93.6037 73.0165 93.3449 73.4362C93.0861 73.8559 91.3229 74.4855 89.8913 75.325C88.4597 76.1645 87.3597 77.2218 86.1626 77.9402C84.9575 78.6586 83.6553 79.046 82.5149 79.1913C81.8517 79.2721 81.2451 79.2801 80.6223 79.1752C81.8193 79.0783 82.9921 78.6667 84.0274 77.8837C88.4758 74.4936 85.2406 68.9564 81.4554 69.8766C80.3796 70.1349 79.6841 70.7322 79.2797 71.4183H79.2716ZM70.1563 74.7923C68.5306 74.421 67.0747 74.3806 65.9828 74.0416C64.8909 73.7026 64.163 73.0649 63.4431 72.395C62.7152 71.725 61.9954 71.0228 62.5292 70.482C63.063 69.9412 64.8586 69.5537 66.4115 68.7627C67.9644 67.9717 69.2747 66.7609 70.5688 65.5098C71.8629 64.2587 73.1489 62.9672 74.168 62.2004C74.7341 61.7726 75.2194 61.5143 75.6319 61.3287C75.0738 62.1762 74.9202 63.2982 75.1871 64.2103C74.0062 65.3242 72.8496 66.4623 72.1298 67.891C70.6901 70.7645 71.3695 73.6138 73.068 75.7286C72.0893 75.3411 71.0945 75.0102 70.1563 74.7923Z" fill="#225CAB"/>
<path fill-rule="evenodd" clip-rule="evenodd" d="M118.402 79.6918C115.708 78.4407 112.619 78.4729 109.772 79.151C104.474 80.4263 101.886 83.8648 98.7396 87.9572C97.0815 90.1123 95.9168 91.8719 93.3772 93.0908C90.8294 94.3096 86.4214 95.7544 83.6957 94.5275C82.8546 94.1562 81.7465 93.1634 80.7759 93.4056C80.1127 93.5751 79.8296 94.2612 79.684 94.8665C79.2068 96.9006 80.0399 99.5723 81.2369 101.235C82.1671 102.527 83.267 103.431 84.6582 104.181C85.7501 104.771 86.9471 105.214 88.0067 105.86C90.5221 107.386 91.711 110.154 93.9514 111.906C96.1433 113.617 98.4727 113.391 101.004 112.753C102.242 112.439 103.512 112.027 104.781 111.866C108.979 111.333 113.153 114.82 116.857 116.378C120.084 117.734 123.174 117.217 126.077 115.417C129.58 118.178 134.918 118.726 139.002 117.031C139.487 116.83 139.949 116.604 140.385 116.361V114.457C136.471 117.185 130.623 117.096 126.91 114.053C123.845 111.543 122.527 107.136 124.161 103.455C125.261 100.969 127.452 99.2818 130.138 98.854C132.241 98.523 134.772 99.0154 136.147 100.751C136.285 100.928 136.414 101.114 136.519 101.308C137.926 103.834 136.988 106.466 133.988 106.918C132.718 107.111 131.618 106.296 131.634 104.972C131.642 104.367 132.871 103.753 132.014 103.027C131.302 102.422 130.574 103.35 130.299 103.947C130.162 104.254 130.057 104.617 130.049 104.948C130.024 106.441 131.068 107.983 132.524 108.395C133.963 108.798 135.807 108.233 136.956 107.329C138.622 106.03 139.035 104.133 138.541 102.171C139.253 102.058 139.876 101.857 140.458 101.55V99.6369L140.361 99.7176C139.641 100.283 138.857 100.573 137.959 100.654C136.802 98.4746 134.756 97.506 132.354 97.2396C126.716 96.6181 122.09 100.896 121.872 106.449C121.16 106.562 120.432 106.506 119.72 106.417C118.766 106.296 117.989 106.062 117.164 105.562C116.719 105.287 116.299 104.972 115.87 104.674C115.32 104.286 114.77 103.931 114.18 103.608C110.88 101.824 108.607 102.833 105.194 103.269C102.865 103.568 99.419 103.423 97.858 101.364C97.858 101.364 97.8742 101.364 97.8823 101.364C100.576 101.146 102.217 100.226 104.07 98.3535C104.919 97.4979 105.712 96.61 106.682 95.8836C107.847 95.0199 109.092 94.5114 110.508 94.2531C110.864 94.6405 111.268 94.9795 111.705 95.2701C113.986 96.7795 117.083 96.8845 119.534 95.7141C122.535 94.2773 123.886 91.3796 123.829 88.167L125.115 87.9733C128.512 87.8119 130.356 89.4908 133.179 90.8307C136.066 92.1948 138.024 91.6621 140.499 91.089V89.4585C137.288 90.1769 136.26 90.8065 132.281 88.5545C129.515 86.9886 126.886 85.9393 123.691 86.5608C123.279 83.9617 122.017 81.9438 119.825 80.4747C119.955 80.3536 120.1 80.2487 120.238 80.1357C121.791 78.9411 123.481 78.1985 125.471 78.4972C126.975 78.7232 128.423 79.49 129.749 80.2003C131.327 81.0478 132.863 81.8873 134.594 82.3958C136.454 82.9366 138.193 82.9366 140.07 82.5249C140.232 82.4926 140.385 82.4523 140.539 82.4119V80.7734C140.167 80.8702 139.787 80.959 139.407 81.0317C138.816 81.1447 138.218 81.2173 137.619 81.2254C132.532 81.298 128.617 76.3017 123.772 76.8748C121.936 77.0927 119.68 78.3115 118.378 79.6595L118.402 79.6918ZM124.856 114.303C124.751 114.36 124.646 114.416 124.541 114.473C122.761 115.393 120.982 115.853 118.992 115.417C117.52 115.094 116.129 114.327 114.819 113.601C113.161 112.681 111.567 111.785 109.788 111.099C107.103 110.057 105.162 109.985 102.428 110.744C100.972 111.147 99.694 111.575 98.1573 111.648C94.9948 111.801 93.6845 109.412 91.889 107.289C90.3603 105.481 89.1714 104.561 87.0361 103.616C85.7825 103.067 84.8523 102.591 83.8009 101.687C82.1104 100.242 80.695 97.4818 81.2288 95.2298C81.2369 95.1813 81.2693 95.0603 81.2936 94.9795C81.4472 95.0603 81.7707 95.2701 81.8516 95.3186L83.0406 95.9724C83.0406 95.9724 83.0487 95.9724 83.0568 95.9724C85.5479 97.0863 88.4839 96.497 90.9831 95.7141C95.8117 94.1966 97.0087 92.8163 100.001 88.9096C101.789 86.585 103.73 84.0343 106.181 82.3796C108.34 80.9267 110.661 80.3294 113.25 80.2568C115.223 80.2003 116.477 80.507 118.24 81.3626C120.658 82.6783 122.074 84.8254 122.236 87.5778C122.422 90.7258 121.225 93.6396 118.022 94.6244C115.854 95.2863 112.91 94.8262 111.478 92.9293C110.848 92.0899 110.419 91.0567 110.524 89.9912C110.597 89.2002 110.969 88.4415 111.648 87.9975C112.255 87.602 112.967 87.5455 113.646 87.7554C114.883 88.1186 114.778 89.3294 114.641 90.3706C114.503 91.3957 116.097 91.6217 116.218 90.5401C116.428 88.6352 116.226 86.8675 114.099 86.2379C112.95 85.8989 111.753 86.028 110.75 86.698C109.828 87.3195 109.23 88.2962 109.011 89.3697C108.777 90.5643 109.012 91.767 109.561 92.8405C107.944 93.228 106.569 93.8979 105.283 94.9876C104.256 95.8594 103.423 96.9006 102.436 97.7966C102.234 97.9822 102.023 98.1517 101.805 98.3212C100.786 99.088 99.7587 99.5239 98.505 99.7096C97.9146 99.7983 96.847 99.7983 96.4021 100.194C96.2808 100.299 96.1999 100.428 96.1352 100.581C95.561 102.002 98.0117 103.721 99.1117 104.205C101.012 105.037 102.945 105.118 104.984 104.884C106.65 104.69 108.389 104.238 110.047 104.189C113.064 104.092 114.35 105.771 116.728 107.127C118.143 107.935 120.302 108.266 121.952 108.048C122.211 110.413 123.23 112.568 124.864 114.295L124.856 114.303Z" fill="white"/>
<path fill-rule="evenodd" clip-rule="evenodd" d="M140.563 82.4442L140.523 89.4747C137.304 90.193 136.277 90.8226 132.297 88.5706C129.531 87.0047 126.902 85.9554 123.708 86.5769C123.295 83.9778 122.033 81.9599 119.841 80.4909C119.971 80.3698 120.116 80.2649 120.254 80.1519C121.807 78.9573 123.497 78.2147 125.487 78.5133C126.991 78.7393 128.439 79.5061 129.766 80.2164C131.343 81.064 132.88 81.9034 134.61 82.4119C136.471 82.9527 138.21 82.9527 140.086 82.5411C140.248 82.5088 140.401 82.4684 140.555 82.4281L140.563 82.4442ZM140.393 114.465C136.471 117.193 130.623 117.104 126.902 114.061C123.837 111.551 122.519 107.144 124.152 103.463C125.252 100.977 127.444 99.2898 130.13 98.862C132.232 98.5311 134.764 99.0235 136.139 100.759C136.277 100.936 136.406 101.122 136.511 101.316C137.918 103.842 136.98 106.474 133.98 106.926C132.71 107.119 131.61 106.304 131.626 104.98C131.634 104.375 132.863 103.762 132.006 103.035C131.294 102.43 130.566 103.358 130.291 103.955C130.154 104.262 130.049 104.625 130.041 104.956C130.016 106.449 131.06 107.991 132.516 108.403C133.955 108.806 135.799 108.241 136.948 107.337C138.614 106.038 139.026 104.141 138.533 102.179C139.245 102.066 139.868 101.865 140.45 101.558L140.385 114.457L140.393 114.465Z" fill="#5DBDEB"/>
<path fill-rule="evenodd" clip-rule="evenodd" d="M121.265 81.6532C121.491 81.4756 121.815 81.29 122.155 81.1043C122.68 80.8057 123.247 80.4828 123.958 80.3536C124.67 80.2245 125.527 80.2971 126.587 80.6442C127.655 80.9913 128.933 81.6128 130.243 82.2263C131.561 82.8397 132.912 83.437 134.206 83.8325C135.5 84.2281 136.746 84.4218 138.25 84.3491C138.97 84.3168 139.754 84.22 140.555 84.0908L140.523 89.4747C137.304 90.193 136.277 90.8226 132.297 88.5706C129.531 87.0047 126.902 85.9554 123.708 86.5769C123.4 84.5994 122.591 82.9608 121.265 81.6451V81.6532ZM140.41 111.728C140.313 111.809 140.224 111.89 140.126 111.962C139.229 112.689 138.266 113.254 137.142 113.633C136.018 114.013 134.732 114.198 133.551 114.214C132.378 114.231 131.319 114.085 130.316 113.762C129.313 113.439 128.358 112.947 127.582 112.213C126.797 111.478 126.191 110.501 125.786 109.492C125.382 108.483 125.188 107.434 125.188 106.498C125.188 105.57 125.39 104.754 125.762 103.963C126.134 103.172 126.684 102.414 127.404 101.865C128.124 101.316 129.013 100.993 129.838 100.815C130.655 100.638 131.408 100.622 132.03 100.767C132.653 100.912 133.155 101.227 133.527 101.582C133.899 101.937 134.133 102.333 134.198 102.591C134.263 102.849 134.141 102.979 133.882 103.059C133.624 103.14 133.235 103.172 132.912 103.301C132.677 103.398 132.475 103.544 132.297 103.753C132.362 103.527 132.305 103.293 132.014 103.051C131.302 102.446 130.574 103.374 130.299 103.971C130.162 104.278 130.057 104.641 130.049 104.972C130.024 106.466 131.068 108.007 132.524 108.419C133.963 108.822 135.807 108.257 136.956 107.353C138.622 106.054 139.035 104.157 138.541 102.196C139.253 102.083 139.876 101.881 140.458 101.574L140.401 111.736L140.41 111.728Z" fill="#3D82C4"/>
<path fill-rule="evenodd" clip-rule="evenodd" d="M122.325 82.9285L122.349 82.9043C122.786 82.5411 123.724 82.2505 124.589 82.1375C125.447 82.0245 126.223 82.1052 127.113 82.307C128.002 82.5088 128.997 82.8397 130.13 83.3482C131.27 83.8568 132.548 84.5428 133.745 85.0594C134.942 85.5841 136.058 85.9473 137.279 86.0119C138.29 86.0684 139.374 85.9231 140.539 85.7213L140.523 89.4746C137.304 90.193 136.277 90.8226 132.297 88.5706C129.531 87.0047 126.902 85.9554 123.708 86.5769C123.489 85.1967 123.028 83.9778 122.316 82.9204L122.325 82.9285ZM140.418 109.46C139.746 110.203 139.027 110.816 138.218 111.268C137.182 111.857 136.002 112.188 134.756 112.318C133.51 112.447 132.2 112.374 131.092 112.075C129.984 111.769 129.07 111.236 128.399 110.542C127.727 109.848 127.307 108.992 127.097 107.935C126.894 106.877 126.902 105.618 127.226 104.666C127.541 103.713 128.164 103.067 128.844 102.623C129.531 102.171 130.275 101.913 130.866 101.865C131.456 101.816 131.885 101.978 132.135 102.284C132.386 102.591 132.467 103.035 132.338 103.431C132.338 103.455 132.321 103.479 132.313 103.503C132.289 103.35 132.208 103.197 132.014 103.035C131.302 102.43 130.574 103.358 130.299 103.955C130.162 104.262 130.057 104.625 130.049 104.956C130.024 106.449 131.068 107.991 132.524 108.403C133.963 108.806 135.807 108.241 136.956 107.337C138.622 106.038 139.035 104.141 138.541 102.179C139.253 102.066 139.876 101.865 140.458 101.558L140.418 109.46Z" fill="#3374BA"/>
<path fill-rule="evenodd" clip-rule="evenodd" d="M122.972 84.0908C123.125 84.0182 123.327 83.9698 123.578 83.9294C124.258 83.8003 125.309 83.6953 126.433 83.8164C127.558 83.9375 128.746 84.2926 130.113 84.9384C131.48 85.5841 133.025 86.5204 134.335 87.1016C135.638 87.6827 136.697 87.9007 137.999 87.828C138.768 87.7877 139.625 87.6424 140.531 87.4567V89.4827C137.304 90.2011 136.277 90.8307 132.289 88.5787C129.523 87.0128 126.894 85.9635 123.7 86.585C123.554 85.681 123.311 84.8496 122.964 84.0908H122.972ZM140.434 106.635C139.552 107.773 138.638 108.976 137.643 109.743C136.64 110.526 135.557 110.873 134.319 110.961C133.082 111.05 131.691 110.881 130.68 110.405C129.669 109.928 129.038 109.153 128.698 108.209C128.358 107.265 128.318 106.159 128.649 105.255C128.981 104.351 129.677 103.657 130.283 103.334C130.51 103.213 130.712 103.148 130.898 103.116C130.639 103.35 130.429 103.681 130.308 103.939C130.17 104.246 130.065 104.609 130.057 104.94C130.033 106.433 131.076 107.975 132.532 108.387C133.971 108.79 135.816 108.225 136.964 107.321C138.63 106.022 139.043 104.125 138.549 102.163C139.261 102.05 139.884 101.849 140.466 101.542L140.442 106.619L140.434 106.635Z" fill="#225CAB"/>
<path fill-rule="evenodd" clip-rule="evenodd" d="M124.856 114.303C123.222 112.576 122.195 110.421 121.944 108.056C120.294 108.274 118.135 107.935 116.719 107.136C114.342 105.779 113.056 104.101 110.039 104.197C108.381 104.254 106.642 104.706 104.976 104.892C102.945 105.126 101.004 105.045 99.1036 104.214C98.0036 103.729 95.5529 102.018 96.1271 100.589C96.1837 100.444 96.2727 100.315 96.394 100.202C96.847 99.7983 97.9065 99.7983 98.4969 99.7176C99.7506 99.532 100.786 99.0961 101.797 98.3293C102.015 98.1679 102.226 97.9903 102.428 97.8046C103.423 96.9087 104.248 95.8674 105.275 94.9957C106.561 93.906 107.936 93.2361 109.553 92.8486C109.011 91.7751 108.769 90.5643 109.003 89.3778C109.222 88.2962 109.82 87.3195 110.742 86.7061C111.745 86.0361 112.942 85.907 114.091 86.246C116.218 86.8756 116.42 88.6433 116.21 90.5482C116.089 91.6217 114.495 91.4038 114.633 90.3787C114.77 89.3455 114.875 88.1348 113.638 87.7635C112.958 87.5617 112.239 87.6182 111.64 88.0056C110.961 88.4496 110.589 89.2083 110.516 89.9993C110.419 91.0648 110.839 92.098 111.47 92.9374C112.902 94.8343 115.846 95.2943 118.014 94.6325C121.225 93.6477 122.413 90.7338 122.227 87.5859C122.066 84.8334 120.658 82.6783 118.232 81.3707C116.469 80.5151 115.215 80.2084 113.242 80.2649C110.653 80.3375 108.332 80.9348 106.173 82.3877C103.714 84.0424 101.773 86.5931 99.9932 88.9177C97.0006 92.8163 95.8036 94.1966 90.975 95.7221C88.4758 96.5051 85.5398 97.0943 83.0487 95.9804H83.0325L81.8435 95.3186C81.7626 95.2701 81.4391 95.0603 81.2854 94.9795C81.2612 95.0603 81.2369 95.1894 81.2207 95.2298C80.695 97.4737 82.1023 100.242 83.7928 101.687C84.8523 102.591 85.7824 103.059 87.028 103.616C89.1633 104.561 90.3522 105.481 91.8809 107.289C93.6764 109.412 94.9867 111.801 98.1492 111.648C99.6859 111.575 100.964 111.155 102.42 110.744C105.153 109.985 107.095 110.057 109.78 111.099C111.559 111.785 113.153 112.681 114.811 113.601C116.121 114.327 117.512 115.094 118.984 115.417C120.966 115.853 122.753 115.393 124.533 114.473L124.848 114.303H124.856Z" fill="#5DBDEB"/>
<path fill-rule="evenodd" clip-rule="evenodd" d="M123.78 112.979C122.769 111.527 122.138 109.848 121.944 108.056C120.294 108.274 118.135 107.935 116.719 107.136C114.342 105.779 113.056 104.101 110.039 104.197C108.381 104.254 106.642 104.706 104.976 104.892C102.945 105.126 101.004 105.045 99.1036 104.214C98.0036 103.729 95.5529 102.018 96.1271 100.589C96.1837 100.444 96.2727 100.315 96.394 100.202C96.847 99.7983 97.9065 99.7983 98.4969 99.7176C99.7506 99.532 100.786 99.0961 101.797 98.3293C102.015 98.1679 102.226 97.9903 102.428 97.8046C103.423 96.9087 104.248 95.8674 105.275 94.9957C106.561 93.906 107.936 93.2361 109.553 92.8486C109.011 91.7751 108.769 90.5643 109.003 89.3778C109.222 88.2962 109.82 87.3195 110.742 86.7061C111.745 86.0361 112.942 85.907 114.091 86.246C116.218 86.8756 116.42 88.6433 116.21 90.5482C116.089 91.6217 114.495 91.4038 114.633 90.3787L114.649 90.2576C114.584 90.4029 114.511 90.532 114.414 90.6531C114.212 90.9195 113.929 91.1536 113.864 91.4361C113.8 91.7186 113.945 92.0414 114.293 92.3643C114.649 92.6872 115.207 93.0181 115.878 93.0988C116.55 93.1796 117.326 93.0181 118.062 92.5258C118.798 92.0334 119.502 91.202 119.906 90.2738C120.302 89.3455 120.4 88.3123 120.254 87.2872C120.108 86.2621 119.728 85.2532 119.186 84.4137C118.644 83.5823 117.941 82.9285 117.059 82.4523C116.178 81.9761 115.126 81.6613 113.945 81.5725C112.764 81.4837 111.446 81.6048 110.176 81.9761C108.906 82.3474 107.669 82.9608 106.439 83.8568C105.21 84.7527 103.981 85.9393 102.8 87.2065C101.619 88.4738 100.487 89.8298 99.3786 91.0406C98.2705 92.2513 97.1948 93.3248 96.1029 94.2289C95.011 95.1248 93.9029 95.8513 92.5684 96.4486C91.2338 97.054 89.6728 97.5302 88.3868 97.8611C87.1008 98.1921 86.0898 98.3777 85.3214 98.3939C84.553 98.4181 84.0273 98.2809 83.817 98.3212C83.6067 98.3616 83.6957 98.5634 83.9303 98.9589C84.1567 99.3544 84.5207 99.9356 85.0383 100.468C85.556 101.001 86.2273 101.477 86.931 101.849C87.6346 102.228 88.3706 102.502 89.0258 102.833C89.689 103.164 90.2713 103.552 90.9265 104.173C91.5816 104.803 92.3015 105.666 93.0941 106.546C93.8867 107.426 94.7522 108.322 95.6418 108.952C96.5315 109.581 97.4536 109.936 98.6587 110.017C99.8719 110.098 101.376 109.896 102.695 109.727C104.013 109.557 105.153 109.428 106.181 109.396C107.216 109.363 108.146 109.42 109.173 109.686C110.2 109.944 111.325 110.405 112.489 110.994C113.654 111.575 114.859 112.285 116.056 112.834C117.253 113.375 118.45 113.754 119.518 113.859C120.586 113.972 121.516 113.811 122.308 113.561C122.875 113.383 123.368 113.149 123.756 112.955L123.78 112.979Z" fill="#3D82C4"/>
<path fill-rule="evenodd" clip-rule="evenodd" d="M123.044 111.761C122.454 110.614 122.082 109.371 121.936 108.056C120.286 108.274 118.127 107.935 116.711 107.136C114.333 105.779 113.047 104.101 110.031 104.197C108.373 104.254 106.634 104.706 104.967 104.892C102.937 105.126 100.996 105.045 99.0955 104.214C97.9955 103.729 95.5448 102.018 96.1191 100.589C96.1757 100.444 96.2646 100.315 96.386 100.202C96.8389 99.7983 97.8984 99.7983 98.4889 99.7176C99.7425 99.532 100.778 99.0961 101.789 98.3293C102.007 98.1679 102.217 97.9903 102.42 97.8046C103.415 96.9087 104.24 95.8674 105.267 94.9957C106.553 93.906 107.928 93.2361 109.545 92.8486C109.003 91.7751 108.761 90.5643 108.995 89.3778C109.214 88.2962 109.812 87.3195 110.734 86.7061C111.737 86.0361 112.934 85.907 114.083 86.246C116.21 86.8756 116.412 88.6433 116.202 90.5482C116.161 90.9033 115.967 91.1132 115.725 91.202C115.757 91.2181 115.797 91.2343 115.838 91.2504C116.169 91.3634 116.679 91.2585 117.164 91.0002C117.65 90.7419 118.111 90.3303 118.378 89.6764C118.653 89.0226 118.733 88.1267 118.547 87.15C118.361 86.1733 117.892 85.1079 117.189 84.3572C116.485 83.6065 115.539 83.1707 114.39 82.9931C113.242 82.8074 111.883 82.8801 110.564 83.2675C109.246 83.655 107.96 84.3491 106.69 85.3904C105.42 86.4316 104.175 87.8119 102.929 89.1437C101.684 90.4755 100.446 91.7589 99.3543 92.889C98.2624 94.0109 97.3161 94.9795 96.1271 95.8271C94.9463 96.6746 93.5228 97.401 92.1721 97.9661C90.8214 98.5311 89.5515 98.9266 88.5324 99.2091C87.5052 99.4916 86.7288 99.6531 86.8258 99.9436C86.9148 100.234 87.8773 100.646 88.8074 101.09C89.7295 101.534 90.6191 102.018 91.4199 102.575C92.2125 103.132 92.9243 103.762 93.6198 104.577C94.3154 105.384 95.011 106.377 95.7389 107.127C96.4588 107.878 97.219 108.387 98.2462 108.693C99.2815 109 100.592 109.113 101.926 109.04C103.261 108.968 104.628 108.718 105.938 108.621C107.256 108.524 108.526 108.58 109.578 108.726C110.637 108.879 111.486 109.121 112.481 109.573C113.476 110.025 114.617 110.679 115.684 111.204C116.752 111.728 117.755 112.116 118.782 112.309C119.801 112.503 120.852 112.495 121.669 112.309C122.236 112.18 122.697 111.962 123.044 111.769V111.761Z" fill="#3374BA"/>
<path fill-rule="evenodd" clip-rule="evenodd" d="M122.6 110.776C122.26 109.912 122.041 109 121.936 108.056C120.286 108.274 118.127 107.935 116.711 107.136C114.843 106.07 113.646 104.811 111.761 104.359C111.478 104.31 111.203 104.262 110.936 104.222C110.653 104.197 110.346 104.181 110.031 104.197C108.373 104.254 106.634 104.706 104.967 104.892C102.937 105.126 100.996 105.045 99.0955 104.214C97.9955 103.729 95.5448 102.018 96.119 100.589C96.1756 100.444 96.2646 100.315 96.3859 100.202C96.8389 99.7983 97.8984 99.7983 98.4888 99.7176C99.7425 99.532 100.778 99.0961 101.789 98.3293C102.007 98.1679 102.217 97.9903 102.42 97.8046C103.415 96.9087 104.239 95.8674 105.267 94.9957C106.553 93.906 107.928 93.2361 109.545 92.8486C109.003 91.7751 108.761 90.5643 108.995 89.3778C109.214 88.2962 109.812 87.3195 110.734 86.7061C111.737 86.0361 112.934 85.907 114.083 86.246C116.21 86.8756 116.412 88.6433 116.202 90.5482C116.202 90.5643 116.202 90.5885 116.194 90.6047C116.566 90.419 117.043 89.959 117.286 89.2971C117.544 88.5948 117.544 87.6666 117.245 86.7868C116.946 85.907 116.339 85.0675 115.522 84.559C114.697 84.0505 113.662 83.881 112.465 83.994C111.268 84.0989 109.917 84.4864 108.72 85.1967C107.523 85.907 106.48 86.9401 105.089 88.4495C103.689 89.967 101.942 91.9607 100.495 93.4944C99.0469 95.028 97.9146 96.1096 96.6448 96.9813C95.3749 97.8531 93.9676 98.523 92.6169 99.0235C91.2662 99.532 89.9721 99.871 89.778 100.145C89.5838 100.42 90.4897 100.622 91.3309 101.066C92.1801 101.51 92.9647 102.196 93.8139 103.132C94.6632 104.068 95.569 105.255 96.6043 106.159C97.6396 107.063 98.7962 107.676 100.212 107.838C101.627 107.999 103.301 107.701 105.064 107.547C106.828 107.394 108.688 107.378 110.233 107.604C111.786 107.83 113.023 108.298 114.342 108.927C115.66 109.549 117.043 110.324 118.272 110.735C119.502 111.147 120.569 111.196 121.411 111.091C121.888 111.026 122.3 110.913 122.6 110.776Z" fill="#225CAB"/>
<path fill-rule="evenodd" clip-rule="evenodd" d="M119.736 106.441C120.448 106.53 121.176 106.587 121.888 106.474C122.106 100.92 126.733 96.6423 132.37 97.2638C134.772 97.5302 136.818 98.4988 137.975 100.678C138.873 100.597 139.657 100.315 140.377 99.7418L140.482 99.6611L140.531 91.1213C138.056 91.6944 136.099 92.2271 133.211 90.863C130.38 89.5231 128.544 87.8442 125.147 88.0056L123.861 88.1993C123.91 91.4119 122.567 94.3015 119.567 95.7464C117.116 96.9167 114.018 96.8118 111.737 95.3024C111.3 95.0118 110.896 94.6728 110.54 94.2854C109.125 94.5517 107.879 95.0522 106.715 95.9159C105.744 96.6423 104.951 97.5302 104.102 98.3858C102.242 100.258 100.6 101.179 97.9146 101.397H97.8904C99.4514 103.455 102.897 103.6 105.226 103.301C108.631 102.866 110.912 101.857 114.212 103.64C114.803 103.963 115.353 104.318 115.903 104.706C116.331 105.005 116.752 105.319 117.197 105.594C118.014 106.094 118.798 106.336 119.753 106.449L119.736 106.441Z" fill="#5DBDEB"/>
<path fill-rule="evenodd" clip-rule="evenodd" d="M122.05 104.98C122.955 100.178 127.242 96.6988 132.362 97.2638C134.36 97.4818 136.115 98.1921 137.312 99.6853C137.676 99.645 138.032 99.4997 138.396 99.2979C138.946 98.9992 139.52 98.5553 140.199 97.8369C140.288 97.7401 140.377 97.6432 140.474 97.5383L140.499 92.2675C139.989 92.3482 139.463 92.4208 138.929 92.4854C137.49 92.663 135.993 92.7437 134.643 92.5823C133.284 92.4208 132.071 92.0011 130.809 91.4603C129.547 90.9114 128.245 90.2334 127.08 89.8702C125.916 89.515 124.888 89.4747 124.169 89.6119C124.015 89.6361 123.877 89.6764 123.756 89.7249C123.408 92.2997 122.058 94.5275 119.542 95.7302C117.092 96.9006 113.994 96.7957 111.713 95.2863C111.648 95.2378 111.575 95.1975 111.511 95.1491C111.147 95.2378 110.807 95.3831 110.403 95.5768C109.691 95.9239 108.785 96.4082 108 96.9975C107.216 97.5867 106.561 98.2647 105.93 98.967C105.299 99.6692 104.684 100.388 104.223 100.84C103.77 101.292 103.463 101.477 103.884 101.534C104.304 101.598 105.445 101.542 106.731 101.485C108.017 101.429 109.456 101.372 110.815 101.445C112.174 101.518 113.452 101.736 114.649 102.179C115.838 102.623 116.946 103.301 118.022 103.842C119.105 104.383 120.165 104.795 120.958 104.94C121.394 105.021 121.742 105.029 122.033 104.964L122.05 104.98Z" fill="#3D82C4"/>
<path fill-rule="evenodd" clip-rule="evenodd" d="M122.414 103.6C124.735 96.8118 132.799 95.7383 136.519 98.862C137.465 98.4665 139.115 97.1428 139.843 96.1096C140.029 95.8836 140.207 95.6333 140.418 95.3508L140.49 95.254V93.5266L140.426 93.5347C139.9 93.6074 139.326 93.6639 138.776 93.7204L138.396 93.7607C138.145 93.7769 137.886 93.8091 137.643 93.8253C133.818 94.1401 132.354 93.8979 128.997 92.3805C127.291 91.6056 125.406 90.637 123.522 90.9033C122.43 94.9392 118.644 96.9652 114.835 96.4486C114.002 96.3356 113.145 96.0692 112.392 95.6899L109.594 97.8611L107.305 100.097C107.297 100.226 107.701 100.186 108.364 100.145C111.681 99.9759 113.816 100.113 116.889 101.429C118.523 102.131 120.553 103.511 122.414 103.608V103.6Z" fill="#3374BA"/>
<path fill-rule="evenodd" clip-rule="evenodd" d="M122.988 102.268C124.719 98.9427 128.269 96.8118 132.362 97.2638C133.332 97.3688 134.238 97.5867 135.055 97.958C135.67 97.8369 136.163 97.6351 136.584 97.3768C137.101 97.062 137.514 96.6585 137.959 96.2387C138.404 95.8109 138.881 95.3589 138.905 95.1733C138.937 94.9876 138.525 95.0683 137.749 95.1329C136.964 95.1975 135.807 95.2459 134.724 95.2217C133.64 95.1975 132.637 95.1006 131.602 94.8181C130.566 94.5275 129.491 94.0513 128.455 93.5751C127.412 93.1069 126.409 92.6388 125.592 92.3966C124.775 92.1464 124.16 92.1141 123.578 92.219C123.368 92.2594 123.166 92.3078 122.963 92.3805C122.268 93.8011 121.136 94.9795 119.542 95.7383C117.852 96.5454 115.846 96.7472 114.018 96.2952C113.921 96.3437 113.824 96.384 113.735 96.4324C112.805 96.9006 112.109 97.4495 111.608 97.8853C111.106 98.3131 110.815 98.6279 110.953 98.7409C111.09 98.862 111.648 98.7894 112.303 98.8378C112.958 98.8862 113.711 99.0477 114.592 99.2898C115.474 99.532 116.501 99.8468 117.399 100.234C118.305 100.622 119.089 101.082 119.874 101.461C120.658 101.84 121.443 102.139 122.074 102.26C122.405 102.325 122.705 102.333 122.988 102.276V102.268Z" fill="#225CAB"/>
<path fill-rule="evenodd" clip-rule="evenodd" d="M62.9012 23.3998C63.4431 25.0303 64.3975 26.685 65.6997 27.7101C68.4982 29.9137 73.2297 29.7522 75.9069 27.4276C77.4922 26.0473 78.2767 24.0536 78.1069 21.9711C77.9613 20.1873 77.0797 18.3631 75.4944 17.4349C74.5481 16.8779 73.4886 16.7326 72.4371 16.9344C74.6856 12.6645 77.9694 10.6546 81.9973 8.16048C84.3105 9.33087 86.4215 10.808 88.7994 11.8735C91.4118 13.0439 94.3316 13.7703 97.2272 13.8914C94.4206 14.7631 92.0265 16.2322 89.7052 18.1774C87.9825 19.6223 86.5509 21.1236 85.1031 22.8429C84.1325 23.9971 83.1862 25.1514 82.1509 26.2572C80.6465 27.8715 79.3605 28.6384 77.3547 29.4536C75.3003 30.285 73.9334 30.9307 72.2754 32.4805C71.3048 33.3845 68.2232 36.6697 69.8489 37.9611C70.5283 38.5019 71.8629 38.1791 72.6393 38.0338C77.4517 37.1621 79.9752 37.7836 84.2619 39.8984C83.8494 40.7943 83.5097 41.7064 83.3965 42.6992C83.1296 45.0804 83.9546 46.7996 85.8634 48.188C86.5509 48.6884 87.295 49.0839 88.0148 49.5359C88.4597 49.8104 89.0986 50.214 89.3413 50.6983C89.503 51.0211 89.5111 51.4893 89.5192 51.8444C89.5273 52.4095 89.5192 52.9583 89.592 53.5153C89.8023 55.2265 90.6596 56.4453 92.0589 57.4462C93.8302 58.7215 95.3184 58.8507 97.4375 58.8991C100.624 58.9637 101.829 59.1735 103.714 61.8937C105.582 64.5816 107.815 65.5986 111.074 65.413C112.659 65.3242 115.126 64.6542 116.258 63.5161C116.873 62.9027 116.954 62.0067 116.121 61.5466C116.113 61.5466 116.105 61.5385 116.089 61.5305C115.733 61.3448 115.264 61.2641 114.867 61.1915C114.39 61.1027 113.913 61.0139 113.46 60.8202C112.101 60.2552 111.592 59.004 111.373 57.6238C111.268 56.9861 111.276 56.2758 111.268 55.6301C111.268 54.8148 111.268 54.0077 111.187 53.1924C111.09 52.0785 110.864 50.9243 110.281 49.9557C110.006 49.4956 109.659 49.092 109.246 48.7611C110.759 48.4382 112.214 47.7279 113.395 46.727C113.201 48.1073 113.169 50.1252 114.034 50.9808C114.269 51.2149 114.552 51.3763 114.9 51.3924C115.458 51.4167 116.016 51.0211 116.453 50.7144C116.986 50.335 117.512 49.9395 118.127 49.7135C119.389 49.2454 121.144 49.2131 122.446 49.5198C123.425 49.7458 124.427 50.3189 125.285 50.8355C126.361 51.4893 127.404 52.1915 128.488 52.8211C129.515 53.4104 130.599 53.9512 131.747 54.266C131.286 55.0005 130.882 55.7673 130.469 56.5341C130.065 57.2767 129.636 58.0274 129.078 58.6731C128.86 58.9233 128.617 59.1574 128.35 59.3673C127.016 60.4247 124.905 60.8928 123.303 61.4255C122.276 61.7646 121.257 62.1681 120.359 62.7735C119.583 63.2901 118.944 63.9358 118.467 64.7349C117.528 66.2928 117.124 69.4488 118.006 71.0793C119.073 73.0407 120.788 71.3214 122.066 70.7726C124.702 69.6506 127.177 70.6838 129.458 72.0721C130.364 72.621 131.23 73.2183 132.119 73.7914C132.912 74.2999 133.753 74.8084 134.635 75.1393C136.455 75.8254 138.606 75.9869 140.588 75.5591V73.9367C139.641 74.1869 138.622 74.2676 137.652 74.195C134.586 73.977 133.025 72.4515 130.574 70.8856C128.221 69.3842 125.374 68.238 122.551 68.9564C121.766 69.1582 121.071 69.473 120.383 69.8847C120.246 69.9654 119.672 70.3367 119.445 70.4013C119.34 70.2398 119.235 69.7878 119.203 69.6506C119.089 69.1017 119.065 68.5125 119.114 67.9555C119.235 66.43 119.882 65.082 121.152 64.1861C123.069 62.83 125.382 62.6201 127.485 61.7161C131.076 60.1664 131.48 57.4866 133.462 54.5646C134.505 54.6373 135.549 54.5162 136.576 54.3628C138.048 54.1368 139.407 53.8543 140.701 53.6364V52.0382C139.601 52.2077 138.501 52.4418 137.401 52.6355C136.244 52.8453 135.031 53.031 133.85 52.9987C131.933 52.9422 130.202 52.0543 128.601 51.0696C126.838 49.988 124.84 48.4705 122.81 47.9943C121.208 47.6149 119.114 47.6714 117.569 48.2445C117.286 48.3494 117.019 48.4866 116.76 48.6319C116.356 48.866 115.967 49.1243 115.587 49.3987C115.49 49.4714 115.239 49.6651 115.078 49.762C114.803 49.2292 114.892 47.5342 114.956 47.0741C115.555 42.5943 118.693 41.3997 122.608 40.4876C124.468 40.0517 126.636 39.6643 128.302 38.7199C130.219 37.6383 131.642 36.2499 133.082 34.6195C134.295 33.2473 135.427 31.859 136.802 30.6401C138.048 29.5424 139.374 28.6787 140.838 28.0007V26.2733C138.978 27.0321 136.899 28.3397 135.573 29.5908C132.952 32.0769 130.712 35.5396 127.517 37.3396C126.538 37.8966 125.374 38.2114 124.282 38.4697C123.02 38.7683 121.75 39.0185 120.505 39.3737C119.672 39.6158 118.847 39.8984 118.07 40.2858C117.213 40.7055 116.436 41.2302 115.757 41.884C115.692 39.5674 114.487 37.2751 112.295 36.4517C112.635 36.3952 112.983 36.3468 113.323 36.2984C116.089 35.9109 118.402 35.1683 120.416 33.1424C121.257 32.3029 122.802 30.2769 122.228 29.0258C122.147 28.8563 122.041 28.7029 121.888 28.5899C121.176 28.0088 119.639 28.2913 118.774 28.3316C118.636 28.3316 118.491 28.3478 118.353 28.3478C115.094 28.3801 113.039 27.4841 110.5 25.7487C112.15 25.4258 113.606 24.3442 114.463 22.9075C114.463 22.8994 114.471 22.8913 114.479 22.8832C115.838 20.607 115.361 18.1371 113.509 16.2967C111.114 13.9317 107.362 13.06 103.956 13.0035C105.121 12.5918 106.237 12.0268 107.232 11.2842C110.548 8.79814 112.223 4.4475 112.465 0.363225H110.888C110.823 1.32376 110.662 2.29236 110.427 3.24482C108.866 9.49231 104.523 12.3335 98.2139 12.3739C93.2155 12.4062 89.6324 10.7838 85.4266 8.31384C84.4965 7.77304 83.5664 7.22417 82.6039 6.73987C82.1833 6.38471 82.2561 6.56228 81.8274 6.36856C78.39 4.83494 75.3407 4.77844 71.6687 4.77037C69.6144 4.77037 67.6085 4.73001 65.5865 4.30221C62.2057 3.58383 59.5528 2.10671 57.0616 0.0726438L54.619 0.0565093C56.4793 1.77578 58.3234 3.12375 60.6608 4.24572C63.8718 5.79548 66.5975 6.24748 70.043 6.3282L67.3982 8.79815C67.3982 8.79815 67.3901 8.79814 67.382 8.81428C64.9071 11.5344 62.8365 15.3524 62.4321 19.0895C60.8549 16.2322 56.8756 15.1828 54.1337 17.2653C52.8558 18.242 52.1521 19.6788 52.5161 21.285C52.8073 22.5604 53.7536 23.7227 55.0315 24.1021C55.9374 24.3765 56.8432 24.207 57.6359 23.6904C57.644 23.6904 57.6521 23.6743 57.6601 23.6743C58.3153 23.2384 58.5903 22.6976 58.8895 21.9953C59.2697 21.0106 57.8704 20.4375 57.4498 21.3335C57.4498 21.3415 57.4418 21.3496 57.4337 21.3577C57.28 21.7128 57.1101 22.1164 56.7866 22.3424C56.7785 22.3424 56.7704 22.3505 56.7624 22.3586C54.894 23.5774 52.6455 20.381 55.0962 18.5165C56.2124 17.6689 57.6844 17.4994 58.9785 18.0483C60.1513 18.5487 61.0329 19.4447 61.3726 20.6797C62.0035 22.9317 60.6608 25.1837 58.6792 26.233C56.366 27.4518 54.3925 27.1128 52.2007 25.9424C50.6882 25.1352 49.022 23.8518 47.3559 23.4725C45.9486 23.1496 44.0317 23.2949 42.5516 23.7308C43.0935 22.9559 43.9427 22.2536 44.6383 21.6886C45.5522 20.9541 47.2022 19.7918 47.7279 18.7586C48.9654 16.329 46.7655 14.2385 47.2103 11.8654C47.3882 10.9129 47.8088 10.2511 48.5368 9.62953C49.0382 9.2098 49.7742 8.79008 50.0978 8.21699C50.1867 8.05555 50.2514 7.88605 50.2757 7.7004C50.2919 7.57932 50.308 7.45017 50.308 7.32103C50.3323 6.40086 49.9683 5.49683 49.8956 4.58473C49.8066 3.34976 50.308 2.43766 51.1735 1.58206L51.1897 1.56591C51.8448 0.920176 52.5565 0.403585 53.3654 0.0242157L50.5345 0.00808118C49.8228 0.621529 49.2081 1.33183 48.8198 2.05828C48.2779 3.08339 48.2294 4.16499 48.3831 5.28696C48.4559 5.80355 48.7713 7.00623 48.6985 7.45825C48.6662 7.57125 47.914 8.09591 47.7926 8.19277C47.1213 8.71743 46.5713 9.29858 46.1669 10.0492C44.3148 13.4959 47.2588 16.1434 46.2963 18.0483C46.0861 18.46 45.4471 18.9927 45.0912 19.2833C44.4199 19.8402 43.7243 20.3729 43.0611 20.938C42.2766 21.616 41.395 22.4474 40.8935 23.3756C40.8935 23.3837 40.8854 23.3918 40.8773 23.3998C40.5619 23.9971 40.3516 24.8285 40.9582 25.3209C40.9582 25.3209 40.9744 25.329 40.9825 25.337C41.0229 25.3612 41.0633 25.3935 41.1038 25.4097C41.1119 25.4097 41.12 25.4258 41.1361 25.4258C41.7751 25.7648 42.9721 25.224 43.6758 25.0707C48.8765 23.9406 50.0492 27.7424 54.5624 28.4688C56.8918 28.8401 59.391 28.041 61.0814 26.4025C61.9468 25.563 62.5615 24.546 62.8689 23.3998H62.9012ZM82.9517 0.169512C84.4399 1.08968 86.0979 1.80806 88.0795 2.15514C90.9023 2.65559 94.6066 2.29236 96.8147 0.242155H98.9014C98.8205 0.371302 98.7316 0.484307 98.6426 0.597311C96.1838 3.6807 91.4927 4.36679 87.8045 3.71298C84.8119 3.18025 82.4502 1.91299 80.1774 0.153366L82.9517 0.169512ZM131.691 0.4278C129.733 1.16232 126.652 1.54977 124.622 1.40448C123.966 1.35605 123.336 1.24304 122.697 1.09775C122.397 1.03318 122.05 0.928247 121.726 0.871745C121.847 1.96142 122.583 4.06007 123.036 4.85109C125.544 9.26631 130.963 7.82954 134.853 9.59724C136.349 10.2753 137.53 11.3084 138.679 12.4708C139.423 13.2214 140.143 14.0205 140.927 14.7308V16.7972C140.143 16.208 139.447 15.5219 138.711 14.7631C138.032 18.2824 136.438 21.2931 133.486 23.4725C131.197 25.1675 128.197 25.8052 125.398 25.3855C123.15 25.0465 120.569 23.8922 119.631 21.6806C119.275 20.8492 119.211 19.9613 119.389 19.0734C119.704 17.4752 120.707 16.1515 122.236 15.5299C123.473 15.0214 125.002 15.0295 126.126 15.8286C126.538 16.1272 126.862 16.5066 127.088 16.9505C129.345 15.4331 130.38 12.8178 130.437 10.1623C124.597 9.31473 121.694 8.03134 120.319 1.82421C120.238 1.44484 120.117 0.879817 120.157 0.379372L131.691 0.443947V0.4278ZM140.66 63.8471C139.641 63.7179 138.574 63.8713 137.66 64.3556C136.867 64.7753 136.107 65.5098 135.993 66.4461C135.937 66.9304 136.066 67.3824 136.333 67.786C137.223 69.1501 138.525 68.6255 139.504 67.665C139.876 67.3017 140.369 67.447 140.636 67.7699V68.7708C140.636 68.7708 140.563 68.8434 140.515 68.8757C140.515 68.8757 140.499 68.8838 140.49 68.8919C139.196 69.9654 137.943 70.708 136.285 69.812C135.443 69.36 134.821 68.6336 134.554 67.7215C134.222 66.5833 134.489 65.3726 135.168 64.4201C136.034 63.2094 137.409 62.5394 138.857 62.2973C139.455 62.2004 140.062 62.1843 140.668 62.2408V63.8309H140.66V63.8471ZM80.2421 7.3856C75.5996 10.2833 72.4533 12.6403 70.2129 17.9111C69.9783 18.0887 69.768 18.2824 69.5739 18.5003C69.5739 18.5003 69.5577 18.5165 69.5577 18.5245C69.1938 18.9443 68.935 19.4366 68.8056 19.9774C68.4254 21.6321 69.2989 22.6169 70.496 23.5855C70.496 23.5855 70.5121 23.6016 70.5202 23.6097C71.3857 24.3361 72.3481 22.9317 71.5232 22.3828C70.496 21.7048 69.8166 20.6393 70.7467 19.5577L70.7629 19.5416C71.3776 18.8393 72.2511 18.4438 73.1893 18.4519C75.2922 18.4519 76.465 20.2357 76.5459 22.181C76.6025 23.5855 76.1738 24.8931 75.1871 25.9101C73.4481 27.7101 70.5445 28.1056 68.2394 27.3065C65.2225 26.2572 63.7505 22.5362 64.0012 19.5658C64.3652 15.2797 66.8644 11.3407 69.9541 8.45913L72.5746 6.32013C73.0761 6.32013 73.5695 6.32014 74.0709 6.33628C76.2143 6.40085 78.2363 6.65108 80.2421 7.3856ZM85.6774 40.6167C89.7457 42.7315 92.6008 43.9665 97.3161 43.1835C98.8529 45.153 100.657 47.0095 102.97 48.0265C101.384 48.753 100.357 50.1252 100.511 51.9817C100.64 53.4991 101.635 55.1135 103.156 55.5736C103.69 55.735 104.24 55.735 104.773 55.5736C105.809 55.2668 106.545 54.4435 106.747 53.3861C107.224 50.8758 105.105 51.2956 105.194 52.3933C105.412 55.0893 102.153 54.3709 102.08 51.7153C101.991 48.5512 107.281 48.4221 108.761 50.5288C109.95 52.2238 109.61 54.7341 109.707 56.6955C109.731 57.0991 109.764 57.4946 109.82 57.8901C109.942 58.7135 110.176 59.4964 110.581 60.2309C111.648 62.152 112.878 62.3296 114.665 62.7332C113.145 63.734 110.589 63.9923 108.906 63.6856C104.984 62.9592 105.218 59.8516 102.226 58.1888C99.1845 56.5099 95.8441 58.2211 92.9647 56.1467C91.9618 55.4283 91.3229 54.605 91.1611 53.37C91.0398 52.4579 91.1934 51.4893 90.9751 50.5933C90.9265 50.3754 90.8457 50.1655 90.7486 49.9637C89.9074 48.2929 87.02 47.518 85.6935 45.8714C84.4075 44.2813 84.8847 42.3118 85.6531 40.6006L85.6774 40.6167ZM120.804 29.7926C120.715 30.1316 120.27 30.8096 120.157 30.9711C119.914 31.3182 119.623 31.7056 119.324 32.0042C118.054 33.2715 116.679 33.9818 114.932 34.3773C113.533 34.7002 112.053 34.7648 110.686 35.1845C109.4 35.58 108.106 36.3468 106.957 37.041C105.534 37.9046 104.134 38.8087 102.662 39.5916C99.2573 41.3997 95.7956 42.3925 91.9295 41.5369C90.3604 41.1898 89.0986 40.6087 87.6913 39.858C87.0119 39.5028 86.3406 39.1396 85.645 38.8167C81.3826 36.6455 78.212 35.5235 73.3592 36.2984C72.9871 36.3549 71.693 36.6293 71.0783 36.6858L71.8143 35.3621C72.7445 34.0948 73.8202 33.0616 75.1628 32.2464C76.2466 31.5926 77.3951 31.1567 78.5517 30.6563C79.5627 30.2204 80.5171 29.7522 81.3987 29.0904C82.4664 28.2913 83.4289 27.2177 84.3024 26.2168C85.3862 24.9738 86.4376 23.6985 87.5538 22.4716C90.1339 19.6384 92.9567 17.2008 96.572 15.7963C100.576 14.2465 106.278 13.9802 110.2 15.8851C112.611 17.0555 114.754 19.3156 113.136 22.0438C113.136 22.0438 113.128 22.0599 113.12 22.068C112.57 22.9801 111.745 23.6823 110.734 24.0294C109.893 24.32 108.793 24.4249 108.154 23.6743C107.661 23.0931 107.653 22.2536 107.863 21.5595C108.146 20.5989 108.664 20.5909 109.521 20.8572C110.484 21.1559 110.977 19.7353 110.047 19.3721C107.394 18.3389 105.898 20.607 106.213 22.9155C105.073 22.2859 103.876 21.7451 102.63 21.39C99.0389 20.3568 95.1404 21.0752 92.4552 23.755C88.5972 27.5971 91.1692 33.4329 96.0382 34.6195C97.9875 35.0957 100.729 34.9585 101.773 32.9325C102.298 31.9074 102.137 30.7451 101.643 29.7442C100.592 27.6213 98.7639 27.4841 96.6367 27.4841C96.2242 27.4841 95.8845 27.7989 95.8522 28.2106C95.836 28.4204 95.8684 28.6303 96.014 28.7917C96.7176 29.5747 99.1602 28.2993 100.22 30.4464C100.503 31.0114 100.657 31.6975 100.317 32.2706C99.6536 33.4087 97.7286 33.4006 96.6125 33.1504C94.7441 32.7226 93.1993 31.4634 92.4956 29.6635C91.3633 26.7576 93.2883 24.4976 95.836 23.311C95.9978 23.2384 96.1595 23.1657 96.3213 23.1012C99.4352 21.8581 102.379 22.6492 105.202 24.1828C106.601 24.9496 107.912 25.8536 109.23 26.7496C110.322 27.4922 111.527 28.3316 112.74 28.8482C115.611 30.059 117.844 29.946 120.804 29.8087V29.7926ZM99.0551 42.8042C101.619 42.0938 103.884 40.8024 106.132 39.406C105.898 40.3988 105.97 41.5046 106.391 42.4248C107.143 44.0553 108.502 44.3378 110.128 44.5719C111.163 44.7171 111.389 43.1512 110.354 43.006C108.785 42.7799 107.685 42.5701 107.588 40.7378C107.531 39.7369 107.863 38.8248 108.704 38.2356C109.982 37.3396 111.907 37.5656 112.975 38.6957C113.678 39.4463 114.091 40.6732 114.18 41.6822C114.495 45.2741 110.16 47.4777 107.054 47.3647C103.463 47.2274 101.239 45.3952 99.0551 42.8042ZM137.312 13.3425L136.649 16.4259C135.71 19.3156 133.519 22.0761 130.663 23.2626C129.677 23.6743 128.585 23.868 127.517 23.9003C125.398 23.9648 122.05 23.2868 121.103 21.0994C120.861 20.5424 120.82 19.9613 120.942 19.364C121.168 18.2178 121.896 17.2815 123.02 16.9021C123.797 16.6438 124.864 16.668 125.455 17.3218C125.673 17.5559 125.786 17.8465 125.811 18.1694C125.883 19.033 125.188 19.4205 124.557 19.8402C123.691 20.4133 124.573 21.729 125.438 21.1559C126.433 20.4859 127.266 19.8564 127.388 18.6052C130.388 16.9102 131.877 13.7461 132.006 10.3963C134.384 10.8403 135.581 11.6555 137.32 13.3506L137.312 13.3425Z" fill="white"/>
<path fill-rule="evenodd" clip-rule="evenodd" d="M140.854 27.9845C139.39 28.6626 138.064 29.5262 136.818 30.624C135.443 31.8428 134.303 33.2311 133.098 34.6033C131.658 36.2338 130.235 37.6221 128.318 38.7037C126.644 39.6481 124.484 40.0356 122.624 40.4714C118.709 41.3916 115.571 42.5781 114.972 47.0579C114.908 47.5261 114.819 49.2131 115.094 49.7458C115.256 49.6409 115.506 49.4552 115.603 49.3826C115.983 49.1081 116.372 48.8499 116.776 48.6158C117.035 48.4705 117.31 48.3333 117.585 48.2283C119.13 47.6472 121.225 47.5987 122.826 47.9781C124.856 48.4543 126.854 49.9718 128.617 51.0534C130.219 52.0382 131.949 52.926 133.866 52.9826C135.047 53.0148 136.252 52.8292 137.417 52.6193C138.517 52.4175 139.617 52.1915 140.725 52.022L140.854 27.9845Z" fill="#5DBDEB"/>
<path fill-rule="evenodd" clip-rule="evenodd" d="M140.838 30.4706C139.763 31.0679 138.711 31.8267 137.676 32.7307C136.535 33.7235 135.419 34.8778 134.125 36.145C132.831 37.4123 131.351 38.7845 129.717 39.7611C128.075 40.7378 126.28 41.3109 124.622 41.9486C122.972 42.5943 121.459 43.3046 120.367 43.9423C119.267 44.5719 118.58 45.1288 118.895 45.3629C119.211 45.597 120.529 45.5163 121.839 45.8068C123.141 46.1055 124.428 46.7754 125.754 47.5826C127.072 48.3817 128.431 49.318 129.863 49.9557C131.286 50.5933 132.791 50.9485 134.554 50.9808C136.325 51.0131 138.363 50.7306 140.102 50.5772C140.321 50.5611 140.531 50.5449 140.733 50.5288L140.838 30.4868V30.4706Z" fill="#3D82C4"/>
<path fill-rule="evenodd" clip-rule="evenodd" d="M140.83 32.6096C139.746 33.3441 138.663 34.1997 137.66 35.1361C136.649 36.0724 135.718 37.0813 134.837 37.9692C133.963 38.8571 133.146 39.6239 132.265 40.31C131.383 41.0042 130.437 41.6257 129.434 42.1665C128.431 42.7073 127.363 43.1755 126.255 43.5468C125.139 43.9181 123.983 44.2086 123.797 44.4508C123.611 44.6929 124.395 44.9028 124.824 45.0158C125.244 45.1288 125.309 45.1449 125.827 45.4517C126.344 45.7503 127.315 46.3315 128.334 46.9288C129.345 47.5261 130.405 48.1395 131.529 48.5754C132.645 49.0113 133.834 49.2696 135.096 49.3342C136.366 49.3987 137.716 49.2777 139.18 49.1162C139.698 49.0597 140.224 48.9951 140.749 48.9386L140.838 32.5935L140.83 32.6096Z" fill="#3374BA"/>
<path fill-rule="evenodd" clip-rule="evenodd" d="M140.822 34.1432C140.539 34.345 140.256 34.5549 139.981 34.7648C138.719 35.7172 137.546 36.7342 136.43 37.8804C135.314 39.0266 134.255 40.2939 133.122 41.3351C131.99 42.3764 130.777 43.1835 129.669 43.7001C129.054 43.9826 128.48 44.1683 127.865 44.4185C127.234 44.6768 127.436 44.8059 127.978 45.0481C128.358 45.2176 128.73 45.371 129.102 45.5647C129.992 46.0248 130.955 46.727 132.071 47.2113C133.187 47.6956 134.465 47.97 135.945 47.9377C137.417 47.8974 139.091 47.5503 140.757 47.405L140.83 34.1594L140.822 34.1432Z" fill="#225CAB"/>
<path fill-rule="evenodd" clip-rule="evenodd" d="M140.717 53.6202L140.668 62.2569C140.062 62.1924 139.455 62.2085 138.857 62.3134C137.417 62.5556 136.034 63.2175 135.168 64.4363C134.489 65.3887 134.222 66.6076 134.554 67.7376C134.821 68.6578 135.443 69.3762 136.285 69.8282C137.943 70.7241 139.196 69.9735 140.49 68.908L140.515 68.8919C140.555 68.8596 140.596 68.8273 140.628 68.7869L140.604 73.9205C139.649 74.1707 138.63 74.2515 137.66 74.1788C134.594 73.9609 133.033 72.4353 130.583 70.8694C128.229 69.3681 125.382 68.2219 122.559 68.9403C121.775 69.1421 121.079 69.4569 120.391 69.8685C120.254 69.9492 119.68 70.3205 119.453 70.3851C119.348 70.2237 119.243 69.7717 119.211 69.6345C119.097 69.0856 119.073 68.4963 119.122 67.9394C119.243 66.4138 119.89 65.0659 121.16 64.1699C123.077 62.8139 125.39 62.604 127.493 61.7C131.084 60.1502 131.488 57.4704 133.47 54.5485C134.513 54.6211 135.557 54.5 136.584 54.3467C138.056 54.1207 139.415 53.8382 140.709 53.6202H140.717ZM137.668 64.3556C136.875 64.7753 136.115 65.5098 136.002 66.4461C135.945 66.9304 136.074 67.3824 136.341 67.786C137.231 69.1501 138.533 68.6255 139.512 67.665C139.884 67.3017 140.377 67.447 140.644 67.7699L140.668 63.8309C139.649 63.7018 138.582 63.8551 137.668 64.3394V64.3556Z" fill="#5DBDEB"/>
<path fill-rule="evenodd" clip-rule="evenodd" d="M140.717 53.6202L140.693 58.6731C139.932 59.3027 139.188 59.8677 138.347 60.5215C136.924 61.6354 135.209 62.9995 134.643 64.1699C134.343 64.7914 134.36 65.3484 134.529 65.865C134.384 66.4784 134.392 67.1161 134.57 67.7376C134.837 68.6578 135.46 69.3762 136.301 69.8282C137.959 70.7241 139.212 69.9735 140.507 68.908L140.531 68.8919C140.571 68.8596 140.612 68.8273 140.644 68.7869L140.628 72.064C139.722 72.4273 138.59 72.5564 137.385 72.4515C136.163 72.3385 134.877 71.9672 133.793 71.3941C132.702 70.821 131.812 70.0461 130.704 69.4004C129.596 68.7546 128.277 68.2542 127.048 67.8748C125.819 67.5035 124.686 67.2614 123.95 67.0677C123.214 66.8659 122.866 66.7044 123.279 66.3816C123.691 66.0506 124.856 65.5583 125.988 65.0497C127.121 64.5412 128.213 64.0246 129.264 63.1852C130.307 62.3457 131.302 61.1753 132.176 59.9323C133.049 58.6892 133.793 57.3736 134.481 56.2677C134.91 55.5816 135.322 54.9682 135.791 54.4678C136.066 54.4355 136.341 54.3951 136.608 54.3548C138.08 54.1287 139.439 53.8462 140.733 53.6283L140.717 53.6202ZM140.175 65.4937C139.568 65.4937 138.937 65.639 138.493 65.9296C138.048 66.2201 137.805 66.6641 137.732 67.0596C137.66 67.4551 137.757 67.8183 137.999 68.004C138.234 68.1977 138.614 68.2138 138.962 68.1331C139.156 67.9959 139.342 67.8345 139.52 67.665C139.892 67.3017 140.385 67.447 140.652 67.7699V65.5098C140.507 65.4856 140.345 65.4775 140.183 65.4775L140.175 65.4937Z" fill="#3D82C4"/>
<path fill-rule="evenodd" clip-rule="evenodd" d="M140.717 53.6202L140.685 58.9637C140.159 59.3188 139.649 59.6821 139.188 60.0695C138.08 61.0139 137.296 62.0793 136.729 63.0318C136.123 63.3789 135.581 63.8309 135.168 64.4201C134.489 65.3726 134.222 66.5914 134.554 67.7215C134.821 68.6416 135.443 69.36 136.285 69.812C137.943 70.708 139.196 69.9573 140.49 68.8918L140.515 68.8757C140.555 68.8434 140.596 68.8111 140.628 68.7708V70.2317C140.361 70.3932 140.078 70.5465 139.787 70.6918C139.237 70.9663 138.679 71.2165 138.007 71.273C137.336 71.3295 136.568 71.2004 135.88 70.9582C135.193 70.7161 134.602 70.3609 134.052 69.9412C133.502 69.5214 132.985 69.0371 132.338 68.6578C131.691 68.2784 130.906 67.9959 130.065 67.786C129.224 67.5762 128.326 67.4309 127.954 67.2856C127.59 67.1403 127.752 66.995 128.261 66.6398C128.771 66.2847 129.628 65.7116 130.429 64.9932C131.23 64.2829 131.99 63.4273 132.661 62.4749C133.332 61.5224 133.923 60.465 134.594 59.456C135.274 58.439 136.034 57.4704 136.689 56.5745C137.352 55.6785 137.91 54.8633 138.654 54.2095C138.768 54.1045 138.889 54.0077 139.018 53.9108C139.593 53.8059 140.151 53.7009 140.701 53.6122L140.717 53.6202ZM140.288 67.1807C139.932 67.2533 139.665 67.4551 139.39 67.6892C139.115 67.9232 138.824 68.1896 138.533 68.3672C138.234 68.5448 137.927 68.6336 137.587 68.5932C137.352 68.569 137.093 68.4721 136.827 68.3188C137.668 68.9564 138.703 68.464 139.512 67.665C139.884 67.3017 140.377 67.447 140.644 67.7699V67.1484C140.523 67.1484 140.401 67.1484 140.288 67.1726V67.1807Z" fill="#3374BA"/>
<path fill-rule="evenodd" clip-rule="evenodd" d="M140.709 54.7583C140.199 55.1377 139.698 55.5655 139.245 56.0417C138.315 57.0184 137.611 58.1484 136.891 59.3995C136.179 60.6507 135.443 62.0067 134.562 63.1932C133.672 64.3798 132.629 65.3887 131.877 65.978C131.124 66.5672 130.663 66.7529 130.769 66.882C130.866 67.0192 131.529 67.0999 132.273 67.3421C133.025 67.5762 133.858 67.9555 134.53 68.4318C134.772 68.6093 134.999 68.795 135.217 68.9726C134.918 68.6174 134.691 68.2058 134.554 67.7376C134.222 66.5995 134.489 65.3887 135.168 64.4363C136.034 63.2255 137.409 62.5556 138.857 62.3134C139.455 62.2166 140.062 62.2004 140.668 62.2569L140.709 54.7583Z" fill="#225CAB"/>
<path fill-rule="evenodd" clip-rule="evenodd" d="M57.0778 0.0322937L80.1775 0.153364C82.4502 1.91299 84.8038 3.18025 87.8045 3.71298C91.4846 4.36679 96.1757 3.68069 98.6426 0.597309C98.7316 0.484306 98.8205 0.371296 98.9014 0.25022L110.912 0.314795C110.848 1.2834 110.686 2.252 110.451 3.20446C108.89 9.45195 104.547 12.2932 98.2382 12.3335C93.2397 12.3658 89.6567 10.7434 85.4509 8.27348C84.5208 7.73268 83.5906 7.1838 82.6282 6.6995C82.2076 6.34435 82.2804 6.52192 81.8517 6.3282C78.4142 4.79458 75.365 4.73808 71.693 4.73001C69.6386 4.73001 67.6328 4.68965 65.6108 4.26185C62.2299 3.54347 59.577 2.06636 57.0859 0.0322937H57.0778ZM82.9517 0.169511C84.4399 1.08968 86.0979 1.80806 88.0795 2.15514C90.9023 2.65558 94.6066 2.29236 96.8147 0.242153L82.9517 0.169511ZM141 0.476227L140.927 14.7228C140.143 14.0044 139.423 13.2053 138.679 12.4627C137.53 11.3084 136.357 10.2753 134.853 9.58917C130.963 7.82147 125.552 9.25823 123.036 4.84301C122.583 4.05199 121.847 1.95335 121.726 0.863677C122.05 0.920178 122.397 1.01704 122.697 1.08968C123.336 1.23497 123.966 1.34797 124.622 1.3964C126.652 1.54976 129.733 1.16233 131.691 0.419731L141 0.468159V0.476227Z" fill="#5DBDEB"/>
<path fill-rule="evenodd" clip-rule="evenodd" d="M98.9014 0.250213L108.494 0.298641C108.462 1.80805 108.187 3.12373 107.531 4.37485C106.868 5.6421 105.801 6.85286 104.539 7.70039C103.277 8.55599 101.813 9.04836 100.317 9.33894C98.8205 9.62952 97.2838 9.71831 95.65 9.51652C94.0162 9.31473 92.2773 8.83042 90.6111 8.09589C88.953 7.36137 87.3678 6.39277 85.5965 5.60981C83.8252 4.82686 81.8598 4.23763 79.8458 3.80176C77.8319 3.36589 75.7775 3.08337 73.8202 2.92194C71.8629 2.76858 70.0026 2.74437 68.0776 2.48607C66.1527 2.22778 64.1549 1.74348 62.327 0.85559C61.8255 0.613439 61.3321 0.339002 60.863 0.0484211L80.1936 0.153357C82.4664 1.91298 84.82 3.18024 87.8207 3.71297C91.5008 4.36678 96.1919 3.68069 98.6588 0.597302C98.7477 0.484299 98.8367 0.371289 98.9176 0.250213H98.9014ZM86.8501 0.185638C86.9553 0.225997 87.0604 0.258283 87.1656 0.298641C88.4839 0.742584 89.9236 0.904022 91.2662 0.807162C92.2611 0.742588 93.2074 0.540799 93.9758 0.217932L86.8501 0.177571V0.185638ZM141 0.47622L140.935 12.0349C139.94 11.2116 138.978 10.251 138.024 9.42773C136.964 8.50756 135.913 7.76495 134.562 7.22415C133.211 6.68335 131.569 6.34434 130.154 5.96497C128.738 5.5856 127.558 5.17395 126.822 4.81879C126.077 4.46364 125.778 4.17305 126.336 3.9309C126.886 3.68875 128.294 3.49504 129.887 2.88966C131.359 2.33271 132.985 1.42062 134.764 0.435871L141 0.468152V0.47622Z" fill="#3D82C4"/>
<path fill-rule="evenodd" clip-rule="evenodd" d="M98.9014 0.250224L106.359 0.290585C106.27 0.823317 106.132 1.35605 105.938 1.88071C105.331 3.48697 104.151 5.0206 102.832 5.95691C101.514 6.89323 100.066 7.22417 98.2463 7.11924C96.4265 7.01431 94.2508 6.45736 92.2287 5.79548C90.2067 5.1336 88.3464 4.35871 86.2354 3.56769C84.1244 2.77666 81.7708 1.96142 79.4333 1.52555C77.0959 1.08968 74.7827 1.01704 72.4614 0.831387C70.4555 0.669953 68.4578 0.419737 66.7755 0.0807259L80.1694 0.153368C82.4421 1.913 84.7958 3.18025 87.7964 3.71299C91.4765 4.36679 96.1676 3.6807 98.6345 0.597313C98.7235 0.48431 98.8124 0.3713 98.8933 0.250224H98.9014ZM141 0.476231L140.951 10.2591C140.272 9.75868 139.649 9.20172 139.043 8.66092C138.064 7.77304 137.118 6.90937 136.18 6.29592C135.241 5.68247 134.303 5.32732 133.244 4.97217C132.184 4.61701 131.011 4.25379 130.574 4.06814C130.138 3.87442 130.429 3.8502 131.133 3.64841C131.836 3.44662 132.952 3.05917 134.109 2.55873C135.266 2.05828 136.455 1.45291 137.668 0.782959C137.846 0.686099 138.032 0.581163 138.218 0.476231L141.008 0.492378L141 0.476231Z" fill="#3374BA"/>
<path fill-rule="evenodd" clip-rule="evenodd" d="M98.9014 0.250227L104.919 0.28252C104.717 1.59013 104.102 2.64752 103.099 3.50312C102.072 4.38293 100.632 5.04481 99.1441 5.2466C97.6558 5.4484 96.1191 5.19818 94.6875 4.77038C93.8059 4.51208 92.9647 4.18115 92.0508 3.84214C94.5985 3.55156 97.0816 2.56681 98.6588 0.597316C98.7477 0.484312 98.8367 0.371302 98.9176 0.250227H98.9014ZM141 0.476233L140.96 8.0152C140.232 7.2726 139.528 6.49772 138.76 5.84391C137.789 5.01253 136.721 4.36679 135.735 4.03585C134.748 3.70491 133.842 3.6807 134.117 3.51926C134.392 3.35783 135.832 3.0511 137.118 2.51837C138.404 1.98564 139.528 1.23498 140.701 0.532741L140.79 0.476233H141.008H141Z" fill="#225CAB"/>
<path fill-rule="evenodd" clip-rule="evenodd" d="M96.5801 15.7963C92.9648 17.2008 90.142 19.6384 87.5619 22.4716C86.4457 23.6904 85.4024 24.9657 84.3105 26.2168C83.437 27.2177 82.4745 28.2913 81.4069 29.0904C80.5253 29.7522 79.5709 30.2204 78.5598 30.6563C77.4032 31.1567 76.2547 31.5926 75.1709 32.2464C73.8202 33.0616 72.7526 34.0948 71.8224 35.3621L71.0864 36.6858C71.7011 36.6293 72.9952 36.3549 73.3673 36.2984C78.212 35.5235 81.3826 36.6455 85.6531 38.8167C86.3487 39.1396 87.0281 39.5028 87.6994 39.858C89.1067 40.6006 90.3685 41.1817 91.9376 41.5369C95.7956 42.3925 99.2573 41.4078 102.67 39.5916C104.143 38.8087 105.542 37.9046 106.965 37.041C108.114 36.3468 109.408 35.5719 110.694 35.1845C112.061 34.7648 113.541 34.6921 114.94 34.3773C116.679 33.9818 118.062 33.2715 119.332 32.0042C119.631 31.7056 119.922 31.3181 120.165 30.9711C120.278 30.8096 120.723 30.1316 120.812 29.7926C117.844 29.9217 115.611 30.0348 112.748 28.8321C111.535 28.3236 110.322 27.4841 109.238 26.7334C107.92 25.8375 106.609 24.9254 105.21 24.1666C102.395 22.633 99.4433 21.842 96.3294 23.085C96.1677 23.1496 96.0059 23.2222 95.8441 23.2949C93.2964 24.4814 91.3714 26.7415 92.5037 29.6473C93.1993 31.4473 94.7441 32.6984 96.6206 33.1343C97.7367 33.3926 99.6536 33.3926 100.325 32.2545C100.665 31.6814 100.503 30.9953 100.228 30.4303C99.1683 28.2832 96.7257 29.5666 96.0221 28.7756C95.8765 28.6141 95.8441 28.4043 95.8603 28.1944C95.8927 27.7908 96.2404 27.468 96.6448 27.468C98.7639 27.468 100.6 27.6052 101.651 29.728C102.145 30.7289 102.307 31.8912 101.781 32.9163C100.737 34.9423 98.0037 35.0796 96.0463 34.6033C91.1773 33.4168 88.6053 27.581 92.4633 23.7388C95.1485 21.0671 99.0551 20.3407 102.638 21.3738C103.884 21.729 105.081 22.2779 106.221 22.8994C105.906 20.5909 107.41 18.3227 110.055 19.3559C110.985 19.7191 110.492 21.1397 109.529 20.8411C108.672 20.5747 108.162 20.5828 107.871 21.5433C107.669 22.2375 107.677 23.077 108.162 23.6581C108.801 24.4088 109.901 24.3039 110.742 24.0133C111.753 23.6662 112.578 22.964 113.128 22.0519L113.145 22.0276C114.762 19.3075 112.619 17.0474 110.209 15.8689C106.286 13.964 100.584 14.2304 96.5801 15.7802V15.7963Z" fill="#5DBDEB"/>
<path fill-rule="evenodd" clip-rule="evenodd" d="M96.6448 29.05C96.3698 29.0177 96.1514 28.9451 96.0059 28.7756C95.8603 28.6141 95.8279 28.4043 95.8441 28.1944C95.8764 27.7908 96.2242 27.468 96.6286 27.468C98.7477 27.468 100.584 27.6052 101.635 29.728C102.129 30.7289 102.29 31.8912 101.765 32.9163C100.721 34.9423 97.9874 35.0796 96.0301 34.6033C91.1611 33.4168 88.5891 27.581 92.4471 23.7388C95.1323 21.0671 99.0389 20.3407 102.622 21.3738C103.867 21.729 105.065 22.2779 106.205 22.8994C105.89 20.5909 107.394 18.3227 110.039 19.3559C110.225 19.4286 110.354 19.5416 110.435 19.6788C110.443 19.3478 110.289 18.92 109.942 18.4922C109.537 17.9918 108.866 17.4994 107.855 17.1281C106.844 16.7568 105.501 16.5147 104.094 16.4178C102.687 16.329 101.207 16.3855 99.8558 16.6035C98.497 16.8214 97.2676 17.2008 95.9978 17.8062C94.7199 18.4115 93.4096 19.251 92.2287 20.3084C91.0478 21.3738 90.0126 22.6572 88.8479 24.094C87.6832 25.5308 86.3891 27.1128 85.2891 28.3801C84.1891 29.6392 83.2752 30.5836 82.2723 31.2536C81.2693 31.9235 80.1774 32.3352 79.2554 32.7549C78.3333 33.1746 77.5812 33.6105 77.7753 33.8607C77.9775 34.111 79.126 34.1755 80.4686 34.4661C81.8193 34.7567 83.3641 35.2813 84.6178 35.8302C85.8796 36.3791 86.8501 36.9522 88.0633 37.5172C89.2766 38.0903 90.7243 38.6634 92.1074 39.0185C93.4905 39.3818 94.8088 39.5271 96.111 39.4625C97.4213 39.3979 98.7154 39.1154 99.9448 38.6876C101.174 38.2598 102.331 37.6948 103.504 37.0329C104.676 36.3791 105.857 35.6284 106.892 34.9746C107.928 34.3208 108.809 33.7558 109.691 33.3522C110.581 32.9567 111.47 32.7226 112.263 32.4401C113.056 32.1576 113.759 31.8267 113.824 31.6249C113.889 31.4231 113.306 31.3504 112.514 31.0921C111.721 30.8339 110.718 30.3818 109.626 29.6957C108.534 29.0096 107.353 28.0814 106.14 27.2016C104.935 26.3218 103.698 25.4985 102.565 24.9738C101.433 24.4411 100.406 24.2151 99.4595 24.1909C98.5132 24.1666 97.6397 24.3604 96.8308 24.7801C96.022 25.1998 95.286 25.8536 94.8816 26.4994C94.4691 27.1451 94.3801 27.7828 94.4449 28.4204C94.5096 29.0581 94.7199 29.6877 95.0353 30.0751C95.3507 30.4626 95.7794 30.6078 96.0059 30.4383C96.2323 30.2688 96.2485 29.8007 96.3779 29.4455C96.4345 29.2922 96.5154 29.1549 96.6286 29.05H96.6448Z" fill="#3D82C4"/>
<path fill-rule="evenodd" clip-rule="evenodd" d="M96.1838 27.6052C96.3132 27.5164 96.4669 27.468 96.6287 27.468C98.7477 27.468 100.584 27.6052 101.635 29.728C102.129 30.7289 102.29 31.8912 101.765 32.9163C100.721 34.9423 97.9875 35.0796 96.0301 34.6033C91.1611 33.4168 88.5891 27.581 92.4471 23.7388C95.1324 21.0671 99.0389 20.3407 102.622 21.3738C103.868 21.729 105.065 22.2779 106.205 22.8994C105.954 21.0348 106.876 19.2026 108.64 19.1057L108.583 19.0653C108.146 18.7586 107.329 18.4519 106.124 18.2097C104.919 17.9757 103.326 17.8061 101.878 17.8707C100.43 17.9272 99.1279 18.2097 97.9228 18.6698C96.7176 19.1218 95.6015 19.7434 94.3883 20.6635C93.1831 21.5837 91.8728 22.7864 90.7486 24.2231C89.6244 25.6518 88.67 27.3065 87.7884 28.6222C86.9068 29.9379 86.0979 30.9065 85.1112 31.6087C84.1244 32.311 82.9517 32.7388 82.6928 32.9567C82.434 33.1746 83.0892 33.1827 83.9869 33.3361C84.8847 33.4894 86.0413 33.7881 87.2869 34.2724C88.5325 34.7486 89.867 35.4105 91.056 35.9432C92.2449 36.476 93.2883 36.8876 94.4691 37.1217C95.6581 37.3558 96.9845 37.4284 98.1169 37.3235C99.2573 37.2186 100.196 36.9441 101.263 36.3952C102.323 35.8464 103.504 35.0231 104.62 34.2885C105.736 33.554 106.787 32.9164 107.742 32.5047C108.696 32.093 109.545 31.9074 109.562 31.7137C109.578 31.528 108.753 31.3343 107.863 30.8984C106.973 30.4545 106.035 29.7684 105.073 28.9451C104.118 28.1298 103.148 27.1774 102.104 26.5962C101.061 26.0151 99.9367 25.789 98.9499 25.8698C97.9713 25.9505 97.1301 26.3299 96.6529 26.798C96.3779 27.0644 96.2243 27.355 96.1595 27.6052H96.1838Z" fill="#3374BA"/>
<path fill-rule="evenodd" clip-rule="evenodd" d="M97.1382 27.476C97.4455 27.3065 97.8176 27.1532 98.222 27.0482C99.0632 26.8384 100.034 26.9029 100.956 27.3792C101.87 27.8554 102.735 28.7514 103.552 29.5101C104.369 30.2688 105.129 30.8984 105.38 31.2939C105.631 31.6895 105.364 31.8509 104.757 32.2706C104.151 32.6984 103.196 33.3845 102.258 34.0302C101.312 34.676 100.373 35.2894 99.233 35.58C98.0926 35.8706 96.7419 35.8383 95.4801 35.4347C94.2103 35.0231 93.0213 34.232 91.5331 33.6751C90.0449 33.1181 88.2575 32.7872 87.6428 32.432C87.02 32.0769 87.5619 31.6975 88.1038 30.963C88.6457 30.2285 89.1876 29.1388 89.6486 28.0411C90.1096 26.9352 90.4979 25.8213 91.3714 24.7559C91.8243 24.207 92.4147 23.6662 93.0861 23.1577C92.8677 23.3353 92.6574 23.529 92.4552 23.7388C88.5972 27.581 91.1692 33.4168 96.0382 34.6033C97.9874 35.0796 100.729 34.9423 101.773 32.9163C102.298 31.8912 102.137 30.7289 101.643 29.728C100.681 27.7828 99.0551 27.5002 97.1544 27.476H97.1382ZM95.1 21.8581C96.572 21.051 98.1411 20.4456 99.7587 20.042C101.376 19.6304 103.034 19.4205 104.337 19.4205C105.606 19.4205 106.537 19.6304 106.981 19.9048C106.334 20.6312 106.051 21.7613 106.205 22.8994C105.065 22.2698 103.868 21.729 102.622 21.3738C100.009 20.6232 97.2353 20.8007 94.8816 21.9873C94.9544 21.9469 95.0272 21.9066 95.1 21.8662V21.8581Z" fill="#225CAB"/>
<path fill-rule="evenodd" clip-rule="evenodd" d="M106.132 39.406C103.884 40.7943 101.619 42.0938 99.0551 42.8042C101.239 45.3952 103.463 47.2274 107.054 47.3647C110.168 47.4777 114.495 45.2822 114.18 41.6822C114.091 40.6652 113.678 39.4463 112.975 38.6957C111.907 37.5656 109.982 37.3316 108.704 38.2356C107.863 38.8248 107.531 39.7369 107.588 40.7378C107.693 42.5701 108.793 42.7799 110.354 43.0059C111.389 43.1512 111.163 44.7171 110.128 44.5719C108.502 44.3378 107.143 44.0553 106.391 42.4248C105.97 41.5046 105.898 40.3988 106.132 39.406Z" fill="#5DBDEB"/>
<path fill-rule="evenodd" clip-rule="evenodd" d="M106.132 39.406C104.377 40.4957 102.614 41.5208 100.697 42.2553C100.891 42.7154 101.296 43.3288 101.797 43.8535C102.363 44.4508 103.059 44.9512 103.827 45.3225C104.595 45.6938 105.437 45.9441 106.181 46.0409C106.933 46.1378 107.588 46.0813 108.292 45.9118C108.995 45.7423 109.74 45.4517 110.362 45.0077C110.985 44.5638 111.495 43.9584 111.713 43.3934C111.939 42.8284 111.883 42.3037 111.713 42.0858C111.535 41.8759 111.228 41.9809 110.904 42.1423C110.581 42.3037 110.241 42.5297 109.812 42.6104C109.376 42.6912 108.85 42.6266 108.373 42.4167L108.324 42.3925C108.817 42.7557 109.521 42.8768 110.362 42.9979C111.398 43.1432 111.171 44.7091 110.136 44.5638C108.51 44.3297 107.151 44.0472 106.399 42.4167C105.979 41.4966 105.906 40.3907 106.14 39.3979L106.132 39.406Z" fill="#3D82C4"/>
<path fill-rule="evenodd" clip-rule="evenodd" d="M106.132 39.406C104.806 40.2293 103.463 41.0203 102.064 41.6741C102.201 42.0051 102.404 42.4006 102.671 42.788C103.018 43.2885 103.479 43.7889 103.989 44.1602C104.498 44.5315 105.048 44.7817 105.663 44.9109C106.278 45.04 106.949 45.04 107.499 45.0239C108.049 44.9997 108.478 44.9593 108.898 44.8059C109.125 44.7252 109.351 44.6041 109.537 44.4831C108.179 44.249 107.046 43.8615 106.391 42.4329C105.97 41.5127 105.898 40.4069 106.132 39.4141V39.406Z" fill="#3374BA"/>
<path fill-rule="evenodd" clip-rule="evenodd" d="M106.132 39.406C105.267 39.9387 104.401 40.4634 103.512 40.9396C103.512 41.2786 103.625 41.6176 103.803 41.9486C104.11 42.5378 104.612 43.1028 105.202 43.5064C105.793 43.91 106.472 44.136 107.135 44.1925C107.515 44.2248 107.895 44.1925 108.162 44.1198C107.426 43.8212 106.812 43.3369 106.391 42.4248C105.97 41.5046 105.898 40.3988 106.132 39.406Z" fill="#225CAB"/>
<path fill-rule="evenodd" clip-rule="evenodd" d="M102.97 48.0265C100.648 47.0095 98.8529 45.153 97.3162 43.1835C92.6008 43.9665 89.7457 42.7315 85.6774 40.6167C84.909 42.3279 84.4318 44.2974 85.7178 45.8875C87.0362 47.5261 89.9236 48.301 90.7729 49.9799C90.8699 50.1817 90.9508 50.3915 90.9993 50.6095C91.2177 51.5054 91.064 52.466 91.1854 53.3861C91.3552 54.6211 91.9942 55.4444 92.989 56.1628C95.8765 58.2372 99.2169 56.526 102.25 58.2049C105.242 59.8596 105.008 62.9753 108.931 63.7018C110.605 64.0085 113.161 63.7583 114.689 62.7493C112.902 62.3376 111.673 62.1601 110.605 60.2471C110.201 59.5206 109.966 58.7296 109.845 57.9063C109.788 57.5108 109.748 57.1072 109.731 56.7117C109.626 54.7503 109.966 52.2319 108.785 50.5449C107.305 48.4382 102.015 48.5673 102.104 51.7314C102.177 54.3951 105.437 55.1054 105.218 52.4095C105.129 51.3117 107.24 50.892 106.771 53.4023C106.569 54.4597 105.833 55.283 104.798 55.5897C104.264 55.7511 103.714 55.7511 103.18 55.5897C101.659 55.1296 100.665 53.5153 100.535 51.9978C100.373 50.1413 101.409 48.7691 102.994 48.0427L102.97 48.0265Z" fill="#5DBDEB"/>
<path fill-rule="evenodd" clip-rule="evenodd" d="M102.97 48.0265C100.648 47.0095 98.8529 45.153 97.3162 43.1835C93.4743 43.8212 90.87 43.119 87.845 41.6983C87.7075 41.9728 87.57 42.2876 87.481 42.6427C87.3435 43.232 87.3597 43.9423 87.6832 44.5961C88.0068 45.2499 88.6215 45.8472 89.3898 46.4768C90.1501 47.1064 91.056 47.7602 91.6869 48.3575C92.3177 48.9548 92.6817 49.4956 92.9243 50.3431C93.1751 51.1906 93.3045 52.3449 93.6523 53.2005C94.0001 54.0561 94.5581 54.6211 95.3184 54.9924C96.0787 55.3637 97.0412 55.5413 98.1412 55.6866C99.2411 55.8319 100.471 55.9529 101.732 56.3807C102.994 56.8085 104.28 57.5511 105.251 58.3099C106.221 59.0686 106.876 59.8435 107.483 60.465C108.09 61.0865 108.64 61.5547 108.761 61.5143C108.882 61.474 108.583 60.9251 108.348 60.0614C108.106 59.1978 107.936 58.0031 107.912 56.8328C107.895 55.6624 108.033 54.5081 107.976 53.6444C107.912 52.7808 107.653 52.2158 107.232 51.796C106.812 51.3763 106.237 51.1099 105.695 51.0857C105.154 51.0615 104.636 51.2794 104.498 51.4489C104.361 51.6184 104.612 51.7314 104.87 51.9817C104.984 52.0866 105.097 52.2238 105.202 52.3691C105.137 51.2875 107.224 50.892 106.755 53.3861C106.553 54.4435 105.817 55.2668 104.782 55.5736C104.248 55.735 103.698 55.735 103.164 55.5736C101.643 55.1135 100.648 53.4991 100.519 51.9817C100.357 50.1252 101.393 48.753 102.978 48.0265H102.97Z" fill="#3D82C4"/>
<path fill-rule="evenodd" clip-rule="evenodd" d="M102.97 48.0265C101.384 48.753 100.357 50.1252 100.511 51.9817C100.608 53.1359 101.215 54.3547 102.169 55.065C101.926 54.9924 101.651 54.9117 101.352 54.8229C100.705 54.6453 99.9205 54.4597 99.1764 54.2982C98.4323 54.1287 97.7286 53.9834 97.1139 53.6929C96.4993 53.4023 95.9654 52.9745 95.5934 52.4175C95.2132 51.8606 94.9949 51.1826 94.7846 50.5207C94.5743 49.8669 94.3721 49.2292 93.9758 48.6158C93.5794 48.0023 92.989 47.4131 92.3824 46.8884C91.7758 46.3638 91.153 45.9118 90.7163 45.4678C90.2714 45.0239 90.0126 44.5799 89.9236 44.0633C89.8427 43.5952 89.9155 43.0624 90.1177 42.6346C92.2934 43.3853 94.4691 43.6517 97.3242 43.1835C98.861 45.153 100.665 47.0095 102.978 48.0265H102.97ZM106.537 54.4355C106.504 54.8794 106.464 55.509 106.504 56.1305C106.537 56.752 106.65 57.3493 106.65 57.5834C106.65 57.8175 106.537 57.6883 106.229 57.3816C105.914 57.0749 105.404 56.5825 104.903 56.2435C104.547 56.0014 104.199 55.8319 103.908 55.6946C104.199 55.6946 104.498 55.6624 104.781 55.5736C105.598 55.3314 106.237 54.7664 106.561 54.0157C106.561 54.1368 106.545 54.266 106.537 54.4355Z" fill="#3374BA"/>
<path fill-rule="evenodd" clip-rule="evenodd" d="M102.97 48.0265C100.648 47.0095 98.8529 45.153 97.3162 43.1835C95.7147 43.4499 94.3236 43.4822 93.0295 43.3288C93.0214 43.345 93.0133 43.353 93.0052 43.3692C92.7059 43.8938 92.8515 44.7091 93.2155 45.3387C93.5794 45.9683 94.1699 46.4122 94.8008 46.8723C95.4316 47.3324 96.1029 47.8086 96.4912 48.5593C96.8794 49.3099 96.9845 50.3189 97.3 50.9808C97.6235 51.6346 98.1573 51.9252 98.7963 52.1512C99.3867 52.353 100.058 52.5063 100.681 52.8534C100.592 52.5628 100.535 52.2722 100.511 51.9817C100.349 50.1252 101.384 48.753 102.97 48.0265Z" fill="#225CAB"/>
<path fill-rule="evenodd" clip-rule="evenodd" d="M68.2313 27.3065C70.5364 28.1137 73.44 27.7101 75.179 25.9101C76.1657 24.8931 76.5944 23.5855 76.5378 22.181C76.4569 20.2357 75.2841 18.4519 73.1812 18.4519C72.2511 18.4519 71.3776 18.8474 70.7548 19.5416L70.7386 19.5577C69.8085 20.6393 70.4879 21.6967 71.5151 22.3828C72.3401 22.9317 71.3695 24.3361 70.5121 23.6097L70.4879 23.5855C69.2908 22.6169 68.4173 21.6241 68.7975 19.9774C68.9188 19.4366 69.1857 18.9443 69.5497 18.5245L69.5658 18.5003C69.76 18.2824 69.9702 18.0887 70.2048 17.9111C72.4533 12.6403 75.5996 10.2833 80.2341 7.38561C78.2282 6.65109 76.2062 6.39279 74.0628 6.33629C73.5614 6.32015 73.068 6.32014 72.5665 6.32014L69.946 8.45914C66.8563 11.3407 64.3571 15.2878 63.9931 19.5658C63.7424 22.5442 65.2144 26.2572 68.2313 27.3065Z" fill="#5DBDEB"/>
<path fill-rule="evenodd" clip-rule="evenodd" d="M71.7415 22.6249C72.1055 23.2465 71.2724 24.2554 70.5121 23.6178L70.4879 23.5935C69.2908 22.6249 68.4173 21.6321 68.7974 19.9855C68.9188 19.4447 69.1857 18.9523 69.5496 18.5326L69.5658 18.5084C69.7599 18.2904 69.9702 18.0967 70.2048 17.9191C72.4533 12.6483 75.5995 10.2914 80.234 7.39366C78.2282 6.65914 76.2062 6.40084 74.0628 6.34434H73.8849C73.4158 6.756 72.7202 7.34523 71.9195 8.11204C70.9893 9.008 69.9136 10.1542 68.9673 11.4376C68.021 12.721 67.196 14.1497 66.6379 15.5864C66.0718 17.0232 65.7644 18.468 65.7644 19.7676C65.7644 21.0671 66.0637 22.2294 66.5328 23.2465C67.0019 24.2635 67.6328 25.1352 68.393 25.6437C69.1452 26.1523 70.0188 26.2814 70.8599 26.2088C71.7011 26.128 72.518 25.8375 73.0841 25.3209C73.6503 24.8043 73.9657 24.0698 74.0305 23.4482C74.0952 22.8187 73.9172 22.3021 73.7393 22.181C73.5613 22.0599 73.3834 22.3263 73.0761 22.4877C72.7687 22.6491 72.3319 22.7057 71.9518 22.6734C71.879 22.6734 71.7981 22.6572 71.7253 22.6411L71.7415 22.6249Z" fill="#3D82C4"/>
<path fill-rule="evenodd" clip-rule="evenodd" d="M71.7496 22.6411C72.0812 23.2707 71.2562 24.2474 70.5121 23.6097L70.4879 23.5855C69.2908 22.6169 68.4173 21.6241 68.7974 19.9774C68.9188 19.4366 69.1857 18.9443 69.5496 18.5245L69.5658 18.5003C69.7599 18.2824 69.9702 18.0887 70.2048 17.9111C72.4533 12.6403 75.5995 10.2833 80.234 7.38561C78.673 6.81252 77.0958 6.53 75.462 6.40893C75.3407 6.52193 75.2113 6.65916 75.0576 6.80445C74.0547 7.78919 72.2592 9.60532 70.957 11.0501C69.6548 12.495 68.8379 13.5604 68.2636 14.7631C67.6894 15.9658 67.3416 17.2896 67.2364 18.581C67.1313 19.8725 67.2769 21.1236 67.5519 22.0841C67.8269 23.0447 68.2232 23.7227 68.7651 24.1828C69.2989 24.6429 69.9702 24.885 70.5849 24.8931C71.1996 24.9012 71.7496 24.6832 72.0731 24.3281C72.3886 23.9729 72.4694 23.4967 72.3481 23.1738C72.243 22.8994 72.0003 22.746 71.7577 22.6411H71.7496Z" fill="#3374BA"/>
<path fill-rule="evenodd" clip-rule="evenodd" d="M68.7246 20.4375C68.7408 20.2922 68.7651 20.1389 68.7974 19.9855C68.9188 19.4447 69.1857 18.9523 69.5496 18.5326L69.5658 18.5084C69.7599 18.2904 69.9702 18.0967 70.2048 17.9192C72.4533 12.6483 75.5995 10.2914 80.234 7.39367C79.2554 7.03852 78.2767 6.7883 77.2738 6.62686C76.5863 7.11924 75.7532 7.8134 74.8312 8.669C73.3996 10.0008 71.7415 11.7282 70.6253 13.1407C69.5092 14.5533 68.9268 15.6429 68.6518 16.7972C68.3849 17.9514 68.4254 19.1703 68.6276 20.0824C68.6518 20.2034 68.6842 20.3245 68.7166 20.4375H68.7246Z" fill="#225CAB"/>
<path fill-rule="evenodd" clip-rule="evenodd" d="M62.4564 19.0573C62.8608 15.312 64.9313 11.5022 67.4063 8.782L67.4225 8.76585L70.0673 6.29592C66.6217 6.2152 63.8961 5.75512 60.6851 4.21342C58.3557 3.09146 56.5035 1.73541 54.6433 0.0242146H53.4058C52.597 0.395512 51.8852 0.912109 51.2301 1.55784L51.2139 1.57398C50.3485 2.42958 49.847 3.34168 49.936 4.57665C50.0007 5.49682 50.3727 6.40085 50.3485 7.31295C50.3485 7.4421 50.3323 7.56317 50.3161 7.69232C50.2838 7.87797 50.2272 8.04747 50.1382 8.20891C49.8147 8.782 49.0786 9.20172 48.5772 9.62145C47.8412 10.2349 47.4287 10.9049 47.2507 11.8573C46.8059 14.2223 49.0059 16.3129 47.7684 18.7505C47.2426 19.7837 45.6008 20.938 44.6787 21.6806C43.9831 22.2375 43.1339 22.9478 42.592 23.7227C44.0721 23.2868 45.9971 23.1415 47.3963 23.4644C49.0625 23.8438 50.7286 25.1272 52.2411 25.9343C54.433 27.1047 56.4065 27.4437 58.7197 26.2249C60.7093 25.1756 62.0439 22.9236 61.413 20.6716C61.0652 19.4366 60.1836 18.5407 59.0189 18.0402C57.7329 17.4914 56.2528 17.6528 55.1366 18.5084C52.6859 20.381 54.9344 23.5693 56.8028 22.3505L56.8271 22.3344C57.1506 22.1084 57.3204 21.6967 57.4741 21.3496L57.4903 21.3254C57.9109 20.4294 59.3101 21.0025 58.93 21.9873C58.6226 22.6895 58.3476 23.2303 57.7006 23.6662L57.6763 23.6823C56.8918 24.1989 55.9778 24.3684 55.0719 24.094C53.8021 23.7066 52.8477 22.5523 52.5565 21.277C52.1926 19.6707 52.8962 18.2339 54.1742 17.2573C56.916 15.1667 60.8954 16.2241 62.4725 19.0815L62.4564 19.0573Z" fill="#5DBDEB"/>
<path fill-rule="evenodd" clip-rule="evenodd" d="M62.4564 19.0573C62.8608 15.312 64.9313 11.5022 67.4063 8.782L67.4225 8.76585L70.0673 6.29592C66.6218 6.2152 63.8961 5.75511 60.6851 4.21342C59.0028 3.40625 57.5712 2.47801 56.2043 1.37219C55.8807 1.46905 55.5411 1.61434 55.2094 1.79192C54.4653 2.21164 53.7859 2.83316 53.3411 3.54347C52.8962 4.25378 52.6859 5.03673 52.5646 5.81161C52.4514 6.5865 52.4352 7.36138 52.2573 8.06362C52.0793 8.76586 51.7396 9.40352 51.2382 10.0089C50.7448 10.6143 50.0978 11.1793 49.7095 11.8654C49.3213 12.5595 49.1919 13.3748 49.2566 14.3192C49.3213 15.2636 49.5882 16.321 49.5882 17.2653C49.5882 18.2097 49.3213 19.0411 48.7794 19.8079C48.2375 20.5747 47.4287 21.2689 47.3882 21.6725C47.3559 22.0761 48.0919 22.1971 48.9412 22.5765C49.7904 22.964 50.7529 23.6097 51.7963 24.1505C52.8396 24.6832 53.9558 25.111 54.9749 25.2079C55.994 25.3128 56.8999 25.103 57.6035 24.6267C58.3072 24.1586 58.8006 23.424 58.9623 22.8106C59.0675 22.407 59.0432 22.0519 58.9381 21.8258C58.93 21.8662 58.9138 21.9066 58.8976 21.9469C58.5903 22.6492 58.3153 23.19 57.6682 23.6258L57.644 23.642C56.8594 24.1586 55.9455 24.3281 55.0396 24.0536C53.7698 23.6662 52.8154 22.5119 52.5242 21.2366C52.1602 19.6303 52.8639 18.1936 54.1418 17.2169C56.8837 15.1263 60.863 16.1837 62.4402 19.0411L62.4564 19.0573Z" fill="#3D82C4"/>
<path fill-rule="evenodd" clip-rule="evenodd" d="M62.4564 19.0573C62.8608 15.312 64.9314 11.5022 67.4063 8.78199L67.4225 8.76585L70.0673 6.29591C66.6218 6.2152 63.8961 5.75511 60.6851 4.21342C59.9572 3.86633 59.2778 3.49504 58.6307 3.09145C58.2668 3.14795 57.919 3.22866 57.5874 3.32552C56.6896 3.58382 55.9698 3.93898 55.4683 4.46364C54.9668 4.9883 54.6918 5.68246 54.5139 6.57035C54.336 7.45823 54.2712 8.54792 53.7617 9.45195C53.2521 10.3479 52.3058 11.0582 51.7316 11.8331C51.1654 12.608 50.9794 13.4555 50.8985 14.4725C50.8257 15.4976 50.8662 16.6922 50.6963 17.7739C50.5265 18.8555 50.1544 19.8079 49.7985 20.4133C49.4426 21.0106 49.111 21.2608 49.2404 21.4303C49.3699 21.6079 49.9765 21.7128 50.5588 21.9631C51.1411 22.2133 51.7073 22.6007 52.2978 22.9236C52.8801 23.2465 53.4867 23.5047 54.1499 23.6339C53.3411 23.085 52.7588 22.1971 52.5404 21.2528C52.1764 19.6465 52.8801 18.2097 54.158 17.2331C56.8999 15.1425 60.8792 16.1999 62.4564 19.0573Z" fill="#3374BA"/>
<path fill-rule="evenodd" clip-rule="evenodd" d="M62.4564 19.0573C62.8608 15.312 64.9313 11.5022 67.4063 8.78201L67.4225 8.76586L70.0673 6.29593C66.6298 6.21521 63.9041 5.75512 60.7012 4.2215C60.6608 4.2215 60.6123 4.22957 60.5718 4.23764C59.4638 4.37486 58.5013 4.90759 57.7733 5.42418C57.0454 5.94077 56.552 6.43315 56.269 6.99009C55.9859 7.54704 55.9212 8.16049 55.7918 8.83044C55.6624 9.50039 55.4601 10.2268 55.0315 10.8322C54.5947 11.4376 53.9234 11.93 53.4462 12.4223C52.9609 12.9147 52.6698 13.4152 52.5565 14.0932C52.4433 14.7712 52.5161 15.6349 52.4028 16.5954C52.2977 17.564 52.0065 18.6295 51.7558 19.3398C51.5051 20.0501 51.3029 20.4052 51.4646 20.8007C51.6264 21.2043 52.1602 21.6483 52.6778 22.1003C52.783 22.1972 52.8962 22.2859 52.9933 22.3747C52.7911 22.0276 52.6374 21.6483 52.5484 21.2528C52.1845 19.6465 52.8881 18.2097 54.1661 17.2331C56.9079 15.1425 60.8873 16.1999 62.4645 19.0573H62.4564Z" fill="#225CAB"/>
<path fill-rule="evenodd" clip-rule="evenodd" d="M131.998 10.3883C131.869 13.7461 130.38 16.9021 127.38 18.5972C127.258 19.8483 126.433 20.4859 125.43 21.1478C124.565 21.7209 123.691 20.4133 124.549 19.8321C125.18 19.4124 125.875 19.025 125.802 18.1613C125.778 17.8465 125.657 17.5559 125.447 17.3138C124.856 16.668 123.797 16.6357 123.012 16.894C121.888 17.2734 121.16 18.2097 120.933 19.3559C120.812 19.9451 120.853 20.5344 121.095 21.0913C122.042 23.2788 125.39 23.9648 127.509 23.8922C128.577 23.8599 129.669 23.6581 130.655 23.2545C133.51 22.0761 135.702 19.3075 136.641 16.4178L137.304 13.3344C135.565 11.6394 134.368 10.8241 131.99 10.3802L131.998 10.3883Z" fill="#5DBDEB"/>
<path fill-rule="evenodd" clip-rule="evenodd" d="M131.998 10.3882C131.869 13.7461 130.38 16.9021 127.38 18.5972C127.258 19.8483 126.433 20.4859 125.43 21.1478C124.565 21.7209 123.691 20.4133 124.549 19.8321C124.824 19.6545 125.107 19.477 125.333 19.2671C125.172 19.4043 125.026 19.5012 124.889 19.5819C124.533 19.7918 124.152 19.8886 123.821 19.9855C123.489 20.0904 123.198 20.1873 123.19 20.5424C123.182 20.8976 123.449 21.503 123.95 21.9227C124.452 22.3344 125.196 22.5523 126.11 22.5846C127.032 22.6169 128.132 22.4716 129.297 22.0841C130.461 21.6967 131.683 21.0752 132.58 20.381C133.478 19.6868 134.044 18.92 134.57 17.9676C135.096 17.0151 135.573 15.8851 135.88 14.8277C136.147 13.9237 136.285 13.0681 136.349 12.4546C135.063 11.3407 133.915 10.7434 131.99 10.3802L131.998 10.3882Z" fill="#3D82C4"/>
<path fill-rule="evenodd" clip-rule="evenodd" d="M131.998 10.3883C131.869 13.7461 130.38 16.9021 127.38 18.5972C127.258 19.8483 126.433 20.486 125.43 21.1478C125.317 21.2205 125.204 21.2689 125.099 21.285C125.277 21.4303 125.633 21.5595 126.086 21.616C126.652 21.6886 127.355 21.6402 128.269 21.3254C129.183 21.0106 130.299 20.4294 131.23 19.7514C132.16 19.0734 132.896 18.3066 133.518 17.3218C134.141 16.3371 134.643 15.1425 134.918 14.069C135.168 13.0842 135.225 12.1963 135.039 11.4779C134.19 10.9614 133.268 10.6304 132.014 10.3963L131.998 10.3883Z" fill="#3374BA"/>
<path fill-rule="evenodd" clip-rule="evenodd" d="M131.998 10.3883C131.869 13.7461 130.38 16.9021 127.38 18.5972C127.274 19.6949 126.627 20.3164 125.802 20.8976C126.247 20.8492 126.959 20.6635 127.752 20.3407C128.73 19.9451 129.814 19.3317 130.752 18.46C131.691 17.5882 132.475 16.4662 132.977 15.2716C133.486 14.0851 133.713 12.834 133.672 11.4537C133.672 11.2439 133.656 11.0259 133.632 10.808C133.146 10.6385 132.613 10.4932 131.998 10.3802V10.3883Z" fill="#225CAB"/>
</g>
<defs>
<clipPath id="clip0_91_2">
<rect width="141" height="118" fill="white" transform="matrix(1 0 0 -1 0 118)"/>
</clipPath>
</defs>
</svg>
