<svg width="43" height="42" viewBox="0 0 43 42" fill="none" xmlns="http://www.w3.org/2000/svg">
<path d="M5.48749 17.0625C5.48749 14.8879 7.25037 13.125 9.42499 13.125H33.05C35.2246 13.125 36.9875 14.8879 36.9875 17.0625V22.3125H5.48749L5.48749 17.0625Z" fill="url(#paint0_linear_53_7)"/>
<path d="M6.79999 5.25C6.79999 3.80025 7.97524 2.625 9.42499 2.625H30.425C31.8747 2.625 33.05 3.80025 33.05 5.25V32.8125C33.05 34.2622 31.8747 35.4375 30.425 35.4375H9.42499C7.97524 35.4375 6.79999 34.2622 6.79999 32.8125V5.25Z" fill="url(#paint1_linear_53_7)"/>
<path d="M12.05 9.1875C12.05 7.73775 13.2252 6.5625 14.675 6.5625H33.05C34.4997 6.5625 35.675 7.73775 35.675 9.1875V32.8125C35.675 34.2622 34.4997 35.4375 33.05 35.4375H14.675C13.2252 35.4375 12.05 34.2622 12.05 32.8125V9.1875Z" fill="url(#paint2_linear_53_7)"/>
<path d="M8.11249 13.125C8.11249 11.6753 9.28774 10.5 10.7375 10.5H31.7375C33.1872 10.5 34.3625 11.6753 34.3625 13.125V32.8125C34.3625 34.2622 33.1872 35.4375 31.7375 35.4375H10.7375C9.28774 35.4375 8.11249 34.2622 8.11249 32.8125V13.125Z" fill="url(#paint3_linear_53_7)"/>
<path d="M19.925 15.0938C19.925 14.7313 19.6312 14.4375 19.2687 14.4375H12.7062C12.3438 14.4375 12.05 14.7313 12.05 15.0938C12.05 15.4562 12.3438 15.75 12.7062 15.75H19.2687C19.6312 15.75 19.925 15.4562 19.925 15.0938Z" fill="url(#paint4_linear_53_7)"/>
<path d="M17.3 17.7188C17.3 17.3563 17.0062 17.0625 16.6437 17.0625H12.7062C12.3438 17.0625 12.05 17.3563 12.05 17.7188C12.05 18.0812 12.3438 18.375 12.7062 18.375H16.6437C17.0062 18.375 17.3 18.0812 17.3 17.7188Z" fill="url(#paint5_linear_53_7)"/>
<path d="M5.48749 22.3125C5.48749 21.5876 6.07511 21 6.79999 21H35.675C36.3999 21 36.9875 21.5876 36.9875 22.3125V35.4375C36.9875 37.6121 35.2246 39.375 33.05 39.375H9.42499C7.25037 39.375 5.48749 37.6121 5.48749 35.4375V22.3125Z" fill="url(#paint6_linear_53_7)"/>
<path d="M14.675 28.875C14.675 28.1501 15.2626 27.5625 15.9875 27.5625H26.4875C27.2124 27.5625 27.8 28.1501 27.8 28.875C27.8 29.5999 27.2124 30.1875 26.4875 30.1875H15.9875C15.2626 30.1875 14.675 29.5999 14.675 28.875Z" fill="url(#paint7_linear_53_7)"/>
<defs>
<linearGradient id="paint0_linear_53_7" x1="36.9875" y1="22.3125" x2="32.0483" y2="5.3781" gradientUnits="userSpaceOnUse">
<stop stop-color="#2E2E41"/>
<stop offset="1" stop-color="#566C80"/>
</linearGradient>
<linearGradient id="paint1_linear_53_7" x1="33.05" y1="35.4375" x2="1.03779" y2="9.82774" gradientUnits="userSpaceOnUse">
<stop stop-color="#5200FF"/>
<stop offset="0.906064" stop-color="#0085FF"/>
</linearGradient>
<linearGradient id="paint2_linear_53_7" x1="35.675" y1="35.4375" x2="7.37177" y2="12.2803" gradientUnits="userSpaceOnUse">
<stop offset="0.377885" stop-color="#FF7E07"/>
<stop offset="1" stop-color="#FFE607"/>
</linearGradient>
<linearGradient id="paint3_linear_53_7" x1="34.3625" y1="35.4375" x2="9.45776" y2="9.22199" gradientUnits="userSpaceOnUse">
<stop offset="0.295664" stop-color="#71706E"/>
<stop offset="1" stop-color="#B9AA99"/>
</linearGradient>
<linearGradient id="paint4_linear_53_7" x1="14.5109" y1="14.4375" x2="14.5109" y2="15.75" gradientUnits="userSpaceOnUse">
<stop stop-color="white"/>
<stop offset="0.705" stop-color="#E6E6E6"/>
</linearGradient>
<linearGradient id="paint5_linear_53_7" x1="13.6906" y1="17.0625" x2="13.6906" y2="18.375" gradientUnits="userSpaceOnUse">
<stop stop-color="white"/>
<stop offset="0.705" stop-color="#E6E6E6"/>
</linearGradient>
<linearGradient id="paint6_linear_53_7" x1="36.9875" y1="39.375" x2="20.9927" y2="11.9553" gradientUnits="userSpaceOnUse">
<stop offset="0.126759" stop-color="#2E2E41"/>
<stop offset="0.877369" stop-color="#566C80"/>
</linearGradient>
<linearGradient id="paint7_linear_53_7" x1="26.944" y1="30.1875" x2="26.944" y2="27.5625" gradientUnits="userSpaceOnUse">
<stop offset="0.340681" stop-color="#2E2E41"/>
<stop offset="1" stop-color="#566C80"/>
</linearGradient>
</defs>
</svg>
