<svg width="44" height="44" viewBox="0 0 44 44" fill="none" xmlns="http://www.w3.org/2000/svg">
<path d="M41.25 22C41.25 32.6315 32.6315 41.25 22 41.25C11.3685 41.25 2.75 32.6315 2.75 22C2.75 11.3685 11.3685 2.75 22 2.75C32.6315 2.75 41.25 11.3685 41.25 22Z" fill="url(#paint0_linear_497_31)"/>
<path d="M35.7942 22C36.5611 22 37.1893 22.6169 37.1197 23.3731C36.889 25.88 36.029 28.298 34.6087 30.403C32.9303 32.8903 30.5449 34.8289 27.7539 35.9737C24.9629 37.1184 21.8919 37.418 18.929 36.8344C16.4215 36.3405 14.0868 35.2328 12.1336 33.6218C11.5443 33.1358 11.5481 32.2597 12.0903 31.7227L14.9868 28.8545C15.529 28.3175 16.4029 28.3286 17.027 28.7699C17.992 29.4523 19.0966 29.9278 20.2699 30.1589C21.8995 30.4799 23.5886 30.3151 25.1236 29.6855C26.6586 29.0559 27.9706 27.9897 28.8937 26.6216C29.5584 25.6366 29.9999 24.527 30.195 23.3688C30.3212 22.6197 30.9312 22 31.698 22H35.7942Z" fill="url(#paint1_radial_497_31)"/>
<path d="M25.1454 8.62174C25.3399 7.84643 26.1229 7.37084 26.8699 7.63683C29.0187 8.402 30.9835 9.63027 32.6247 11.2428C34.2658 12.8552 35.5355 14.805 36.3518 16.9531C36.6355 17.6998 36.1862 18.5032 35.424 18.7208L31.3529 19.8829C30.5907 20.1004 29.8086 19.6454 29.4707 18.922C29.029 17.9766 28.4217 17.115 27.6742 16.3805C26.9267 15.6461 26.0571 15.0566 25.1091 14.6367C24.3838 14.3153 23.912 13.5384 24.1065 12.763L25.1454 8.62174Z" fill="url(#paint2_radial_497_31)"/>
<path d="M10.074 28.6933C9.41671 29.0699 8.57136 28.8462 8.25476 28.1595C7.34398 26.1841 6.87094 24.0301 6.87503 21.8451C6.87996 19.2028 7.5825 16.6084 8.91202 14.3225C10.2415 12.0366 12.1512 10.14 14.4491 8.82306C16.3492 7.73411 18.4594 7.07334 20.6316 6.87999C21.3867 6.81278 22.0014 7.43305 22 8.18882L21.9925 12.2257C21.991 12.9815 21.3712 13.5815 20.6232 13.7044C19.6456 13.8652 18.7009 14.1996 17.8355 14.6956C16.5717 15.4199 15.5213 16.4631 14.7901 17.7203C14.0589 18.9775 13.6725 20.4045 13.6698 21.8578C13.6679 22.8529 13.846 23.8364 14.1917 24.7621C14.4563 25.4704 14.2418 26.3047 13.5846 26.6813L10.074 28.6933Z" fill="url(#paint3_radial_497_31)"/>
<defs>
<linearGradient id="paint0_linear_497_31" x1="2.75" y1="2.75" x2="47.4375" y2="46.0625" gradientUnits="userSpaceOnUse">
<stop offset="0.404924" stop-color="#EFF2F6"/>
<stop offset="1" stop-color="#B7C6CD"/>
</linearGradient>
<radialGradient id="paint1_radial_497_31" cx="0" cy="0" r="1" gradientUnits="userSpaceOnUse" gradientTransform="translate(21.9088 22) rotate(44.7192) scale(21.4956 21.4945)">
<stop offset="0.420978" stop-color="#F15700"/>
<stop offset="0.792773" stop-color="#FF0000"/>
</radialGradient>
<radialGradient id="paint2_radial_497_31" cx="0" cy="0" r="1" gradientUnits="userSpaceOnUse" gradientTransform="translate(35.6063 8.17828) rotate(134.721) scale(16.3049 13.2963)">
<stop stop-color="#FFE607"/>
<stop offset="0.903378" stop-color="#FF7E07"/>
</radialGradient>
<radialGradient id="paint3_radial_497_31" cx="0" cy="0" r="1" gradientUnits="userSpaceOnUse" gradientTransform="translate(22.6608 21.8732) rotate(-161.992) scale(16.5989 16.5575)">
<stop offset="0.440692" stop-color="#001AFF"/>
<stop offset="1" stop-color="#0085FF"/>
</radialGradient>
</defs>
</svg>
