<svg width="47" height="45" viewBox="0 0 47 45" fill="none" xmlns="http://www.w3.org/2000/svg">
<path d="M8.09375 5.90625C8.09375 4.09407 9.56282 2.625 11.375 2.625H29.75C31.5622 2.625 33.0312 4.09407 33.0312 5.90625V33.4688C33.0312 35.2809 31.5622 36.75 29.75 36.75H11.375C9.56282 36.75 8.09375 35.2809 8.09375 33.4688V5.90625Z" fill="url(#paint0_linear_378_2)"/>
<path d="M14.6562 5.90625C14.6562 4.09407 16.1253 2.625 17.9375 2.625H36.3125C38.1247 2.625 39.5938 4.09407 39.5938 5.90625V33.4688C39.5938 35.2809 38.1247 36.75 36.3125 36.75H17.9375C16.1253 36.75 14.6562 35.2809 14.6562 33.4688V5.90625Z" fill="url(#paint1_linear_378_2)"/>
<path d="M17.2812 6.5625C17.2812 5.83763 17.8689 5.25 18.5938 5.25H35.6562C36.3811 5.25 36.9688 5.83763 36.9688 6.5625V14.4375C36.9688 15.1624 36.3811 15.75 35.6562 15.75H18.5937C17.8689 15.75 17.2812 15.1624 17.2812 14.4375V6.5625Z" fill="url(#paint2_linear_378_2)"/>
<path d="M27.7812 8.53125C27.7812 8.16881 27.4874 7.875 27.125 7.875H20.5625C20.2001 7.875 19.9062 8.16881 19.9062 8.53125C19.9062 8.89369 20.2001 9.1875 20.5625 9.1875H27.125C27.4874 9.1875 27.7812 8.89369 27.7812 8.53125Z" fill="url(#paint3_linear_378_2)"/>
<path d="M25.1562 11.1562C25.1562 10.7938 24.8624 10.5 24.5 10.5H20.5625C20.2001 10.5 19.9062 10.7938 19.9062 11.1562C19.9062 11.5187 20.2001 11.8125 20.5625 11.8125H24.5C24.8624 11.8125 25.1562 11.5187 25.1562 11.1562Z" fill="url(#paint4_linear_378_2)"/>
<path d="M5.46875 36.75V17.0625C5.46875 15.6128 6.644 14.4375 8.09375 14.4375H14.0001C14.4309 14.4375 14.8551 14.5435 15.2352 14.7462L40.8288 29.0492C41.6843 29.5053 42.2188 30.3959 42.2188 31.3655V36.75C42.2188 38.1997 41.0435 39.375 39.5938 39.375H8.09375C6.644 39.375 5.46875 38.1997 5.46875 36.75Z" fill="url(#paint5_linear_378_2)"/>
<path d="M8.60602 45C4.22583 45 0.674988 41.4183 0.674988 37C0.674988 32.5817 4.22583 29 8.60602 29H42.7095C44.8996 29 46.675 30.7909 46.675 33V41C46.675 43.2091 44.8996 45 42.7095 45H8.60602Z" fill="url(#paint6_linear_378_2)"/>
<path d="M12.4562 36.0303C12.9217 36.2288 13.2717 36.4925 13.506 36.8213C13.7437 37.1501 13.8625 37.5391 13.8625 37.9883C13.8625 38.6458 13.6525 39.1764 13.2326 39.5801C12.8159 39.9805 12.2626 40.1807 11.5724 40.1807C11.0093 40.1807 10.5373 40.0374 10.1564 39.751C9.77557 39.4613 9.51841 39.0511 9.38495 38.5205L10.1564 38.1396C10.2606 38.5726 10.4315 38.9014 10.6691 39.126C10.91 39.3473 11.2111 39.458 11.5724 39.458C11.9989 39.458 12.3439 39.3359 12.6076 39.0918C12.8713 38.8444 13.0031 38.5238 13.0031 38.1299C13.0031 37.8109 12.9103 37.5342 12.7248 37.2998C12.5425 37.0622 12.2658 36.862 11.8947 36.6992L11.0256 36.3281C10.5503 36.1296 10.1955 35.874 9.96112 35.5615C9.73 35.249 9.61444 34.8747 9.61444 34.4385C9.61444 33.9307 9.80324 33.5107 10.1808 33.1787C10.5585 32.8467 11.0402 32.6807 11.6262 32.6807C12.0558 32.6807 12.4269 32.7718 12.7394 32.9541C13.0552 33.1364 13.301 33.4049 13.4767 33.7598L12.7736 34.209C12.6141 33.9323 12.4351 33.7272 12.2365 33.5938C12.0379 33.457 11.8133 33.3887 11.5627 33.3887C11.2437 33.3887 10.9816 33.4863 10.7766 33.6816C10.5747 33.877 10.4738 34.126 10.4738 34.4287C10.4738 34.6826 10.5519 34.9023 10.7082 35.0879C10.8644 35.2734 11.107 35.4378 11.4357 35.5811L12.4562 36.0303ZM18.091 37.2607C18.065 36.8669 17.9331 36.5641 17.6955 36.3525C17.4611 36.1377 17.1389 36.0303 16.7287 36.0303C16.3576 36.0303 16.0484 36.1426 15.801 36.3672C15.5536 36.5885 15.4103 36.8864 15.3713 37.2607H18.091ZM18.9113 37.8809H15.3713V37.9492C15.3713 38.4277 15.508 38.8151 15.7814 39.1113C16.0549 39.4043 16.4113 39.5508 16.8508 39.5508C17.1502 39.5508 17.4204 39.471 17.6613 39.3115C17.9022 39.1488 18.1154 38.9046 18.301 38.5791L18.882 38.9697C18.6574 39.3734 18.371 39.6777 18.0226 39.8828C17.6743 40.0879 17.2707 40.1904 16.8117 40.1904C16.1314 40.1904 15.5812 39.9658 15.1613 39.5166C14.7414 39.0674 14.5314 38.4782 14.5314 37.749C14.5314 37.0492 14.7398 36.4762 15.1564 36.0303C15.5731 35.5843 16.1086 35.3613 16.7629 35.3613C17.4237 35.3613 17.9461 35.5729 18.3303 35.9961C18.7176 36.4193 18.9113 36.9971 18.9113 37.7295V37.8809ZM23.4865 37.7783C23.4865 37.277 23.3498 36.8734 23.0764 36.5674C22.8029 36.2614 22.4432 36.1084 21.9973 36.1084C21.5383 36.1084 21.1802 36.25 20.923 36.5332C20.6659 36.8164 20.5373 37.2119 20.5373 37.7197C20.5373 38.2601 20.6659 38.6768 20.923 38.9697C21.1835 39.2627 21.5513 39.4092 22.0266 39.4092C22.4823 39.4092 22.8387 39.266 23.0959 38.9795C23.3563 38.6898 23.4865 38.2894 23.4865 37.7783ZM24.2287 35.5322V39.9219C24.2287 40.4069 24.1961 40.752 24.131 40.957C24.0659 41.1621 23.9585 41.346 23.8088 41.5088C23.6004 41.7334 23.3449 41.901 23.0422 42.0117C22.7427 42.1224 22.3976 42.1777 22.007 42.1777C21.3299 42.1777 20.801 42.0231 20.4201 41.7139C20.0425 41.4046 19.8456 40.9668 19.8293 40.4004H20.6887V40.459C20.6887 40.7943 20.8042 41.0531 21.0353 41.2354C21.2665 41.4176 21.5936 41.5088 22.0168 41.5088C22.3228 41.5088 22.5832 41.4583 22.798 41.3574C23.0161 41.2598 23.1821 41.1133 23.2961 40.918C23.3644 40.8073 23.4133 40.6787 23.4426 40.5322C23.4719 40.3857 23.4865 40.1758 23.4865 39.9023V39.5508V39.1504C23.314 39.4694 23.0877 39.7152 22.8078 39.8877C22.5279 40.057 22.2137 40.1416 21.8654 40.1416C21.2241 40.1416 20.7066 39.9235 20.3127 39.4873C19.9221 39.0511 19.7267 38.4717 19.7267 37.749C19.7267 37.0199 19.9172 36.4421 20.298 36.0156C20.6789 35.5859 21.1883 35.3711 21.8264 35.3711C22.1974 35.3711 22.523 35.4557 22.8029 35.625C23.0829 35.791 23.3042 36.0368 23.467 36.3623V35.5322H24.2287ZM28.9504 37.2607C28.9243 36.8669 28.7925 36.5641 28.5549 36.3525C28.3205 36.1377 27.9982 36.0303 27.5881 36.0303C27.217 36.0303 26.9077 36.1426 26.6603 36.3672C26.4129 36.5885 26.2697 36.8864 26.2307 37.2607H28.9504ZM29.7707 37.8809H26.2307V37.9492C26.2307 38.4277 26.3674 38.8151 26.6408 39.1113C26.9142 39.4043 27.2707 39.5508 27.7101 39.5508C28.0096 39.5508 28.2798 39.471 28.5207 39.3115C28.7616 39.1488 28.9748 38.9046 29.1603 38.5791L29.7414 38.9697C29.5168 39.3734 29.2303 39.6777 28.882 39.8828C28.5337 40.0879 28.1301 40.1904 27.6711 40.1904C26.9907 40.1904 26.4406 39.9658 26.0207 39.5166C25.6008 39.0674 25.3908 38.4782 25.3908 37.749C25.3908 37.0492 25.5991 36.4762 26.0158 36.0303C26.4325 35.5843 26.968 35.3613 27.6223 35.3613C28.2831 35.3613 28.8055 35.5729 29.1896 35.9961C29.577 36.4193 29.7707 36.9971 29.7707 37.7295V37.8809ZM30.9377 40V35.5322H31.6164V36.46C31.8215 36.0726 32.0396 35.7959 32.2707 35.6299C32.5018 35.4639 32.7834 35.3809 33.1154 35.3809C33.2066 35.3809 33.2945 35.389 33.3791 35.4053C33.4637 35.4183 33.5484 35.4395 33.633 35.4688L33.3791 36.1572C33.2912 36.1279 33.2082 36.1068 33.1301 36.0938C33.0519 36.0775 32.9771 36.0693 32.9055 36.0693C32.5018 36.0693 32.1991 36.2158 31.9973 36.5088C31.7954 36.7985 31.6945 37.2363 31.6945 37.8223V40H30.9377ZM37.8615 37.8076C37.8615 37.3031 37.7232 36.8978 37.4465 36.5918C37.173 36.2826 36.815 36.1279 36.3723 36.1279C35.9133 36.1279 35.5552 36.2695 35.298 36.5527C35.0409 36.8359 34.9123 37.2314 34.9123 37.7393C34.9123 38.2796 35.0409 38.6963 35.298 38.9893C35.5585 39.2822 35.9263 39.4287 36.4016 39.4287C36.8573 39.4287 37.2137 39.2871 37.4709 39.0039C37.7313 38.7174 37.8615 38.3187 37.8615 37.8076ZM38.6037 35.5322V40H37.8615V39.1895C37.6825 39.515 37.453 39.764 37.173 39.9365C36.8963 40.1058 36.5855 40.1904 36.2404 40.1904C35.5991 40.1904 35.0816 39.9707 34.6877 39.5312C34.2971 39.0885 34.1017 38.5042 34.1017 37.7783C34.1017 37.0426 34.2922 36.4583 34.673 36.0254C35.0539 35.5892 35.5633 35.3711 36.2014 35.3711C36.5757 35.3711 36.8996 35.4557 37.173 35.625C37.4497 35.791 37.6727 36.04 37.842 36.3721V35.5322H38.6037Z" fill="white"/>
<defs>
<linearGradient id="paint0_linear_378_2" x1="33.0312" y1="36.75" x2="0.518714" y2="12.9908" gradientUnits="userSpaceOnUse">
<stop offset="0.636456" stop-color="#71706E"/>
<stop offset="1" stop-color="#B9AA99"/>
</linearGradient>
<linearGradient id="paint1_linear_378_2" x1="39.5938" y1="36.75" x2="7.08121" y2="12.9908" gradientUnits="userSpaceOnUse">
<stop offset="0.544933" stop-color="#FF7E07"/>
<stop offset="1" stop-color="#FFE607"/>
</linearGradient>
<linearGradient id="paint2_linear_378_2" x1="17.2813" y1="5.25" x2="26.001" y2="21.5995" gradientUnits="userSpaceOnUse">
<stop stop-color="white"/>
<stop offset="0.705" stop-color="#EAEFEF"/>
</linearGradient>
<linearGradient id="paint3_linear_378_2" x1="21.875" y1="9.51563" x2="21.875" y2="7.54687" gradientUnits="userSpaceOnUse">
<stop offset="0.155999" stop-color="#71706E"/>
<stop offset="0.796276" stop-color="#B9AA99"/>
</linearGradient>
<linearGradient id="paint4_linear_378_2" x1="21.2188" y1="12.1406" x2="21.2188" y2="10.1719" gradientUnits="userSpaceOnUse">
<stop offset="0.155999" stop-color="#71706E"/>
<stop offset="0.796276" stop-color="#B9AA99"/>
</linearGradient>
<linearGradient id="paint5_linear_378_2" x1="42.2187" y1="39.375" x2="19.0454" y2="5.22478" gradientUnits="userSpaceOnUse">
<stop offset="0.207424" stop-color="#2E2E41"/>
<stop offset="1" stop-color="#566C80"/>
</linearGradient>
<linearGradient id="paint6_linear_378_2" x1="29.6233" y1="45" x2="29.6233" y2="29" gradientUnits="userSpaceOnUse">
<stop stop-color="#5200FF"/>
<stop offset="1" stop-color="#0085FF"/>
</linearGradient>
</defs>
</svg>
