<svg width="47" height="48" viewBox="0 0 47 48" fill="none" xmlns="http://www.w3.org/2000/svg">
<g filter="url(#filter0_d_413_186)">
<path d="M4.59259 7.64739C4.59259 3.78139 7.7266 0.647381 11.5926 0.647381H21.8575V18.7386H4.59259V7.64739Z" fill="url(#paint0_linear_413_186)"/>
</g>
<g filter="url(#filter1_d_413_186)">
<path d="M4.59259 21.7386H21.8575V39.8298H11.5926C7.7266 39.8298 4.59259 36.6958 4.59259 32.8298V21.7386Z" fill="url(#paint1_linear_413_186)"/>
</g>
<g filter="url(#filter2_d_413_186)">
<path d="M24.8575 0.647381H35.1225C38.9885 0.647381 42.1225 3.78139 42.1225 7.64738V18.7386H24.8575V0.647381Z" fill="url(#paint2_linear_413_186)"/>
</g>
<g filter="url(#filter3_d_413_186)">
<path d="M24.8575 21.7386H42.1225V32.8298C42.1225 36.6958 38.9885 39.8298 35.1225 39.8298H24.8575V21.7386Z" fill="url(#paint3_linear_413_186)"/>
</g>
<path d="M8.60163 43.1781C4.22144 43.1781 0.670593 39.5964 0.670593 35.1781C0.670593 30.7598 4.22144 27.1781 8.60163 27.1781H42.7051C44.8952 27.1781 46.6706 28.969 46.6706 31.1781V39.1781C46.6706 41.3873 44.8952 43.1781 42.7051 43.1781H8.60163Z" fill="url(#paint4_linear_413_186)"/>
<path d="M12.4518 34.2084C12.9173 34.4069 13.2673 34.6706 13.5016 34.9994C13.7393 35.3282 13.8581 35.7172 13.8581 36.1664C13.8581 36.8239 13.6481 37.3545 13.2282 37.7582C12.8115 38.1586 12.2582 38.3588 11.5681 38.3588C11.0049 38.3588 10.5329 38.2155 10.152 37.9291C9.77118 37.6394 9.51402 37.2292 9.38055 36.6986L10.152 36.3178C10.2562 36.7507 10.4271 37.0795 10.6647 37.3041C10.9056 37.5254 11.2067 37.6361 11.5681 37.6361C11.9945 37.6361 12.3395 37.514 12.6032 37.2699C12.8669 37.0225 12.9987 36.7019 12.9987 36.308C12.9987 35.989 12.9059 35.7123 12.7204 35.4779C12.5381 35.2403 12.2614 35.0401 11.8903 34.8773L11.0212 34.5062C10.5459 34.3077 10.1911 34.0521 9.95673 33.7396C9.72561 33.4271 9.61005 33.0528 9.61005 32.6166C9.61005 32.1088 9.79885 31.6889 10.1765 31.3568C10.5541 31.0248 11.0358 30.8588 11.6218 30.8588C12.0515 30.8588 12.4225 30.9499 12.735 31.1322C13.0508 31.3145 13.2966 31.5831 13.4724 31.9379L12.7692 32.3871C12.6097 32.1104 12.4307 31.9053 12.2321 31.7719C12.0335 31.6351 11.8089 31.5668 11.5583 31.5668C11.2393 31.5668 10.9772 31.6644 10.7722 31.8597C10.5703 32.0551 10.4694 32.3041 10.4694 32.6068C10.4694 32.8607 10.5475 33.0805 10.7038 33.266C10.86 33.4515 11.1026 33.6159 11.4313 33.7592L12.4518 34.2084ZM18.0866 35.4389C18.0606 35.045 17.9287 34.7422 17.6911 34.5306C17.4567 34.3158 17.1345 34.2084 16.7243 34.2084C16.3532 34.2084 16.044 34.3207 15.7966 34.5453C15.5492 34.7666 15.4059 35.0645 15.3669 35.4389H18.0866ZM18.9069 36.059H15.3669V36.1273C15.3669 36.6058 15.5036 36.9932 15.777 37.2894C16.0505 37.5824 16.4069 37.7289 16.8464 37.7289C17.1459 37.7289 17.416 37.6491 17.6569 37.4896C17.8978 37.3269 18.111 37.0827 18.2966 36.7572L18.8776 37.1478C18.653 37.5515 18.3666 37.8558 18.0182 38.0609C17.6699 38.266 17.2663 38.3685 16.8073 38.3685C16.127 38.3685 15.5768 38.1439 15.1569 37.6947C14.737 37.2455 14.527 36.6563 14.527 35.9271C14.527 35.2273 14.7354 34.6543 15.152 34.2084C15.5687 33.7624 16.1042 33.5394 16.7585 33.5394C17.4193 33.5394 17.9418 33.751 18.3259 34.1742C18.7132 34.5974 18.9069 35.1752 18.9069 35.9076V36.059ZM23.4821 35.9564C23.4821 35.4551 23.3454 35.0515 23.072 34.7455C22.7985 34.4395 22.4388 34.2865 21.9929 34.2865C21.5339 34.2865 21.1758 34.4281 20.9186 34.7113C20.6615 34.9945 20.5329 35.39 20.5329 35.8978C20.5329 36.4382 20.6615 36.8549 20.9186 37.1478C21.1791 37.4408 21.5469 37.5873 22.0222 37.5873C22.4779 37.5873 22.8343 37.4441 23.0915 37.1576C23.3519 36.8679 23.4821 36.4675 23.4821 35.9564ZM24.2243 33.7103V38.1C24.2243 38.585 24.1918 38.9301 24.1266 39.1351C24.0615 39.3402 23.9541 39.5241 23.8044 39.6869C23.596 39.9115 23.3405 40.0791 23.0378 40.1898C22.7383 40.3005 22.3932 40.3558 22.0026 40.3558C21.3255 40.3558 20.7966 40.2012 20.4157 39.892C20.0381 39.5827 19.8412 39.1449 19.8249 38.5785H20.6843V38.6371C20.6843 38.9724 20.7998 39.2312 21.0309 39.4135C21.2621 39.5958 21.5892 39.6869 22.0124 39.6869C22.3184 39.6869 22.5788 39.6364 22.7936 39.5355C23.0117 39.4379 23.1778 39.2914 23.2917 39.0961C23.36 38.9854 23.4089 38.8568 23.4382 38.7103C23.4675 38.5639 23.4821 38.3539 23.4821 38.0805V37.7289V37.3285C23.3096 37.6475 23.0834 37.8933 22.8034 38.0658C22.5235 38.2351 22.2093 38.3197 21.861 38.3197C21.2197 38.3197 20.7022 38.1016 20.3083 37.6654C19.9177 37.2292 19.7224 36.6498 19.7224 35.9271C19.7224 35.198 19.9128 34.6202 20.2936 34.1937C20.6745 33.764 21.1839 33.5492 21.822 33.5492C22.1931 33.5492 22.5186 33.6338 22.7985 33.8031C23.0785 33.9691 23.2998 34.2149 23.4626 34.5404V33.7103H24.2243ZM28.946 35.4389C28.9199 35.045 28.7881 34.7422 28.5505 34.5306C28.3161 34.3158 27.9938 34.2084 27.5837 34.2084C27.2126 34.2084 26.9033 34.3207 26.6559 34.5453C26.4085 34.7666 26.2653 35.0645 26.2263 35.4389H28.946ZM29.7663 36.059H26.2263V36.1273C26.2263 36.6058 26.363 36.9932 26.6364 37.2894C26.9099 37.5824 27.2663 37.7289 27.7057 37.7289C28.0052 37.7289 28.2754 37.6491 28.5163 37.4896C28.7572 37.3269 28.9704 37.0827 29.1559 36.7572L29.737 37.1478C29.5124 37.5515 29.2259 37.8558 28.8776 38.0609C28.5293 38.266 28.1257 38.3685 27.6667 38.3685C26.9863 38.3685 26.4362 38.1439 26.0163 37.6947C25.5964 37.2455 25.3864 36.6563 25.3864 35.9271C25.3864 35.2273 25.5947 34.6543 26.0114 34.2084C26.4281 33.7624 26.9636 33.5394 27.6179 33.5394C28.2787 33.5394 28.8011 33.751 29.1852 34.1742C29.5726 34.5974 29.7663 35.1752 29.7663 35.9076V36.059ZM30.9333 38.1781V33.7103H31.612V34.6381C31.8171 34.2507 32.0352 33.974 32.2663 33.808C32.4974 33.642 32.779 33.559 33.111 33.559C33.2022 33.559 33.2901 33.5671 33.3747 33.5834C33.4593 33.5964 33.544 33.6176 33.6286 33.6469L33.3747 34.3353C33.2868 34.306 33.2038 34.2849 33.1257 34.2719C33.0475 34.2556 32.9727 34.2474 32.9011 34.2474C32.4974 34.2474 32.1947 34.3939 31.9929 34.6869C31.791 34.9766 31.6901 35.4144 31.6901 36.0004V38.1781H30.9333ZM37.8571 35.9857C37.8571 35.4812 37.7188 35.0759 37.4421 34.7699C37.1686 34.4607 36.8106 34.306 36.3679 34.306C35.9089 34.306 35.5508 34.4476 35.2936 34.7308C35.0365 35.014 34.9079 35.4096 34.9079 35.9174C34.9079 36.4577 35.0365 36.8744 35.2936 37.1674C35.5541 37.4603 35.9219 37.6068 36.3972 37.6068C36.8529 37.6068 37.2093 37.4652 37.4665 37.182C37.7269 36.8956 37.8571 36.4968 37.8571 35.9857ZM38.5993 33.7103V38.1781H37.8571V37.3676C37.6781 37.6931 37.4486 37.9421 37.1686 38.1146C36.8919 38.2839 36.5811 38.3685 36.236 38.3685C35.5947 38.3685 35.0772 38.1488 34.6833 37.7094C34.2927 37.2666 34.0974 36.6823 34.0974 35.9564C34.0974 35.2208 34.2878 34.6364 34.6686 34.2035C35.0495 33.7673 35.5589 33.5492 36.197 33.5492C36.5713 33.5492 36.8952 33.6338 37.1686 33.8031C37.4453 33.9691 37.6683 34.2181 37.8376 34.5502V33.7103H38.5993Z" fill="white"/>
<defs>
<filter id="filter0_d_413_186" x="0.59259" y="0.647381" width="25.265" height="26.0912" filterUnits="userSpaceOnUse" color-interpolation-filters="sRGB">
<feFlood flood-opacity="0" result="BackgroundImageFix"/>
<feColorMatrix in="SourceAlpha" type="matrix" values="0 0 0 0 0 0 0 0 0 0 0 0 0 0 0 0 0 0 127 0" result="hardAlpha"/>
<feOffset dy="4"/>
<feGaussianBlur stdDeviation="2"/>
<feComposite in2="hardAlpha" operator="out"/>
<feColorMatrix type="matrix" values="0 0 0 0 0 0 0 0 0 0 0 0 0 0 0 0 0 0 0.25 0"/>
<feBlend mode="normal" in2="BackgroundImageFix" result="effect1_dropShadow_413_186"/>
<feBlend mode="normal" in="SourceGraphic" in2="effect1_dropShadow_413_186" result="shape"/>
</filter>
<filter id="filter1_d_413_186" x="0.59259" y="21.7386" width="25.265" height="26.0912" filterUnits="userSpaceOnUse" color-interpolation-filters="sRGB">
<feFlood flood-opacity="0" result="BackgroundImageFix"/>
<feColorMatrix in="SourceAlpha" type="matrix" values="0 0 0 0 0 0 0 0 0 0 0 0 0 0 0 0 0 0 127 0" result="hardAlpha"/>
<feOffset dy="4"/>
<feGaussianBlur stdDeviation="2"/>
<feComposite in2="hardAlpha" operator="out"/>
<feColorMatrix type="matrix" values="0 0 0 0 0 0 0 0 0 0 0 0 0 0 0 0 0 0 0.25 0"/>
<feBlend mode="normal" in2="BackgroundImageFix" result="effect1_dropShadow_413_186"/>
<feBlend mode="normal" in="SourceGraphic" in2="effect1_dropShadow_413_186" result="shape"/>
</filter>
<filter id="filter2_d_413_186" x="20.8575" y="0.647381" width="25.265" height="26.0912" filterUnits="userSpaceOnUse" color-interpolation-filters="sRGB">
<feFlood flood-opacity="0" result="BackgroundImageFix"/>
<feColorMatrix in="SourceAlpha" type="matrix" values="0 0 0 0 0 0 0 0 0 0 0 0 0 0 0 0 0 0 127 0" result="hardAlpha"/>
<feOffset dy="4"/>
<feGaussianBlur stdDeviation="2"/>
<feComposite in2="hardAlpha" operator="out"/>
<feColorMatrix type="matrix" values="0 0 0 0 0 0 0 0 0 0 0 0 0 0 0 0 0 0 0.25 0"/>
<feBlend mode="normal" in2="BackgroundImageFix" result="effect1_dropShadow_413_186"/>
<feBlend mode="normal" in="SourceGraphic" in2="effect1_dropShadow_413_186" result="shape"/>
</filter>
<filter id="filter3_d_413_186" x="20.8575" y="21.7386" width="25.265" height="26.0912" filterUnits="userSpaceOnUse" color-interpolation-filters="sRGB">
<feFlood flood-opacity="0" result="BackgroundImageFix"/>
<feColorMatrix in="SourceAlpha" type="matrix" values="0 0 0 0 0 0 0 0 0 0 0 0 0 0 0 0 0 0 127 0" result="hardAlpha"/>
<feOffset dy="4"/>
<feGaussianBlur stdDeviation="2"/>
<feComposite in2="hardAlpha" operator="out"/>
<feColorMatrix type="matrix" values="0 0 0 0 0 0 0 0 0 0 0 0 0 0 0 0 0 0 0.25 0"/>
<feBlend mode="normal" in2="BackgroundImageFix" result="effect1_dropShadow_413_186"/>
<feBlend mode="normal" in="SourceGraphic" in2="effect1_dropShadow_413_186" result="shape"/>
</filter>
<linearGradient id="paint0_linear_413_186" x1="7.11039" y1="2.53188" x2="22.5808" y2="18.0159" gradientUnits="userSpaceOnUse">
<stop offset="0.27" stop-color="#FF7E07"/>
<stop offset="1" stop-color="#FFE607"/>
</linearGradient>
<linearGradient id="paint1_linear_413_186" x1="11.7863" y1="34.1763" x2="22.4088" y2="22.2287" gradientUnits="userSpaceOnUse">
<stop stop-color="#089953"/>
<stop offset="1" stop-color="#16D96F"/>
</linearGradient>
<linearGradient id="paint2_linear_413_186" x1="39.6047" y1="2.15498" x2="24.1176" y2="18.0161" gradientUnits="userSpaceOnUse">
<stop stop-color="#5200FF"/>
<stop offset="1" stop-color="#0085FF"/>
</linearGradient>
<linearGradient id="paint3_linear_413_186" x1="24.8575" y1="21.7386" x2="39.9515" y2="36.8634" gradientUnits="userSpaceOnUse">
<stop stop-color="#F15700"/>
<stop offset="1" stop-color="#FF0000"/>
</linearGradient>
<linearGradient id="paint4_linear_413_186" x1="29.6189" y1="43.1781" x2="29.6189" y2="27.1781" gradientUnits="userSpaceOnUse">
<stop stop-color="#5200FF"/>
<stop offset="1" stop-color="#0085FF"/>
</linearGradient>
</defs>
</svg>
