<svg width="45" height="62" viewBox="0 0 45 62" fill="none" xmlns="http://www.w3.org/2000/svg">
<path d="M32.9115 0.0183134C33.4241 0.265544 34.0191 0.128194 34.55 0.375425C34.5408 0.421208 34.5408 0.476148 34.5134 0.512775C31.2546 3.86413 29.1401 7.90223 27.529 12.2242C25.799 16.8666 24.8104 21.6739 24.4717 26.6094C24.4076 27.5342 24.3801 28.459 24.3252 29.3747C24.2886 30.0248 23.9957 30.3911 23.4922 30.4277C22.9888 30.4735 22.6318 30.1622 22.4945 29.5212C21.4692 24.6773 21.0482 19.7968 21.4784 14.8522C21.7439 11.7297 22.348 8.68055 23.2542 5.67715C24.2245 2.46315 26.4581 0.778319 29.671 0.210604C29.9731 0.155664 30.3026 0.210604 30.5681 0H31.2089C31.6025 0.091567 31.9869 0.091567 32.3805 0H32.9115V0.0183134Z" fill="#005890"/>
<path d="M6.48452 8.48825C6.8049 9.60537 7.10697 10.7133 7.42736 11.8121C11.7296 26.2248 18.2563 39.502 27.4925 51.4057C29.8541 54.4549 32.408 57.3484 35.145 60.0679C35.2549 60.1778 35.3739 60.2877 35.4837 60.4067C35.8407 60.8188 35.8499 61.3224 35.4929 61.707C35.1633 62.0732 34.7056 62.1007 34.2571 61.7711C32.3257 60.3426 30.4583 58.8409 28.6184 57.3026C20.5997 50.5999 13.3407 43.1647 7.00628 34.8412C5.41352 32.7443 3.93976 30.5742 2.47516 28.3858C-0.911741 23.3129 -0.710358 18.231 2.39277 13.1307C3.43631 11.4276 5.24876 9.38561 6.47536 8.4791L6.48452 8.48825Z" fill="#192A55"/>
<path d="M19.7117 2.49063C19.4279 4.70655 19.1808 6.84006 19.0801 8.99189C18.5126 20.7766 20.8468 31.9752 25.9363 42.6061C25.9912 42.716 26.0461 42.8259 26.1011 42.9449C26.3116 43.4485 26.1926 43.9155 25.7807 44.1628C25.3688 44.4191 24.9202 44.3184 24.5724 43.8606C22.9888 41.7546 21.5516 39.5569 20.206 37.2952C16.096 30.3545 13.2491 22.9467 11.8852 14.9804C11.6015 13.3505 11.2902 11.7297 11.574 10.0541C11.9951 7.55429 13.2858 5.64969 15.4552 4.34944C16.7733 3.56196 18.2013 3.03088 19.7209 2.49063H19.7117Z" fill="#224189"/>
<path d="M45.0036 1.86797C43.1912 3.15906 41.4794 4.47762 39.8409 5.89691C35.0718 10.0449 31.218 14.8796 28.8472 20.804C28.5726 21.4908 28.0783 21.738 27.465 21.5274C26.8608 21.3259 26.6137 20.7949 26.7968 20.0532C28.1515 14.6965 30.5681 9.84345 33.8543 5.42076C34.6507 4.34943 35.4471 3.28725 36.4906 2.43568C39.0445 0.366267 42.3399 0.457834 45.0036 1.86797Z" fill="#027592"/>
</svg>
