<svg width="47" height="39" viewBox="0 0 47 39" fill="none" xmlns="http://www.w3.org/2000/svg">
<path d="M6.71252 3.5625C6.71252 2.90666 7.24419 2.375 7.90002 2.375H12.65C13.3059 2.375 13.8375 2.90666 13.8375 3.5625V27.3125H35.2125C36.1963 27.3125 36.9938 28.11 36.9938 29.0938C36.9938 30.0775 36.1963 30.875 35.2125 30.875H13.2438C11.6042 30.875 10.275 29.5458 10.275 27.9062V5.9375H7.90002C7.24419 5.9375 6.71252 5.40584 6.71252 4.75V3.5625Z" fill="url(#paint0_linear_411_28)"/>
<path d="M32.8375 5.53976C33.6573 4.11983 35.473 3.63333 36.8929 4.45313L37.9213 5.04688C39.3412 5.86667 39.8277 7.68233 39.0079 9.10226L30.6954 23.4999C29.8756 24.9199 28.06 25.4064 26.64 24.5866L25.6116 23.9928C24.1917 23.173 23.7052 21.3574 24.525 19.9374L32.8375 5.53976Z" fill="url(#paint1_linear_411_28)"/>
<path d="M23.3375 5.34375C23.3375 3.70415 24.6667 2.375 26.3063 2.375H27.4938C29.1334 2.375 30.4625 3.70415 30.4625 5.34375V21.9688C30.4625 23.6083 29.1334 24.9375 27.4938 24.9375H26.3063C24.6667 24.9375 23.3375 23.6083 23.3375 21.9688V5.34375Z" fill="url(#paint2_linear_411_28)"/>
<path fill-rule="evenodd" clip-rule="evenodd" d="M10.275 5.9375H38.3794C39.5048 5.9375 40.3482 6.96818 40.1254 8.07131L36.7684 24.6963C36.6006 25.5274 35.8703 26.125 35.0224 26.125H10.275V5.9375ZM15.025 10.6875C15.025 10.0317 15.5567 9.5 16.2125 9.5H17.4C18.0559 9.5 18.5875 10.0317 18.5875 10.6875V11.875C18.5875 12.5308 18.0559 13.0625 17.4 13.0625H16.2125C15.5567 13.0625 15.025 12.5308 15.025 11.875V10.6875ZM16.2125 19C15.5567 19 15.025 19.5317 15.025 20.1875V21.375C15.025 22.0308 15.5567 22.5625 16.2125 22.5625H17.4C18.0559 22.5625 18.5875 22.0308 18.5875 21.375V20.1875C18.5875 19.5317 18.0559 19 17.4 19H16.2125ZM17.9938 15.4375C17.9938 14.7817 18.5254 14.25 19.1813 14.25H20.3688C21.0246 14.25 21.5563 14.7817 21.5563 15.4375V16.625C21.5563 17.2808 21.0246 17.8125 20.3688 17.8125H19.1813C18.5254 17.8125 17.9938 17.2808 17.9938 16.625V15.4375ZM25.1188 14.25C24.4629 14.25 23.9313 14.7817 23.9313 15.4375V16.625C23.9313 17.2808 24.4629 17.8125 25.1188 17.8125H26.3063C26.9621 17.8125 27.4938 17.2808 27.4938 16.625V15.4375C27.4938 14.7817 26.9621 14.25 26.3063 14.25H25.1188ZM29.8688 15.4375C29.8688 14.7817 30.4004 14.25 31.0563 14.25H32.2438C32.8996 14.25 33.4313 14.7817 33.4313 15.4375V16.625C33.4313 17.2808 32.8996 17.8125 32.2438 17.8125H31.0563C30.4004 17.8125 29.8688 17.2808 29.8688 16.625V15.4375ZM22.15 9.5C21.4942 9.5 20.9625 10.0317 20.9625 10.6875V11.875C20.9625 12.5308 21.4942 13.0625 22.15 13.0625H23.3375C23.9934 13.0625 24.525 12.5308 24.525 11.875V10.6875C24.525 10.0317 23.9934 9.5 23.3375 9.5H22.15ZM20.9625 20.1875C20.9625 19.5317 21.4942 19 22.15 19H23.3375C23.9934 19 24.525 19.5317 24.525 20.1875V21.375C24.525 22.0308 23.9934 22.5625 23.3375 22.5625H22.15C21.4942 22.5625 20.9625 22.0308 20.9625 21.375V20.1875ZM28.0875 9.5C27.4317 9.5 26.9 10.0317 26.9 10.6875V11.875C26.9 12.5308 27.4317 13.0625 28.0875 13.0625H29.275C29.9309 13.0625 30.4625 12.5308 30.4625 11.875V10.6875C30.4625 10.0317 29.9309 9.5 29.275 9.5H28.0875ZM26.9 20.1875C26.9 19.5317 27.4317 19 28.0875 19H29.275C29.9309 19 30.4625 19.5317 30.4625 20.1875V21.375C30.4625 22.0308 29.9309 22.5625 29.275 22.5625H28.0875C27.4317 22.5625 26.9 22.0308 26.9 21.375V20.1875ZM34.025 9.5C33.3692 9.5 32.8375 10.0317 32.8375 10.6875V11.875C32.8375 12.5308 33.3692 13.0625 34.025 13.0625H35.2125C35.8684 13.0625 36.4 12.5308 36.4 11.875V10.6875C36.4 10.0317 35.8684 9.5 35.2125 9.5H34.025Z" fill="url(#paint3_linear_411_28)"/>
<path d="M34.025 32.0625C34.025 34.03 32.43 35.625 30.4625 35.625C28.495 35.625 26.9 34.03 26.9 32.0625C26.9 30.095 28.495 28.5 30.4625 28.5C32.43 28.5 34.025 30.095 34.025 32.0625Z" fill="url(#paint4_linear_411_28)"/>
<path d="M31.65 32.0625C31.65 32.7183 31.1184 33.25 30.4625 33.25C29.8067 33.25 29.275 32.7183 29.275 32.0625C29.275 31.4067 29.8067 30.875 30.4625 30.875C31.1184 30.875 31.65 31.4067 31.65 32.0625Z" fill="url(#paint5_linear_411_28)"/>
<path d="M17.4 32.0625C17.4 34.03 15.805 35.625 13.8375 35.625C11.87 35.625 10.275 34.03 10.275 32.0625C10.275 30.095 11.87 28.5 13.8375 28.5C15.805 28.5 17.4 30.095 17.4 32.0625Z" fill="url(#paint6_linear_411_28)"/>
<path d="M15.025 32.0625C15.025 32.7183 14.4934 33.25 13.8375 33.25C13.1817 33.25 12.65 32.7183 12.65 32.0625C12.65 31.4067 13.1817 30.875 13.8375 30.875C14.4934 30.875 15.025 31.4067 15.025 32.0625Z" fill="url(#paint7_linear_411_28)"/>
<path d="M8.26856 39C3.88837 39 0.337524 35.4183 0.337524 31C0.337524 26.5817 3.88837 23 8.26856 23H42.372C44.5621 23 46.3375 24.7909 46.3375 27V35C46.3375 37.2091 44.5621 39 42.372 39H8.26856Z" fill="url(#paint8_linear_411_28)"/>
<path d="M12.1188 30.0303C12.5843 30.2288 12.9342 30.4925 13.1686 30.8213C13.4062 31.1501 13.525 31.5391 13.525 31.9883C13.525 32.6458 13.3151 33.1764 12.8951 33.5801C12.4785 33.9805 11.9251 34.1807 11.235 34.1807C10.6718 34.1807 10.1998 34.0374 9.81897 33.751C9.43811 33.4613 9.18095 33.0511 9.04749 32.5205L9.81897 32.1396C9.92314 32.5726 10.094 32.9014 10.3317 33.126C10.5726 33.3473 10.8737 33.458 11.235 33.458C11.6614 33.458 12.0065 33.3359 12.2701 33.0918C12.5338 32.8444 12.6656 32.5238 12.6656 32.1299C12.6656 31.8109 12.5729 31.5342 12.3873 31.2998C12.205 31.0622 11.9283 30.862 11.5573 30.6992L10.6881 30.3281C10.2128 30.1296 9.85803 29.874 9.62366 29.5615C9.39254 29.249 9.27698 28.8747 9.27698 28.4385C9.27698 27.9307 9.46578 27.5107 9.84338 27.1787C10.221 26.8467 10.7028 26.6807 11.2887 26.6807C11.7184 26.6807 12.0895 26.7718 12.402 26.9541C12.7177 27.1364 12.9635 27.4049 13.1393 27.7598L12.4362 28.209C12.2767 27.9323 12.0976 27.7272 11.899 27.5938C11.7005 27.457 11.4759 27.3887 11.2252 27.3887C10.9062 27.3887 10.6442 27.4863 10.4391 27.6816C10.2373 27.877 10.1364 28.126 10.1364 28.4287C10.1364 28.6826 10.2145 28.9023 10.3707 29.0879C10.527 29.2734 10.7695 29.4378 11.0983 29.5811L12.1188 30.0303ZM17.7535 31.2607C17.7275 30.8669 17.5957 30.5641 17.358 30.3525C17.1237 30.1377 16.8014 30.0303 16.3912 30.0303C16.0201 30.0303 15.7109 30.1426 15.4635 30.3672C15.2161 30.5885 15.0729 30.8864 15.0338 31.2607H17.7535ZM18.5739 31.8809H15.0338V31.9492C15.0338 32.4277 15.1705 32.8151 15.444 33.1113C15.7174 33.4043 16.0739 33.5508 16.5133 33.5508C16.8128 33.5508 17.083 33.471 17.3239 33.3115C17.5647 33.1488 17.778 32.9046 17.9635 32.5791L18.5446 32.9697C18.3199 33.3734 18.0335 33.6777 17.6852 33.8828C17.3369 34.0879 16.9332 34.1904 16.4742 34.1904C15.7939 34.1904 15.2438 33.9658 14.8239 33.5166C14.4039 33.0674 14.194 32.4782 14.194 31.749C14.194 31.0492 14.4023 30.4762 14.819 30.0303C15.2356 29.5843 15.7711 29.3613 16.4254 29.3613C17.0862 29.3613 17.6087 29.5729 17.9928 29.9961C18.3802 30.4193 18.5739 30.9971 18.5739 31.7295V31.8809ZM23.149 31.7783C23.149 31.277 23.0123 30.8734 22.7389 30.5674C22.4655 30.2614 22.1058 30.1084 21.6598 30.1084C21.2008 30.1084 20.8427 30.25 20.5856 30.5332C20.3284 30.8164 20.1998 31.2119 20.1998 31.7197C20.1998 32.2601 20.3284 32.6768 20.5856 32.9697C20.846 33.2627 21.2138 33.4092 21.6891 33.4092C22.1448 33.4092 22.5013 33.266 22.7584 32.9795C23.0188 32.6898 23.149 32.2894 23.149 31.7783ZM23.8912 29.5322V33.9219C23.8912 34.4069 23.8587 34.752 23.7936 34.957C23.7285 35.1621 23.6211 35.346 23.4713 35.5088C23.263 35.7334 23.0074 35.901 22.7047 36.0117C22.4052 36.1224 22.0602 36.1777 21.6696 36.1777C20.9925 36.1777 20.4635 36.0231 20.0826 35.7139C19.705 35.4046 19.5081 34.9668 19.4918 34.4004H20.3512V34.459C20.3512 34.7943 20.4668 35.0531 20.6979 35.2354C20.929 35.4176 21.2561 35.5088 21.6793 35.5088C21.9853 35.5088 22.2457 35.4583 22.4606 35.3574C22.6787 35.2598 22.8447 35.1133 22.9586 34.918C23.027 34.8073 23.0758 34.6787 23.1051 34.5322C23.1344 34.3857 23.149 34.1758 23.149 33.9023V33.5508V33.1504C22.9765 33.4694 22.7503 33.7152 22.4703 33.8877C22.1904 34.057 21.8763 34.1416 21.528 34.1416C20.8867 34.1416 20.3691 33.9235 19.9752 33.4873C19.5846 33.0511 19.3893 32.4717 19.3893 31.749C19.3893 31.0199 19.5797 30.4421 19.9606 30.0156C20.3414 29.5859 20.8509 29.3711 21.4889 29.3711C21.86 29.3711 22.1855 29.4557 22.4655 29.625C22.7454 29.791 22.9668 30.0368 23.1295 30.3623V29.5322H23.8912ZM28.6129 31.2607C28.5869 30.8669 28.455 30.5641 28.2174 30.3525C27.983 30.1377 27.6608 30.0303 27.2506 30.0303C26.8795 30.0303 26.5703 30.1426 26.3229 30.3672C26.0755 30.5885 25.9323 30.8864 25.8932 31.2607H28.6129ZM29.4332 31.8809H25.8932V31.9492C25.8932 32.4277 26.0299 32.8151 26.3033 33.1113C26.5768 33.4043 26.9332 33.5508 27.3727 33.5508C27.6722 33.5508 27.9423 33.471 28.1832 33.3115C28.4241 33.1488 28.6373 32.9046 28.8229 32.5791L29.4039 32.9697C29.1793 33.3734 28.8929 33.6777 28.5446 33.8828C28.1962 34.0879 27.7926 34.1904 27.3336 34.1904C26.6533 34.1904 26.1031 33.9658 25.6832 33.5166C25.2633 33.0674 25.0533 32.4782 25.0533 31.749C25.0533 31.0492 25.2617 30.4762 25.6783 30.0303C26.095 29.5843 26.6305 29.3613 27.2848 29.3613C27.9456 29.3613 28.4681 29.5729 28.8522 29.9961C29.2395 30.4193 29.4332 30.9971 29.4332 31.7295V31.8809ZM30.6002 34V29.5322H31.2789V30.46C31.484 30.0726 31.7021 29.7959 31.9332 29.6299C32.1643 29.4639 32.4459 29.3809 32.778 29.3809C32.8691 29.3809 32.957 29.389 33.0416 29.4053C33.1263 29.4183 33.2109 29.4395 33.2955 29.4688L33.0416 30.1572C32.9537 30.1279 32.8707 30.1068 32.7926 30.0938C32.7145 30.0775 32.6396 30.0693 32.568 30.0693C32.1643 30.0693 31.8616 30.2158 31.6598 30.5088C31.458 30.7985 31.3571 31.2363 31.3571 31.8223V34H30.6002ZM37.524 31.8076C37.524 31.3031 37.3857 30.8978 37.109 30.5918C36.8356 30.2826 36.4775 30.1279 36.0348 30.1279C35.5758 30.1279 35.2177 30.2695 34.9606 30.5527C34.7034 30.8359 34.5748 31.2314 34.5748 31.7393C34.5748 32.2796 34.7034 32.6963 34.9606 32.9893C35.221 33.2822 35.5888 33.4287 36.0641 33.4287C36.5198 33.4287 36.8763 33.2871 37.1334 33.0039C37.3938 32.7174 37.524 32.3187 37.524 31.8076ZM38.2662 29.5322V34H37.524V33.1895C37.345 33.515 37.1155 33.764 36.8356 33.9365C36.5589 34.1058 36.248 34.1904 35.903 34.1904C35.2617 34.1904 34.7441 33.9707 34.3502 33.5312C33.9596 33.0885 33.7643 32.5042 33.7643 31.7783C33.7643 31.0426 33.9547 30.4583 34.3356 30.0254C34.7164 29.5892 35.2259 29.3711 35.8639 29.3711C36.2382 29.3711 36.5621 29.4557 36.8356 29.625C37.1123 29.791 37.3352 30.04 37.5045 30.3721V29.5322H38.2662Z" fill="white"/>
<defs>
<linearGradient id="paint0_linear_411_28" x1="38.775" y1="17.2188" x2="6.11878" y2="17.2188" gradientUnits="userSpaceOnUse">
<stop offset="0.755673" stop-color="#2E2E41"/>
<stop offset="1" stop-color="#566C80"/>
</linearGradient>
<linearGradient id="paint1_linear_411_28" x1="34.3218" y1="2.96876" x2="43.4977" y2="12.9914" gradientUnits="userSpaceOnUse">
<stop offset="0.211991" stop-color="#F15700"/>
<stop offset="0.727675" stop-color="#FF0000"/>
</linearGradient>
<linearGradient id="paint2_linear_411_28" x1="30.4625" y1="24.9375" x2="17.5047" y2="20.8456" gradientUnits="userSpaceOnUse">
<stop offset="0.435168" stop-color="#FF7E07"/>
<stop offset="0.890828" stop-color="#FFE607"/>
</linearGradient>
<linearGradient id="paint3_linear_411_28" x1="39.9625" y1="16.0312" x2="9.68127" y2="16.0312" gradientUnits="userSpaceOnUse">
<stop offset="0.246877" stop-color="#2E2E41"/>
<stop offset="0.959876" stop-color="#566C80"/>
</linearGradient>
<linearGradient id="paint4_linear_411_28" x1="34.025" y1="35.625" x2="26.9" y2="28.5" gradientUnits="userSpaceOnUse">
<stop offset="0.248126" stop-color="#2E2E41"/>
<stop offset="0.840601" stop-color="#566C80"/>
</linearGradient>
<linearGradient id="paint5_linear_411_28" x1="29.275" y1="30.875" x2="31.65" y2="33.25" gradientUnits="userSpaceOnUse">
<stop stop-color="#EFF2F6"/>
<stop offset="1" stop-color="#B7C6CD"/>
</linearGradient>
<linearGradient id="paint6_linear_411_28" x1="17.4" y1="35.625" x2="10.275" y2="28.5" gradientUnits="userSpaceOnUse">
<stop offset="0.261793" stop-color="#2E2E41"/>
<stop offset="0.741099" stop-color="#566C80"/>
</linearGradient>
<linearGradient id="paint7_linear_411_28" x1="12.65" y1="30.875" x2="15.025" y2="33.25" gradientUnits="userSpaceOnUse">
<stop stop-color="#EFF2F6"/>
<stop offset="1" stop-color="#B7C6CD"/>
</linearGradient>
<linearGradient id="paint8_linear_411_28" x1="29.2858" y1="39" x2="29.2858" y2="23" gradientUnits="userSpaceOnUse">
<stop stop-color="#5200FF"/>
<stop offset="1" stop-color="#0085FF"/>
</linearGradient>
</defs>
</svg>
