<svg width="38" height="37" viewBox="0 0 38 37" fill="none" xmlns="http://www.w3.org/2000/svg">
<path d="M33.2897 22.5607C33.2842 22.5854 33.2771 22.6096 33.2711 22.6337C31.4763 29.3511 25.4118 34.3067 18.1858 34.3655V36.9636L13.5809 33.7259L13.5607 33.7116L11.392 32.1866L15.3135 29.4291L15.3211 29.4236L18.1863 27.4085V29.7621C23.2879 29.7033 27.5696 26.2051 28.8486 21.4644L31.4501 25.2148L33.2384 22.637L33.2897 22.5607Z" fill="url(#paint0_linear_488_27)"/>
<path style="mix-blend-mode:multiply" opacity="0.34" d="M23.8573 26.4293H37.5583V15.9334L23.8573 15.9334V26.4293Z" fill="url(#paint1_radial_488_27)"/>
<path d="M36.1953 18.3738L33.2897 22.5606L33.2384 22.6348L31.4502 25.2148L28.8508 21.4627L28.8273 21.4292L26.7067 18.3738H29.2072C29.1483 13.1534 25.562 8.78906 20.735 7.58011L20.7437 7.57406L24.7208 4.77754L22.6935 3.35263C29.0768 5.34245 33.7231 11.3075 33.7799 18.3738H36.1953Z" fill="url(#paint2_linear_488_27)"/>
<path d="M24.7181 4.77755L20.7409 7.57517L20.7322 7.58121L17.9249 9.55345V7.24546C12.8669 7.30645 8.61525 10.7454 7.29646 15.4251C7.29319 15.4361 7.28991 15.4476 7.28773 15.4586L7.26426 15.4251L4.74676 11.7983L2.77075 14.6459C4.47001 7.80322 10.5853 2.72124 17.891 2.64595H17.9238V0L22.6662 3.3356L22.6897 3.35264L24.7181 4.77755Z" fill="url(#paint3_linear_488_27)"/>
<path d="M13.5608 33.7116L13.5809 33.7259L13.5264 33.7099C7.05631 31.774 2.3259 25.7644 2.26749 18.636H0L2.72056 14.719L2.77078 14.6464L4.74678 11.7988L7.26428 15.4256L7.28775 15.4592L9.49247 18.6365H6.84124C6.90019 23.8465 10.4745 28.2064 15.2889 29.4236L15.313 29.4297L11.3921 32.1866L13.5608 33.7116Z" fill="url(#paint4_linear_488_27)"/>
<path d="M10.0529 16.4577C10.0529 15.8312 10.5676 15.3233 11.2026 15.3233H23.8502C24.4852 15.3233 25 15.8312 25 16.4577V22.1296C25 22.7561 24.4852 23.264 23.8502 23.264H11.2026C10.5676 23.264 10.0529 22.7561 10.0529 22.1296V16.4577Z" fill="url(#paint5_linear_488_27)"/>
<path d="M10.0529 14.5893C10.0529 13.9628 10.5676 13.455 11.2026 13.455H23.8502C24.4852 13.455 25 13.9628 25 14.5893V20.2612C25 20.8877 24.4852 21.3956 23.8502 21.3956H11.2026C10.5676 21.3956 10.0529 20.8877 10.0529 20.2612V14.5893Z" fill="url(#paint6_linear_488_27)"/>
<path fill-rule="evenodd" clip-rule="evenodd" d="M13.0423 15.5861C13.0423 16.0214 12.6659 16.3743 12.2015 16.3743V16.3743C12.0612 16.3743 11.9213 16.4742 11.9213 16.6145V18.2361C11.9213 18.3764 12.0612 18.4762 12.2015 18.4762V18.4762C12.6659 18.4762 13.0423 18.8291 13.0423 19.2645V19.2645C13.0423 19.3943 13.1332 19.5272 13.263 19.5272H21.7899C21.9197 19.5272 22.0106 19.3943 22.0106 19.2645V19.2645C22.0106 18.8291 22.387 18.4762 22.8513 18.4762V18.4762C22.9917 18.4762 23.1316 18.3764 23.1316 18.2361V16.6145C23.1316 16.4742 22.9917 16.3743 22.8513 16.3743V16.3743C22.387 16.3743 22.0106 16.0214 22.0106 15.5861V15.5861C22.0106 15.4563 21.9197 15.3233 21.7899 15.3233H13.263C13.1332 15.3233 13.0423 15.4563 13.0423 15.5861V15.5861ZM20.8895 17.9508C21.1991 17.9508 21.4501 17.7155 21.4501 17.4253C21.4501 17.1351 21.1991 16.8998 20.8895 16.8998C20.58 16.8998 20.329 17.1351 20.329 17.4253C20.329 17.7155 20.58 17.9508 20.8895 17.9508ZM14.7238 17.4253C14.7238 17.7155 14.4729 17.9508 14.1633 17.9508C13.8538 17.9508 13.6028 17.7155 13.6028 17.4253C13.6028 17.1351 13.8538 16.8998 14.1633 16.8998C14.4729 16.8998 14.7238 17.1351 14.7238 17.4253ZM17.5264 18.4762C18.1456 18.4762 18.6475 18.0057 18.6475 17.4253C18.6475 16.8448 18.1456 16.3743 17.5264 16.3743C16.9073 16.3743 16.4054 16.8448 16.4054 17.4253C16.4054 18.0057 16.9073 18.4762 17.5264 18.4762Z" fill="url(#paint7_linear_488_27)"/>
<path d="M19.0056 23.77C19.0056 23.4261 19.2697 23.1472 19.5956 23.1472H24.0207C24.3466 23.1472 24.6107 23.4261 24.6107 23.77V24.3928C24.6107 24.7368 24.3466 25.0156 24.0207 25.0156H19.5956C19.2697 25.0156 19.0056 24.7368 19.0056 24.3928V23.77Z" fill="url(#paint8_linear_488_27)"/>
<path d="M18.5385 22.213C18.5385 21.9551 18.8026 21.7459 19.1285 21.7459H23.5536C23.8795 21.7459 24.1436 21.9551 24.1436 22.213V22.6801C24.1436 22.9381 23.8795 23.1472 23.5536 23.1472H19.1285C18.8026 23.1472 18.5385 22.9381 18.5385 22.6801V22.213Z" fill="url(#paint9_linear_488_27)"/>
<path d="M19.0056 20.5003C19.0056 20.1564 19.2697 19.8775 19.5956 19.8775H24.0207C24.3466 19.8775 24.6107 20.1564 24.6107 20.5003V21.1231C24.6107 21.4671 24.3466 21.7459 24.0207 21.7459H19.5956C19.2697 21.7459 19.0056 21.4671 19.0056 21.1231V20.5003Z" fill="url(#paint10_linear_488_27)"/>
<path d="M14.0383 24.4325C13.8106 24.2048 13.8106 23.8356 14.0383 23.6078L17.1307 20.5154C17.3584 20.2877 17.7276 20.2877 17.9554 20.5154L18.3677 20.9277C18.5954 21.1555 18.5954 21.5247 18.3677 21.7524L15.2753 24.8448C15.0475 25.0725 14.6783 25.0725 14.4506 24.8448L14.0383 24.4325Z" fill="url(#paint11_linear_488_27)"/>
<defs>
<linearGradient id="paint0_linear_488_27" x1="12.6319" y1="32.1" x2="31.4854" y2="27.2053" gradientUnits="userSpaceOnUse">
<stop stop-color="#5200FF"/>
<stop offset="1" stop-color="#0085FF"/>
</linearGradient>
<radialGradient id="paint1_radial_488_27" cx="0" cy="0" r="1" gradientUnits="userSpaceOnUse" gradientTransform="translate(30.5509 21.0671) rotate(87.0073) scale(4.43729 2.91712)">
<stop/>
<stop offset="1" stop-opacity="0"/>
</radialGradient>
<linearGradient id="paint2_linear_488_27" x1="30.8273" y1="25.2041" x2="23.2473" y2="5.62764" gradientUnits="userSpaceOnUse">
<stop offset="0.27" stop-color="#FF7E07"/>
<stop offset="1" stop-color="#FFE607"/>
</linearGradient>
<linearGradient id="paint3_linear_488_27" x1="21.1945" y1="3.22317" x2="6.59576" y2="10.9004" gradientUnits="userSpaceOnUse">
<stop stop-color="#5200FF"/>
<stop offset="1" stop-color="#0085FF"/>
</linearGradient>
<linearGradient id="paint4_linear_488_27" x1="4.71166" y1="13.1361" x2="12.7221" y2="31.8459" gradientUnits="userSpaceOnUse">
<stop offset="0.27" stop-color="#FF7E07"/>
<stop offset="1" stop-color="#FFE607"/>
</linearGradient>
<linearGradient id="paint5_linear_488_27" x1="25" y1="23.264" x2="18.4201" y2="10.8783" gradientUnits="userSpaceOnUse">
<stop offset="0.339254" stop-color="#089953"/>
<stop offset="1" stop-color="#16D96F"/>
</linearGradient>
<linearGradient id="paint6_linear_488_27" x1="25" y1="20.8284" x2="18.1566" y2="8.83212" gradientUnits="userSpaceOnUse">
<stop offset="0.306913" stop-color="#089953"/>
<stop offset="1" stop-color="#16D96F"/>
</linearGradient>
<linearGradient id="paint7_linear_488_27" x1="11.9213" y1="15.3233" x2="14.6855" y2="22.6945" gradientUnits="userSpaceOnUse">
<stop stop-color="white"/>
<stop offset="0.705" stop-color="#EAEFEF"/>
</linearGradient>
<linearGradient id="paint8_linear_488_27" x1="22.2507" y1="25.0156" x2="22.2507" y2="23.1472" gradientUnits="userSpaceOnUse">
<stop offset="0.391484" stop-color="#FF7E07"/>
<stop offset="1" stop-color="#FFE607"/>
</linearGradient>
<linearGradient id="paint9_linear_488_27" x1="21.1935" y1="23.1472" x2="21.1935" y2="21.7459" gradientUnits="userSpaceOnUse">
<stop offset="0.411271" stop-color="#FF7E07"/>
<stop offset="1" stop-color="#FFE607"/>
</linearGradient>
<linearGradient id="paint10_linear_488_27" x1="22.2507" y1="21.7459" x2="22.2507" y2="19.8775" gradientUnits="userSpaceOnUse">
<stop offset="0.347219" stop-color="#FF7E07"/>
<stop offset="1" stop-color="#FFE607"/>
</linearGradient>
<linearGradient id="paint11_linear_488_27" x1="16.6873" y1="23.3102" x2="15.3438" y2="22.1051" gradientUnits="userSpaceOnUse">
<stop stop-color="#FF7E07"/>
<stop offset="1" stop-color="#FFE607"/>
</linearGradient>
</defs>
</svg>
