<svg width="47" height="44" viewBox="0 0 47 44" fill="none" xmlns="http://www.w3.org/2000/svg">
<path d="M38.7835 22.5607C38.778 22.5854 38.7709 22.6096 38.7649 22.6337C36.9701 29.3511 30.9057 34.3067 23.6796 34.3655V36.9636L19.0747 33.7259L19.0545 33.7116L16.8858 32.1866L20.8073 29.4291L20.8149 29.4236L23.6801 27.4085V29.7622C28.7817 29.7034 33.0634 26.2051 34.3424 21.4644L36.9439 25.2148L38.7322 22.637L38.7835 22.5607Z" fill="url(#paint0_linear_413_70)"/>
<path style="mix-blend-mode:multiply" opacity="0.34" d="M29.3511 26.4293H43.0521V15.9334L29.3511 15.9334V26.4293Z" fill="url(#paint1_radial_413_70)"/>
<path d="M41.6891 18.3738L38.7835 22.5607L38.7322 22.6348L36.944 25.2149L34.3446 21.4627L34.3211 21.4292L32.2005 18.3738H34.7011C34.6421 13.1534 31.0558 8.78907 26.2288 7.58012L26.2375 7.57407L30.2146 4.77755L28.1873 3.35264C34.5706 5.34246 39.2169 11.3075 39.2737 18.3738H41.6891Z" fill="url(#paint2_linear_413_70)"/>
<path d="M30.2119 4.77755L26.2348 7.57517L26.226 7.58121L23.4187 9.55345V7.24546C18.3607 7.30645 14.1091 10.7454 12.7903 15.4251C12.787 15.4361 12.7837 15.4476 12.7815 15.4586L12.7581 15.4251L10.2406 11.7983L8.26456 14.6459C9.96381 7.80322 16.0791 2.72124 23.3848 2.64595H23.4176V0L28.16 3.3356L28.1835 3.35264L30.2119 4.77755Z" fill="url(#paint3_linear_413_70)"/>
<path d="M19.0545 33.7116L19.0747 33.7259L19.0201 33.7099C12.5501 31.774 7.81968 25.7644 7.76127 18.636H5.49377L8.21433 14.719L8.26455 14.6464L10.2406 11.7988L12.7581 15.4257L12.7815 15.4592L14.9862 18.6365H12.335C12.394 23.8465 15.9682 28.2065 20.7827 29.4236L20.8067 29.4297L16.8858 32.1866L19.0545 33.7116Z" fill="url(#paint4_linear_413_70)"/>
<mask id="mask0_413_70" style="mask-type:luminance" maskUnits="userSpaceOnUse" x="8" y="18" width="37" height="24">
<path d="M8.64282 18.8953V41.5357H44.1236V18.8953H8.64282ZM38.766 22.6321C36.9701 29.3511 30.9056 34.3067 23.6796 34.3655V36.9636L19.0747 33.7259L19.0545 33.7116L16.8858 32.1866L20.8073 29.4291L20.8149 29.4236L23.6801 27.4085V29.7616C28.7817 29.7034 33.0634 26.2051 34.3424 21.4638L36.9434 25.2148L38.7322 22.637L38.7835 22.5629C38.778 22.5854 38.7709 22.6096 38.766 22.6321Z" fill="white"/>
</mask>
<g mask="url(#mask0_413_70)">
<path style="mix-blend-mode:multiply" opacity="0.34" d="M14.7008 30.3957L17.8011 35.3788L25.7585 30.3615L22.6582 25.3783L14.7008 30.3957Z" fill="url(#paint5_radial_413_70)"/>
<path style="mix-blend-mode:multiply" opacity="0.34" d="M18.7385 28.0947L14.7507 32.3907L21.6109 38.8444L25.5987 34.5484L18.7385 28.0947Z" fill="url(#paint6_radial_413_70)"/>
<path style="mix-blend-mode:multiply" opacity="0.34" d="M15.6451 24.5818V38.3748H26.071V24.5818H15.6451Z" fill="url(#paint7_radial_413_70)"/>
<path style="mix-blend-mode:multiply" opacity="0.23" d="M23.7232 36.8911V27.3844L14.9895 32.2004L23.7232 36.8911Z" fill="url(#paint8_linear_413_70)"/>
</g>
<mask id="mask1_413_70" style="mask-type:luminance" maskUnits="userSpaceOnUse" x="0" y="3" width="24" height="37">
<path d="M23.3657 3.51969H0.876373V39.2387H23.3657V3.51969ZM19.6523 33.8424C12.9797 32.0372 8.05714 25.9292 7.99873 18.6574H5.41791L8.63465 14.0216L8.64885 14.0013L10.1631 11.818L12.9022 15.7631L12.9076 15.7708L14.912 18.6574H12.5719C12.6298 23.7932 16.1047 28.1037 20.8144 29.3912L17.0905 32.0102L19.6512 33.811L19.7249 33.8627C19.7003 33.8572 19.6763 33.8501 19.6523 33.8424Z" fill="white"/>
</mask>
<g mask="url(#mask1_413_70)">
<path style="mix-blend-mode:multiply" opacity="0.34" d="M12.0323 9.61336L7.08234 12.7344L12.0662 20.7452L17.0162 17.6242L12.0323 9.61336Z" fill="url(#paint9_radial_413_70)"/>
<path style="mix-blend-mode:multiply" opacity="0.34" d="M14.3188 13.6773L10.0513 9.66275L3.64065 16.569L7.90808 20.5836L14.3188 13.6773Z" fill="url(#paint10_radial_413_70)"/>
<path style="mix-blend-mode:multiply" opacity="0.34" d="M17.8078 10.5635H4.10678V21.0594H17.8078V10.5635Z" fill="url(#paint11_radial_413_70)"/>
<path style="mix-blend-mode:multiply" opacity="0.23" d="M5.58063 18.6964H15.024L10.2401 9.90404L5.58063 18.6964Z" fill="url(#paint12_linear_413_70)"/>
</g>
<path d="M8.56458 43.9641C4.18439 43.9641 0.633545 40.3823 0.633545 35.9641C0.633545 31.5458 4.18439 27.9641 8.56458 27.9641H42.668C44.8581 27.9641 46.6335 29.7549 46.6335 31.9641V39.9641C46.6335 42.1732 44.8581 43.9641 42.668 43.9641H8.56458Z" fill="url(#paint13_linear_413_70)"/>
<path d="M12.4148 34.9943C12.8803 35.1929 13.2302 35.4566 13.4646 35.7853C13.7022 36.1141 13.821 36.5031 13.821 36.9523C13.821 37.6099 13.6111 38.1405 13.1912 38.5441C12.7745 38.9445 12.2211 39.1447 11.531 39.1447C10.9679 39.1447 10.4958 39.0015 10.115 38.715C9.73413 38.4253 9.47697 38.0152 9.34351 37.4846L10.115 37.1037C10.2192 37.5366 10.3901 37.8654 10.6277 38.09C10.8686 38.3114 11.1697 38.4221 11.531 38.4221C11.9574 38.4221 12.3025 38.3 12.5662 38.0559C12.8298 37.8085 12.9617 37.4878 12.9617 37.0939C12.9617 36.7749 12.8689 36.4982 12.6833 36.2639C12.5011 36.0262 12.2244 35.826 11.8533 35.6633L10.9841 35.2922C10.5089 35.0936 10.1541 34.8381 9.91968 34.5256C9.68856 34.2131 9.573 33.8387 9.573 33.4025C9.573 32.8947 9.7618 32.4748 10.1394 32.1428C10.517 31.8107 10.9988 31.6447 11.5847 31.6447C12.0144 31.6447 12.3855 31.7359 12.698 31.9182C13.0138 32.1005 13.2595 32.369 13.4353 32.7238L12.7322 33.173C12.5727 32.8963 12.3936 32.6913 12.1951 32.5578C11.9965 32.4211 11.7719 32.3527 11.5212 32.3527C11.2022 32.3527 10.9402 32.4504 10.7351 32.6457C10.5333 32.841 10.4324 33.09 10.4324 33.3928C10.4324 33.6467 10.5105 33.8664 10.6667 34.0519C10.823 34.2375 11.0655 34.4019 11.3943 34.5451L12.4148 34.9943ZM18.0496 36.2248C18.0235 35.8309 17.8917 35.5282 17.6541 35.3166C17.4197 35.1018 17.0974 34.9943 16.6873 34.9943C16.3162 34.9943 16.0069 35.1066 15.7595 35.3312C15.5121 35.5526 15.3689 35.8505 15.3298 36.2248H18.0496ZM18.8699 36.8449H15.3298V36.9133C15.3298 37.3918 15.4666 37.7792 15.74 38.0754C16.0134 38.3684 16.3699 38.5148 16.8093 38.5148C17.1088 38.5148 17.379 38.4351 17.6199 38.2756C17.8608 38.1128 18.074 37.8687 18.2595 37.5432L18.8406 37.9338C18.616 38.3374 18.3295 38.6418 17.9812 38.8469C17.6329 39.0519 17.2292 39.1545 16.7703 39.1545C16.0899 39.1545 15.5398 38.9299 15.1199 38.4807C14.7 38.0314 14.49 37.4422 14.49 36.7131C14.49 36.0132 14.6983 35.4403 15.115 34.9943C15.5317 34.5484 16.0671 34.3254 16.7214 34.3254C17.3822 34.3254 17.9047 34.537 18.2888 34.9602C18.6762 35.3833 18.8699 35.9611 18.8699 36.6936V36.8449ZM23.4451 36.7424C23.4451 36.2411 23.3083 35.8374 23.0349 35.5314C22.7615 35.2255 22.4018 35.0725 21.9558 35.0725C21.4968 35.0725 21.1388 35.2141 20.8816 35.4973C20.6244 35.7805 20.4958 36.176 20.4958 36.6838C20.4958 37.2241 20.6244 37.6408 20.8816 37.9338C21.142 38.2268 21.5098 38.3732 21.9851 38.3732C22.4408 38.3732 22.7973 38.23 23.0544 37.9436C23.3149 37.6538 23.4451 37.2534 23.4451 36.7424ZM24.1873 34.4963V38.8859C24.1873 39.371 24.1547 39.716 24.0896 39.9211C24.0245 40.1262 23.9171 40.3101 23.7673 40.4728C23.559 40.6975 23.3035 40.8651 23.0007 40.9758C22.7013 41.0865 22.3562 41.1418 21.9656 41.1418C21.2885 41.1418 20.7595 40.9872 20.3787 40.6779C20.0011 40.3687 19.8041 39.9309 19.7878 39.3644H20.6472V39.423C20.6472 39.7583 20.7628 40.0171 20.9939 40.1994C21.225 40.3817 21.5522 40.4728 21.9753 40.4728C22.2813 40.4728 22.5417 40.4224 22.7566 40.3215C22.9747 40.2238 23.1407 40.0773 23.2546 39.882C23.323 39.7713 23.3718 39.6428 23.4011 39.4963C23.4304 39.3498 23.4451 39.1398 23.4451 38.8664V38.5148V38.1144C23.2725 38.4335 23.0463 38.6792 22.7664 38.8518C22.4864 39.021 22.1723 39.1057 21.824 39.1057C21.1827 39.1057 20.6651 38.8876 20.2712 38.4514C19.8806 38.0152 19.6853 37.4357 19.6853 36.7131C19.6853 35.9839 19.8757 35.4061 20.2566 34.9797C20.6375 34.55 21.1469 34.3352 21.7849 34.3352C22.156 34.3352 22.4815 34.4198 22.7615 34.5891C23.0414 34.7551 23.2628 35.0008 23.4255 35.3264V34.4963H24.1873ZM28.9089 36.2248C28.8829 35.8309 28.7511 35.5282 28.5134 35.3166C28.2791 35.1018 27.9568 34.9943 27.5466 34.9943C27.1755 34.9943 26.8663 35.1066 26.6189 35.3312C26.3715 35.5526 26.2283 35.8505 26.1892 36.2248H28.9089ZM29.7292 36.8449H26.1892V36.9133C26.1892 37.3918 26.3259 37.7792 26.5994 38.0754C26.8728 38.3684 27.2292 38.5148 27.6687 38.5148C27.9682 38.5148 28.2384 38.4351 28.4792 38.2756C28.7201 38.1128 28.9333 37.8687 29.1189 37.5432L29.7 37.9338C29.4753 38.3374 29.1889 38.6418 28.8406 38.8469C28.4923 39.0519 28.0886 39.1545 27.6296 39.1545C26.9493 39.1545 26.3992 38.9299 25.9792 38.4807C25.5593 38.0314 25.3494 37.4422 25.3494 36.7131C25.3494 36.0132 25.5577 35.4403 25.9744 34.9943C26.391 34.5484 26.9265 34.3254 27.5808 34.3254C28.2416 34.3254 28.7641 34.537 29.1482 34.9602C29.5356 35.3833 29.7292 35.9611 29.7292 36.6936V36.8449ZM30.8962 38.9641V34.4963H31.575V35.424C31.78 35.0366 31.9981 34.76 32.2292 34.5939C32.4604 34.4279 32.7419 34.3449 33.074 34.3449C33.1651 34.3449 33.253 34.3531 33.3376 34.3693C33.4223 34.3824 33.5069 34.4035 33.5916 34.4328L33.3376 35.1213C33.2498 35.092 33.1667 35.0708 33.0886 35.0578C33.0105 35.0415 32.9356 35.0334 32.864 35.0334C32.4604 35.0334 32.1576 35.1799 31.9558 35.4728C31.754 35.7626 31.6531 36.2004 31.6531 36.7863V38.9641H30.8962ZM37.8201 36.7717C37.8201 36.2671 37.6817 35.8618 37.405 35.5559C37.1316 35.2466 36.7735 35.092 36.3308 35.092C35.8718 35.092 35.5138 35.2336 35.2566 35.5168C34.9994 35.8 34.8708 36.1955 34.8708 36.7033C34.8708 37.2437 34.9994 37.6603 35.2566 37.9533C35.517 38.2463 35.8848 38.3928 36.3601 38.3928C36.8158 38.3928 37.1723 38.2512 37.4294 37.968C37.6899 37.6815 37.8201 37.2827 37.8201 36.7717ZM38.5623 34.4963V38.9641H37.8201V38.1535C37.641 38.479 37.4115 38.7281 37.1316 38.9006C36.8549 39.0699 36.544 39.1545 36.199 39.1545C35.5577 39.1545 35.0401 38.9348 34.6462 38.4953C34.2556 38.0526 34.0603 37.4683 34.0603 36.7424C34.0603 36.0067 34.2507 35.4224 34.6316 34.9894C35.0125 34.5533 35.5219 34.3352 36.1599 34.3352C36.5343 34.3352 36.8582 34.4198 37.1316 34.5891C37.4083 34.7551 37.6313 35.0041 37.8005 35.3361V34.4963H38.5623Z" fill="white"/>
<defs>
<linearGradient id="paint0_linear_413_70" x1="18.1257" y1="32.1" x2="36.9792" y2="27.2053" gradientUnits="userSpaceOnUse">
<stop stop-color="#5200FF"/>
<stop offset="1" stop-color="#0085FF"/>
</linearGradient>
<radialGradient id="paint1_radial_413_70" cx="0" cy="0" r="1" gradientUnits="userSpaceOnUse" gradientTransform="translate(36.0447 21.0671) rotate(87.0073) scale(4.43729 2.91712)">
<stop/>
<stop offset="1" stop-opacity="0"/>
</radialGradient>
<linearGradient id="paint2_linear_413_70" x1="36.3211" y1="25.2041" x2="28.7411" y2="5.62764" gradientUnits="userSpaceOnUse">
<stop offset="0.27" stop-color="#FF7E07"/>
<stop offset="1" stop-color="#FFE607"/>
</linearGradient>
<linearGradient id="paint3_linear_413_70" x1="26.6883" y1="3.22317" x2="12.0896" y2="10.9004" gradientUnits="userSpaceOnUse">
<stop stop-color="#5200FF"/>
<stop offset="1" stop-color="#0085FF"/>
</linearGradient>
<linearGradient id="paint4_linear_413_70" x1="10.2054" y1="13.1361" x2="18.2159" y2="31.8459" gradientUnits="userSpaceOnUse">
<stop offset="0.27" stop-color="#FF7E07"/>
<stop offset="1" stop-color="#FFE607"/>
</linearGradient>
<radialGradient id="paint5_radial_413_70" cx="0" cy="0" r="1" gradientUnits="userSpaceOnUse" gradientTransform="translate(20.1746 30.2703) rotate(-121.888) scale(1.89554 3.38207)">
<stop/>
<stop offset="1" stop-opacity="0"/>
</radialGradient>
<radialGradient id="paint6_radial_413_70" cx="0" cy="0" r="1" gradientUnits="userSpaceOnUse" gradientTransform="translate(20.5425 33.0138) rotate(-47.1312) scale(2.42841 4.59902)">
<stop offset="0.03"/>
<stop offset="0.76" stop-opacity="0"/>
</radialGradient>
<radialGradient id="paint7_radial_413_70" cx="0" cy="0" r="1" gradientUnits="userSpaceOnUse" gradientTransform="translate(20.9535 31.382) rotate(176.967) scale(4.40786 2.93659)">
<stop/>
<stop offset="1" stop-opacity="0"/>
</radialGradient>
<linearGradient id="paint8_linear_413_70" x1="27.7806" y1="33.0148" x2="15.6997" y2="30.4383" gradientUnits="userSpaceOnUse">
<stop/>
<stop offset="1" stop-opacity="0"/>
</linearGradient>
<radialGradient id="paint9_radial_413_70" cx="0" cy="0" r="1" gradientUnits="userSpaceOnUse" gradientTransform="translate(12.0651 15.1883) rotate(-32.2327) scale(1.89001 3.39196)">
<stop/>
<stop offset="1" stop-opacity="0"/>
</radialGradient>
<radialGradient id="paint10_radial_413_70" cx="0" cy="0" r="1" gradientUnits="userSpaceOnUse" gradientTransform="translate(9.43557 15.4775) rotate(43.2513) scale(2.42732 4.6011)">
<stop offset="0.03"/>
<stop offset="0.76" stop-opacity="0"/>
</radialGradient>
<radialGradient id="paint11_radial_413_70" cx="0" cy="0" r="1" gradientUnits="userSpaceOnUse" gradientTransform="translate(11.0571 15.8606) rotate(-92.9927) scale(4.43729 2.91712)">
<stop/>
<stop offset="1" stop-opacity="0"/>
</radialGradient>
<linearGradient id="paint12_linear_413_70" x1="9.43111" y1="22.781" x2="12.0573" y2="10.6333" gradientUnits="userSpaceOnUse">
<stop/>
<stop offset="1" stop-opacity="0"/>
</linearGradient>
<linearGradient id="paint13_linear_413_70" x1="29.5818" y1="43.9641" x2="29.5818" y2="27.9641" gradientUnits="userSpaceOnUse">
<stop stop-color="#5200FF"/>
<stop offset="1" stop-color="#0085FF"/>
</linearGradient>
</defs>
</svg>
