<svg width="41" height="40" viewBox="0 0 41 40" fill="none" xmlns="http://www.w3.org/2000/svg">
<path d="M28.9268 34.4668L27.1125 31.875H34.6125V33.75C34.6125 34.4404 34.0528 35 33.3625 35H29.9508C29.5429 35 29.1607 34.801 28.9268 34.4668Z" fill="url(#paint0_linear_182_84)"/>
<path d="M10.9232 34.4668L12.7375 31.875H5.23749V33.75C5.23749 34.4404 5.79713 35 6.48749 35H9.89917C10.3071 35 10.6893 34.801 10.9232 34.4668Z" fill="url(#paint1_linear_182_84)"/>
<path d="M2.73749 8.75C2.73749 6.67893 4.41642 5 6.48749 5H33.9875C36.0586 5 37.7375 6.67893 37.7375 8.75V28.75C37.7375 30.8211 36.0586 32.5 33.9875 32.5H6.48749C4.41642 32.5 2.73749 30.8211 2.73749 28.75V8.75Z" fill="url(#paint2_linear_182_84)"/>
<path d="M6.48749 10C6.48749 9.30964 7.04713 8.75 7.73749 8.75H32.7375C33.4278 8.75 33.9875 9.30964 33.9875 10V27.5C33.9875 28.1904 33.4278 28.75 32.7375 28.75H7.73749C7.04713 28.75 6.48749 28.1904 6.48749 27.5V10Z" fill="url(#paint3_linear_182_84)"/>
<path d="M18.9875 18.75C18.9875 21.5114 16.7489 23.75 13.9875 23.75C11.2261 23.75 8.98749 21.5114 8.98749 18.75C8.98749 15.9886 11.2261 13.75 13.9875 13.75C16.7489 13.75 18.9875 15.9886 18.9875 18.75Z" fill="url(#paint4_linear_182_84)"/>
<path d="M13.3625 15.625C13.3625 15.2798 13.6423 15 13.9875 15C14.3327 15 14.6125 15.2798 14.6125 15.625V16.146C14.6125 16.6468 14.9592 17.07 15.3133 17.4242C15.6675 17.7783 16.0907 18.125 16.5915 18.125H17.1125C17.4577 18.125 17.7375 18.4048 17.7375 18.75C17.7375 19.0952 17.4577 19.375 17.1125 19.375H16.5915C16.0907 19.375 15.6675 19.7217 15.3133 20.0758C14.9592 20.43 14.6125 20.8532 14.6125 21.354V21.875C14.6125 22.2202 14.3327 22.5 13.9875 22.5C13.6423 22.5 13.3625 22.2202 13.3625 21.875V21.354C13.3625 20.8532 13.0158 20.43 12.6617 20.0758C12.3075 19.7217 11.8843 19.375 11.3835 19.375H10.8625C10.5173 19.375 10.2375 19.0952 10.2375 18.75C10.2375 18.4048 10.5173 18.125 10.8625 18.125H11.3835C11.8843 18.125 12.3075 17.7783 12.6617 17.4242C13.0158 17.07 13.3625 16.6468 13.3625 16.146V15.625Z" fill="url(#paint5_linear_182_84)"/>
<path d="M21.4875 14.375C21.4875 14.0298 21.7673 13.75 22.1125 13.75H23.3625C23.7077 13.75 23.9875 14.0298 23.9875 14.375V15.625C23.9875 15.9702 23.7077 16.25 23.3625 16.25H22.1125C21.7673 16.25 21.4875 15.9702 21.4875 15.625V14.375Z" fill="url(#paint6_linear_182_84)"/>
<path d="M25.2375 14.375C25.2375 14.0298 25.5173 13.75 25.8625 13.75H27.1125C27.4577 13.75 27.7375 14.0298 27.7375 14.375V15.625C27.7375 15.9702 27.4577 16.25 27.1125 16.25H25.8625C25.5173 16.25 25.2375 15.9702 25.2375 15.625V14.375Z" fill="url(#paint7_linear_182_84)"/>
<path d="M29.6125 13.75C29.2673 13.75 28.9875 14.0298 28.9875 14.375V15.625C28.9875 15.9702 29.2673 16.25 29.6125 16.25H30.8625C31.2077 16.25 31.4875 15.9702 31.4875 15.625V14.375C31.4875 14.0298 31.2077 13.75 30.8625 13.75H29.6125Z" fill="url(#paint8_linear_182_84)"/>
<path d="M21.4875 18.125C21.4875 17.7798 21.7673 17.5 22.1125 17.5H23.3625C23.7077 17.5 23.9875 17.7798 23.9875 18.125V19.375C23.9875 19.7202 23.7077 20 23.3625 20H22.1125C21.7673 20 21.4875 19.7202 21.4875 19.375V18.125Z" fill="url(#paint9_linear_182_84)"/>
<path d="M25.2375 18.125C25.2375 17.7798 25.5173 17.5 25.8625 17.5H27.1125C27.4577 17.5 27.7375 17.7798 27.7375 18.125V19.375C27.7375 19.7202 27.4577 20 27.1125 20H25.8625C25.5173 20 25.2375 19.7202 25.2375 19.375V18.125Z" fill="url(#paint10_linear_182_84)"/>
<path d="M29.6125 17.5C29.2673 17.5 28.9875 17.7798 28.9875 18.125V19.375C28.9875 19.7202 29.2673 20 29.6125 20H30.8625C31.2077 20 31.4875 19.7202 31.4875 19.375V18.125C31.4875 17.7798 31.2077 17.5 30.8625 17.5H29.6125Z" fill="url(#paint11_linear_182_84)"/>
<path d="M21.4875 21.875C21.4875 21.5298 21.7673 21.25 22.1125 21.25H23.3625C23.7077 21.25 23.9875 21.5298 23.9875 21.875V23.125C23.9875 23.4702 23.7077 23.75 23.3625 23.75H22.1125C21.7673 23.75 21.4875 23.4702 21.4875 23.125V21.875Z" fill="url(#paint12_linear_182_84)"/>
<path d="M25.2375 21.875C25.2375 21.5298 25.5173 21.25 25.8625 21.25H27.1125C27.4577 21.25 27.7375 21.5298 27.7375 21.875V23.125C27.7375 23.4702 27.4577 23.75 27.1125 23.75H25.8625C25.5173 23.75 25.2375 23.4702 25.2375 23.125V21.875Z" fill="url(#paint13_linear_182_84)"/>
<path d="M29.6125 21.25C29.2673 21.25 28.9875 21.5298 28.9875 21.875V23.125C28.9875 23.4702 29.2673 23.75 29.6125 23.75H30.8625C31.2077 23.75 31.4875 23.4702 31.4875 23.125V21.875C31.4875 21.5298 31.2077 21.25 30.8625 21.25H29.6125Z" fill="url(#paint14_linear_182_84)"/>
<defs>
<linearGradient id="paint0_linear_182_84" x1="33.9875" y1="32.5" x2="27.425" y2="32.5" gradientUnits="userSpaceOnUse">
<stop offset="0.280901" stop-color="#2E2E41"/>
<stop offset="1" stop-color="#566C80"/>
</linearGradient>
<linearGradient id="paint1_linear_182_84" x1="5.86249" y1="32.5" x2="12.425" y2="32.5" gradientUnits="userSpaceOnUse">
<stop stop-color="#566C80"/>
<stop offset="0.66" stop-color="#2E2E41"/>
</linearGradient>
<linearGradient id="paint2_linear_182_84" x1="37.7375" y1="32.5" x2="11.0182" y2="-1.50631" gradientUnits="userSpaceOnUse">
<stop stop-color="#2E2E41"/>
<stop offset="1" stop-color="#566C80"/>
</linearGradient>
<linearGradient id="paint3_linear_182_84" x1="6.48749" y1="8.75" x2="25.5145" y2="34.9122" gradientUnits="userSpaceOnUse">
<stop stop-color="#EFF2F6"/>
<stop offset="1" stop-color="#B7C6CD"/>
</linearGradient>
<linearGradient id="paint4_linear_182_84" x1="18.9875" y1="23.75" x2="8.98749" y2="13.75" gradientUnits="userSpaceOnUse">
<stop stop-color="#2E2E41"/>
<stop offset="1" stop-color="#566C80"/>
</linearGradient>
<linearGradient id="paint5_linear_182_84" x1="10.2375" y1="15" x2="17.7375" y2="22.5" gradientUnits="userSpaceOnUse">
<stop stop-color="white"/>
<stop offset="0.705" stop-color="#EAEFEF"/>
</linearGradient>
<linearGradient id="paint6_linear_182_84" x1="30.8353" y1="16.25" x2="30.8353" y2="13.75" gradientUnits="userSpaceOnUse">
<stop offset="0.340681" stop-color="#2E2E41"/>
<stop offset="1" stop-color="#566C80"/>
</linearGradient>
<linearGradient id="paint7_linear_182_84" x1="30.8353" y1="16.25" x2="30.8353" y2="13.75" gradientUnits="userSpaceOnUse">
<stop offset="0.340681" stop-color="#2E2E41"/>
<stop offset="1" stop-color="#566C80"/>
</linearGradient>
<linearGradient id="paint8_linear_182_84" x1="30.8353" y1="16.25" x2="30.8353" y2="13.75" gradientUnits="userSpaceOnUse">
<stop offset="0.340681" stop-color="#2E2E41"/>
<stop offset="1" stop-color="#566C80"/>
</linearGradient>
<linearGradient id="paint9_linear_182_84" x1="30.8353" y1="20" x2="30.8353" y2="17.5" gradientUnits="userSpaceOnUse">
<stop offset="0.340681" stop-color="#2E2E41"/>
<stop offset="1" stop-color="#566C80"/>
</linearGradient>
<linearGradient id="paint10_linear_182_84" x1="30.8353" y1="20" x2="30.8353" y2="17.5" gradientUnits="userSpaceOnUse">
<stop offset="0.340681" stop-color="#2E2E41"/>
<stop offset="1" stop-color="#566C80"/>
</linearGradient>
<linearGradient id="paint11_linear_182_84" x1="30.8353" y1="20" x2="30.8353" y2="17.5" gradientUnits="userSpaceOnUse">
<stop offset="0.340681" stop-color="#2E2E41"/>
<stop offset="1" stop-color="#566C80"/>
</linearGradient>
<linearGradient id="paint12_linear_182_84" x1="30.8353" y1="23.75" x2="30.8353" y2="21.25" gradientUnits="userSpaceOnUse">
<stop offset="0.340681" stop-color="#2E2E41"/>
<stop offset="1" stop-color="#566C80"/>
</linearGradient>
<linearGradient id="paint13_linear_182_84" x1="30.8353" y1="23.75" x2="30.8353" y2="21.25" gradientUnits="userSpaceOnUse">
<stop offset="0.340681" stop-color="#2E2E41"/>
<stop offset="1" stop-color="#566C80"/>
</linearGradient>
<linearGradient id="paint14_linear_182_84" x1="30.8353" y1="23.75" x2="30.8353" y2="21.25" gradientUnits="userSpaceOnUse">
<stop offset="0.340681" stop-color="#2E2E41"/>
<stop offset="1" stop-color="#566C80"/>
</linearGradient>
</defs>
</svg>
