<svg width="162" height="140" viewBox="0 0 162 140" fill="none" xmlns="http://www.w3.org/2000/svg">
<path d="M154.812 57.5C155.562 56.7083 156.354 56.3125 157.188 56.3125C157.438 56.3125 157.917 56.4167 158.625 56.625C159.333 56.8333 159.979 57.4583 160.562 58.5C160.896 59.0417 161.062 59.625 161.062 60.25C161.062 60.8333 160.917 61.4167 160.625 62C155.042 72 152.25 82.4792 152.25 93.4375C152.25 96.2708 152.438 99.1458 152.812 102.062V102.5C152.812 103.542 152.417 104.396 151.625 105.062C150.833 105.729 149.854 106.083 148.688 106.125H148.5C147.417 106.125 146.479 105.75 145.688 105C142.979 101.792 141.625 98 141.625 93.625C141.625 92.9167 141.667 92.1875 141.75 91.4375C140.333 93.4792 138.875 95.4583 137.375 97.375C135.75 99.5417 133.833 101.604 131.625 103.562C129.417 105.521 126.979 106.896 124.312 107.688C123.146 107.938 122.062 108.062 121.062 108.062C118.271 108.062 116.292 107.042 115.125 105C113.708 102.5 113 99.5 113 96C113 95.625 113.042 94.3333 113.125 92.125C113.25 89.9167 113.729 87.4167 114.562 84.625C115.854 79.4583 118.333 73.875 122 67.875C125.667 61.8333 130.417 58.4792 136.25 57.8125C139.417 57.8125 141.979 58.7292 143.938 60.5625C145.896 62.3958 147.25 64.6875 148 67.4375C149.875 63.8542 152.146 60.5417 154.812 57.5ZM140.875 75.9375C141.25 74.9792 141.458 73.875 141.5 72.625V72.375C141.5 71.25 141.271 70.25 140.812 69.375C140.229 68.5 139.396 67.8333 138.312 67.375C137.688 67.125 137.062 67 136.438 67C136.021 67 135.583 67.0625 135.125 67.1875C133.917 67.7292 132.812 68.6875 131.812 70.0625C130.854 71.3958 130.021 72.7083 129.312 74C129.104 74.375 128.917 74.7083 128.75 75C125.583 80.2083 123.5 85.8125 122.5 91.8125L122.375 92.4375C122.208 93.3958 122.083 94.3542 122 95.3125V95.8125C122 96.5208 122.146 97.0833 122.438 97.5C122.646 97.7083 122.938 97.8125 123.312 97.8125C123.688 97.8125 124.146 97.7083 124.688 97.5C126.062 96.7917 127.354 95.75 128.562 94.375C129.812 93 130.896 91.6875 131.812 90.4375L132.062 90.0625C134.146 87.3125 136.104 84.5 137.938 81.625C138.812 80.2917 139.688 78.9792 140.562 77.6875V77.4375C140.562 76.9375 140.667 76.4375 140.875 75.9375Z" fill="#0E7794"/>
<path d="M113.875 60.5625C114.667 59.9792 115.458 59.6875 116.25 59.6875C116.542 59.6875 117 59.7708 117.625 59.9375C118.292 60.1042 118.896 60.625 119.438 61.5C119.688 61.9167 119.812 62.375 119.812 62.875C119.812 63.4583 119.646 64.0833 119.312 64.75C117.479 67.875 115.458 70.8958 113.25 73.8125C111.125 76.6042 109.167 79.5208 107.375 82.5625C103.583 89.0625 100.604 95.9167 98.4375 103.125C97.9375 104.583 96.9375 105.542 95.4375 106C95.0208 106.167 94.6042 106.25 94.1875 106.25C93.2292 106.25 92.3333 105.833 91.5 105C89.25 102.208 87.875 99.0417 87.375 95.5C87.0417 93.1667 86.875 90.8333 86.875 88.5C86.875 87.3333 86.9167 86.1667 87 85C87.3333 76.7083 89.2083 68.8125 92.625 61.3125C93.25 60.1458 94.1042 59.5625 95.1875 59.5625C95.2292 59.5625 95.5417 59.5625 96.125 59.5625C96.75 59.5625 97.4792 60 98.3125 60.875C98.8958 61.4583 99.1875 62.1667 99.1875 63C99.1875 63.3333 99.1458 63.6875 99.0625 64.0625C97.1458 69.8125 95.9167 75.7083 95.375 81.75C95.3333 82.1667 95.2917 82.625 95.25 83.125C95.0833 85.0417 94.9792 87.1667 94.9375 89.5C96.3958 86.0417 98.0625 82.6667 99.9375 79.375C103.438 72.2083 108.083 65.9375 113.875 60.5625Z" fill="#0C5A92"/>
<path d="M83.75 75.875C82.7917 86.1667 78.1458 94.4583 69.8125 100.75C68.0208 102.25 66.0417 103.479 63.875 104.438C62.7083 104.979 61.5417 105.25 60.375 105.25C59.2917 105.25 58.1875 105.021 57.0625 104.562C55.1458 103.604 53.8125 102.229 53.0625 100.438C52.4375 98.8542 52.125 97.1458 52.125 95.3125V94.6875C52.75 84.1875 56.8958 75.3125 64.5625 68.0625C64.1042 67.3542 63.875 66.6042 63.875 65.8125C63.875 65.6875 63.8958 65.375 63.9375 64.875C63.9792 64.3333 64.5208 63.8333 65.5625 63.375C67.5208 62.625 69.375 62.25 71.125 62.25C73.625 62.25 76.3125 63.2917 79.1875 65.375C82.0625 67.4167 83.5833 70.9167 83.75 75.875ZM66.125 93.3125C70.2917 89.9792 73.2292 85.7917 74.9375 80.75C75.3958 79.4167 75.7083 77.9167 75.875 76.25C75.9167 76 75.9375 75.75 75.9375 75.5C75.9375 74.125 75.5208 72.9167 74.6875 71.875C73.9375 71.1667 72.9167 70.7292 71.625 70.5625C71.4583 70.8958 71.2292 71.2292 70.9375 71.5625C66.9792 75.8958 64.0625 80.8333 62.1875 86.375C62.1458 86.5 62.1042 86.6458 62.0625 86.8125C61.6458 88.0208 61.25 89.3333 60.875 90.75C60.625 91.875 60.5 92.9375 60.5 93.9375V94.6875C60.375 95.2292 60.3125 95.6667 60.3125 96C60.3125 96.625 60.5 96.9375 60.875 96.9375C61.25 96.9375 61.8542 96.5625 62.6875 95.8125C63.8958 95.0625 65.0417 94.2292 66.125 93.3125Z" fill="#21448A"/>
<path d="M10 98.3125C9.58333 100.604 8.41667 101.896 6.5 102.188C6.29167 102.229 6.10417 102.25 5.9375 102.25C4.27083 102.25 2.97917 101.292 2.0625 99.375C0.6875 94.5417 0 89.5417 0 84.375C0 82.5833 0.0833333 80.7917 0.25 79V77.125C0.5 70.375 1.22917 63.6667 2.4375 57C4.4375 43 9.16667 30.0208 16.625 18.0625C16.6667 17.9792 16.6875 17.8958 16.6875 17.8125C16.7292 17.7292 16.75 17.6458 16.75 17.5625C17.2917 16.1042 18.1875 15.2708 19.4375 15.0625C19.6875 15.0208 19.9167 15 20.125 15C21.0833 15 21.9375 15.3333 22.6875 16C23.4375 16.625 23.8125 17.4792 23.8125 18.5625C23.8125 18.8542 23.7917 19.1667 23.75 19.5C22.8333 24.125 22.375 28.7917 22.375 33.5C22.375 36.9167 22.7708 41.5625 23.5625 47.4375C24.3958 53.2708 25.9167 60.1042 28.125 67.9375C30.0417 75.3125 32.375 82.5417 35.125 89.625C36.0417 91.9167 37.0833 94.0833 38.25 96.125C38.2083 94.9167 38.1875 93.6875 38.1875 92.4375C38.1875 77.7292 40.0417 63.2292 43.75 48.9375C46.375 39.6458 49.6458 30.6042 53.5625 21.8125C56.4375 13.4792 61.0625 6.39583 67.4375 0.5625C68.0208 0.1875 68.5833 0 69.125 0C69.5 0 70.0208 0.145833 70.6875 0.4375C71.3542 0.729167 71.8958 1.375 72.3125 2.375C72.5208 2.79167 72.625 3.20833 72.625 3.625C72.625 4.16667 72.4583 4.70833 72.125 5.25C62.1667 20.5 55.4167 37 51.875 54.75C49.0833 68.5 47.6875 82.3125 47.6875 96.1875C47.6875 100.229 47.8125 104.271 48.0625 108.312C48.0625 109.646 47.7083 110.688 47 111.438C46.3333 112.188 45.4792 112.625 44.4375 112.75C43.7708 113.25 43.0625 113.5 42.3125 113.5C41.7292 113.5 41.1042 113.354 40.4375 113.062C37.1875 111.104 34.5417 108.438 32.5 105.062C30.4583 101.646 28.75 98.2292 27.375 94.8125C24.125 86.8542 21.4792 78.6875 19.4375 70.3125C17.1458 61.7708 15.5208 52.9375 14.5625 43.8125C13.1875 48.1458 12.0833 52.625 11.25 57.25C10.0833 64.1667 9.45833 71.1458 9.375 78.1875V79.25C9.375 81.7083 9.5 84.1875 9.75 86.6875C10.0417 89.1042 10.1875 91.5 10.1875 93.875C10.1875 95.375 10.125 96.8542 10 98.3125Z" fill="#192B55"/>
<path d="M153.816 131.932C154.792 131.932 155.632 131.772 156.336 131.452C157.04 131.116 157.776 130.588 158.544 129.868L160.368 131.74C158.592 133.708 156.432 134.692 153.888 134.692C151.36 134.692 149.256 133.876 147.576 132.244C145.912 130.612 145.08 128.548 145.08 126.052C145.08 123.556 145.928 121.476 147.624 119.812C149.336 118.148 151.488 117.316 154.08 117.316C156.688 117.316 158.864 118.276 160.608 120.196L158.808 122.164C158.008 121.396 157.248 120.86 156.528 120.556C155.824 120.252 154.992 120.1 154.032 120.1C152.336 120.1 150.912 120.652 149.76 121.756C148.608 122.844 148.032 124.244 148.032 125.956C148.032 127.652 148.6 129.076 149.736 130.228C150.888 131.364 152.248 131.932 153.816 131.932Z" fill="black"/>
<path d="M129.262 117.724H132.094V125.908L139.774 117.724H143.374L136.63 125.068L143.47 134.5H140.11L134.542 127.156L132.094 129.796V134.5H129.262V117.724Z" fill="black"/>
<path d="M119.66 134.5H112.316V117.724H118.844C119.98 117.724 120.956 117.86 121.772 118.132C122.604 118.404 123.22 118.772 123.62 119.236C124.388 120.1 124.772 121.076 124.772 122.164C124.772 123.476 124.356 124.452 123.524 125.092C123.22 125.316 123.012 125.46 122.9 125.524C122.788 125.572 122.588 125.66 122.3 125.788C123.34 126.012 124.164 126.484 124.772 127.204C125.396 127.908 125.708 128.788 125.708 129.844C125.708 131.012 125.308 132.044 124.508 132.94C123.564 133.98 121.948 134.5 119.66 134.5ZM115.148 124.684H118.748C120.796 124.684 121.82 123.988 121.82 122.596C121.82 121.796 121.572 121.22 121.076 120.868C120.58 120.516 119.812 120.34 118.772 120.34H115.148V124.684ZM115.148 131.884H119.588C120.628 131.884 121.42 131.724 121.964 131.404C122.524 131.068 122.804 130.444 122.804 129.532C122.804 128.044 121.612 127.3 119.228 127.3H115.148V131.884Z" fill="black"/>
<path d="M93.1731 139.588C92.0051 139.588 90.9491 139.164 90.0051 138.316L91.2291 136.132C91.7891 136.66 92.3651 136.924 92.9571 136.924C93.5651 136.924 94.0531 136.708 94.4211 136.276C94.8051 135.844 94.9971 135.372 94.9971 134.86C94.9971 134.636 93.2771 130.26 89.8371 121.732H92.7171L96.5331 131.14L100.349 121.732H103.229L97.0371 136.9C96.6691 137.732 96.1411 138.388 95.4531 138.868C94.7651 139.348 94.0051 139.588 93.1731 139.588Z" fill="black"/>
<path d="M82.2801 121.54C83.9921 121.54 85.4561 122.132 86.6721 123.316C87.8881 124.5 88.4961 126.076 88.4961 128.044C88.4961 130.012 87.8881 131.612 86.6721 132.844C85.4721 134.076 84.0641 134.692 82.4481 134.692C80.8481 134.692 79.4081 133.988 78.1281 132.58V134.5H75.4401V116.692H78.1281V123.964C79.1841 122.348 80.5681 121.54 82.2801 121.54ZM78.0801 128.14C78.0801 129.356 78.4481 130.356 79.1841 131.14C79.9201 131.908 80.8161 132.292 81.8721 132.292C82.9281 132.292 83.8481 131.908 84.6321 131.14C85.4161 130.372 85.8081 129.38 85.8081 128.164C85.8081 126.932 85.4241 125.916 84.6561 125.116C83.8881 124.3 82.9681 123.892 81.8961 123.892C80.8241 123.892 79.9201 124.3 79.1841 125.116C78.4481 125.916 78.0801 126.924 78.0801 128.14Z" fill="black"/>
</svg>
