<svg width="61" height="60" viewBox="0 0 61 60" fill="none" xmlns="http://www.w3.org/2000/svg">
<path fill-rule="evenodd" clip-rule="evenodd" d="M22.3829 2.79464C21.5412 -0.931548 16.232 -0.931548 15.3903 2.79464C14.8448 5.20959 12.0735 6.3575 9.98014 5.0356C6.75016 2.99595 2.99595 6.75016 5.0356 9.98014C6.3575 12.0735 5.20959 14.8448 2.79464 15.3903C-0.931548 16.232 -0.931548 21.5412 2.79464 22.3829C5.20959 22.9284 6.3575 25.6997 5.0356 27.7931C2.99595 31.023 6.75016 34.7773 9.98014 32.7376C12.0735 31.4157 14.8448 32.5636 15.3903 34.9786C16.232 38.7048 21.5412 38.7048 22.3829 34.9786C22.9284 32.5636 25.6997 31.4157 27.7931 32.7376C31.023 34.7773 34.7773 31.023 32.7376 27.7931C31.4157 25.6997 32.5636 22.9284 34.9786 22.3829C38.7047 21.5412 38.7047 16.232 34.9786 15.3903C32.5636 14.8448 31.4157 12.0735 32.7376 9.98014C34.7773 6.75016 31.023 2.99595 27.7931 5.0356C25.6997 6.3575 22.9284 5.20959 22.3829 2.79464ZM18.8866 26.3149C22.9891 26.3149 26.3149 22.9891 26.3149 18.8866C26.3149 14.7841 22.9891 11.4583 18.8866 11.4583C14.7841 11.4583 11.4583 14.7841 11.4583 18.8866C11.4583 22.9891 14.7841 26.3149 18.8866 26.3149Z" fill="url(#paint0_linear_3037_17)"/>
<path fill-rule="evenodd" clip-rule="evenodd" d="M48.5078 29.241C48.7219 26.2437 44.724 25.0356 43.2424 27.6498C42.2821 29.3442 39.9341 29.5779 38.6587 28.1062C36.6906 25.8354 33.0095 27.808 33.8103 30.7043C34.3294 32.5813 32.8344 34.4069 30.8918 34.2681C27.8945 34.054 26.6864 38.0518 29.3007 39.5335C30.995 40.4938 31.2287 42.8417 29.757 44.1172C27.4862 46.0852 29.4588 49.7664 32.3551 48.9655C34.2322 48.4465 36.0577 49.9415 35.9189 51.884C35.7048 54.8813 39.7027 56.0895 41.1843 53.4752C42.1446 51.7809 44.4926 51.5471 45.7681 53.0189C47.7361 55.2897 51.4172 53.3171 50.6164 50.4208C50.0973 48.5437 51.5923 46.7182 53.5349 46.8569C56.5322 47.071 57.7403 43.0732 55.126 41.5915C53.4317 40.6313 53.198 38.2833 54.6697 37.0078C56.9405 35.0398 54.9679 31.3586 52.0716 32.1595C50.1945 32.6785 48.369 31.1836 48.5078 29.241ZM40.5231 46.156C43.6122 47.0895 46.8733 45.342 47.8068 42.2528C48.7403 39.1636 46.9928 35.9026 43.9037 34.9691C40.8145 34.0355 37.5534 35.783 36.6199 38.8722C35.6864 41.9614 37.4339 45.2224 40.5231 46.156Z" fill="url(#paint1_linear_3037_17)"/>
<defs>
<linearGradient id="paint0_linear_3037_17" x1="31.5" y1="23.5" x2="3.5" y2="15" gradientUnits="userSpaceOnUse">
<stop stop-color="#0029FF"/>
<stop offset="0.75" stop-color="#0085FF"/>
</linearGradient>
<linearGradient id="paint1_linear_3037_17" x1="28" y1="35.5" x2="53.5" y2="45" gradientUnits="userSpaceOnUse">
<stop stop-color="#FFE607"/>
<stop offset="0.75" stop-color="#FF7E07"/>
</linearGradient>
</defs>
</svg>
